<svg width="75" height="75" viewBox="0 0 75 75" fill="none" xmlns="http://www.w3.org/2000/svg">
<mask id="mask0_1575_1737" style="mask-type:luminance" maskUnits="userSpaceOnUse" x="0" y="0" width="74" height="71">
<path d="M0 0H73.9476V70.9684H0V0Z" fill="white"/>
</mask>
<g mask="url(#mask0_1575_1737)">
<path d="M9.29533 0.0878906H61.4055C62.636 0.0878906 63.8369 0.322303 64.9636 0.791128C66.1051 1.25995 67.1132 1.91924 67.9879 2.78363C68.8626 3.64803 69.5297 4.64428 70.0041 5.77239C70.4785 6.88585 70.7157 8.07256 70.7157 9.28858V60.7861C70.7157 62.0021 70.4785 63.1741 70.0041 64.3022C69.5297 65.4304 68.8626 66.4266 67.9879 67.291C67.1132 68.1554 66.1051 68.8147 64.9636 69.2835C63.8369 69.7523 62.636 69.9867 61.4055 69.9867H9.29533C8.06485 69.9867 6.87884 69.7523 5.73731 69.2835C4.59578 68.8147 3.58767 68.1554 2.71299 67.291C1.85314 66.4266 1.17118 65.4304 0.696779 64.3022C0.222376 63.1741 0 62.0021 0 60.7861V9.28858C0 8.07256 0.222376 6.88585 0.696779 5.77239C1.17118 4.64428 1.85314 3.64803 2.71299 2.78363C3.58767 1.91924 4.59578 1.25995 5.73731 0.791128C6.87884 0.322303 8.06485 0.0878906 9.29533 0.0878906Z" fill="#6EE7FF"/>
</g>
<mask id="mask1_1575_1737" style="mask-type:luminance" maskUnits="userSpaceOnUse" x="0" y="0" width="71" height="71">
<path d="M0 0H70.1524V70.9684H0V0Z" fill="white"/>
</mask>
<g mask="url(#mask1_1575_1737)">
<path d="M65.1266 66.2936H9.29534C6.21172 66.2936 3.7211 63.8323 3.7211 60.7849V5.61007C3.7211 4.01314 4.16585 2.54806 4.87746 1.24414C1.98656 2.79712 0 5.80053 0 9.28742V60.7849C0 65.8541 4.16585 69.9856 9.29534 69.9856H61.4055C64.9339 69.9856 67.9731 68.0077 69.5445 65.1508C68.2251 65.8541 66.7426 66.2936 65.1266 66.2936Z" fill="#47CAF0"/>
</g>
<mask id="mask2_1575_1737" style="mask-type:luminance" maskUnits="userSpaceOnUse" x="0" y="29" width="74" height="42">
<path d="M0 29.7119H73.9476V70.9685H0V29.7119Z" fill="white"/>
</mask>
<g mask="url(#mask2_1575_1737)">
<path d="M70.7157 49.7533L52.7773 32.6266C49.8864 29.8576 45.3055 29.8576 42.4294 32.6266L30.7324 43.7904C29.2944 45.1676 27.0113 45.1676 25.5585 43.7904L21.1554 39.571C18.2645 36.8167 13.6836 36.8167 10.8075 39.571L0 49.8998V60.7853C0 65.8692 4.16585 69.986 9.29533 69.986H61.4055C66.5499 69.986 70.7157 65.8692 70.7157 60.7853V49.7533Z" fill="#00D18D"/>
</g>
<mask id="mask3_1575_1737" style="mask-type:luminance" maskUnits="userSpaceOnUse" x="0" y="44" width="71" height="27">
<path d="M0 44.7158H70.1524V70.97H0V44.7158Z" fill="white"/>
</mask>
<g mask="url(#mask3_1575_1737)">
<path d="M65.1266 66.2962H9.29534C6.21172 66.2962 3.7211 63.8348 3.7211 60.7875V46.3418L0 49.9019V60.7875C0 65.8566 4.16585 69.9881 9.29534 69.9881H61.4055C64.9339 69.9881 67.9731 68.0103 69.5445 65.1534C68.2251 65.8566 66.7426 66.2962 65.1266 66.2962Z" fill="#00AF92"/>
</g>
<path d="M70.7168 60.788V49.756L52.7784 32.6292C51.459 31.3693 49.7986 30.71 48.1085 30.6074C48.3013 30.8711 55.5211 40.526 52.1113 47.91C48.9387 54.7519 44.6543 57.1107 44.6543 69.9887H61.4067C66.551 69.9887 70.7168 65.8572 70.7168 60.788Z" fill="#00AF92"/>
<path d="M25.5563 43.792L21.1532 39.5726C19.8634 38.3419 18.2327 37.6826 16.5723 37.5654C18.6181 40.5835 20.4713 46.0922 21.2866 52.8169L30.7451 43.792C29.2922 45.1692 27.0091 45.1692 25.5711 43.792H25.5563Z" fill="#00AF92"/>
<path d="M29.768 19.3978C29.768 20.4966 29.5604 21.5515 29.1305 22.5624C28.7006 23.5879 28.1076 24.4816 27.3218 25.2581C26.5361 26.0346 25.6318 26.6206 24.594 27.0455C23.5711 27.4704 22.5037 27.6755 21.3918 27.6755C20.2799 27.6755 19.2125 27.4704 18.1896 27.0455C17.1666 26.6206 16.2623 26.0346 15.4766 25.2581C14.6909 24.4816 14.083 23.5879 13.6531 22.5624C13.238 21.5515 13.0156 20.4966 13.0156 19.3978C13.0156 18.299 13.238 17.2441 13.6531 16.2332C14.083 15.2223 14.6909 14.3286 15.4766 13.5521C16.2623 12.7757 17.1666 12.175 18.1896 11.7501C19.2125 11.3399 20.2799 11.1201 21.3918 11.1201C22.5037 11.1201 23.5711 11.3399 24.594 11.7501C25.6318 12.175 26.5361 12.7757 27.3218 13.5521C28.1076 14.3286 28.7006 15.2223 29.1305 16.2332C29.5604 17.2441 29.768 18.299 29.768 19.3978Z" fill="#47CAF0"/>
<path d="M26.0492 17.5677C26.0492 18.6665 25.8417 19.7214 25.4118 20.7323C24.9818 21.7432 24.3888 22.6369 23.6031 23.4134C22.8174 24.1899 21.913 24.7906 20.8753 25.2154C19.8523 25.6257 18.7849 25.8454 17.6731 25.8454C16.5612 25.8454 15.4938 25.6257 14.4708 25.2154C13.4479 24.7906 12.5436 24.1899 11.7578 23.4134C10.9721 22.6369 10.3643 21.7432 9.93435 20.7323C9.51926 19.7214 9.29688 18.6665 9.29688 17.5677C9.29688 16.4689 9.51926 15.4141 9.93435 14.4032C10.3643 13.3776 10.9721 12.4839 11.7578 11.7074C12.5436 10.9309 13.4479 10.3302 14.4708 9.92002C15.4938 9.49515 16.5612 9.29004 17.6731 9.29004C18.7849 9.29004 19.8523 9.49515 20.8753 9.92002C21.913 10.3302 22.8174 10.9309 23.6031 11.7074C24.3888 12.4839 24.9818 13.3776 25.4118 14.4032C25.8417 15.4141 26.0492 16.4689 26.0492 17.5677Z" fill="white"/>
<mask id="mask4_1575_1737" style="mask-type:luminance" maskUnits="userSpaceOnUse" x="39" y="22" width="36" height="53">
<path d="M39.7891 22.2119H74.9987V74.1196H39.7891V22.2119Z" fill="white"/>
</mask>
<g mask="url(#mask4_1575_1737)">
<path d="M49.7962 70.6913L44.8298 73.431C43.5993 74.105 42.0871 73.2406 42.0575 71.8487L41.9685 66.2228C41.9389 64.8896 42.2947 63.5857 42.9618 62.4283L64.2655 25.9625C65.2884 24.2044 67.5715 23.6037 69.3505 24.6146L72.5675 26.4606C74.3613 27.4715 74.9692 29.7278 73.9314 31.4859L52.6278 67.9516C51.9606 69.0944 50.9822 70.0467 49.7962 70.6913Z" fill="#005CCC"/>
</g>
<mask id="mask5_1575_1737" style="mask-type:luminance" maskUnits="userSpaceOnUse" x="39" y="59" width="16" height="16">
<path d="M39.7891 59.7168H54.97V74.1185H39.7891V59.7168Z" fill="white"/>
</mask>
<g mask="url(#mask5_1575_1737)">
<path d="M42.8749 62.6045C42.2671 63.718 41.941 64.9633 41.9706 66.2232L42.0596 71.8491C42.0892 73.241 43.6014 74.1054 44.8319 73.4314L49.7983 70.6917C50.925 70.0764 51.8441 69.1827 52.5261 68.1132L42.8749 62.6045Z" fill="#0588E2"/>
</g>
<mask id="mask6_1575_1737" style="mask-type:luminance" maskUnits="userSpaceOnUse" x="58" y="22" width="18" height="16">
<path d="M58.7676 22.2119H75.0011V37.2143H58.7676V22.2119Z" fill="white"/>
</mask>
<g mask="url(#mask6_1575_1737)">
<path d="M71.121 36.306L61.4551 30.7826L64.2718 25.9625C65.2948 24.2044 67.5778 23.6037 69.3569 24.6146L72.5739 26.4606C74.3677 27.4715 74.9756 29.7278 73.9378 31.4859L71.121 36.306Z" fill="#0588E2"/>
</g>
<path d="M58.1577 43.7758L60.9449 38.9996C61.2117 38.5601 61.5823 38.2671 62.0864 38.1353C62.5756 38.0034 63.05 38.062 63.4948 38.3257C63.9395 38.5748 64.2212 38.941 64.3546 39.4392C64.4881 39.9226 64.4288 40.3915 64.1767 40.831L61.3748 45.6071C61.1228 46.0467 60.7521 46.3397 60.2481 46.4715C59.7588 46.6034 59.2844 46.5448 58.8397 46.2811C58.3949 46.032 58.0984 45.6657 57.965 45.1676C57.8464 44.6841 57.9057 44.2153 58.1577 43.7758Z" fill="#0588E2"/>
</svg>
