<svg width="75" height="75" viewBox="0 0 75 75" fill="none" xmlns="http://www.w3.org/2000/svg">
<path d="M65.5064 9.08873C65.5064 9.0592 65.5064 9.01491 65.5064 8.98539C65.5064 6.41658 63.4199 4.33496 60.8484 4.33496C58.2916 4.33496 56.2051 6.41658 56.2051 8.98539C56.2051 9.01491 56.2051 9.0592 56.2051 9.08873H65.5064Z" fill="#C4C2C1"/>
<mask id="mask0_1571_1328" style="mask-type:luminance" maskUnits="userSpaceOnUse" x="2" y="2" width="61" height="73">
<path d="M2.2207 2.20898H62.4077V74.5046H2.2207V2.20898Z" fill="white"/>
</mask>
<g mask="url(#mask0_1571_1328)">
<path d="M60.8493 4.33496H9.33186C6.76039 4.33496 4.67383 6.41658 4.67383 8.98539C4.67383 9.01491 4.67383 9.04444 4.67383 9.08873V74.5195H51.548C54.1194 74.5195 56.206 72.4526 56.206 69.8838C56.206 69.8395 56.206 69.81 56.1913 69.7805L56.206 69.7657V9.08873C56.206 9.0592 56.206 9.01491 56.206 8.98539C56.206 6.41658 58.2926 4.33496 60.8493 4.33496Z" fill="white"/>
</g>
<mask id="mask1_1571_1328" style="mask-type:luminance" maskUnits="userSpaceOnUse" x="0" y="66" width="55" height="9">
<path d="M0 66.459H54.8824V74.505H0V66.459Z" fill="white"/>
</mask>
<g mask="url(#mask1_1571_1328)">
<path d="M46.9033 69.8857C46.9033 69.8414 46.9033 69.8119 46.9033 69.7676H0.102585C0.102585 69.8119 0.0878906 69.8414 0.0878906 69.8857C0.0878906 72.425 2.14506 74.4771 4.67245 74.5213H51.5466C48.9751 74.5213 46.9033 72.4545 46.9033 69.8857Z" fill="#C4C2C1"/>
</g>
<path fill-rule="evenodd" clip-rule="evenodd" d="M52.9721 36.1053H8.50781V35.249H52.9721V36.1053Z" fill="#4D94C4"/>
<path fill-rule="evenodd" clip-rule="evenodd" d="M38.7483 37.8476H8.50781V36.9766H38.7483V37.8476Z" fill="#4D94C4"/>
<path fill-rule="evenodd" clip-rule="evenodd" d="M42.5834 39.5751H8.50781V38.7041H42.5834V39.5751Z" fill="#4D94C4"/>
<path fill-rule="evenodd" clip-rule="evenodd" d="M47.6676 41.3163H8.50781V40.4453H47.6676V41.3163Z" fill="#4D94C4"/>
<path fill-rule="evenodd" clip-rule="evenodd" d="M44.2879 9.78119H8.50781V8.91016H44.2879V9.78119Z" fill="#4D94C4"/>
<path fill-rule="evenodd" clip-rule="evenodd" d="M36.3678 11.5087H8.50781V10.6377H36.3678V11.5087Z" fill="#4D94C4"/>
<path fill-rule="evenodd" clip-rule="evenodd" d="M32.7678 13.2381H8.50781V12.3818H32.7678V13.2381Z" fill="#4D94C4"/>
<path fill-rule="evenodd" clip-rule="evenodd" d="M32.7678 14.9804H8.50781V14.1094H32.7678V14.9804Z" fill="#4D94C4"/>
<path fill-rule="evenodd" clip-rule="evenodd" d="M32.7678 16.7069H8.50781V15.8506H32.7678V16.7069Z" fill="#4D94C4"/>
<path fill-rule="evenodd" clip-rule="evenodd" d="M32.7678 18.3309H8.50781V17.4746H32.7678V18.3309Z" fill="#4D94C4"/>
<path fill-rule="evenodd" clip-rule="evenodd" d="M32.7678 20.0732H8.50781V19.2021H32.7678V20.0732Z" fill="#4D94C4"/>
<path fill-rule="evenodd" clip-rule="evenodd" d="M32.7678 21.8007H8.50781V20.9297H32.7678V21.8007Z" fill="#4D94C4"/>
<path fill-rule="evenodd" clip-rule="evenodd" d="M32.7678 23.5272H8.50781V22.6709H32.7678V23.5272Z" fill="#4D94C4"/>
<path fill-rule="evenodd" clip-rule="evenodd" d="M22.6876 25.2695H8.50781V24.3984H22.6876V25.2695Z" fill="#4D94C4"/>
<path d="M51.651 68.1557H11.2129V42.4824H11.3892V67.9786H51.651V68.1557Z" fill="#7E7F80"/>
<path d="M51.6508 63.6384H11.3008V63.5498H51.6508V63.6384Z" fill="#7E7F80"/>
<path d="M51.6508 58.899H11.3008V58.8252H51.6508V58.899Z" fill="#7E7F80"/>
<path d="M51.6508 54.1745H11.3008V54.0859H51.6508V54.1745Z" fill="#7E7F80"/>
<path d="M51.6508 49.4519H11.3008V49.3633H51.6508V49.4519Z" fill="#7E7F80"/>
<path d="M51.6508 44.7125H11.3008V44.6387H51.6508V44.7125Z" fill="#7E7F80"/>
<path d="M10.4781 68.9535C10.5369 68.9535 10.5663 68.9388 10.581 68.8945C10.5957 68.8649 10.5957 68.8207 10.5957 68.5254C10.5957 68.2301 10.5957 68.2006 10.581 68.1711C10.5663 68.1268 10.5369 68.0973 10.4781 68.0973C10.4194 68.0973 10.39 68.1268 10.3753 68.1711C10.3753 68.2006 10.3606 68.2301 10.3606 68.5254C10.3606 68.8207 10.3753 68.8649 10.3753 68.8945C10.39 68.9388 10.4194 68.9535 10.4781 68.9535ZM10.2871 68.5254C10.2871 68.2154 10.3018 68.1858 10.3018 68.1415C10.3312 68.0677 10.39 68.0234 10.4781 68.0234C10.5663 68.0234 10.6251 68.0677 10.6545 68.1415C10.6692 68.1858 10.6692 68.2154 10.6692 68.5254C10.6692 68.8354 10.6692 68.8797 10.6545 68.9092C10.6251 68.983 10.5663 69.0273 10.4781 69.0273C10.39 69.0273 10.3312 68.983 10.3018 68.9092C10.3018 68.8797 10.2871 68.8354 10.2871 68.5254Z" fill="#7E7F80"/>
<path d="M9.94968 65.6013L9.81743 65.7046C9.81743 65.7046 9.80273 65.7046 9.80273 65.6899V65.6456C9.80273 65.6308 9.80274 65.6308 9.81743 65.616L9.93498 65.5127C9.94968 65.5127 9.94968 65.5127 9.96437 65.5127H10.0085C10.0085 65.5127 10.0231 65.5127 10.0231 65.5275V66.4723L10.0085 66.4871H9.96437C9.94968 66.4871 9.94968 66.4723 9.94968 66.4723V65.6013Z" fill="#7E7F80"/>
<path d="M10.4781 66.4291C10.5369 66.4291 10.5663 66.3996 10.581 66.3553C10.5957 66.3258 10.5957 66.2962 10.5957 66.001C10.5957 65.6909 10.5957 65.6614 10.581 65.6319C10.5663 65.5876 10.5369 65.5581 10.4781 65.5581C10.4194 65.5581 10.39 65.5876 10.3753 65.6319C10.3606 65.6614 10.3606 65.6909 10.3606 66.001C10.3606 66.2962 10.3606 66.3258 10.3753 66.3553C10.39 66.3996 10.4194 66.4291 10.4781 66.4291ZM10.2871 66.001C10.2871 65.6909 10.3018 65.6467 10.3018 65.6171C10.3312 65.5285 10.39 65.499 10.4781 65.499C10.5663 65.499 10.6251 65.5285 10.6545 65.6171C10.6692 65.6467 10.6692 65.6909 10.6692 66.001C10.6692 66.311 10.6692 66.3405 10.6545 66.3701C10.6251 66.4586 10.5663 66.5029 10.4781 66.5029C10.39 66.5029 10.3312 66.4586 10.3018 66.3701C10.3018 66.3405 10.2871 66.311 10.2871 66.001Z" fill="#7E7F80"/>
<path d="M9.75781 64.0375C9.75781 64.0375 9.75781 64.0227 9.77251 64.0227L10.0076 63.5356C10.037 63.4765 10.0664 63.4174 10.0664 63.3436C10.0664 63.2846 10.0517 63.2698 10.0517 63.2551C10.037 63.196 9.99292 63.1812 9.94884 63.1812C9.89006 63.1812 9.86067 63.196 9.84598 63.2551C9.83128 63.2698 9.83128 63.2846 9.83128 63.3584C9.83128 63.3732 9.83129 63.3732 9.81659 63.3732H9.77251L9.75781 63.3584C9.75781 63.2846 9.77251 63.2551 9.77251 63.2255C9.8019 63.1517 9.86067 63.1074 9.94884 63.1074C10.037 63.1074 10.0958 63.1517 10.1252 63.2255C10.1252 63.2551 10.1252 63.2846 10.1252 63.3436C10.1252 63.447 10.1105 63.4913 10.0664 63.5651L9.84598 64.0227H10.1105C10.1252 64.0227 10.1252 64.0375 10.1252 64.0375V64.0818C10.1252 64.0966 10.1252 64.0966 10.1105 64.0966H9.77251C9.77251 64.0966 9.75781 64.0966 9.75781 64.0818V64.0375Z" fill="#7E7F80"/>
<path d="M10.4781 64.0375C10.5369 64.0375 10.5663 64.008 10.581 63.9637C10.5957 63.9489 10.5957 63.9046 10.5957 63.6094C10.5957 63.3141 10.5957 63.2698 10.581 63.2551C10.5663 63.196 10.5369 63.1812 10.4781 63.1812C10.4194 63.1812 10.39 63.196 10.3753 63.2551C10.3606 63.2698 10.3606 63.3141 10.3606 63.6094C10.3606 63.9046 10.3606 63.9489 10.3753 63.9637C10.39 64.008 10.4194 64.0375 10.4781 64.0375ZM10.2871 63.6094C10.2871 63.2993 10.3018 63.2551 10.3018 63.2255C10.3312 63.1517 10.39 63.1074 10.4781 63.1074C10.5663 63.1074 10.6251 63.1517 10.6545 63.2255C10.6692 63.2551 10.6692 63.2993 10.6692 63.6094C10.6692 63.9194 10.6692 63.9637 10.6545 63.9932C10.6251 64.067 10.5663 64.1113 10.4781 64.1113C10.39 64.1113 10.3312 64.067 10.3018 63.9932C10.3018 63.9637 10.2871 63.9194 10.2871 63.6094Z" fill="#7E7F80"/>
<path d="M9.75781 61.4824C9.75781 61.4677 9.77251 61.4677 9.77251 61.4677L9.81659 61.4529L9.83128 61.4677C9.83128 61.5415 9.83128 61.5562 9.84598 61.5858C9.86067 61.63 9.89006 61.6448 9.94884 61.6448C9.99292 61.6448 10.037 61.63 10.0517 61.5858C10.0517 61.5562 10.0664 61.5415 10.0664 61.4381C10.0664 61.3348 10.0517 61.32 10.0517 61.3053C10.037 61.261 9.99292 61.2314 9.93414 61.2314H9.91945C9.90475 61.2314 9.90475 61.2167 9.90475 61.2167V61.1724C9.90475 61.1724 9.90475 61.1576 9.91945 61.1576H9.93414C9.99292 61.1576 10.037 61.1429 10.0517 61.0986C10.0517 61.069 10.0664 61.0543 10.0664 60.9805C10.0664 60.8919 10.0517 60.8771 10.0517 60.8624C10.037 60.8181 9.99292 60.7885 9.94884 60.7885C9.89006 60.7885 9.86067 60.8181 9.84598 60.8624C9.83128 60.8771 9.83128 60.8919 9.83128 60.9657C9.83128 60.9805 9.81659 60.9805 9.81659 60.9805H9.77251C9.77251 60.9657 9.75781 60.9657 9.75781 60.9509C9.75781 60.8919 9.77251 60.8624 9.77251 60.8328C9.8019 60.759 9.86067 60.7295 9.94884 60.7295C10.037 60.7295 10.0958 60.759 10.1105 60.8328C10.1252 60.8624 10.1252 60.8919 10.1252 60.9805C10.1252 61.0543 10.1252 61.0838 10.1252 61.1133C10.1105 61.1429 10.0811 61.1724 10.037 61.2019C10.0811 61.2167 10.1105 61.2462 10.1252 61.2905C10.1252 61.3053 10.1252 61.3348 10.1252 61.4381C10.1252 61.5415 10.1252 61.571 10.1105 61.6005C10.0958 61.6743 10.037 61.7186 9.94884 61.7186C9.86067 61.7186 9.8019 61.6743 9.77251 61.6005C9.77251 61.571 9.75781 61.5415 9.75781 61.4824Z" fill="#7E7F80"/>
<path d="M10.4781 61.6448C10.5369 61.6448 10.5663 61.6301 10.581 61.571C10.5957 61.5562 10.5957 61.5119 10.5957 61.2167C10.5957 60.9214 10.5957 60.8919 10.581 60.8624C10.5663 60.8181 10.5369 60.7885 10.4781 60.7885C10.4194 60.7885 10.39 60.8181 10.3753 60.8624C10.3606 60.8919 10.3606 60.9214 10.3606 61.2167C10.3606 61.5119 10.3606 61.5562 10.3753 61.571C10.39 61.6301 10.4194 61.6448 10.4781 61.6448ZM10.2871 61.2167C10.2871 60.9067 10.3018 60.8771 10.3018 60.8328C10.3312 60.759 10.39 60.7295 10.4781 60.7295C10.5663 60.7295 10.6251 60.759 10.6545 60.8328C10.6692 60.8771 10.6692 60.9067 10.6692 61.2167C10.6692 61.5267 10.6692 61.571 10.6545 61.6005C10.6251 61.6743 10.5663 61.7186 10.4781 61.7186C10.39 61.7186 10.3312 61.6743 10.3018 61.6005C10.3018 61.571 10.2871 61.5267 10.2871 61.2167Z" fill="#7E7F80"/>
<path d="M9.71484 59.1203V59.0908C9.71484 59.0761 9.72954 59.0761 9.72954 59.0613L9.92056 58.3527C9.93525 58.3527 9.93526 58.3379 9.93526 58.3379H9.97934C9.99403 58.3379 9.99403 58.3527 9.99403 58.3527L9.80301 59.0613V59.0761H9.99403V59.0613V58.766H10.0087H10.0528C10.0675 58.766 10.0675 58.766 10.0675 58.766V59.0613C10.0675 59.0613 10.0675 59.0761 10.0822 59.0761H10.1704V59.1203C10.1704 59.1351 10.1704 59.1351 10.1704 59.1351H10.0822C10.0675 59.1351 10.0675 59.1351 10.0675 59.1499V59.2975C10.0675 59.3123 10.0675 59.3123 10.0528 59.3123H10.0087C10.0087 59.3123 9.99403 59.3123 9.99403 59.2975V59.1499C9.99403 59.1351 9.99403 59.1351 9.99403 59.1351H9.72954C9.72954 59.1351 9.71484 59.1351 9.71484 59.1203Z" fill="#7E7F80"/>
<path d="M10.4781 59.268C10.5369 59.268 10.5663 59.2385 10.581 59.1942C10.5957 59.1646 10.5957 59.1351 10.5957 58.8251C10.5957 58.5298 10.5957 58.5003 10.581 58.4708C10.5663 58.4265 10.5369 58.3969 10.4781 58.3969C10.4194 58.3969 10.39 58.4265 10.3753 58.4708C10.3606 58.5003 10.3606 58.5298 10.3606 58.8251C10.3606 59.1351 10.3606 59.1646 10.3753 59.1942C10.39 59.2385 10.4194 59.268 10.4781 59.268ZM10.2871 58.8251C10.2871 58.5151 10.3018 58.4855 10.3018 58.456C10.3312 58.3674 10.39 58.3379 10.4781 58.3379C10.5663 58.3379 10.6251 58.3674 10.6545 58.456C10.6692 58.4855 10.6692 58.5151 10.6692 58.8251C10.6692 59.1351 10.6692 59.1794 10.6545 59.2089C10.6251 59.2975 10.5663 59.327 10.4781 59.327C10.39 59.327 10.3312 59.2975 10.3018 59.2089C10.3018 59.1794 10.2871 59.1351 10.2871 58.8251Z" fill="#7E7F80"/>
<path d="M9.76953 56.7158C9.76953 56.7011 9.76953 56.7011 9.78423 56.7011L9.81361 56.6863C9.82831 56.6863 9.82831 56.7011 9.82831 56.7011C9.82831 56.7601 9.843 56.7896 9.843 56.8044C9.85769 56.8487 9.88708 56.8782 9.94586 56.8782C10.0046 56.8782 10.034 56.8487 10.0487 56.8044C10.0634 56.7896 10.0634 56.7601 10.0634 56.6272C10.0634 56.4796 10.0634 56.4648 10.0487 56.4353C10.034 56.391 10.0046 56.3763 9.94586 56.3763C9.90178 56.3763 9.87239 56.391 9.843 56.4206C9.843 56.4353 9.843 56.4353 9.82831 56.4353H9.78423C9.78423 56.4353 9.76953 56.4353 9.76953 56.4206V55.9777C9.76953 55.9629 9.78423 55.9629 9.78423 55.9629H10.1222C10.1222 55.9629 10.1369 55.9629 10.1369 55.9777V56.0072C10.1369 56.0219 10.1222 56.0219 10.1222 56.0219H9.843C9.843 56.0219 9.843 56.0219 9.843 56.0367V56.3615C9.87239 56.332 9.90178 56.3024 9.96055 56.3024C10.0487 56.3024 10.0928 56.3467 10.1222 56.4206C10.1222 56.4353 10.1369 56.4648 10.1369 56.6272C10.1369 56.7749 10.1222 56.8044 10.1222 56.8192C10.0928 56.9077 10.034 56.9373 9.94586 56.9373C9.85769 56.9373 9.79892 56.893 9.76953 56.8192C9.76953 56.8044 9.76953 56.7749 9.76953 56.7158Z" fill="#7E7F80"/>
<path d="M10.4781 56.8764C10.5369 56.8764 10.5663 56.8468 10.581 56.8026C10.5957 56.773 10.5957 56.7435 10.5957 56.4335C10.5957 56.1382 10.5957 56.1087 10.581 56.0792C10.5663 56.0349 10.5369 56.0053 10.4781 56.0053C10.4194 56.0053 10.39 56.0349 10.3753 56.0792C10.3606 56.1087 10.3606 56.1382 10.3606 56.4335C10.3606 56.7435 10.3606 56.773 10.3753 56.8026C10.39 56.8468 10.4194 56.8764 10.4781 56.8764ZM10.2871 56.4335C10.2871 56.1382 10.3018 56.0939 10.3018 56.0644C10.3312 55.9758 10.39 55.9463 10.4781 55.9463C10.5663 55.9463 10.6251 55.9758 10.6545 56.0644C10.6692 56.0939 10.6692 56.1382 10.6692 56.4335C10.6692 56.7435 10.6692 56.7878 10.6545 56.8173C10.6251 56.9059 10.5663 56.9354 10.4781 56.9354C10.39 56.9354 10.3312 56.9059 10.3018 56.8173C10.3018 56.7878 10.2871 56.7435 10.2871 56.4335Z" fill="#7E7F80"/>
<path d="M9.94884 54.5891C10.0076 54.5891 10.037 54.5596 10.0517 54.5153C10.0664 54.5006 10.0664 54.4858 10.0664 54.3677C10.0664 54.2644 10.0664 54.2496 10.0517 54.2201C10.037 54.1758 10.0076 54.161 9.94884 54.161C9.89006 54.161 9.86067 54.1758 9.84598 54.2201C9.83128 54.2496 9.83128 54.2644 9.83128 54.3677C9.83128 54.4858 9.83128 54.5006 9.84598 54.5153C9.86067 54.5596 9.89006 54.5891 9.94884 54.5891ZM9.75781 54.3677C9.75781 54.2201 9.77251 54.1905 9.81659 54.102L9.96353 53.6886C9.96353 53.6738 9.97822 53.6738 9.97822 53.6738H10.037C10.037 53.6738 10.0517 53.6738 10.037 53.6886L9.87537 54.102C9.89006 54.102 9.91945 54.0872 9.96353 54.0872C10.037 54.0872 10.0958 54.1315 10.1252 54.2053C10.1252 54.2348 10.1252 54.2644 10.1252 54.3677C10.1252 54.4858 10.1252 54.5153 10.1252 54.5449C10.0958 54.6187 10.037 54.663 9.94884 54.663C9.86067 54.663 9.8019 54.6187 9.77251 54.5449C9.77251 54.5153 9.75781 54.4858 9.75781 54.3677Z" fill="#7E7F80"/>
<path d="M10.4781 54.5902C10.5369 54.5902 10.5663 54.5755 10.581 54.5164C10.5957 54.5017 10.5957 54.4574 10.5957 54.1621C10.5957 53.8668 10.5957 53.8226 10.581 53.8078C10.5663 53.7487 10.5369 53.734 10.4781 53.734C10.4194 53.734 10.39 53.7487 10.3753 53.8078C10.3606 53.8226 10.3606 53.8668 10.3606 54.1621C10.3606 54.4574 10.3606 54.5017 10.3753 54.5164C10.39 54.5755 10.4194 54.5902 10.4781 54.5902ZM10.2871 54.1621C10.2871 53.8521 10.3018 53.8078 10.3018 53.7783C10.3312 53.7044 10.39 53.6602 10.4781 53.6602C10.5663 53.6602 10.6251 53.7044 10.6545 53.7783C10.6692 53.8078 10.6692 53.8521 10.6692 54.1621C10.6692 54.4721 10.6692 54.5164 10.6545 54.546C10.6251 54.6198 10.5663 54.6641 10.4781 54.6641C10.39 54.6641 10.3312 54.6198 10.3018 54.546C10.3018 54.5164 10.2871 54.4721 10.2871 54.1621Z" fill="#7E7F80"/>
<path d="M10.0811 51.3716H9.83128C9.83128 51.3716 9.83128 51.3716 9.83128 51.3863V51.5044C9.83128 51.5192 9.81659 51.5192 9.81659 51.5192H9.77251C9.77251 51.5192 9.75781 51.5192 9.75781 51.5044V51.3125H9.77251H10.1399H10.1546V51.3568C10.1546 51.3716 10.1546 51.3716 10.1546 51.3863L9.89006 52.2573C9.89006 52.2721 9.87537 52.2721 9.87537 52.2721H9.81659C9.81659 52.2721 9.81659 52.2721 9.81659 52.2573L10.0811 51.3716Z" fill="#7E7F80"/>
<path d="M10.4781 52.226C10.5369 52.226 10.5663 52.1965 10.581 52.1522C10.5957 52.1226 10.5957 52.0931 10.5957 51.7831C10.5957 51.4878 10.5957 51.4583 10.581 51.4288C10.5663 51.3845 10.5369 51.355 10.4781 51.355C10.4194 51.355 10.39 51.3845 10.3753 51.4288C10.3606 51.4583 10.3606 51.4878 10.3606 51.7831C10.3606 52.0931 10.3606 52.1226 10.3753 52.1522C10.39 52.1965 10.4194 52.226 10.4781 52.226ZM10.2871 51.7831C10.2871 51.4731 10.3018 51.4435 10.3018 51.414C10.3312 51.3254 10.39 51.2959 10.4781 51.2959C10.5663 51.2959 10.6251 51.3254 10.6545 51.414C10.6692 51.4435 10.6692 51.4731 10.6692 51.7831C10.6692 52.0931 10.6692 52.1374 10.6545 52.1669C10.6251 52.2555 10.5663 52.285 10.4781 52.285C10.39 52.285 10.3312 52.2555 10.3018 52.1669C10.3018 52.1374 10.2871 52.0931 10.2871 51.7831Z" fill="#7E7F80"/>
<path d="M9.94884 49.851C10.0076 49.851 10.037 49.8215 10.0517 49.7772C10.0664 49.7624 10.0664 49.7476 10.0664 49.6443C10.0664 49.541 10.0664 49.5262 10.0517 49.4967C10.037 49.4524 10.0076 49.4228 9.94884 49.4228C9.89006 49.4228 9.86067 49.4524 9.84598 49.4967C9.83128 49.5262 9.83128 49.541 9.83128 49.6443C9.83128 49.7476 9.83128 49.7624 9.84598 49.7772C9.86067 49.8215 9.89006 49.851 9.94884 49.851ZM10.0517 49.29C10.0664 49.2752 10.0664 49.2605 10.0664 49.1719C10.0664 49.0981 10.0664 49.0833 10.0517 49.0538C10.037 49.0095 10.0076 48.9947 9.94884 48.9947C9.89006 48.9947 9.86067 49.0095 9.84598 49.0538C9.83128 49.0833 9.83128 49.0981 9.83128 49.1719C9.83128 49.2605 9.83128 49.2752 9.84598 49.29C9.86067 49.3343 9.89006 49.3638 9.94884 49.3638C10.0076 49.3638 10.037 49.3343 10.0517 49.29ZM9.75781 49.6443C9.75781 49.541 9.77251 49.5114 9.77251 49.4819C9.7872 49.4376 9.81659 49.4081 9.84598 49.3933C9.81659 49.3786 9.7872 49.349 9.77251 49.3047C9.77251 49.2752 9.75781 49.2605 9.75781 49.1719C9.75781 49.0981 9.77251 49.0685 9.77251 49.039C9.8019 48.9652 9.86067 48.9209 9.94884 48.9209C10.037 48.9209 10.0958 48.9652 10.1252 49.039C10.1252 49.0685 10.1252 49.0981 10.1252 49.1719C10.1252 49.2605 10.1252 49.2752 10.1252 49.3047C10.1105 49.349 10.0811 49.3786 10.0517 49.3933C10.0811 49.4081 10.1105 49.4376 10.1252 49.4819C10.1252 49.5114 10.1252 49.541 10.1252 49.6443C10.1252 49.7476 10.1252 49.7772 10.1252 49.8067C10.0958 49.8805 10.037 49.9248 9.94884 49.9248C9.86067 49.9248 9.8019 49.8805 9.77251 49.8067C9.77251 49.7772 9.75781 49.7476 9.75781 49.6443Z" fill="#7E7F80"/>
<path d="M10.4781 49.851C10.5369 49.851 10.5663 49.8215 10.581 49.7772C10.5957 49.7476 10.5957 49.7181 10.5957 49.4228C10.5957 49.1128 10.5957 49.0833 10.581 49.0685C10.5663 49.0095 10.5369 48.9947 10.4781 48.9947C10.4194 48.9947 10.39 49.0095 10.3753 49.0685C10.3606 49.0833 10.3606 49.1128 10.3606 49.4228C10.3606 49.7181 10.3606 49.7476 10.3753 49.7772C10.39 49.8215 10.4194 49.851 10.4781 49.851ZM10.2871 49.4228C10.2871 49.1128 10.3018 49.0685 10.3018 49.039C10.3312 48.9652 10.39 48.9209 10.4781 48.9209C10.5663 48.9209 10.6251 48.9652 10.6545 49.039C10.6692 49.0685 10.6692 49.1128 10.6692 49.4228C10.6692 49.7329 10.6692 49.7772 10.6545 49.8067C10.6251 49.8805 10.5663 49.9248 10.4781 49.9248C10.39 49.9248 10.3312 49.8805 10.3018 49.8067C10.3018 49.7772 10.2871 49.7329 10.2871 49.4228Z" fill="#7E7F80"/>
<path d="M10.0517 46.9711C10.0664 46.9563 10.0664 46.9416 10.0664 46.8235C10.0664 46.7201 10.0664 46.7054 10.0517 46.6758C10.037 46.6315 10.0076 46.602 9.94884 46.602C9.89006 46.602 9.86067 46.6315 9.84598 46.6758C9.83128 46.7054 9.83128 46.7201 9.83128 46.8235C9.83128 46.9416 9.83128 46.9563 9.84598 46.9711C9.86067 47.0154 9.89006 47.0449 9.94884 47.0449C10.0076 47.0449 10.037 47.0154 10.0517 46.9711ZM10.0223 47.104L10.0076 47.0892C10.0076 47.104 9.96353 47.1187 9.93414 47.1187C9.84598 47.1187 9.8019 47.0744 9.77251 47.0006C9.77251 46.9711 9.75781 46.9416 9.75781 46.8235C9.75781 46.7054 9.77251 46.6906 9.77251 46.6611C9.8019 46.5873 9.86067 46.543 9.94884 46.543C10.037 46.543 10.0958 46.5873 10.1252 46.6611C10.1252 46.6906 10.1252 46.7054 10.1252 46.8235C10.1252 46.9859 10.1252 47.0154 10.0811 47.104L9.93414 47.5173C9.91945 47.5173 9.91945 47.5321 9.90475 47.5321H9.86067C9.84598 47.5321 9.84598 47.5173 9.84598 47.5173L10.0223 47.104Z" fill="#7E7F80"/>
<path d="M10.4781 47.4731C10.5369 47.4731 10.5663 47.4435 10.581 47.3992C10.5957 47.3697 10.5957 47.3402 10.5957 47.0449C10.5957 46.7349 10.5957 46.7054 10.581 46.6758C10.5663 46.6315 10.5369 46.602 10.4781 46.602C10.4194 46.602 10.39 46.6315 10.3753 46.6758C10.3606 46.7054 10.3606 46.7349 10.3606 47.0449C10.3606 47.3402 10.3606 47.3697 10.3753 47.3992C10.39 47.4435 10.4194 47.4731 10.4781 47.4731ZM10.2871 47.0449C10.2871 46.7349 10.3018 46.6906 10.3018 46.6611C10.3312 46.5725 10.39 46.543 10.4781 46.543C10.5663 46.543 10.6251 46.5725 10.6545 46.6611C10.6692 46.6906 10.6692 46.7349 10.6692 47.0449C10.6692 47.3549 10.6692 47.3845 10.6545 47.414C10.6251 47.5026 10.5663 47.5321 10.4781 47.5321C10.39 47.5321 10.3312 47.5026 10.3018 47.414C10.3018 47.3845 10.2871 47.3549 10.2871 47.0449Z" fill="#7E7F80"/>
<path d="M9.42038 44.2839H9.40568L9.28813 44.3725C9.27344 44.3872 9.27344 44.3872 9.27344 44.3725V44.3134C9.27344 44.3134 9.27344 44.2987 9.28813 44.2987L9.40568 44.1953C9.42038 44.1953 9.42038 44.1953 9.43507 44.1953H9.46446C9.47916 44.1953 9.47915 44.1953 9.47915 44.1953V45.1402C9.47915 45.1549 9.47916 45.1549 9.46446 45.1549H9.43507C9.42038 45.1549 9.42038 45.1549 9.42038 45.1402V44.2839Z" fill="#7E7F80"/>
<path d="M9.94884 45.1117C10.0076 45.1117 10.037 45.0822 10.0517 45.0379C10.0664 45.0084 10.0664 44.9789 10.0664 44.6688C10.0664 44.3736 10.0664 44.344 10.0517 44.3145C10.037 44.2702 10.0076 44.2407 9.94884 44.2407C9.89006 44.2407 9.86067 44.2702 9.84598 44.3145C9.83128 44.344 9.83128 44.3736 9.83128 44.6688C9.83128 44.9789 9.83128 45.0084 9.84598 45.0379C9.86067 45.0822 9.89006 45.1117 9.94884 45.1117ZM9.75781 44.6688C9.75781 44.3736 9.77251 44.3293 9.77251 44.2997C9.8019 44.2112 9.86067 44.1816 9.94884 44.1816C10.037 44.1816 10.0958 44.2112 10.1252 44.2997C10.1252 44.3293 10.1399 44.3736 10.1399 44.6688C10.1399 44.9789 10.1252 45.0231 10.1252 45.0527C10.0958 45.1413 10.037 45.1708 9.94884 45.1708C9.86067 45.1708 9.8019 45.1413 9.77251 45.0527C9.77251 45.0231 9.75781 44.9789 9.75781 44.6688Z" fill="#7E7F80"/>
<path d="M10.4781 45.1117C10.5369 45.1117 10.5663 45.0822 10.581 45.0379C10.5957 45.0084 10.5957 44.9789 10.5957 44.6688C10.5957 44.3736 10.5957 44.344 10.581 44.3145C10.5663 44.2702 10.5369 44.2407 10.4781 44.2407C10.4194 44.2407 10.39 44.2702 10.3753 44.3145C10.3753 44.344 10.3606 44.3736 10.3606 44.6688C10.3606 44.9789 10.3753 45.0084 10.3753 45.0379C10.39 45.0822 10.4194 45.1117 10.4781 45.1117ZM10.2871 44.6688C10.2871 44.3736 10.3018 44.3293 10.3018 44.2997C10.3312 44.2112 10.39 44.1816 10.4781 44.1816C10.5663 44.1816 10.6251 44.2112 10.6545 44.2997C10.6692 44.3293 10.6692 44.3736 10.6692 44.6688C10.6692 44.9789 10.6692 45.0231 10.6545 45.0527C10.6251 45.1413 10.5663 45.1708 10.4781 45.1708C10.39 45.1708 10.3312 45.1413 10.3018 45.0527C10.3018 45.0231 10.2871 44.9789 10.2871 44.6688Z" fill="#7E7F80"/>
<path d="M15.2392 62.8555H12.7559V67.9931H15.2392V62.8555Z" fill="#23557E"/>
<path d="M18.3974 54.5732H15.9141V67.993H18.3974V54.5732Z" fill="#F09911"/>
<path d="M21.5536 60.6406H19.0703V67.9927H21.5536V60.6406Z" fill="#3D9ABF"/>
<path d="M24.7177 64.5244H22.2344V67.9938H24.7177V64.5244Z" fill="#2B3C5D"/>
<path d="M27.8739 50.3828H25.3906V67.9954H27.8739V50.3828Z" fill="#F26917"/>
<path d="M31.0321 59.3291H28.5488V67.9951H31.0321V59.3291Z" fill="#349F8B"/>
<path d="M34.1942 57.6904H31.7109V67.9952H34.1942V57.6904Z" fill="#4A9D37"/>
<path d="M37.3524 59.9629H34.8691V67.9941H37.3524V59.9629Z" fill="#349F8B"/>
<path d="M40.5106 55.3125H38.0273V67.9941H40.5106V55.3125Z" fill="#ECA510"/>
<path d="M43.6728 54.5732H41.1895V67.993H43.6728V54.5732Z" fill="#F09911"/>
<path d="M46.831 56.9375H44.3477V67.9952H46.831V56.9375Z" fill="#769C2A"/>
<path d="M49.9872 48.2119H47.5039V67.9947H49.9872V48.2119Z" fill="#EF3420"/>
<path fill-rule="evenodd" clip-rule="evenodd" d="M29.7555 33.9652H8.50781V27.3955H29.7555V33.9652Z" fill="#86C52B"/>
<path fill-rule="evenodd" clip-rule="evenodd" d="M52.8424 33.9652H31.5801V27.3955H52.8424V33.9652Z" fill="#86C52B"/>
<path d="M57.188 34.7629L54.0729 36.9774L50.1055 31.4264L53.2206 29.2119L57.188 34.7629Z" fill="#7C7D7E"/>
<path d="M50.4727 28.5457C44.2424 33.0189 35.5728 31.6017 31.0911 25.3863C26.6241 19.171 28.0348 10.5197 34.2651 6.04646C40.4807 1.58796 49.1649 3.00524 53.6319 9.2058C58.1136 15.4211 56.6883 24.0872 50.4727 28.5457ZM32.252 3.25621C24.4788 8.83672 22.7155 19.6434 28.2993 27.3941C33.883 35.1596 44.7126 36.9164 52.4857 31.3507C60.2442 25.7702 62.0222 14.9635 56.4385 7.198C50.84 -0.552712 40.0252 -2.3243 32.252 3.25621Z" fill="#373737"/>
<path d="M54.5021 8.58768C49.6825 1.91469 40.3517 0.379313 33.6512 5.19213C26.9507 10.005 25.4225 19.3206 30.2422 26.0083C35.0618 32.6961 44.3926 34.2167 51.0931 29.4039C57.7936 24.6058 59.3071 15.2902 54.5021 8.58768Z" fill="#58C7C4"/>
<path d="M58.1571 34.2749L53.2934 37.7295L51.9121 35.7955L56.7759 32.3262L58.1571 34.2749Z" fill="#373737"/>
<mask id="mask2_1571_1328" style="mask-type:luminance" maskUnits="userSpaceOnUse" x="51" y="32" width="24" height="31">
<path d="M51.1191 32.4443H74.4534V62.6795H51.1191V32.4443Z" fill="white"/>
</mask>
<g mask="url(#mask2_1571_1328)">
<path d="M73.7044 58.0733L70.7803 60.1549C70.2513 60.5388 69.5019 60.4207 69.1199 59.8744L53.1621 37.5376L58.0259 34.083L73.9836 56.4198C74.3657 56.9513 74.2334 57.7042 73.7044 58.0733Z" fill="#4E4F51"/>
</g>
<path fill-rule="evenodd" clip-rule="evenodd" d="M35.7769 8.61658C30.7222 12.2188 29.5467 19.2314 33.1467 24.2656C36.7615 29.3147 43.7705 30.4957 48.8253 26.8935C53.8801 23.2913 55.0556 16.2787 51.4555 11.2444C47.8555 6.19541 40.8317 5.01435 35.7769 8.61658Z" fill="#F2543C"/>
<path fill-rule="evenodd" clip-rule="evenodd" d="M52.7943 21.8001C53.4849 19.9989 53.72 18.0354 53.4262 16.1162L42.3027 17.7549L52.7943 21.8001Z" fill="#F2543C"/>
<path fill-rule="evenodd" clip-rule="evenodd" d="M53.4262 16.1164C53.1764 14.4039 52.5298 12.7356 51.4572 11.2445C49.3706 8.3214 46.1379 6.69744 42.8023 6.5498L42.3027 17.7551L53.4262 16.1164Z" fill="#5284BF"/>
<path fill-rule="evenodd" clip-rule="evenodd" d="M42.8011 6.5485C40.3766 6.43039 37.908 7.09474 35.7773 8.61535L42.3015 17.7538L42.8011 6.5485Z" fill="#F9A50D"/>
<path fill-rule="evenodd" clip-rule="evenodd" d="M35.7808 8.61719L42.305 17.7556L31.2109 15.9988C31.6665 13.12 33.224 10.4331 35.7808 8.61719Z" fill="#86C52B"/>
</svg>
