<svg width="85" height="81" viewBox="0 0 85 81" fill="none" xmlns="http://www.w3.org/2000/svg">
<mask id="mask0_1571_1329" style="mask-type:luminance" maskUnits="userSpaceOnUse" x="0" y="0" width="85" height="14">
<path d="M0 0H85V13.0909H0V0Z" fill="white"/>
</mask>
<g mask="url(#mask0_1571_1329)">
<path fill-rule="evenodd" clip-rule="evenodd" d="M5.24103 12.7886H82.0579C83.2503 12.7886 84.2466 11.6992 84.2466 10.3597V3.21599C84.2466 1.89439 83.2666 0.787109 82.0579 0.787109H2.97066C1.76197 0.787109 0.765625 1.87653 0.765625 3.21599V10.3597C0.765625 11.6813 1.74564 12.7886 2.97066 12.7886H5.24103Z" fill="#C6D8FB"/>
</g>
<path fill-rule="evenodd" clip-rule="evenodd" d="M47.4167 66.3833C47.188 58.1144 36.3588 58.1144 36.1465 66.3833C36.3588 74.6522 47.188 74.6522 47.4167 66.3833Z" fill="#C6D8FB"/>
<path fill-rule="evenodd" clip-rule="evenodd" d="M25.0514 60.6487V54.2372C25.0514 53.6299 24.6103 53.1299 24.055 53.1299C22.4543 53.1299 19.1713 53.1299 17.5706 53.1299C17.0152 53.1299 16.5742 53.6299 16.5742 54.2372V60.6487C16.5742 61.2559 17.0152 61.756 17.5706 61.756H24.055C24.6103 61.756 25.0514 61.2559 25.0514 60.6487Z" fill="#C6D8FB"/>
<path fill-rule="evenodd" clip-rule="evenodd" d="M57.1465 57.4499L62.8469 62.5934L68.531 57.4499L62.8469 52.3242L57.1465 57.4499Z" fill="#C6D8FB"/>
<mask id="mask1_1571_1329" style="mask-type:luminance" maskUnits="userSpaceOnUse" x="1" y="8" width="80" height="73">
<path d="M1.54688 8.51855H80.9934V80.7241H1.54688V8.51855Z" fill="white"/>
</mask>
<g mask="url(#mask1_1571_1329)">
<path d="M76.39 80.7242H8.60559C6.35156 80.7242 4.50586 78.4203 4.50586 75.5986V12.7871C4.50586 12.3406 4.83253 11.9834 5.24087 11.9834H79.771C80.1794 11.9834 80.506 12.3406 80.506 12.7871V75.5986C80.4897 78.4203 78.644 80.7242 76.39 80.7242ZM5.97588 13.5729V75.5807C5.97588 77.5095 7.16823 79.099 8.60559 79.099H76.39C77.86 79.099 79.0524 77.5274 79.0524 75.5807V13.5729H5.97588Z" fill="#428DFF"/>
</g>
<path d="M24.0556 62.5755H17.5712C16.6239 62.5755 15.8398 61.7004 15.8398 60.6467V54.2352C15.8398 53.1815 16.6075 52.3242 17.5712 52.3242H24.0556C25.003 52.3242 25.787 53.1815 25.787 54.2352V60.6467C25.787 61.7004 25.003 62.5755 24.0556 62.5755ZM17.5712 53.9494C17.4242 53.9494 17.3099 54.0923 17.3099 54.253V60.6646C17.3099 60.8431 17.4242 60.9682 17.5712 60.9682H24.0556C24.2026 60.9682 24.317 60.8431 24.317 60.6646V54.253C24.317 54.0923 24.2026 53.9494 24.0556 53.9494H17.5712Z" fill="#428DFF"/>
<path d="M43.8077 49.8996H39.7407C38.2216 49.8461 37.7153 48.3816 37.8786 46.9171C37.454 46.7385 37.0619 46.5599 36.6699 46.3635C35.8696 47.5065 34.5302 48.1316 33.4522 47.0064L30.5938 43.8275C29.8588 43.0416 29.8588 41.6486 30.5938 40.8807L31.1655 40.2377C30.9858 39.8091 30.8225 39.3448 30.6755 38.8983C29.3362 39.0769 28.0295 38.5232 27.9805 36.8266V32.3081C28.0131 30.6294 29.3362 30.0757 30.6755 30.2365C30.8225 29.7721 30.9858 29.3435 31.1655 28.9149L30.5938 28.2719C29.8588 27.4861 29.8588 26.0931 30.5938 25.3251L33.4522 22.1462C34.5302 21.021 35.8696 21.6282 36.6699 22.7891C37.0619 22.5748 37.4703 22.3962 37.8786 22.2354C37.7153 20.7531 38.2216 19.3065 39.7407 19.2529H43.8077C45.3267 19.2887 45.8167 20.7531 45.6861 22.2354C46.1108 22.3962 46.5028 22.5748 46.8784 22.7891C47.7114 21.6282 49.0181 20.9853 50.1125 22.1462L52.9709 25.3251C53.7059 26.0931 53.7059 27.4861 52.9709 28.2541L52.3992 28.897C52.5789 29.3078 52.7422 29.7721 52.8892 30.2186C54.2285 30.0579 55.5352 30.6115 55.5842 32.2903V36.8087C55.5516 38.4875 54.2285 39.059 52.8892 38.8804C52.7422 39.3447 52.5789 39.7912 52.3992 40.2199L52.9709 40.8628C53.7059 41.6308 53.7059 43.0238 52.9709 43.7739L50.1125 46.9707C49.0181 48.1316 47.6951 47.4886 46.8784 46.3278C46.4864 46.5242 46.0944 46.7028 45.6861 46.8814C45.8167 48.3995 45.3267 49.8639 43.8077 49.8996ZM36.5229 44.5775C37.3069 44.7919 38.0093 45.3634 38.8096 45.542C39.12 45.667 39.316 45.9706 39.316 46.3278V47.8101C39.316 48.078 39.4957 48.2744 39.7243 48.2744H43.7914C44.0364 48.2744 44.2161 48.078 44.2161 47.8101C44.2814 47.185 43.9547 45.7563 44.7224 45.542C45.6044 45.4705 46.7641 44.0953 47.5154 44.7919L48.4628 45.8456C48.6261 46.0242 48.8875 46.0242 49.0345 45.8456C49.0998 45.7563 52.2848 42.4166 52.0398 42.3273C52.1378 42.0772 51.0762 41.1307 50.9618 40.9521C50.3412 40.0948 51.5662 38.8268 51.6478 37.8624C51.7458 37.5052 52.0235 37.2909 52.3502 37.2909H53.6895C53.9182 37.2909 54.0979 37.0766 54.0979 36.8266V32.3081C54.0979 32.0581 53.9182 31.8617 53.6895 31.8617C53.1179 31.7902 51.8438 32.1474 51.6478 31.2902C51.5825 30.29 50.3412 29.0577 50.9618 28.2005L51.9092 27.1468C52.0725 26.9682 52.0725 26.6646 51.9092 26.5038L49.0345 23.3249C48.5935 22.7891 47.9401 23.9857 47.4991 24.3607C46.7314 25.0572 45.5881 23.6999 44.7061 23.6106C44.3957 23.5035 44.1997 23.182 44.1997 22.8427V21.3425C44.1997 21.0924 44.0201 20.896 43.775 20.896H39.708C39.4793 20.896 39.2996 21.0924 39.2996 21.3425V22.8427C39.2343 23.9142 37.5193 23.8607 36.8496 24.5036C36.1636 24.9679 35.4613 23.6821 35.0366 23.307C34.8732 23.1106 34.5956 23.1106 34.4486 23.307L31.5739 26.486C31.1002 26.986 32.1455 27.6647 32.5212 28.2005C33.1582 29.0756 31.9332 30.29 31.8515 31.2902C31.7535 31.6295 31.4595 31.8617 31.1492 31.8617H29.8098C29.5812 31.8617 29.3852 32.0581 29.3852 32.3081V36.8266C29.3688 37.5409 30.5285 37.2195 31.1492 37.2909C32.1129 37.3624 32.0802 39.2554 32.6519 40.0055C33.0765 40.7556 31.9169 41.5415 31.5575 42.0237C31.3942 42.1844 31.3942 42.488 31.5575 42.6666L34.4322 45.8456C34.5956 46.0242 34.8732 46.0242 35.0202 45.8456C35.3959 45.5598 36.0656 44.524 36.5229 44.5775ZM41.766 42.8095C31.9659 42.4523 31.9659 26.6824 41.766 26.3431C51.5825 26.6824 51.5825 42.4523 41.766 42.8095ZM41.766 27.9505C33.8932 28.2362 33.8932 40.9164 41.766 41.1843C49.6551 40.9164 49.6551 28.2362 41.766 27.9505Z" fill="#428DFF"/>
<path d="M62.8522 53.1311C62.4602 53.1311 62.1172 52.756 62.1172 52.3274V35.3967H54.8651C53.9177 35.3967 53.9014 33.7715 54.8651 33.7715H62.8522C63.2442 33.7715 63.5872 34.1287 63.5872 34.5752V52.3274C63.5872 52.756 63.2442 53.1311 62.8522 53.1311Z" fill="#428DFF"/>
<path d="M62.8525 63.401C62.6892 63.401 62.5258 63.3475 62.3788 63.2225L56.6948 58.079C56.3517 57.7932 56.3517 57.1324 56.6948 56.8288L62.3788 51.7031C62.6565 51.4531 63.0322 51.4531 63.2935 51.7031L68.9939 56.8288C69.337 57.1324 69.337 57.7932 68.9939 58.079L63.2935 63.2225C63.1792 63.3475 63.0159 63.401 62.8525 63.401ZM58.3118 57.4539L62.8525 61.5615L67.3769 57.4539L62.8525 53.3462L58.3118 57.4539Z" fill="#428DFF"/>
<path d="M41.7616 60.9367C41.3696 60.9367 41.043 60.5617 41.043 60.1331V49.0781C41.043 48.6495 41.3696 48.2744 41.7616 48.2744C42.17 48.2744 42.4967 48.6495 42.4967 49.0781V60.1331C42.4967 60.5617 42.17 60.9367 41.7616 60.9367Z" fill="#428DFF"/>
<path d="M41.762 73.4383C33.3502 73.1347 33.3502 59.6151 41.762 59.3115C50.1901 59.6151 50.1901 73.1347 41.762 73.4383ZM41.762 60.9367C35.2939 61.1153 35.2939 71.6524 41.762 71.831C48.2464 71.6345 48.2464 61.1153 41.762 60.9367Z" fill="#428DFF"/>
<mask id="mask2_1571_1329" style="mask-type:luminance" maskUnits="userSpaceOnUse" x="0" y="0" width="85" height="18">
<path d="M0 0H85V17.6629H0V0Z" fill="white"/>
</mask>
<g mask="url(#mask2_1571_1329)">
<path d="M82.0434 13.5731H2.97254C1.35551 13.5731 0.0488281 12.1265 0.0488281 10.3584V3.21469C0.0488281 1.42875 1.35551 0 2.97254 0H82.0598C83.6605 0 84.9508 1.44661 84.9508 3.21469V10.3584C84.9508 12.1444 83.6441 13.5731 82.0434 13.5731ZM2.97254 1.6252C2.1722 1.6252 1.50252 2.33958 1.50252 3.23255V10.3584C1.50252 11.2514 2.15586 11.9837 2.97254 11.9837H82.0598C82.8438 11.9837 83.5135 11.2693 83.5135 10.3584V3.21469C83.5135 2.33958 82.8601 1.60735 82.0598 1.60735H2.97254V1.6252Z" fill="#428DFF"/>
</g>
<path d="M20.6901 53.9526C20.2981 53.9526 19.9551 53.5954 19.9551 53.1489V34.5752C19.9551 34.1287 20.2981 33.7715 20.6901 33.7715H28.6772C29.6246 33.7715 29.6409 35.3788 28.6772 35.3967H21.4251V53.1489C21.4251 53.5954 21.0984 53.9526 20.6901 53.9526Z" fill="#428DFF"/>
</svg>
