<svg width="75" height="76" viewBox="0 0 75 76" fill="none" xmlns="http://www.w3.org/2000/svg">
<mask id="mask0_1575_1739" style="mask-type:luminance" maskUnits="userSpaceOnUse" x="0" y="25" width="75" height="51">
<path d="M0 25.9727H75V75.2702H0V25.9727Z" fill="white"/>
</mask>
<g mask="url(#mask0_1575_1739)">
<path d="M2.04688 27.0391H74.9274V75.1736H2.04688V27.0391Z" fill="black" stroke="black" stroke-width="0.0410179"/>
</g>
<mask id="mask1_1575_1739" style="mask-type:luminance" maskUnits="userSpaceOnUse" x="0" y="25" width="75" height="18">
<path d="M0 25.9727H75V42.5129H0V25.9727Z" fill="white"/>
</mask>
<g mask="url(#mask1_1575_1739)">
<path d="M2.04688 27.0391H74.9421V38.9596H2.04688V27.0391Z" fill="black"/>
</g>
<mask id="mask2_1575_1739" style="mask-type:luminance" maskUnits="userSpaceOnUse" x="0" y="25" width="18" height="18">
<path d="M0 25.9727H17.9051V42.5129H0V25.9727Z" fill="white"/>
</mask>
<g mask="url(#mask2_1575_1739)">
<path fill-rule="evenodd" clip-rule="evenodd" d="M2.04688 27.0391L7.44214 38.9596H15.5499L10.1398 27.0391H2.04688Z" fill="white" stroke="black" stroke-width="0.0381917"/>
</g>
<path fill-rule="evenodd" clip-rule="evenodd" d="M18.248 27.0391L23.6433 38.9596H31.7362L26.3409 27.0391H18.248Z" fill="white" stroke="black" stroke-width="0.0381917"/>
<path fill-rule="evenodd" clip-rule="evenodd" d="M34.4336 27.0391L39.8437 38.9596H47.9366L42.5413 27.0391H34.4336Z" fill="white" stroke="black" stroke-width="0.0381917"/>
<path fill-rule="evenodd" clip-rule="evenodd" d="M50.6309 27.0391L56.0409 38.9596H64.1338L58.7386 27.0391H50.6309Z" fill="white" stroke="black" stroke-width="0.0381917"/>
<mask id="mask3_1575_1739" style="mask-type:luminance" maskUnits="userSpaceOnUse" x="66" y="25" width="9" height="17">
<path d="M66.834 25.9727H74.9417V41.9314H66.834V25.9727Z" fill="white"/>
</mask>
<g mask="url(#mask3_1575_1739)">
<path fill-rule="evenodd" clip-rule="evenodd" d="M66.834 27.0391L72.2292 38.9596H80.337L74.9417 27.0391H66.834Z" fill="white" stroke="black" stroke-width="0.0381917"/>
</g>
<mask id="mask4_1575_1739" style="mask-type:luminance" maskUnits="userSpaceOnUse" x="0" y="0" width="75" height="31">
<path d="M0 0H74.8221V30.1083H0V0Z" fill="white"/>
</mask>
<g mask="url(#mask4_1575_1739)">
<path d="M0.0722656 15.2952L71.7966 0.935547L73.7531 12.8884L2.02879 27.248L0.0722656 15.2952Z" fill="black"/>
<path d="M0.056988 15.2302L0.175565 15.214L0.190387 15.3271L0.0866323 15.3432L0.056988 15.2302ZM0.27932 15.1817L0.383075 15.1656L0.397897 15.2786L0.294142 15.3109L0.27932 15.1817ZM0.48683 15.1494L0.605407 15.1171L0.620229 15.2463L0.516474 15.2625L0.48683 15.1494ZM0.709162 15.101L0.812917 15.0848L0.842561 15.1979L0.723984 15.214L0.709162 15.101ZM0.931494 15.0525L1.03525 15.0363L1.05007 15.1494L0.946316 15.1817L0.931494 15.0525ZM1.139 15.0202L1.25758 14.9879L1.2724 15.1171L1.16865 15.1333L1.139 15.0202ZM1.36134 14.9717L1.46509 14.9556L1.49473 15.0686L1.37616 15.0848L1.36134 14.9717ZM1.58367 14.9233L1.68742 14.9071L1.70224 15.0202L1.59849 15.0525L1.58367 14.9233ZM1.79118 14.891L1.90975 14.8587L1.92458 14.9879L1.82082 15.004L1.79118 14.891ZM2.01351 14.8425L2.11726 14.8264L2.13209 14.9394L2.02833 14.9556L2.01351 14.8425ZM2.22102 14.7941L2.3396 14.7779L2.35442 14.891L2.25066 14.9233L2.22102 14.7941ZM2.44335 14.7617L2.54711 14.7294L2.57675 14.8587L2.45817 14.8748L2.44335 14.7617ZM2.66568 14.7133L2.76944 14.681L2.78426 14.8102L2.68051 14.8264L2.66568 14.7133ZM2.87319 14.6648L2.99177 14.6487L3.00659 14.7617L2.90284 14.7941L2.87319 14.6648ZM3.09553 14.6164L3.19928 14.6002L3.22892 14.7294L3.11035 14.7456L3.09553 14.6164ZM3.31786 14.5841L3.42161 14.5518L3.43643 14.681L3.33268 14.6971L3.31786 14.5841ZM3.52537 14.5356L3.62912 14.5195L3.65877 14.6325L3.55501 14.6487L3.52537 14.5356ZM3.7477 14.4872L3.85145 14.471L3.86628 14.5841L3.76252 14.6164L3.7477 14.4872ZM3.95521 14.4549L4.07379 14.4225L4.08861 14.5518L3.98485 14.5679L3.95521 14.4549ZM4.17754 14.4064L4.2813 14.3902L4.31094 14.5033L4.19236 14.5195L4.17754 14.4064ZM4.39987 14.3579L4.50363 14.3418L4.51845 14.4549L4.4147 14.4872L4.39987 14.3579ZM4.60738 14.3256L4.72596 14.2933L4.74078 14.4225L4.63703 14.4387L4.60738 14.3256ZM4.82972 14.2772L4.93347 14.261L4.96311 14.3741L4.84454 14.3902L4.82972 14.2772ZM5.05205 14.2287L5.1558 14.2126L5.17062 14.3256L5.06687 14.3579L5.05205 14.2287ZM5.25956 14.1964L5.36331 14.1641L5.39296 14.2933L5.27438 14.3095L5.25956 14.1964ZM5.48189 14.148L5.58564 14.1318L5.60047 14.2449L5.49671 14.261L5.48189 14.148ZM5.6894 14.0995L5.80798 14.0833L5.8228 14.1964L5.71904 14.2287L5.6894 14.0995ZM5.91173 14.0672L6.01549 14.0349L6.04513 14.1641L5.92655 14.1803L5.91173 14.0672ZM6.13406 14.0187L6.23782 14.0026L6.25264 14.1156L6.14889 14.1318L6.13406 14.0187ZM6.34157 13.9703L6.46015 13.9541L6.47497 14.0672L6.37122 14.0995L6.34157 13.9703ZM6.5639 13.9218L6.66766 13.9057L6.6973 14.0349L6.57873 14.051L6.5639 13.9218ZM6.78624 13.8895L6.88999 13.8572L6.90481 13.9864L6.80106 14.0026L6.78624 13.8895ZM6.99375 13.8411L7.0975 13.8249L7.12715 13.938L7.00857 13.9703L6.99375 13.8411ZM7.21608 13.7926L7.31983 13.7764L7.33466 13.8895L7.2309 13.9218L7.21608 13.7926ZM7.42359 13.7603L7.54217 13.728L7.55699 13.8572L7.45323 13.8734L7.42359 13.7603ZM7.64592 13.7118L7.74968 13.6957L7.77932 13.8087L7.66074 13.8249L7.64592 13.7118ZM7.86825 13.6634L7.97201 13.6472L7.98683 13.7603L7.88307 13.7926L7.86825 13.6634ZM8.07576 13.6311L8.19434 13.5988L8.20916 13.728L8.10541 13.7441L8.07576 13.6311ZM8.29809 13.5826L8.40185 13.5665L8.43149 13.6795L8.31292 13.6957L8.29809 13.5826ZM8.52043 13.5342L8.62418 13.518L8.639 13.6311L8.53525 13.6634L8.52043 13.5342ZM8.72794 13.5019L8.83169 13.4695L8.86134 13.5988L8.74276 13.6149L8.72794 13.5019ZM8.95027 13.4534L9.05402 13.4372L9.06885 13.5503L8.96509 13.5665L8.95027 13.4534ZM9.15778 13.4049L9.27636 13.3888L9.29118 13.5019L9.18742 13.5342L9.15778 13.4049ZM9.38011 13.3726L9.48387 13.3403L9.51351 13.4695L9.39493 13.4857L9.38011 13.3726ZM9.60244 13.3242L9.7062 13.308L9.72102 13.4211L9.61726 13.4372L9.60244 13.3242ZM9.80995 13.2757L9.92853 13.2596L9.94335 13.3726L9.8396 13.4049L9.80995 13.2757ZM10.0323 13.2434L10.136 13.2111L10.1657 13.3403L10.0471 13.3565L10.0323 13.2434ZM10.2546 13.195L10.3584 13.1626L10.3732 13.2919L10.2694 13.308L10.2546 13.195ZM10.4621 13.1465L10.5659 13.1303L10.5955 13.2434L10.4769 13.2757L10.4621 13.1465ZM10.6845 13.098L10.7882 13.0819L10.803 13.2111L10.6993 13.2273L10.6845 13.098ZM10.892 13.0657L11.0105 13.0334L11.0254 13.1626L10.9216 13.1788L10.892 13.0657ZM11.1143 13.0173L11.2181 13.0011L11.2477 13.1142L11.1291 13.1303L11.1143 13.0173ZM11.3366 12.9688L11.4404 12.9527L11.4552 13.0657L11.3515 13.098L11.3366 12.9688ZM11.5441 12.9365L11.6627 12.9042L11.6775 13.0334L11.5738 13.0496L11.5441 12.9365ZM11.7665 12.8881L11.8702 12.8719L11.8999 12.985L11.7813 13.0011L11.7665 12.8881ZM11.974 12.8396L12.0926 12.8234L12.1074 12.9365L12.0036 12.9688L11.974 12.8396ZM12.1963 12.8073L12.3001 12.775L12.3297 12.9042L12.2111 12.9204L12.1963 12.8073ZM12.4186 12.7588L12.5224 12.7427L12.5372 12.8557L12.4335 12.8719L12.4186 12.7588ZM12.6262 12.7104L12.7447 12.6942L12.7596 12.8073L12.6558 12.8396L12.6262 12.7104ZM12.8485 12.6781L12.9522 12.6458L12.9819 12.775L12.8633 12.7911L12.8485 12.6781ZM13.0708 12.6296L13.1746 12.6135L13.1894 12.7265L13.0856 12.7427L13.0708 12.6296ZM13.2783 12.5812L13.3969 12.565L13.4117 12.6781L13.308 12.7104L13.2783 12.5812ZM13.5007 12.5489L13.6044 12.5165L13.6192 12.6458L13.5155 12.6619L13.5007 12.5489ZM13.7082 12.5004L13.8268 12.4842L13.8416 12.5973L13.7378 12.6135L13.7082 12.5004ZM13.9305 12.4519L14.0343 12.4358L14.0639 12.5489L13.9453 12.5812L13.9305 12.4519ZM14.1528 12.4035L14.2566 12.3873L14.2714 12.5165L14.1677 12.5327L14.1528 12.4035ZM14.3603 12.3712L14.4789 12.3389L14.4937 12.4681L14.39 12.4842L14.3603 12.3712ZM14.5827 12.3227L14.6864 12.3066L14.7161 12.4196L14.5975 12.4519L14.5827 12.3227ZM14.805 12.2743L14.9088 12.2581L14.9236 12.3712L14.8198 12.4035L14.805 12.2743ZM15.0125 12.242L15.1311 12.2096L15.1459 12.3389L15.0422 12.355L15.0125 12.242ZM15.2349 12.1935L15.3386 12.1773L15.3534 12.2904L15.2497 12.3066L15.2349 12.1935ZM15.4424 12.145L15.5609 12.1289L15.5758 12.242L15.472 12.2743L15.4424 12.145ZM15.6647 12.1127L15.7684 12.0804L15.7981 12.2096L15.6795 12.2258L15.6647 12.1127ZM15.887 12.0643L15.9908 12.0481L16.0056 12.1612L15.9018 12.1773L15.887 12.0643ZM16.0945 12.0158L16.2131 11.9997L16.2279 12.1127L16.1242 12.145L16.0945 12.0158ZM16.3169 11.9835L16.4206 11.9512L16.4503 12.0804L16.3317 12.0966L16.3169 11.9835ZM16.5392 11.9351L16.643 11.9189L16.6578 12.032L16.554 12.0481L16.5392 11.9351ZM16.7467 11.8866L16.8653 11.8704L16.8801 11.9835L16.7764 12.0158L16.7467 11.8866ZM16.969 11.8543L17.0728 11.822L17.0876 11.9512L16.9839 11.9674L16.969 11.8543ZM17.1766 11.8058L17.2951 11.7897L17.31 11.9027L17.2062 11.9189L17.1766 11.8058ZM17.3989 11.7574L17.5026 11.7412L17.5323 11.8543L17.4137 11.8866L17.3989 11.7574ZM17.6212 11.7251L17.725 11.6928L17.7398 11.822L17.636 11.8381L17.6212 11.7251ZM17.8287 11.6766L17.9473 11.6443L17.9621 11.7735L17.8584 11.7897L17.8287 11.6766ZM18.0511 11.6282L18.1548 11.612L18.1845 11.7251L18.0659 11.7574L18.0511 11.6282ZM18.2734 11.5797L18.3771 11.5635L18.392 11.6928L18.2882 11.7089L18.2734 11.5797ZM18.4809 11.5474L18.5847 11.5151L18.6143 11.6443L18.5105 11.6605L18.4809 11.5474ZM18.7032 11.4989L18.807 11.4828L18.8218 11.5959L18.7181 11.612L18.7032 11.4989ZM18.9107 11.4505L19.0293 11.4343L19.0441 11.5474L18.9404 11.5797L18.9107 11.4505ZM19.1331 11.4182L19.2368 11.3859L19.2665 11.5151L19.1479 11.5312L19.1331 11.4182ZM19.3554 11.3697L19.4592 11.3536L19.474 11.4666L19.3702 11.4828L19.3554 11.3697ZM19.5629 11.3213L19.6815 11.3051L19.6963 11.4182L19.5926 11.4505L19.5629 11.3213ZM19.7852 11.289L19.889 11.2566L19.9186 11.3859L19.8001 11.402L19.7852 11.289ZM20.0076 11.2405L20.1113 11.2243L20.1262 11.3374L20.0224 11.3536L20.0076 11.2405ZM20.2151 11.192L20.3188 11.1759L20.3485 11.289L20.2299 11.3213L20.2151 11.192ZM20.4374 11.1597L20.5412 11.1274L20.556 11.2566L20.4522 11.2728L20.4374 11.1597ZM20.6449 11.1113L20.7635 11.0951L20.7783 11.2082L20.6746 11.2243L20.6449 11.1113ZM20.8673 11.0628L20.971 11.0467L21.0007 11.1597L20.8821 11.192L20.8673 11.0628ZM21.0896 11.0305L21.1934 10.9982L21.2082 11.1274L21.1044 11.1436L21.0896 11.0305ZM21.2971 10.9821L21.4157 10.9659L21.4305 11.079L21.3268 11.0951L21.2971 10.9821ZM21.5194 10.9336L21.6232 10.9174L21.6528 11.0305L21.5343 11.0628L21.5194 10.9336ZM21.7418 10.8851L21.8455 10.869L21.8603 10.9982L21.7566 11.0144L21.7418 10.8851ZM21.9493 10.8528L22.053 10.8205L22.0827 10.9498L21.9641 10.9659L21.9493 10.8528ZM22.1716 10.8044L22.2754 10.7882L22.2902 10.9013L22.1864 10.9336L22.1716 10.8044ZM22.3791 10.7559L22.4977 10.7398L22.5125 10.8528L22.4088 10.8851L22.3791 10.7559ZM22.6015 10.7236L22.7052 10.6913L22.7349 10.8205L22.6163 10.8367L22.6015 10.7236ZM22.8238 10.6752L22.9275 10.659L22.9424 10.7721L22.8386 10.7882L22.8238 10.6752ZM23.0313 10.6267L23.1499 10.6105L23.1647 10.7236L23.0609 10.7559L23.0313 10.6267ZM23.2536 10.5944L23.3574 10.5621L23.387 10.6913L23.2684 10.7075L23.2536 10.5944ZM23.476 10.5459L23.5797 10.5298L23.5945 10.6429L23.4908 10.659L23.476 10.5459ZM23.6835 10.4975L23.7872 10.4813L23.8169 10.5944L23.6983 10.6267L23.6835 10.4975ZM23.9058 10.4652L24.0096 10.4329L24.0244 10.5621L23.9206 10.5782L23.9058 10.4652ZM24.1133 10.4167L24.2319 10.4006L24.2467 10.5136L24.143 10.5298L24.1133 10.4167ZM24.3356 10.3683L24.4394 10.3521L24.469 10.4652L24.3505 10.4975L24.3356 10.3683ZM24.558 10.336L24.6617 10.3036L24.6766 10.4329L24.5728 10.449L24.558 10.336ZM24.7655 10.2875L24.8841 10.2713L24.8989 10.3844L24.7951 10.4006L24.7655 10.2875ZM24.9878 10.239L25.0916 10.2229L25.1212 10.336L25.0026 10.3683L24.9878 10.239ZM25.2101 10.1906L25.3139 10.1744L25.3287 10.3036L25.225 10.3198L25.2101 10.1906ZM25.4177 10.1583L25.5214 10.126L25.5511 10.2552L25.4325 10.2713L25.4177 10.1583ZM25.64 10.1098L25.7437 10.0937L25.7586 10.2067L25.6548 10.239L25.64 10.1098ZM25.8475 10.0614L25.9661 10.0452L25.9809 10.1744L25.8771 10.1906L25.8475 10.0614ZM26.0698 10.0291L26.1736 9.99675L26.2032 10.126L26.0847 10.1421L26.0698 10.0291ZM26.2922 9.9806L26.3959 9.96445L26.4107 10.0775L26.307 10.0937L26.2922 9.9806ZM26.4997 9.93214L26.6183 9.91599L26.6331 10.0291L26.5293 10.0614L26.4997 9.93214ZM26.722 9.89984L26.8258 9.86753L26.8554 9.99675L26.7368 10.0129L26.722 9.89984ZM26.9295 9.85138L27.0481 9.83523L27.0629 9.94829L26.9592 9.96445L26.9295 9.85138ZM27.1518 9.80292L27.2556 9.78677L27.2852 9.89984L27.1667 9.93214L27.1518 9.80292ZM27.3742 9.77061L27.4779 9.73831L27.4928 9.86753L27.389 9.88368L27.3742 9.77061ZM27.5817 9.72216L27.7003 9.706L27.7151 9.81907L27.6113 9.83523L27.5817 9.72216ZM27.804 9.6737L27.9078 9.65755L27.9374 9.77061L27.8188 9.80292L27.804 9.6737ZM28.0264 9.64139L28.1301 9.60909L28.1449 9.73831L28.0412 9.75446L28.0264 9.64139ZM28.2339 9.59294L28.3524 9.57678L28.3673 9.68985L28.2635 9.706L28.2339 9.59294ZM28.4562 9.54448L28.56 9.52833L28.5748 9.64139L28.471 9.6737L28.4562 9.54448ZM28.6637 9.51217L28.7823 9.47987L28.7971 9.60909L28.6934 9.62524L28.6637 9.51217ZM28.886 9.46372L28.9898 9.43141L29.0194 9.56063L28.9009 9.57678L28.886 9.46372ZM29.1084 9.41526L29.2121 9.39911L29.2269 9.51217L29.1232 9.54448L29.1084 9.41526ZM29.3159 9.3668L29.4345 9.35065L29.4493 9.47987L29.3455 9.49602L29.3159 9.3668ZM29.5382 9.3345L29.642 9.30219L29.6716 9.43141L29.553 9.44756L29.5382 9.3345ZM29.7605 9.28604L29.8643 9.26989L29.8791 9.38295L29.7754 9.41526L29.7605 9.28604ZM29.9681 9.23758L30.0866 9.22143L30.1015 9.3345L29.9977 9.3668L29.9681 9.23758ZM30.1904 9.20528L30.2941 9.17297L30.309 9.30219L30.2052 9.31834L30.1904 9.20528ZM30.3979 9.15682L30.5165 9.14067L30.5313 9.25373L30.4275 9.26989L30.3979 9.15682ZM30.6202 9.10836L30.724 9.09221L30.7536 9.20528L30.6351 9.23758L30.6202 9.10836ZM30.8426 9.07606L30.9463 9.04375L30.9611 9.17297L30.8574 9.18912L30.8426 9.07606ZM31.0501 9.0276L31.1686 9.01145L31.1835 9.12451L31.0797 9.14067L31.0501 9.0276ZM31.2724 8.97914L31.3762 8.96299L31.4058 9.07606L31.2872 9.10836L31.2724 8.97914ZM31.4947 8.94684L31.5985 8.91453L31.6133 9.04375L31.5096 9.0599L31.4947 8.94684ZM31.7022 8.89838L31.8208 8.88223L31.8356 8.99529L31.7319 9.01145L31.7022 8.89838ZM31.9246 8.84992L32.0283 8.83377L32.0432 8.94684L31.9394 8.97914L31.9246 8.84992ZM32.1321 8.81762L32.2507 8.78531L32.2655 8.91453L32.1617 8.93068L32.1321 8.81762ZM32.3544 8.76916L32.4582 8.753L32.4878 8.86607L32.3692 8.88223L32.3544 8.76916ZM32.5767 8.7207L32.6805 8.70455L32.6953 8.81762L32.5916 8.84992L32.5767 8.7207ZM32.7843 8.67224L32.9028 8.65609L32.9177 8.78531L32.8139 8.80146L32.7843 8.67224ZM33.0066 8.63994L33.1103 8.60763L33.14 8.73685L33.0214 8.753L33.0066 8.63994ZM33.2289 8.59148L33.3327 8.57533L33.3475 8.68839L33.2437 8.7207L33.2289 8.59148ZM33.4364 8.54302L33.555 8.52687L33.5698 8.63994L33.4661 8.67224L33.4364 8.54302ZM33.6588 8.51072L33.7625 8.47841L33.7773 8.60763L33.6736 8.62378L33.6588 8.51072ZM33.8663 8.46226L33.9849 8.44611L33.9997 8.55917L33.8959 8.57533L33.8663 8.46226ZM34.0886 8.4138L34.1924 8.39765L34.222 8.51072L34.1034 8.54302L34.0886 8.4138ZM34.3109 8.3815L34.4147 8.34919L34.4295 8.47841L34.3258 8.49456L34.3109 8.3815ZM34.5184 8.33304L34.637 8.31689L34.6518 8.42995L34.5481 8.44611L34.5184 8.33304ZM34.7408 8.28458L34.8445 8.26843L34.8742 8.3815L34.7556 8.4138L34.7408 8.28458ZM34.9631 8.25228L35.0669 8.21997L35.0817 8.34919L34.9779 8.36534L34.9631 8.25228ZM35.1706 8.20382L35.2744 8.18767L35.304 8.30073L35.1854 8.31689L35.1706 8.20382ZM35.393 8.15536L35.4967 8.13921L35.5115 8.25228L35.4078 8.28458L35.393 8.15536ZM35.6005 8.12306L35.719 8.09075L35.7339 8.21997L35.6301 8.23612L35.6005 8.12306ZM35.8228 8.0746L35.9266 8.05845L35.9562 8.17151L35.8376 8.18767L35.8228 8.0746ZM36.0451 8.02614L36.1489 8.00999L36.1637 8.12306L36.06 8.15536L36.0451 8.02614ZM36.2526 7.99384L36.3712 7.96153L36.386 8.09075L36.2823 8.1069L36.2526 7.99384ZM36.475 7.94538L36.5787 7.91307L36.6084 8.04229L36.4898 8.05845L36.475 7.94538ZM36.6973 7.89692L36.8011 7.88077L36.8159 7.99384L36.7121 8.02614L36.6973 7.89692ZM36.9048 7.84846L37.0086 7.83231L37.0382 7.96153L36.9196 7.97768L36.9048 7.84846ZM37.1271 7.81616L37.2309 7.78385L37.2457 7.91307L37.142 7.92923L37.1271 7.81616ZM37.3347 7.7677L37.4532 7.75155L37.4681 7.86462L37.3643 7.88077L37.3347 7.7677ZM37.557 7.71924L37.6607 7.70309L37.6904 7.81616L37.5718 7.84846L37.557 7.71924ZM37.7793 7.68694L37.8831 7.65463L37.8979 7.78385L37.7941 7.80001L37.7793 7.68694ZM37.9868 7.63848L38.1054 7.62233L38.1202 7.7354L38.0165 7.75155L37.9868 7.63848ZM38.2092 7.59002L38.3129 7.57387L38.3426 7.68694L38.224 7.71924L38.2092 7.59002ZM38.4315 7.55772L38.5352 7.52541L38.5501 7.65463L38.4463 7.67078L38.4315 7.55772ZM38.639 7.50926L38.7428 7.49311L38.7724 7.60617L38.6538 7.62233L38.639 7.50926ZM38.8613 7.4608L38.9651 7.44465L38.9799 7.55772L38.8762 7.59002L38.8613 7.4608ZM39.0688 7.4285L39.1874 7.39619L39.2022 7.52541L39.0985 7.54156L39.0688 7.4285ZM39.2912 7.38004L39.3949 7.36389L39.4246 7.47695L39.306 7.49311L39.2912 7.38004ZM39.5135 7.33158L39.6173 7.31543L39.6321 7.4285L39.5283 7.4608L39.5135 7.33158ZM39.721 7.29928L39.8396 7.26697L39.8544 7.39619L39.7507 7.41234L39.721 7.29928ZM39.9434 7.25082L40.0471 7.23467L40.0767 7.34773L39.9582 7.36389L39.9434 7.25082ZM40.1657 7.20236L40.2694 7.18621L40.2843 7.29928L40.1805 7.33158L40.1657 7.20236ZM40.3732 7.1539L40.4769 7.13775L40.5066 7.26697L40.388 7.28312L40.3732 7.1539ZM40.5955 7.1216L40.6993 7.08929L40.7141 7.21851L40.6103 7.23467L40.5955 7.1216ZM40.803 7.07314L40.9216 7.05699L40.9364 7.17006L40.8327 7.20236L40.803 7.07314ZM41.0254 7.02468L41.1291 7.00853L41.1588 7.1216L41.0402 7.1539L41.0254 7.02468ZM41.2477 6.99238L41.3515 6.96007L41.3663 7.08929L41.2625 7.10545L41.2477 6.99238ZM41.4552 6.94392L41.5738 6.92777L41.5886 7.04084L41.4849 7.05699L41.4552 6.94392ZM41.6775 6.89546L41.7813 6.87931L41.8109 6.99238L41.6924 7.02468L41.6775 6.89546ZM41.885 6.86316L42.0036 6.83085L42.0184 6.96007L41.9147 6.97623L41.885 6.86316ZM42.1074 6.8147L42.2111 6.79855L42.2408 6.91162L42.1222 6.92777L42.1074 6.8147ZM42.3297 6.76624L42.4335 6.75009L42.4483 6.86316L42.3445 6.89546L42.3297 6.76624ZM42.5372 6.73394L42.6558 6.70163L42.6706 6.83085L42.5669 6.84701L42.5372 6.73394ZM42.7596 6.68548L42.8633 6.66933L42.893 6.7824L42.7744 6.79855L42.7596 6.68548ZM42.9819 6.63702L43.0856 6.62087L43.1005 6.73394L42.9967 6.76624L42.9819 6.63702ZM43.1894 6.60472L43.308 6.57241L43.3228 6.70163L43.219 6.71779L43.1894 6.60472ZM43.4117 6.55626L43.5155 6.54011L43.5303 6.65317L43.4266 6.66933L43.4117 6.55626ZM43.6192 6.5078L43.7378 6.49165L43.7526 6.60472L43.6489 6.63702L43.6192 6.5078ZM43.8416 6.4755L43.9453 6.44319L43.975 6.57241L43.8564 6.58856L43.8416 6.4755ZM44.0639 6.42704L44.1677 6.39473L44.1825 6.52395L44.0787 6.54011L44.0639 6.42704ZM44.2714 6.37858L44.39 6.36243L44.4048 6.4755L44.3011 6.5078L44.2714 6.37858ZM44.4937 6.33012L44.5975 6.31397L44.6271 6.44319L44.5086 6.45934L44.4937 6.33012ZM44.7161 6.29782L44.8198 6.26551L44.8347 6.39473L44.7309 6.41089L44.7161 6.29782ZM44.9236 6.24936L45.0422 6.23321L45.057 6.34628L44.9532 6.36243L44.9236 6.24936ZM45.1459 6.2009L45.2497 6.18475L45.2645 6.29782L45.1607 6.33012L45.1459 6.2009ZM45.3534 6.1686L45.472 6.13629L45.4868 6.26551L45.3831 6.28167L45.3534 6.1686ZM45.5758 6.12014L45.6795 6.10399L45.7092 6.21706L45.5906 6.23321L45.5758 6.12014ZM45.7981 6.07168L45.9018 6.05553L45.9167 6.1686L45.8129 6.2009L45.7981 6.07168ZM46.0056 6.03938L46.1242 6.00707L46.139 6.13629L46.0352 6.15245L46.0056 6.03938ZM46.2279 5.99092L46.3317 5.97477L46.3613 6.08784L46.2428 6.10399L46.2279 5.99092ZM46.4503 5.94246L46.554 5.92631L46.5688 6.03938L46.4651 6.07168L46.4503 5.94246ZM46.6578 5.91016L46.7764 5.87785L46.7912 6.00707L46.6874 6.02323L46.6578 5.91016ZM46.8801 5.8617L46.9839 5.84555L46.9987 5.95862L46.8949 5.97477L46.8801 5.8617ZM47.0876 5.81324L47.2062 5.79709L47.221 5.91016L47.1173 5.94246L47.0876 5.81324ZM47.31 5.78094L47.4137 5.74863L47.4433 5.87785L47.3248 5.89401L47.31 5.78094ZM47.5323 5.73248L47.636 5.71633L47.6509 5.8294L47.5471 5.84555L47.5323 5.73248ZM47.7398 5.68402L47.8584 5.66787L47.8732 5.78094L47.7694 5.81324L47.7398 5.68402ZM47.9621 5.63557L48.0659 5.61941L48.0955 5.74863L47.9769 5.76479L47.9621 5.63557ZM48.1845 5.60326L48.2882 5.57095L48.303 5.70018L48.1993 5.71633L48.1845 5.60326ZM48.392 5.5548L48.5105 5.53865L48.5254 5.65172L48.4216 5.68402L48.392 5.5548ZM48.6143 5.50634L48.7181 5.49019L48.7329 5.60326L48.6291 5.63557L48.6143 5.50634ZM48.8218 5.47404L48.9404 5.44173L48.9552 5.57095L48.8515 5.58711L48.8218 5.47404ZM49.0441 5.42558L49.1479 5.40943L49.1775 5.5225L49.059 5.53865L49.0441 5.42558ZM49.2665 5.37712L49.3702 5.36097L49.385 5.47404L49.2813 5.50634L49.2665 5.37712ZM49.474 5.34482L49.5926 5.31251L49.6074 5.44173L49.5036 5.45789L49.474 5.34482ZM49.6963 5.29636L49.8001 5.28021L49.8297 5.39328L49.7111 5.40943L49.6963 5.29636ZM49.9186 5.2479L50.0224 5.23175L50.0372 5.34482L49.9335 5.37712L49.9186 5.2479ZM50.1262 5.2156L50.2299 5.18329L50.2596 5.31251L50.1558 5.32867L50.1262 5.2156ZM50.3485 5.16714L50.4522 5.15099L50.4671 5.26406L50.3633 5.28021L50.3485 5.16714ZM50.556 5.11868L50.6746 5.10253L50.6894 5.2156L50.5856 5.2479L50.556 5.11868ZM50.7783 5.08638L50.8821 5.05407L50.9117 5.18329L50.7932 5.19945L50.7783 5.08638ZM51.0007 5.03792L51.1044 5.02177L51.1192 5.13484L51.0155 5.15099L51.0007 5.03792ZM51.2082 4.98946L51.3267 4.97331L51.3416 5.08638L51.2378 5.11868L51.2082 4.98946ZM51.4305 4.95716L51.5343 4.92485L51.5639 5.05407L51.4453 5.07023L51.4305 4.95716ZM51.6528 4.9087L51.7566 4.8764L51.7714 5.00562L51.6677 5.02177L51.6528 4.9087ZM51.8603 4.86024L51.9641 4.84409L51.9937 4.95716L51.8752 4.98946L51.8603 4.86024ZM52.0827 4.81179L52.1864 4.79563L52.2013 4.92485L52.0975 4.94101L52.0827 4.81179ZM52.2902 4.77948L52.4088 4.74718L52.4236 4.8764L52.3198 4.89255L52.2902 4.77948ZM52.5125 4.73102L52.6163 4.71487L52.6459 4.82794L52.5273 4.84409L52.5125 4.73102ZM52.7349 4.68257L52.8386 4.66641L52.8534 4.77948L52.7497 4.81179L52.7349 4.68257ZM52.9424 4.65026L53.0609 4.61796L53.0758 4.74718L52.972 4.76333L52.9424 4.65026ZM53.1647 4.6018L53.2684 4.58565L53.2981 4.69872L53.1795 4.71487L53.1647 4.6018ZM53.387 4.55334L53.4908 4.53719L53.5056 4.65026L53.4018 4.68257L53.387 4.55334ZM53.5945 4.52104L53.6983 4.48873L53.7279 4.61796L53.6094 4.63411L53.5945 4.52104ZM53.8169 4.47258L53.9206 4.45643L53.9354 4.5695L53.8317 4.58565L53.8169 4.47258ZM54.0244 4.42412L54.143 4.40797L54.1578 4.52104L54.054 4.55334L54.0244 4.42412ZM54.2467 4.39182L54.3505 4.35951L54.3801 4.48873L54.2615 4.50489L54.2467 4.39182ZM54.469 4.34336L54.5728 4.32721L54.5876 4.44028L54.4839 4.45643L54.469 4.34336ZM54.6766 4.2949L54.7951 4.27875L54.81 4.39182L54.7062 4.42412L54.6766 4.2949ZM54.8989 4.2626L55.0026 4.23029L55.0323 4.35951L54.9137 4.37567L54.8989 4.2626ZM55.1212 4.21414L55.225 4.18184L55.2398 4.31106L55.136 4.32721L55.1212 4.21414ZM55.3287 4.16568L55.4325 4.14953L55.4621 4.2626L55.3435 4.2949L55.3287 4.16568ZM55.5511 4.11723L55.6548 4.10107L55.6696 4.23029L55.5659 4.24645L55.5511 4.11723ZM55.7586 4.08492L55.8771 4.05262L55.892 4.18184L55.7882 4.19799L55.7586 4.08492ZM55.9809 4.03646L56.0847 4.02031L56.1143 4.13338L55.9957 4.16568L55.9809 4.03646ZM56.2032 3.98801L56.307 3.97185L56.3218 4.08492L56.2181 4.11723L56.2032 3.98801ZM56.4107 3.9557L56.5293 3.9234L56.5441 4.05262L56.4404 4.06877L56.4107 3.9557ZM56.6331 3.90724L56.7368 3.89109L56.7665 4.00416L56.6479 4.02031L56.6331 3.90724ZM56.8406 3.85879L56.9592 3.84263L56.974 3.9557L56.8702 3.98801L56.8406 3.85879ZM57.0629 3.82648L57.1667 3.79418L57.1963 3.9234L57.0777 3.93955L57.0629 3.82648ZM57.2852 3.77802L57.389 3.76187L57.4038 3.87494L57.3001 3.89109L57.2852 3.77802ZM57.4928 3.72957L57.6113 3.71341L57.6262 3.82648L57.5224 3.85879L57.4928 3.72957ZM57.7151 3.69726L57.8188 3.66496L57.8485 3.79418L57.7299 3.81033L57.7151 3.69726ZM57.9374 3.6488L58.0412 3.63265L58.056 3.74572L57.9522 3.76187L57.9374 3.6488ZM58.1449 3.60035L58.2635 3.58419L58.2783 3.69726L58.1746 3.72957L58.1449 3.60035ZM58.3673 3.56804L58.471 3.53574L58.4858 3.66496L58.3821 3.68111L58.3673 3.56804ZM58.5748 3.51958L58.6933 3.50343L58.7082 3.6165L58.6044 3.63265L58.5748 3.51958ZM58.7971 3.47112L58.9009 3.45497L58.9305 3.56804L58.8119 3.60035L58.7971 3.47112ZM59.0194 3.42267L59.1232 3.40651L59.138 3.53574L59.0343 3.55189L59.0194 3.42267ZM59.2269 3.39036L59.3455 3.35806L59.3603 3.48728L59.2566 3.50343L59.2269 3.39036ZM59.4493 3.3419L59.553 3.32575L59.5827 3.43882L59.4641 3.47112L59.4493 3.3419ZM59.6716 3.29345L59.7754 3.27729L59.7902 3.40651L59.6864 3.42267L59.6716 3.29345ZM59.8791 3.26114L59.9977 3.22884L60.0125 3.35806L59.9088 3.37421L59.8791 3.26114ZM60.1015 3.21268L60.2052 3.19653L60.22 3.3096L60.1163 3.32575L60.1015 3.21268ZM60.309 3.16423L60.4275 3.14807L60.4424 3.26114L60.3386 3.29345L60.309 3.16423ZM60.5313 3.13192L60.635 3.09962L60.6647 3.22884L60.5461 3.24499L60.5313 3.13192ZM60.7536 3.08346L60.8574 3.06731L60.8722 3.18038L60.7684 3.19653L60.7536 3.08346ZM60.9611 3.03501L61.0797 3.01885L61.0945 3.13192L60.9908 3.16423L60.9611 3.03501ZM61.1835 3.0027L61.2872 2.9704L61.3169 3.09962L61.1983 3.11577L61.1835 3.0027ZM61.4058 2.95424L61.5096 2.93809L61.5244 3.05116L61.4206 3.06731L61.4058 2.95424ZM61.6133 2.90579L61.7319 2.88963L61.7467 3.0027L61.643 3.03501L61.6133 2.90579ZM61.8356 2.87348L61.9394 2.84118L61.9542 2.9704L61.8505 2.98655L61.8356 2.87348ZM62.0432 2.82502L62.1617 2.80887L62.1766 2.92194L62.0728 2.93809L62.0432 2.82502ZM62.2655 2.77657L62.3692 2.76041L62.3989 2.87348L62.2803 2.90579L62.2655 2.77657ZM62.4878 2.74426L62.5916 2.71196L62.6064 2.84118L62.5026 2.85733L62.4878 2.74426ZM62.6953 2.6958L62.8139 2.6635L62.8287 2.79272L62.725 2.80887L62.6953 2.6958ZM62.9177 2.64735L63.0214 2.63119L63.0511 2.74426L62.9325 2.77657L62.9177 2.64735ZM63.14 2.59889L63.2437 2.58274L63.2586 2.71196L63.1548 2.72811L63.14 2.59889ZM63.3475 2.56658L63.4661 2.53428L63.4809 2.6635L63.3771 2.67965L63.3475 2.56658ZM63.5698 2.51813L63.6736 2.50197L63.6884 2.61504L63.5847 2.63119L63.5698 2.51813ZM63.7773 2.46967L63.8959 2.45351L63.9107 2.56658L63.807 2.59889L63.7773 2.46967ZM63.9997 2.43736L64.1034 2.40506L64.1331 2.53428L64.0145 2.55043L63.9997 2.43736ZM64.222 2.3889L64.3258 2.37275L64.3406 2.48582L64.2368 2.50197L64.222 2.3889ZM64.4295 2.34045L64.5481 2.32429L64.5629 2.43736L64.4592 2.46967L64.4295 2.34045ZM64.6518 2.30814L64.7556 2.27584L64.7852 2.40506L64.6667 2.42121L64.6518 2.30814ZM64.8742 2.25968L64.9779 2.24353L64.9928 2.3566L64.889 2.37275L64.8742 2.25968ZM65.0817 2.21123L65.1854 2.19507L65.2151 2.30814L65.1113 2.34045L65.0817 2.21123ZM65.304 2.17892L65.4078 2.14662L65.4226 2.27584L65.3188 2.29199L65.304 2.17892ZM65.5115 2.13046L65.6301 2.11431L65.6449 2.22738L65.5412 2.24353L65.5115 2.13046ZM65.7339 2.08201L65.8376 2.06585L65.8673 2.17892L65.7487 2.21123L65.7339 2.08201ZM65.9562 2.0497L66.0599 2.0174L66.0748 2.14662L65.971 2.16277L65.9562 2.0497ZM66.1637 2.00124L66.2823 1.98509L66.2971 2.09816L66.1933 2.11431L66.1637 2.00124ZM66.386 1.95279L66.4898 1.93663L66.5194 2.0497L66.4009 2.08201L66.386 1.95279ZM66.6084 1.90433L66.7121 1.88818L66.7269 2.0174L66.6232 2.03355L66.6084 1.90433ZM66.8159 1.87202L66.9196 1.83972L66.9493 1.96894L66.8307 1.98509L66.8159 1.87202ZM67.0382 1.82357L67.142 1.80741L67.1568 1.92048L67.053 1.95279L67.0382 1.82357ZM67.2457 1.77511L67.3643 1.75896L67.3791 1.87202L67.2754 1.90433L67.2457 1.77511ZM67.4681 1.7428L67.5718 1.7105L67.6015 1.83972L67.4829 1.85587L67.4681 1.7428ZM67.6904 1.69435L67.7941 1.67819L67.809 1.79126L67.7052 1.80741L67.6904 1.69435ZM67.8979 1.64589L68.0165 1.62974L68.0313 1.7428L67.9275 1.77511L67.8979 1.64589ZM68.1202 1.61358L68.224 1.58128L68.2536 1.7105L68.135 1.72665L68.1202 1.61358ZM68.3426 1.56513L68.4463 1.54897L68.4611 1.66204L68.3574 1.67819L68.3426 1.56513ZM68.5501 1.51667L68.6538 1.50052L68.6835 1.61358L68.5649 1.64589L68.5501 1.51667ZM68.7724 1.48436L68.8762 1.45206L68.891 1.58128L68.7872 1.59743L68.7724 1.48436ZM68.9799 1.43591L69.0985 1.41975L69.1133 1.53282L69.0096 1.54897L68.9799 1.43591ZM69.2022 1.38745L69.306 1.37129L69.3356 1.48436L69.2171 1.51667L69.2022 1.38745ZM69.4246 1.35514L69.5283 1.32284L69.5432 1.45206L69.4394 1.46821L69.4246 1.35514ZM69.6321 1.30668L69.7507 1.29053L69.7655 1.4036L69.6617 1.41975L69.6321 1.30668ZM69.8544 1.25823L69.9582 1.24207L69.9878 1.35514L69.8692 1.38745L69.8544 1.25823ZM70.0767 1.22592L70.1805 1.19362L70.1953 1.32284L70.0916 1.33899L70.0767 1.22592ZM70.2843 1.17746L70.388 1.14516L70.4177 1.27438L70.2991 1.29053L70.2843 1.17746ZM70.5066 1.12901L70.6103 1.11285L70.6252 1.22592L70.5214 1.25823L70.5066 1.12901ZM70.7141 1.08055L70.8327 1.0644L70.8475 1.19362L70.7437 1.20977L70.7141 1.08055ZM70.9364 1.04824L71.0402 1.01594L71.0698 1.14516L70.9513 1.16131L70.9364 1.04824ZM71.1588 0.999787L71.2625 0.983634L71.2773 1.0967L71.1736 1.11285L71.1588 0.999787ZM71.3663 0.951329L71.4849 0.935176L71.4997 1.04824L71.3959 1.08055L71.3663 0.951329ZM71.5886 0.919024L71.6924 0.886719L71.722 1.01594L71.6034 1.03209L71.5886 0.919024ZM71.8554 0.951329L71.8702 1.0644L71.7665 1.0967L71.7368 0.967481L71.8554 0.951329ZM71.885 1.19362L71.9147 1.30668L71.7961 1.32284L71.7813 1.20977L71.885 1.19362ZM71.9295 1.43591L71.9443 1.54897L71.8406 1.56513L71.8258 1.45206L71.9295 1.43591ZM71.974 1.66204L71.9888 1.79126L71.885 1.80741L71.8554 1.69435L71.974 1.66204ZM72.0036 1.90433L72.0184 2.03355L71.9147 2.0497L71.8999 1.92048L72.0036 1.90433ZM72.0481 2.14662L72.0629 2.25968L71.9592 2.29199L71.9295 2.16277L72.0481 2.14662ZM72.0777 2.3889L72.1074 2.50197L71.9888 2.53428L71.974 2.40506L72.0777 2.3889ZM72.1222 2.63119L72.137 2.74426L72.0333 2.76041L72.0184 2.64735L72.1222 2.63119ZM72.1667 2.85733L72.1815 2.98655L72.0777 3.0027L72.0481 2.88963L72.1667 2.85733ZM72.1963 3.09962L72.226 3.22884L72.1074 3.24499L72.0926 3.13192L72.1963 3.09962ZM72.2408 3.3419L72.2556 3.45497L72.1518 3.48728L72.137 3.35806L72.2408 3.3419ZM72.2852 3.58419L72.3001 3.69726L72.1963 3.72957L72.1667 3.60035L72.2852 3.58419ZM72.3149 3.82648L72.3445 3.93955L72.226 3.9557L72.2111 3.84263L72.3149 3.82648ZM72.3594 4.05262L72.3742 4.18184L72.2704 4.19799L72.2556 4.08492L72.3594 4.05262ZM72.4038 4.2949L72.4186 4.42412L72.3149 4.44028L72.2852 4.32721L72.4038 4.2949ZM72.4335 4.53719L72.4631 4.66641L72.3445 4.68257L72.3297 4.55334L72.4335 4.53719ZM72.4779 4.77948L72.4928 4.89255L72.389 4.92485L72.3742 4.79563L72.4779 4.77948ZM72.5224 5.02177L72.5372 5.13484L72.4335 5.15099L72.4038 5.03792L72.5224 5.02177ZM72.552 5.26406L72.5817 5.37712L72.4631 5.39328L72.4483 5.28021L72.552 5.26406ZM72.5965 5.49019L72.6113 5.61941L72.5076 5.63557L72.4928 5.5225L72.5965 5.49019ZM72.641 5.73248L72.6558 5.8617L72.552 5.87785L72.5224 5.76479L72.641 5.73248ZM72.6706 5.97477L72.6854 6.08784L72.5817 6.12014L72.5669 5.99092L72.6706 5.97477ZM72.7151 6.21706L72.7299 6.33012L72.6262 6.36243L72.5965 6.23321L72.7151 6.21706ZM72.7447 6.45934L72.7744 6.57241L72.6558 6.58856L72.641 6.4755L72.7447 6.45934ZM72.7892 6.68548L72.804 6.8147L72.7003 6.83085L72.6854 6.71779L72.7892 6.68548ZM72.8337 6.92777L72.8485 7.05699L72.7447 7.07314L72.7151 6.96007L72.8337 6.92777ZM72.8633 7.17006L72.893 7.28312L72.7744 7.31543L72.7596 7.18621L72.8633 7.17006ZM72.9078 7.41234L72.9226 7.52541L72.8188 7.55772L72.804 7.4285L72.9078 7.41234ZM72.9522 7.65463L72.9671 7.7677L72.8633 7.78385L72.8337 7.67078L72.9522 7.65463ZM72.9819 7.88077L73.0115 8.00999L72.893 8.02614L72.8781 7.91307L72.9819 7.88077ZM73.0264 8.12306L73.0412 8.25228L72.9374 8.26843L72.9226 8.15536L73.0264 8.12306ZM73.0708 8.36534L73.0856 8.49456L72.9819 8.51072L72.9522 8.3815L73.0708 8.36534ZM73.1005 8.60763L73.1301 8.7207L73.0115 8.753L72.9967 8.62378L73.1005 8.60763ZM73.1449 8.84992L73.1598 8.96299L73.056 8.97914L73.0412 8.86607L73.1449 8.84992ZM73.1894 9.09221L73.2042 9.20528L73.1005 9.22143L73.0708 9.10836L73.1894 9.09221ZM73.219 9.31834L73.2487 9.44756L73.1301 9.46372L73.1153 9.35065L73.219 9.31834ZM73.2635 9.56063L73.2783 9.68985L73.1746 9.706L73.1598 9.59294L73.2635 9.56063ZM73.308 9.80292L73.3228 9.91599L73.219 9.94829L73.1894 9.81907L73.308 9.80292ZM73.3376 10.0452L73.3524 10.1583L73.2487 10.1906L73.2339 10.0614L73.3376 10.0452ZM73.3821 10.2875L73.3969 10.4006L73.2932 10.4167L73.2635 10.3036L73.3821 10.2875ZM73.4117 10.5136L73.4414 10.6429L73.3228 10.659L73.308 10.5459L73.4117 10.5136ZM73.4562 10.7559L73.471 10.8851L73.3673 10.9013L73.3524 10.7882L73.4562 10.7559ZM73.5007 10.9982L73.5155 11.1113L73.4117 11.1436L73.3821 11.0144L73.5007 10.9982ZM73.5303 11.2405L73.5599 11.3536L73.4414 11.3859L73.4266 11.2566L73.5303 11.2405ZM73.5748 11.4828L73.5896 11.5959L73.4858 11.612L73.471 11.4989L73.5748 11.4828ZM73.6192 11.7251L73.6341 11.8381L73.5303 11.8543L73.5007 11.7412L73.6192 11.7251ZM73.6489 11.9512L73.6785 12.0804L73.5599 12.0966L73.5451 11.9835L73.6489 11.9512ZM73.6933 12.1935L73.7082 12.3227L73.6044 12.3389L73.5896 12.2096L73.6933 12.1935ZM73.7378 12.4358L73.7526 12.5489L73.6489 12.5812L73.6192 12.4519L73.7378 12.4358ZM73.7675 12.6781L73.7971 12.7911L73.6785 12.8234L73.6637 12.6942L73.7675 12.6781ZM73.723 12.9527L73.6192 12.9688L73.5896 12.8557L73.7082 12.8396L73.723 12.9527ZM73.5007 13.0011L73.3969 13.0173L73.3821 12.9042L73.4858 12.8719L73.5007 13.0011ZM73.2932 13.0334L73.1894 13.0657L73.1598 12.9365L73.2783 12.9204L73.2932 13.0334ZM73.0708 13.0819L72.9671 13.098L72.9522 12.985L73.056 12.9688L73.0708 13.0819ZM72.8633 13.1303L72.7447 13.1465L72.7299 13.0334L72.8337 13.0011L72.8633 13.1303ZM72.641 13.1626L72.5372 13.195L72.5076 13.0657L72.6262 13.0496L72.641 13.1626ZM72.4186 13.2111L72.3149 13.2273L72.3001 13.1142L72.4038 13.098L72.4186 13.2111ZM72.2111 13.2596L72.0926 13.2757L72.0777 13.1626L72.1815 13.1303L72.2111 13.2596ZM71.9888 13.2919L71.885 13.3242L71.8554 13.195L71.974 13.1788L71.9888 13.2919ZM71.7665 13.3403L71.6627 13.3565L71.6479 13.2434L71.7516 13.2273L71.7665 13.3403ZM71.559 13.3888L71.4552 13.4049L71.4256 13.2919L71.5441 13.2596L71.559 13.3888ZM71.3366 13.4372L71.2329 13.4534L71.2181 13.3242L71.3218 13.308L71.3366 13.4372ZM71.1291 13.4695L71.0105 13.5019L70.9957 13.3726L71.0995 13.3565L71.1291 13.4695ZM70.9068 13.518L70.803 13.5342L70.7734 13.4211L70.892 13.3888L70.9068 13.518ZM70.6845 13.5665L70.5807 13.5826L70.5659 13.4695L70.6696 13.4372L70.6845 13.5665ZM70.4769 13.5988L70.3584 13.6311L70.3435 13.5019L70.4473 13.4857L70.4769 13.5988ZM70.2546 13.6472L70.1509 13.6634L70.1212 13.5503L70.2398 13.5342L70.2546 13.6472ZM70.0471 13.6957L69.9285 13.7118L69.9137 13.5988L70.0175 13.5665L70.0471 13.6957ZM69.8248 13.728L69.721 13.7603L69.6914 13.6311L69.8099 13.6149L69.8248 13.728ZM69.6024 13.7764L69.4987 13.7926L69.4839 13.6795L69.5876 13.6634L69.6024 13.7764ZM69.3949 13.8249L69.2764 13.8411L69.2615 13.728L69.3653 13.6957L69.3949 13.8249ZM69.1726 13.8572L69.0688 13.8895L69.0392 13.7603L69.1578 13.7441L69.1726 13.8572ZM68.9503 13.9057L68.8465 13.9218L68.8317 13.8087L68.9354 13.7926L68.9503 13.9057ZM68.7428 13.9541L68.6242 13.9703L68.6094 13.8572L68.7131 13.8249L68.7428 13.9541ZM68.5204 13.9864L68.4167 14.0187L68.4018 13.8895L68.5056 13.8734L68.5204 13.9864ZM68.3129 14.0349L68.1943 14.051L68.1795 13.938L68.2833 13.9218L68.3129 14.0349ZM68.0906 14.0833L67.9868 14.0995L67.9572 13.9864L68.0758 13.9541L68.0906 14.0833ZM67.8683 14.1156L67.7645 14.148L67.7497 14.0187L67.8534 14.0026L67.8683 14.1156ZM67.6607 14.1641L67.5422 14.1964L67.5273 14.0672L67.6311 14.051L67.6607 14.1641ZM67.4384 14.2126L67.3347 14.2287L67.305 14.1156L67.4236 14.0833L67.4384 14.2126ZM67.2161 14.261L67.1123 14.2772L67.0975 14.148L67.2013 14.1318L67.2161 14.261ZM67.0086 14.2933L66.89 14.3256L66.8752 14.1964L66.9789 14.1803L67.0086 14.2933ZM66.7862 14.3418L66.6825 14.3579L66.6677 14.2449L66.7714 14.2287L66.7862 14.3418ZM66.5787 14.3902L66.4601 14.4064L66.4453 14.2933L66.5491 14.261L66.5787 14.3902ZM66.3564 14.4225L66.2526 14.4549L66.223 14.3256L66.3416 14.3095L66.3564 14.4225ZM66.1341 14.471L66.0303 14.4872L66.0155 14.3741L66.1192 14.3579L66.1341 14.471ZM65.9266 14.5195L65.808 14.5356L65.7932 14.4225L65.8969 14.3902L65.9266 14.5195ZM65.7042 14.5518L65.6005 14.5841L65.5708 14.4549L65.6894 14.4387L65.7042 14.5518ZM65.4819 14.6002L65.3781 14.6164L65.3633 14.5033L65.4671 14.4872L65.4819 14.6002ZM65.2744 14.6487L65.1558 14.6648L65.141 14.5518L65.2447 14.5195L65.2744 14.6487ZM65.052 14.681L64.9483 14.7133L64.9335 14.5841L65.0372 14.5679L65.052 14.681ZM64.8445 14.7294L64.726 14.7456L64.7111 14.6325L64.8149 14.6164L64.8445 14.7294ZM64.6222 14.7779L64.5184 14.7941L64.4888 14.681L64.6074 14.6487L64.6222 14.7779ZM64.3999 14.8102L64.2961 14.8425L64.2813 14.7133L64.385 14.6971L64.3999 14.8102ZM64.1924 14.8587L64.0738 14.8748L64.059 14.7617L64.1627 14.7456L64.1924 14.8587ZM63.97 14.9071L63.8663 14.9233L63.8366 14.8102L63.9552 14.7779L63.97 14.9071ZM63.7477 14.9556L63.6439 14.9717L63.6291 14.8425L63.7329 14.8264L63.7477 14.9556ZM63.5402 14.9879L63.4216 15.0202L63.4068 14.891L63.5105 14.8748L63.5402 14.9879ZM63.3179 15.0363L63.2141 15.0525L63.1993 14.9394L63.303 14.9071L63.3179 15.0363ZM63.1103 15.0848L62.9918 15.101L62.9769 14.9879L63.0807 14.9556L63.1103 15.0848ZM62.888 15.1171L62.7843 15.1494L62.7546 15.0202L62.8732 15.004L62.888 15.1171ZM62.6657 15.1656L62.5619 15.1817L62.5471 15.0686L62.6509 15.0525L62.6657 15.1656ZM62.4582 15.214L62.3396 15.2302L62.3248 15.1171L62.4285 15.0848L62.4582 15.214ZM62.2358 15.2463L62.1321 15.2786L62.1024 15.1494L62.221 15.1333L62.2358 15.2463ZM62.0135 15.2948L61.9098 15.3109L61.8949 15.1979L61.9987 15.1817L62.0135 15.2948ZM61.806 15.3432L61.7022 15.3594L61.6726 15.2463L61.7764 15.214L61.806 15.3432ZM61.5837 15.3755L61.4799 15.4079L61.4651 15.2786L61.5688 15.2625L61.5837 15.3755ZM61.3762 15.424L61.2576 15.4402L61.2428 15.3271L61.3465 15.3109L61.3762 15.424ZM61.1538 15.4725L61.0501 15.4886L61.0204 15.3755L61.139 15.3432L61.1538 15.4725ZM60.9315 15.5048L60.8277 15.5371L60.8129 15.4079L60.9167 15.3917L60.9315 15.5048ZM60.724 15.5532L60.6054 15.5694L60.5906 15.4563L60.6943 15.4402L60.724 15.5532ZM60.5016 15.6017L60.3979 15.6178L60.3683 15.5048L60.4868 15.4725L60.5016 15.6017ZM60.2793 15.634L60.1756 15.6663L60.1607 15.5371L60.2645 15.5209L60.2793 15.634ZM60.0718 15.6824L59.9681 15.7147L59.9384 15.5855L60.057 15.5694L60.0718 15.6824ZM59.8495 15.7309L59.7457 15.7471L59.7309 15.634L59.8347 15.6017L59.8495 15.7309ZM59.642 15.7794L59.5234 15.7955L59.5086 15.6663L59.6123 15.6501L59.642 15.7794ZM59.4196 15.8117L59.3159 15.844L59.2862 15.7147L59.4048 15.6986L59.4196 15.8117ZM59.1973 15.8601L59.0935 15.8763L59.0787 15.7632L59.1825 15.7471L59.1973 15.8601ZM58.9898 15.9086L58.8712 15.9247L58.8564 15.8117L58.9601 15.7794L58.9898 15.9086ZM58.7675 15.9409L58.6637 15.9732L58.6341 15.844L58.7526 15.8278L58.7675 15.9409ZM58.5451 15.9893L58.4414 16.0055L58.4266 15.8924L58.5303 15.8763L58.5451 15.9893ZM58.3376 16.0378L58.2339 16.054L58.2042 15.9409L58.3228 15.9086L58.3376 16.0378ZM58.1153 16.0701L58.0115 16.1024L57.9967 15.9732L58.1005 15.957L58.1153 16.0701ZM57.9078 16.1186L57.7892 16.1347L57.7744 16.0216L57.8781 16.0055L57.9078 16.1186ZM57.6854 16.167L57.5817 16.1832L57.552 16.0701L57.6706 16.0378L57.6854 16.167ZM57.4631 16.1993L57.3594 16.2316L57.3445 16.1024L57.4483 16.0863L57.4631 16.1993ZM57.2556 16.2478L57.137 16.2639L57.1222 16.1509L57.226 16.1347L57.2556 16.2478ZM57.0333 16.2962L56.9295 16.3124L56.8999 16.1993L57.0184 16.167L57.0333 16.2962ZM56.8109 16.3285L56.7072 16.3609L56.6924 16.2316L56.7961 16.2155L56.8109 16.3285ZM56.6034 16.377L56.4997 16.4093L56.47 16.2801L56.5886 16.2639L56.6034 16.377ZM56.3811 16.4255L56.2773 16.4416L56.2625 16.3285L56.3663 16.2962L56.3811 16.4255ZM56.1736 16.4739L56.055 16.4901L56.0402 16.3609L56.1439 16.3447L56.1736 16.4739ZM55.9513 16.5062L55.8475 16.5385L55.8179 16.4093L55.9364 16.3932L55.9513 16.5062ZM55.7289 16.5547L55.6252 16.5708L55.6103 16.4578L55.7141 16.4255L55.7289 16.5547ZM55.5214 16.6031L55.4028 16.6193L55.388 16.5062L55.4918 16.4739L55.5214 16.6031ZM55.2991 16.6354L55.1953 16.6677L55.1657 16.5385L55.2843 16.5224L55.2991 16.6354ZM55.0767 16.6839L54.973 16.7001L54.9582 16.587L55.0619 16.5708L55.0767 16.6839ZM54.8692 16.7324L54.7655 16.7485L54.7358 16.6354L54.8544 16.6031L54.8692 16.7324ZM54.6469 16.7647L54.5432 16.797L54.5283 16.6677L54.6321 16.6516L54.6469 16.7647ZM54.4394 16.8131L54.3208 16.8293L54.306 16.7162L54.4098 16.7001L54.4394 16.8131ZM54.2171 16.8616L54.1133 16.8777L54.0837 16.7647L54.2022 16.7324L54.2171 16.8616ZM53.9947 16.8939L53.891 16.9262L53.8762 16.797L53.9799 16.7808L53.9947 16.8939ZM53.7872 16.9423L53.6686 16.9585L53.6538 16.8454L53.7576 16.8293L53.7872 16.9423ZM53.5649 16.9908L53.4611 17.007L53.4463 16.8939L53.5501 16.8616L53.5649 16.9908ZM53.3574 17.0231L53.2388 17.0554L53.224 16.9262L53.3277 16.91L53.3574 17.0231ZM53.135 17.0716L53.0313 17.0877L53.0017 16.9746L53.1202 16.9585L53.135 17.0716ZM52.9127 17.12L52.809 17.1362L52.7941 17.0231L52.8979 16.9908L52.9127 17.12ZM52.7052 17.1685L52.5866 17.1846L52.5718 17.0554L52.6756 17.0393L52.7052 17.1685ZM52.4829 17.2008L52.3791 17.2331L52.3495 17.1039L52.4681 17.0877L52.4829 17.2008ZM52.2605 17.2492L52.1568 17.2654L52.142 17.1523L52.2457 17.12L52.2605 17.2492ZM52.053 17.2977L51.9345 17.3139L51.9196 17.1846L52.0234 17.1685L52.053 17.2977ZM51.8307 17.33L51.7269 17.3623L51.7121 17.2331L51.8159 17.2169L51.8307 17.33ZM51.6232 17.3785L51.5046 17.3946L51.4898 17.2815L51.5935 17.2654L51.6232 17.3785ZM51.4009 17.4269L51.2971 17.4431L51.2675 17.33L51.386 17.2977L51.4009 17.4269ZM51.1785 17.4592L51.0748 17.4915L51.06 17.3623L51.1637 17.3462L51.1785 17.4592ZM50.971 17.5077L50.8524 17.5238L50.8376 17.4108L50.9414 17.3946L50.971 17.5077ZM50.7487 17.5561L50.6449 17.5723L50.6153 17.4592L50.7339 17.4269L50.7487 17.5561ZM50.5264 17.5884L50.4226 17.6207L50.4078 17.4915L50.5115 17.4754L50.5264 17.5884ZM50.3188 17.6369L50.2003 17.6531L50.1854 17.54L50.2892 17.5238L50.3188 17.6369ZM50.0965 17.6854L49.9928 17.7015L49.9779 17.5884L50.0817 17.5561L50.0965 17.6854ZM49.889 17.7177L49.7704 17.75L49.7556 17.6207L49.8594 17.6046L49.889 17.7177ZM49.6667 17.7661L49.5629 17.7823L49.5333 17.6692L49.6518 17.6531L49.6667 17.7661ZM49.4443 17.8146L49.3406 17.8307L49.3258 17.7177L49.4295 17.6854L49.4443 17.8146ZM49.2368 17.8469L49.1183 17.8792L49.1034 17.75L49.2072 17.7338L49.2368 17.8469ZM49.0145 17.8953L48.9107 17.9276L48.8811 17.7984L48.9997 17.7823L49.0145 17.8953ZM48.7922 17.9438L48.6884 17.96L48.6736 17.8469L48.7773 17.8146L48.7922 17.9438ZM48.5847 17.9923L48.4661 18.0084L48.4513 17.8792L48.555 17.863L48.5847 17.9923ZM48.3623 18.0246L48.2586 18.0569L48.2437 17.9276L48.3475 17.9115L48.3623 18.0246ZM48.1548 18.073L48.0362 18.0892L48.0214 17.9761L48.1252 17.96L48.1548 18.073ZM47.9325 18.1215L47.8287 18.1376L47.7991 18.0246L47.9177 17.9923L47.9325 18.1215ZM47.7101 18.1538L47.6064 18.1861L47.5916 18.0569L47.6953 18.0407L47.7101 18.1538ZM47.5026 18.2022L47.3841 18.2184L47.3692 18.1053L47.473 18.0892L47.5026 18.2022ZM47.2803 18.2507L47.1766 18.2669L47.1469 18.1538L47.2655 18.1215L47.2803 18.2507ZM47.058 18.283L46.9542 18.3153L46.9394 18.1861L47.0432 18.1699L47.058 18.283ZM46.8505 18.3315L46.7467 18.3476L46.7171 18.2345L46.8208 18.2184L46.8505 18.3315ZM46.6281 18.3799L46.5244 18.3961L46.5096 18.283L46.6133 18.2507L46.6281 18.3799ZM46.4206 18.4122L46.302 18.4445L46.2872 18.3153L46.391 18.2992L46.4206 18.4122ZM46.1983 18.4607L46.0945 18.4768L46.0649 18.3638L46.1835 18.3476L46.1983 18.4607ZM45.976 18.5091L45.8722 18.5253L45.8574 18.4122L45.9611 18.3799L45.976 18.5091ZM45.7684 18.5414L45.6499 18.5737L45.635 18.4445L45.7388 18.4284L45.7684 18.5414ZM45.5461 18.5899L45.4424 18.6061L45.4127 18.493L45.5313 18.4768L45.5461 18.5899ZM45.3238 18.6384L45.22 18.6545L45.2052 18.5414L45.309 18.5091L45.3238 18.6384ZM45.1163 18.6868L45.0125 18.703L44.9829 18.5737L45.1015 18.5576L45.1163 18.6868ZM44.8939 18.7191L44.7902 18.7514L44.7754 18.6222L44.8791 18.6061L44.8939 18.7191ZM44.6864 18.7676L44.5679 18.7837L44.553 18.6707L44.6568 18.6384L44.6864 18.7676ZM44.4641 18.816L44.3603 18.8322L44.3307 18.7191L44.4493 18.6868L44.4641 18.816ZM44.2418 18.8483L44.138 18.8806L44.1232 18.7514L44.2269 18.7353L44.2418 18.8483ZM44.0343 18.8968L43.9157 18.913L43.9009 18.7999L44.0046 18.7837L44.0343 18.8968ZM43.8119 18.9453L43.7082 18.9614L43.6785 18.8483L43.7971 18.816L43.8119 18.9453ZM43.5896 18.9776L43.4858 19.0099L43.471 18.8806L43.5748 18.8645L43.5896 18.9776ZM43.3821 19.026L43.2783 19.0422L43.2487 18.9291L43.3673 18.913L43.3821 19.026ZM43.1598 19.0745L43.056 19.0906L43.0412 18.9776L43.1449 18.9453L43.1598 19.0745ZM42.9522 19.1068L42.8337 19.1391L42.8188 19.0099L42.9226 18.9937L42.9522 19.1068ZM42.7299 19.1552L42.6262 19.1714L42.5965 19.0583L42.7151 19.0422L42.7299 19.1552ZM42.5076 19.2037L42.4038 19.2198L42.389 19.1068L42.4928 19.0745L42.5076 19.2037ZM42.3001 19.236L42.1815 19.2683L42.1667 19.1391L42.2704 19.1229L42.3001 19.236ZM42.0777 19.2845L41.974 19.3006L41.9443 19.1875L42.0629 19.1714L42.0777 19.2845ZM41.8554 19.3329L41.7517 19.3491L41.7368 19.236L41.8406 19.2037L41.8554 19.3329ZM41.6479 19.3652L41.5441 19.3975L41.5145 19.2683L41.6331 19.2522L41.6479 19.3652ZM41.4256 19.4137L41.3218 19.446L41.307 19.3168L41.4107 19.3006L41.4256 19.4137ZM41.2181 19.4621L41.0995 19.4783L41.0847 19.3652L41.1884 19.3329L41.2181 19.4621ZM40.9957 19.5106L40.892 19.5267L40.8623 19.3975L40.9809 19.3814L40.9957 19.5106ZM40.7734 19.5429L40.6696 19.5752L40.6548 19.446L40.7586 19.4298L40.7734 19.5429ZM40.5659 19.5914L40.4473 19.6075L40.4325 19.4944L40.5362 19.4783L40.5659 19.5914ZM40.3435 19.6398L40.2398 19.656L40.2101 19.5429L40.3287 19.5106L40.3435 19.6398ZM40.1212 19.6721L40.0175 19.7044L40.0026 19.5752L40.1064 19.5591L40.1212 19.6721ZM39.9137 19.7206L39.81 19.7367L39.7803 19.6237L39.8989 19.6075L39.9137 19.7206ZM39.6914 19.769L39.5876 19.7852L39.5728 19.6721L39.6766 19.6398L39.6914 19.769ZM39.4839 19.8013L39.3653 19.8336L39.3505 19.7044L39.4542 19.6883L39.4839 19.8013ZM39.2615 19.8498L39.1578 19.866L39.1281 19.7529L39.2467 19.7367L39.2615 19.8498ZM39.0392 19.8983L38.9354 19.9144L38.9206 19.8013L39.0244 19.769L39.0392 19.8983ZM38.8317 19.9306L38.7131 19.9629L38.6983 19.8336L38.802 19.8175L38.8317 19.9306ZM38.6094 19.979L38.5056 19.9952L38.476 19.8821L38.5945 19.866L38.6094 19.979ZM38.4018 20.0275L38.2833 20.0436L38.2684 19.9306L38.3722 19.8983L38.4018 20.0275ZM38.1795 20.0598L38.0758 20.0921L38.0461 19.9629L38.1647 19.9467L38.1795 20.0598ZM37.9572 20.1082L37.8534 20.1244L37.8386 20.0113L37.9424 19.9952L37.9572 20.1082ZM37.7497 20.1567L37.6311 20.1728L37.6163 20.0598L37.72 20.0275L37.7497 20.1567ZM37.5273 20.2052L37.4236 20.2213L37.3939 20.0921L37.5125 20.0759L37.5273 20.2052ZM37.305 20.2375L37.2013 20.2698L37.1864 20.1405L37.2902 20.1244L37.305 20.2375ZM37.0975 20.2859L36.9789 20.3021L36.9641 20.189L37.0679 20.1567L37.0975 20.2859ZM36.8752 20.3344L36.7714 20.3505L36.7566 20.2375L36.8603 20.2052L36.8752 20.3344ZM36.6677 20.3667L36.5491 20.399L36.5343 20.2698L36.638 20.2536L36.6677 20.3667ZM36.4453 20.4151L36.3416 20.4313L36.3119 20.3182L36.4305 20.3021L36.4453 20.4151ZM36.223 20.4636L36.1192 20.4797L36.1044 20.3667L36.2082 20.3344L36.223 20.4636ZM36.0155 20.4959L35.8969 20.5282L35.8821 20.399L35.9858 20.3828L36.0155 20.4959ZM35.7932 20.5444L35.6894 20.5605L35.6598 20.4474L35.7783 20.4313L35.7932 20.5444ZM35.5708 20.5928L35.4671 20.609L35.4522 20.4959L35.556 20.4636L35.5708 20.5928ZM35.3633 20.6251L35.2447 20.6574L35.2299 20.5282L35.3337 20.5121L35.3633 20.6251ZM35.141 20.6736L35.0372 20.6897L35.0224 20.5767L35.1262 20.5605L35.141 20.6736ZM34.9335 20.722L34.8149 20.7382L34.8001 20.6251L34.9038 20.5928L34.9335 20.722ZM34.7111 20.7543L34.6074 20.7866L34.5777 20.6574L34.6963 20.6413L34.7111 20.7543ZM34.4888 20.8028L34.385 20.819L34.3702 20.7059L34.474 20.6897L34.4888 20.8028ZM34.2813 20.8513L34.1627 20.8674L34.1479 20.7543L34.2517 20.722L34.2813 20.8513ZM34.059 20.8836L33.9552 20.9159L33.9256 20.7866L34.0441 20.7705L34.059 20.8836ZM33.8366 20.932L33.7329 20.9643L33.7181 20.8351L33.8218 20.819L33.8366 20.932ZM33.6291 20.9805L33.5105 20.9966L33.4957 20.8836L33.5995 20.8513L33.6291 20.9805ZM33.4068 21.0289L33.303 21.0451L33.2882 20.9159L33.392 20.8997L33.4068 21.0289ZM33.1993 21.0612L33.0807 21.0935L33.0659 20.9643L33.1696 20.9482L33.1993 21.0612ZM32.9769 21.1097L32.8732 21.1258L32.8435 21.0128L32.9621 20.9966L32.9769 21.1097ZM32.7546 21.1582L32.6509 21.1743L32.636 21.0612L32.7398 21.0289L32.7546 21.1582ZM32.5471 21.1905L32.4285 21.2228L32.4137 21.0935L32.5175 21.0774L32.5471 21.1905ZM32.3248 21.2389L32.221 21.2551L32.1914 21.142L32.31 21.1258L32.3248 21.2389ZM32.1024 21.2874L31.9987 21.3035L31.9839 21.1905L32.0876 21.1582L32.1024 21.2874ZM31.8949 21.3197L31.7912 21.352L31.7615 21.2228L31.8653 21.2066L31.8949 21.3197ZM31.6726 21.3681L31.5688 21.3843L31.554 21.2712L31.6578 21.2551L31.6726 21.3681ZM31.4651 21.4166L31.3465 21.4327L31.3317 21.3197L31.4354 21.2874L31.4651 21.4166ZM31.2428 21.4489L31.139 21.4812L31.1094 21.352L31.2279 21.3358L31.2428 21.4489ZM31.0204 21.4974L30.9167 21.5135L30.9018 21.4004L31.0056 21.3843L31.0204 21.4974ZM30.8129 21.5458L30.6943 21.562L30.6795 21.4489L30.7833 21.4166L30.8129 21.5458ZM30.5906 21.5781L30.4868 21.6104L30.4572 21.4812L30.5758 21.4651L30.5906 21.5781ZM30.3683 21.6266L30.2645 21.6427L30.2497 21.5297L30.3534 21.5135L30.3683 21.6266ZM30.1607 21.675L30.057 21.6912L30.0273 21.5781L30.1459 21.5458L30.1607 21.675ZM29.9384 21.7235L29.8347 21.7396L29.8198 21.6104L29.9236 21.5943L29.9384 21.7235ZM29.7309 21.7558L29.6123 21.7881L29.5975 21.6589L29.7013 21.6427L29.7309 21.7558ZM29.5086 21.8043L29.4048 21.8204L29.3752 21.7073L29.4937 21.675L29.5086 21.8043ZM29.2862 21.8527L29.1825 21.8689L29.1677 21.7558L29.2714 21.7235L29.2862 21.8527ZM29.0787 21.885L28.9601 21.9173L28.9453 21.7881L29.0491 21.772L29.0787 21.885ZM28.8564 21.9335L28.7526 21.9496L28.723 21.8366L28.8416 21.8204L28.8564 21.9335ZM28.6341 21.9819L28.5303 21.9981L28.5155 21.885L28.6192 21.8527L28.6341 21.9819ZM28.4266 22.0142L28.3228 22.0465L28.2932 21.9173L28.4117 21.9012L28.4266 22.0142ZM28.2042 22.0627L28.1005 22.0788L28.0856 21.9658L28.1894 21.9496L28.2042 22.0627ZM27.9967 22.1112L27.8781 22.1273L27.8633 22.0142L27.9671 21.9819L27.9967 22.1112ZM27.7744 22.1435L27.6706 22.1758L27.641 22.0465L27.7596 22.0304L27.7744 22.1435ZM27.552 22.1919L27.4483 22.2081L27.4335 22.095L27.5372 22.0788L27.552 22.1919ZM27.3445 22.2404L27.226 22.2565L27.2111 22.1435L27.3149 22.1112L27.3445 22.2404ZM27.1222 22.2727L27.0184 22.305L26.9888 22.1758L27.1074 22.1596L27.1222 22.2727ZM26.8999 22.3211L26.7961 22.3373L26.7813 22.2242L26.8851 22.2081L26.8999 22.3211ZM26.6924 22.3696L26.5886 22.3857L26.559 22.2727L26.6775 22.2404L26.6924 22.3696ZM26.47 22.4019L26.3663 22.4342L26.3515 22.305L26.4552 22.2888L26.47 22.4019ZM26.2625 22.4504L26.1439 22.4827L26.1291 22.3534L26.2329 22.3373L26.2625 22.4504ZM26.0402 22.4988L25.9364 22.515L25.9068 22.4019L26.0254 22.3696L26.0402 22.4988ZM25.8179 22.5473L25.7141 22.5634L25.6993 22.4342L25.803 22.4181L25.8179 22.5473ZM25.6103 22.5796L25.4918 22.6119L25.4769 22.4827L25.5807 22.4665L25.6103 22.5796ZM25.388 22.628L25.2843 22.6442L25.2546 22.5311L25.3732 22.515L25.388 22.628ZM25.1657 22.6765L25.0619 22.6926L25.0471 22.5796L25.1509 22.5473L25.1657 22.6765ZM24.9582 22.7088L24.8544 22.7411L24.8248 22.6119L24.9434 22.5957L24.9582 22.7088ZM24.7358 22.7573L24.6321 22.7734L24.6173 22.6603L24.721 22.6442L24.7358 22.7573ZM24.5283 22.8057L24.4098 22.8219L24.3949 22.7088L24.4987 22.6765L24.5283 22.8057ZM24.306 22.838L24.2022 22.8703L24.1726 22.7411L24.2912 22.725L24.306 22.838ZM24.0837 22.8865L23.9799 22.9026L23.9651 22.7896L24.0688 22.7734L24.0837 22.8865ZM23.8762 22.9349L23.7576 22.9511L23.7428 22.838L23.8465 22.8057L23.8762 22.9349ZM23.6538 22.9672L23.5501 22.9995L23.5204 22.8703L23.639 22.8542L23.6538 22.9672ZM23.4463 23.0157L23.3277 23.0318L23.3129 22.9188L23.4167 22.9026L23.4463 23.0157ZM23.224 23.0642L23.1202 23.0803L23.0906 22.9672L23.2092 22.9349L23.224 23.0642ZM23.0017 23.0965L22.8979 23.1288L22.8831 22.9995L22.9868 22.9834L23.0017 23.0965ZM22.7941 23.1449L22.6756 23.1772L22.6607 23.048L22.7645 23.0318L22.7941 23.1449ZM22.5718 23.1934L22.4681 23.2095L22.4384 23.0965L22.557 23.0642L22.5718 23.1934ZM22.3495 23.2418L22.2457 23.258L22.2309 23.1288L22.3347 23.1126L22.3495 23.2418ZM22.142 23.2741L22.0234 23.3064L22.0086 23.1772L22.1123 23.1611L22.142 23.2741ZM21.9196 23.3226L21.8159 23.3387L21.8011 23.2257L21.9048 23.1934L21.9196 23.3226ZM21.7121 23.3711L21.5935 23.3872L21.5787 23.2741L21.6825 23.2418L21.7121 23.3711ZM21.4898 23.4034L21.386 23.4357L21.3564 23.3064L21.475 23.2903L21.4898 23.4034ZM21.2675 23.4518L21.1637 23.468L21.1489 23.3549L21.2526 23.3387L21.2675 23.4518ZM21.06 23.5003L20.9414 23.5164L20.9266 23.4034L21.0303 23.3711L21.06 23.5003ZM20.8376 23.5326L20.7339 23.5649L20.7042 23.4357L20.8228 23.4195L20.8376 23.5326ZM20.6153 23.581L20.5115 23.5972L20.4967 23.4841L20.6005 23.468L20.6153 23.581ZM20.4078 23.6295L20.2892 23.6456L20.2744 23.5326L20.3781 23.5003L20.4078 23.6295ZM20.1854 23.6618L20.0817 23.6941L20.0669 23.5649L20.1706 23.5487L20.1854 23.6618ZM19.9779 23.7103L19.8594 23.7264L19.8445 23.6133L19.9483 23.5972L19.9779 23.7103ZM19.7556 23.7587L19.6518 23.7749L19.6222 23.6618L19.7408 23.6295L19.7556 23.7587ZM19.5333 23.791L19.4295 23.8233L19.4147 23.6941L19.5184 23.678L19.5333 23.791ZM19.3258 23.8395L19.2072 23.8556L19.1924 23.7426L19.2961 23.7264L19.3258 23.8395ZM19.1034 23.8879L18.9997 23.9041L18.97 23.791L19.0886 23.7587L19.1034 23.8879ZM18.8811 23.9364L18.7773 23.9525L18.7625 23.8233L18.8663 23.8072L18.8811 23.9364ZM18.6736 23.9687L18.555 24.001L18.5402 23.8718L18.6439 23.8556L18.6736 23.9687ZM18.4513 24.0172L18.3475 24.0333L18.3327 23.9202L18.4364 23.8879L18.4513 24.0172ZM18.2437 24.0656L18.1252 24.0818L18.1103 23.9525L18.2141 23.9364L18.2437 24.0656ZM18.0214 24.0979L17.9177 24.1302L17.888 24.001L18.0066 23.9848L18.0214 24.0979ZM17.7991 24.1464L17.6953 24.1625L17.6805 24.0495L17.7843 24.0333L17.7991 24.1464ZM17.5916 24.1948L17.473 24.211L17.4582 24.0979L17.5619 24.0656L17.5916 24.1948ZM17.3692 24.2271L17.2655 24.2594L17.2358 24.1302L17.3544 24.1141L17.3692 24.2271ZM17.1469 24.2756L17.0432 24.2917L17.0283 24.1787L17.1321 24.1625L17.1469 24.2756ZM16.9394 24.3241L16.8208 24.3402L16.806 24.2271L16.9098 24.1948L16.9394 24.3241ZM16.7171 24.3564L16.6133 24.3887L16.5985 24.2594L16.7022 24.2433L16.7171 24.3564ZM16.5096 24.4048L16.391 24.421L16.3762 24.3079L16.4799 24.2917L16.5096 24.4048ZM16.2872 24.4533L16.1835 24.4694L16.1538 24.3564L16.2724 24.3241L16.2872 24.4533ZM16.0649 24.4856L15.9611 24.5179L15.9463 24.3887L16.0501 24.3725L16.0649 24.4856ZM15.8574 24.534L15.7388 24.5502L15.724 24.4371L15.8277 24.421L15.8574 24.534ZM15.6351 24.5825L15.5313 24.5986L15.5017 24.4856L15.6202 24.4533L15.6351 24.5825ZM15.4127 24.6148L15.309 24.6471L15.2941 24.5179L15.3979 24.5017L15.4127 24.6148ZM15.2052 24.6633L15.1015 24.6956L15.0718 24.5663L15.1904 24.5502L15.2052 24.6633ZM14.9829 24.7117L14.8791 24.7279L14.8643 24.6148L14.9681 24.5825L14.9829 24.7117ZM14.7754 24.7602L14.6568 24.7763L14.642 24.6471L14.7457 24.631L14.7754 24.7602ZM14.553 24.7925L14.4493 24.8248L14.4196 24.6956L14.5382 24.6794L14.553 24.7925ZM14.3307 24.8409L14.2269 24.8571L14.2121 24.744L14.3159 24.7279L14.3307 24.8409ZM14.1232 24.8894L14.0046 24.9055L13.9898 24.7925L14.0935 24.7602L14.1232 24.8894ZM13.9009 24.9217L13.7971 24.954L13.7675 24.8248L13.886 24.8086L13.9009 24.9217ZM13.6785 24.9702L13.5748 24.9863L13.56 24.8732L13.6637 24.8571L13.6785 24.9702ZM13.471 25.0186L13.3673 25.0348L13.3376 24.9217L13.4562 24.8894L13.471 25.0186ZM13.2487 25.0509L13.1449 25.0832L13.1301 24.954L13.2339 24.9378L13.2487 25.0509ZM13.0412 25.0994L12.9226 25.1155L12.9078 25.0025L13.0115 24.9863L13.0412 25.0994ZM12.8188 25.1478L12.7151 25.164L12.6854 25.0509L12.804 25.0186L12.8188 25.1478ZM12.5965 25.1801L12.4928 25.2124L12.4779 25.0832L12.5817 25.0671L12.5965 25.1801ZM12.389 25.2286L12.2704 25.2447L12.2556 25.1317L12.3594 25.1155L12.389 25.2286ZM12.1667 25.2771L12.0629 25.2932L12.0333 25.1801L12.1518 25.1478L12.1667 25.2771ZM11.9443 25.3094L11.8406 25.3417L11.8258 25.2124L11.9295 25.1963L11.9443 25.3094ZM11.7368 25.3578L11.6331 25.374L11.6034 25.2609L11.722 25.2447L11.7368 25.3578ZM11.5145 25.4063L11.4107 25.4224L11.3959 25.3094L11.4997 25.2771L11.5145 25.4063ZM11.307 25.4547L11.1884 25.4709L11.1736 25.3417L11.2773 25.3255L11.307 25.4547ZM11.0847 25.487L10.9809 25.5193L10.9513 25.3901L11.0698 25.374L11.0847 25.487ZM10.8623 25.5355L10.7586 25.5516L10.7437 25.4386L10.8475 25.4063L10.8623 25.5355ZM10.6548 25.5839L10.5362 25.6001L10.5214 25.487L10.6252 25.4547L10.6548 25.5839ZM10.4325 25.6163L10.3287 25.6486L10.2991 25.5193L10.4177 25.5032L10.4325 25.6163ZM10.2101 25.6647L10.1064 25.6809L10.0916 25.5678L10.1953 25.5516L10.2101 25.6647ZM10.0026 25.7132L9.89888 25.7293L9.86924 25.6163L9.98782 25.5839L10.0026 25.7132ZM9.78031 25.7455L9.67655 25.7778L9.66173 25.6486L9.76549 25.6324L9.78031 25.7455ZM9.5728 25.7939L9.45422 25.8101L9.4394 25.697L9.54315 25.6809L9.5728 25.7939ZM9.35047 25.8424L9.24671 25.8585L9.21707 25.7455L9.33564 25.7132L9.35047 25.8424ZM9.12813 25.8747L9.02438 25.907L9.00956 25.7778L9.11331 25.7616L9.12813 25.8747ZM8.92062 25.9232L8.80205 25.9393L8.78722 25.8262L8.89098 25.8101L8.92062 25.9232ZM8.69829 25.9716L8.59454 25.9878L8.56489 25.8747L8.68347 25.8424L8.69829 25.9716ZM8.49078 26.0039L8.37221 26.0362L8.35738 25.907L8.46114 25.8908L8.49078 26.0039ZM8.26845 26.0524L8.1647 26.0685L8.13505 25.9555L8.25363 25.9393L8.26845 26.0524ZM8.04612 26.1008L7.94236 26.117L7.92754 26.0039L8.0313 25.9716L8.04612 26.1008ZM7.83861 26.1331L7.72003 26.1654L7.70521 26.0362L7.80896 26.0201L7.83861 26.1331ZM7.61628 26.1816L7.51252 26.2139L7.48288 26.0847L7.60145 26.0685L7.61628 26.1816ZM7.39394 26.2301L7.29019 26.2462L7.27537 26.1331L7.37912 26.1008L7.39394 26.2301ZM7.18643 26.2785L7.06786 26.2947L7.05304 26.1654L7.15679 26.1493L7.18643 26.2785ZM6.9641 26.3108L6.86035 26.3431L6.84553 26.2139L6.94928 26.1977L6.9641 26.3108ZM6.75659 26.3593L6.63802 26.3754L6.62319 26.2624L6.72695 26.2462L6.75659 26.3593ZM6.53426 26.4077L6.43051 26.4239L6.40086 26.3108L6.51944 26.2785L6.53426 26.4077ZM6.31193 26.44L6.20817 26.4723L6.19335 26.3431L6.29711 26.327L6.31193 26.44ZM6.10442 26.4885L5.98584 26.5046L5.97102 26.3916L6.07477 26.3754L6.10442 26.4885ZM5.88209 26.5369L5.77833 26.5531L5.74869 26.44L5.86726 26.4077L5.88209 26.5369ZM5.65975 26.5693L5.556 26.6016L5.54118 26.4723L5.64493 26.4562L5.65975 26.5693ZM5.45224 26.6177L5.33367 26.6339L5.31885 26.5208L5.4226 26.5046L5.45224 26.6177ZM5.22991 26.6662L5.12616 26.6823L5.11134 26.5693L5.21509 26.5369L5.22991 26.6662ZM5.0224 26.6985L4.90383 26.7308L4.889 26.6016L4.99276 26.5854L5.0224 26.6985ZM4.80007 26.7469L4.69632 26.7631L4.66667 26.65L4.78525 26.6339L4.80007 26.7469ZM4.57774 26.7954L4.47398 26.8115L4.45916 26.6985L4.56292 26.6662L4.57774 26.7954ZM4.37023 26.8277L4.25165 26.86L4.23683 26.7308L4.34058 26.7146L4.37023 26.8277ZM4.1479 26.8762L4.04414 26.8923L4.0145 26.7792L4.13307 26.7631L4.1479 26.8762ZM3.92556 26.9246L3.82181 26.9408L3.80699 26.8277L3.91074 26.7954L3.92556 26.9246ZM3.71806 26.9731L3.59948 26.9892L3.58466 26.86L3.68841 26.8438L3.71806 26.9731ZM3.49572 27.0054L3.39197 27.0377L3.37715 26.9085L3.4809 26.8923L3.49572 27.0054ZM3.28821 27.0538L3.16964 27.07L3.15481 26.9569L3.25857 26.9246L3.28821 27.0538ZM3.06588 27.1023L2.96213 27.1184L2.93248 27.0054L3.05106 26.9731L3.06588 27.1023ZM2.84355 27.1346L2.73979 27.1669L2.72497 27.0377L2.82873 27.0215L2.84355 27.1346ZM2.63604 27.1831L2.51746 27.1992L2.50264 27.0861L2.6064 27.07L2.63604 27.1831ZM2.41371 27.2315L2.30995 27.2477L2.28031 27.1346L2.39889 27.1023L2.41371 27.2315ZM2.19138 27.2638L2.08762 27.2961L2.0728 27.1669L2.17655 27.1507L2.19138 27.2638ZM1.96904 27.1831L1.9394 27.07L2.05798 27.0538L2.0728 27.1669L1.96904 27.1831ZM1.92458 26.9408L1.90975 26.8277L2.01351 26.8115L2.02833 26.9246L1.92458 26.9408ZM1.88011 26.7146L1.86529 26.5854L1.96904 26.5693L1.99869 26.6823L1.88011 26.7146ZM1.85047 26.4723L1.82082 26.3431L1.9394 26.327L1.95422 26.44L1.85047 26.4723ZM1.806 26.2301L1.79118 26.117L1.89493 26.0847L1.90975 26.2139L1.806 26.2301ZM1.76153 25.9878L1.74671 25.8747L1.85047 25.8424L1.88011 25.9716L1.76153 25.9878ZM1.73189 25.7455L1.70224 25.6324L1.82082 25.6163L1.83564 25.7293L1.73189 25.7455ZM1.68742 25.5193L1.6726 25.3901L1.77636 25.374L1.79118 25.487L1.68742 25.5193ZM1.65778 25.2771L1.62813 25.1478L1.74671 25.1317L1.76153 25.2447L1.65778 25.2771ZM1.61331 25.0348L1.59849 24.9217L1.70224 24.8894L1.71707 25.0186L1.61331 25.0348ZM1.56885 24.7925L1.55402 24.6794L1.65778 24.6471L1.68742 24.7763L1.56885 24.7925ZM1.5392 24.5502L1.50956 24.4371L1.62813 24.421L1.64296 24.534L1.5392 24.5502ZM1.49473 24.3241L1.47991 24.1948L1.58367 24.1787L1.59849 24.2917L1.49473 24.3241ZM1.45027 24.0818L1.43545 23.9525L1.5392 23.9364L1.56885 24.0495L1.45027 24.0818ZM1.42062 23.8395L1.39098 23.7103L1.50956 23.6941L1.52438 23.8233L1.42062 23.8395ZM1.37616 23.5972L1.36134 23.4841L1.46509 23.4518L1.47991 23.581L1.37616 23.5972ZM1.33169 23.3549L1.31687 23.2418L1.42062 23.2257L1.45027 23.3387L1.33169 23.3549ZM1.30205 23.1126L1.2724 22.9995L1.39098 22.9834L1.4058 23.0965L1.30205 23.1126ZM1.25758 22.8865L1.24276 22.7573L1.34651 22.7411L1.36134 22.8542L1.25758 22.8865ZM1.21311 22.6442L1.19829 22.515L1.30205 22.4988L1.33169 22.6119L1.21311 22.6442ZM1.18347 22.4019L1.15383 22.2888L1.2724 22.2565L1.28723 22.3857L1.18347 22.4019ZM1.139 22.1596L1.12418 22.0465L1.22794 22.0142L1.24276 22.1435L1.139 22.1596ZM1.09454 21.9173L1.07972 21.8043L1.18347 21.7881L1.21311 21.9012L1.09454 21.9173ZM1.06489 21.6912L1.03525 21.562L1.15383 21.5458L1.16865 21.6589L1.06489 21.6912ZM1.02043 21.4489L1.0056 21.3197L1.10936 21.3035L1.12418 21.4166L1.02043 21.4489ZM0.990782 21.2066L0.961138 21.0935L1.07972 21.0612L1.09454 21.1905L0.990782 21.2066ZM0.946316 20.9643L0.931494 20.8513L1.03525 20.819L1.05007 20.9482L0.946316 20.9643ZM0.90185 20.722L0.887028 20.609L0.990782 20.5928L1.02043 20.7059L0.90185 20.722ZM0.872205 20.4797L0.842561 20.3667L0.961138 20.3505L0.97596 20.4636L0.872205 20.4797ZM0.827739 20.2536L0.812917 20.1244L0.916672 20.1082L0.931494 20.2213L0.827739 20.2536ZM0.783273 20.0113L0.76845 19.8821L0.872205 19.866L0.90185 19.9952L0.783273 20.0113ZM0.753628 19.769L0.723984 19.656L0.842561 19.6237L0.857383 19.7529L0.753628 19.769ZM0.709162 19.5267L0.69434 19.4137L0.798095 19.3814L0.812917 19.5106L0.709162 19.5267ZM0.664696 19.2845L0.649873 19.1714L0.753628 19.1552L0.783273 19.2683L0.664696 19.2845ZM0.635051 19.0583L0.605407 18.9291L0.723984 18.913L0.738806 19.026L0.635051 19.0583ZM0.590585 18.816L0.575763 18.6868L0.679518 18.6707L0.69434 18.7837L0.590585 18.816ZM0.546118 18.5737L0.531296 18.4607L0.635051 18.4284L0.664696 18.5576L0.546118 18.5737ZM0.516474 18.3315L0.48683 18.2184L0.605407 18.1861L0.620229 18.3153L0.516474 18.3315ZM0.472008 18.0892L0.457186 17.9761L0.560941 17.96L0.575763 18.073L0.472008 18.0892ZM0.427541 17.863L0.412719 17.7338L0.516474 17.7177L0.546118 17.8307L0.427541 17.863ZM0.397897 17.6207L0.368253 17.4915L0.48683 17.4754L0.501652 17.5884L0.397897 17.6207ZM0.353431 17.3785L0.338609 17.2492L0.442363 17.2331L0.457186 17.3623L0.353431 17.3785ZM0.323786 17.1362L0.294142 17.0231L0.412719 16.9908L0.427541 17.12L0.323786 17.1362ZM0.27932 16.8939L0.264498 16.7808L0.368253 16.7647L0.383075 16.8777L0.27932 16.8939ZM0.234854 16.6516L0.220031 16.5385L0.323786 16.5224L0.353431 16.6354L0.234854 16.6516ZM0.205209 16.4255L0.175565 16.2962L0.294142 16.2801L0.308964 16.3932L0.205209 16.4255ZM0.160743 16.1832L0.145921 16.054L0.249676 16.0378L0.264498 16.1509L0.160743 16.1832ZM0.116277 15.9409L0.101454 15.8278L0.205209 15.7955L0.234854 15.9247L0.116277 15.9409ZM0.0866323 15.6986L0.056988 15.5855L0.175565 15.5532L0.190387 15.6824L0.0866323 15.6986ZM0.0421659 15.4563L0.0273438 15.3432L0.131099 15.3271L0.145921 15.4402L0.0421659 15.4563Z" fill="black"/>
</g>
<mask id="mask5_1575_1739" style="mask-type:luminance" maskUnits="userSpaceOnUse" x="0" y="9" width="15" height="22">
<path d="M0 9.43359H14.1107V30.1088H0V9.43359Z" fill="white"/>
</mask>
<g mask="url(#mask5_1575_1739)">
<path fill-rule="evenodd" clip-rule="evenodd" d="M1.99874 27.0244L5.40784 14.2315L13.3822 12.6647L9.95823 25.4414L1.99874 27.0244Z" fill="white" stroke="black" stroke-width="0.0381919"/>
</g>
<path fill-rule="evenodd" clip-rule="evenodd" d="M17.9332 23.8729L21.3571 11.0962L29.3314 9.51325L25.9075 22.3061L17.9332 23.8729Z" fill="white" stroke="black" stroke-width="0.0381919"/>
<path fill-rule="evenodd" clip-rule="evenodd" d="M33.8811 20.7393L37.305 7.94649L45.2793 6.37969L41.8554 19.1564L33.8811 20.7393Z" fill="white" stroke="black" stroke-width="0.0381919"/>
<path fill-rule="evenodd" clip-rule="evenodd" d="M49.8335 17.5916L53.2575 4.81495L61.2318 3.232L57.8079 16.0248L49.8335 17.5916Z" fill="white" stroke="black" stroke-width="0.0381919"/>
<mask id="mask6_1575_1739" style="mask-type:luminance" maskUnits="userSpaceOnUse" x="63" y="0" width="12" height="18">
<path d="M63.4355 0H74.8189V17.7032H63.4355V0Z" fill="white"/>
</mask>
<g mask="url(#mask6_1575_1739)">
<mask id="mask7_1575_1739" style="mask-type:luminance" maskUnits="userSpaceOnUse" x="63" y="-2" width="12" height="23">
<path d="M66.7303 20.3199L74.7046 18.7531L71.3845 -1.79297L63.4102 -0.226172L66.7303 20.3199Z" fill="white"/>
</mask>
<g mask="url(#mask7_1575_1739)">
<path fill-rule="evenodd" clip-rule="evenodd" d="M65.7832 14.459L69.2071 1.66617L77.1666 0.0993707L73.7575 12.876L65.7832 14.459Z" fill="white" stroke="black" stroke-width="0.0381919"/>
</g>
</g>
<path d="M4.3125 43.4828V40.1877H5.03878C5.17218 40.1877 5.27594 40.1877 5.35005 40.22C5.43898 40.2361 5.52791 40.2846 5.5872 40.3653C5.64649 40.4461 5.70578 40.543 5.75025 40.6884C5.77989 40.8176 5.80954 40.9791 5.80954 41.1407C5.80954 41.4152 5.75025 41.6575 5.64649 41.8514C5.54274 42.0452 5.35005 42.1421 5.06843 42.1421H4.56448V43.4828H4.3125ZM4.56448 41.7545H5.06843C5.24629 41.7545 5.36487 41.706 5.42416 41.5929C5.49827 41.496 5.52791 41.3345 5.52791 41.1568C5.52791 41.0114 5.51309 40.8984 5.46863 40.8015C5.42416 40.7045 5.37969 40.6238 5.30558 40.6076C5.26112 40.5753 5.18701 40.5753 5.06843 40.5753H4.56448V41.7545ZM6.13562 43.4828V40.1877H7.01013C7.18799 40.1877 7.3214 40.2038 7.41033 40.2684C7.49926 40.333 7.57337 40.4299 7.63266 40.5915C7.67713 40.7368 7.70677 40.8984 7.70677 41.076C7.70677 41.3183 7.6623 41.5122 7.57337 41.6737C7.48443 41.8352 7.35104 41.9321 7.15835 41.9806C7.21764 42.029 7.27693 42.0937 7.30657 42.1421C7.38068 42.2552 7.45479 42.4006 7.5289 42.5782L7.86981 43.4828H7.54373L7.27693 42.7882C7.20282 42.5944 7.14352 42.449 7.09906 42.3359C7.03977 42.239 6.9953 42.1583 6.96566 42.126C6.92119 42.0775 6.89155 42.0452 6.84708 42.029C6.81744 42.029 6.77297 42.0129 6.69886 42.0129H6.40242V43.4828H6.13562ZM6.40242 41.6414H6.95084C7.06942 41.6414 7.17317 41.6252 7.23246 41.5768C7.30657 41.5283 7.35104 41.4637 7.3955 41.3829C7.42515 41.286 7.43997 41.1891 7.43997 41.076C7.43997 40.9307 7.41033 40.8015 7.33622 40.7045C7.27693 40.5915 7.17317 40.543 7.02495 40.543H6.40242V41.6414ZM8.03286 41.8675C8.03286 41.3345 8.12179 40.8984 8.29965 40.5915C8.47752 40.2846 8.69985 40.123 8.98147 40.123C9.15933 40.123 9.32238 40.1877 9.4706 40.333C9.61882 40.4946 9.72258 40.6884 9.79669 40.9468C9.8708 41.2053 9.91527 41.5122 9.91527 41.8352C9.91527 42.1744 9.8708 42.4652 9.79669 42.7398C9.70776 42.9982 9.604 43.192 9.45578 43.3374C9.30756 43.4666 9.14451 43.5312 8.98147 43.5312C8.78878 43.5312 8.62574 43.4666 8.47752 43.3212C8.3293 43.1597 8.22554 42.9659 8.15143 42.6913C8.07732 42.4329 8.03286 42.1583 8.03286 41.8675ZM8.29965 41.8837C8.29965 42.2713 8.37376 42.5944 8.49234 42.8205C8.62574 43.0467 8.78878 43.1597 8.98147 43.1597C9.17416 43.1597 9.3372 43.0467 9.45578 42.8205C9.58918 42.5944 9.64847 42.2552 9.64847 41.8352C9.64847 41.5606 9.61882 41.3345 9.55954 41.1245C9.51507 40.9307 9.42614 40.7691 9.32238 40.6722C9.21863 40.5592 9.11487 40.4946 8.98147 40.4946C8.78878 40.4946 8.64056 40.6076 8.50716 40.8176C8.37376 41.0276 8.29965 41.3829 8.29965 41.8837ZM10.2414 43.4828V40.1877H10.9232C11.0714 40.1877 11.19 40.2038 11.2789 40.2361C11.3827 40.2684 11.4864 40.3492 11.5605 40.4623C11.6643 40.6076 11.7384 40.8015 11.7977 41.0276C11.8421 41.2537 11.8718 41.5122 11.8718 41.8191C11.8718 42.0614 11.857 42.2875 11.8125 42.4813C11.7829 42.6751 11.7384 42.8367 11.6791 42.9659C11.6346 43.0951 11.5753 43.192 11.5012 43.2566C11.4419 43.3374 11.3678 43.3859 11.2641 43.4343C11.1751 43.4666 11.0714 43.4828 10.9528 43.4828H10.2414ZM10.5082 43.0951H10.9232C11.0566 43.0951 11.1603 43.079 11.2344 43.0305C11.3085 42.9982 11.3678 42.9336 11.4123 42.869C11.4716 42.7559 11.5161 42.6105 11.5457 42.449C11.5902 42.2713 11.605 42.0614 11.605 41.8029C11.605 41.4637 11.5605 41.1891 11.5012 41.0114C11.4271 40.8176 11.353 40.7045 11.2493 40.6399C11.19 40.5915 11.0714 40.5753 10.9232 40.5753H10.5082V43.0951ZM13.517 40.1877H13.769V42.0937C13.769 42.4167 13.7542 42.6913 13.7097 42.8851C13.6653 43.079 13.5763 43.2405 13.4726 43.3536C13.354 43.4828 13.191 43.5312 13.0131 43.5312C12.8204 43.5312 12.6722 43.4828 12.5536 43.3859C12.435 43.2728 12.3609 43.1113 12.3016 42.9174C12.2572 42.7075 12.2275 42.4329 12.2275 42.0937V40.1877H12.4943V42.0937C12.4943 42.3682 12.5091 42.5782 12.5388 42.7236C12.5684 42.8528 12.6277 42.9659 12.7018 43.0305C12.7759 43.1113 12.8797 43.1436 12.9834 43.1436C13.1761 43.1436 13.3095 43.079 13.3985 42.9336C13.4726 42.7882 13.517 42.4975 13.517 42.0937V40.1877ZM15.607 42.3198L15.8738 42.4329C15.8145 42.7882 15.7107 43.0628 15.5773 43.2566C15.4291 43.4505 15.2661 43.5312 15.0585 43.5312C14.8362 43.5312 14.6732 43.4666 14.5398 43.3212C14.4064 43.1759 14.3026 42.9659 14.2433 42.6913C14.1692 42.4167 14.1396 42.126 14.1396 41.8029C14.1396 41.4637 14.1692 41.1568 14.2433 40.9145C14.3323 40.6561 14.436 40.4622 14.5842 40.3169C14.7325 40.1877 14.8807 40.123 15.0585 40.123C15.2512 40.123 15.4143 40.2038 15.5477 40.3815C15.6811 40.543 15.7848 40.7853 15.8293 41.0922L15.5773 41.1891C15.5329 40.9468 15.4736 40.7691 15.3846 40.6561C15.2957 40.5592 15.1919 40.4946 15.0585 40.4946C14.8955 40.4946 14.7769 40.5592 14.6732 40.6884C14.5694 40.8015 14.5101 40.963 14.4657 41.173C14.4212 41.3829 14.4064 41.5929 14.4064 41.8029C14.4064 42.0937 14.4212 42.3359 14.4805 42.5459C14.525 42.7559 14.5991 42.9013 14.7028 43.0144C14.8066 43.1113 14.9103 43.1597 15.0289 43.1597C15.1771 43.1597 15.2957 43.0951 15.3995 42.9497C15.5032 42.8044 15.5773 42.6105 15.607 42.3198ZM16.689 43.4828V40.5753H16.0368V40.1877H17.5931V40.5753H16.941V43.4828H16.689ZM17.9044 43.4828V40.1877H18.1712V43.4828H17.9044ZM18.5417 41.8675C18.5417 41.3345 18.6307 40.8984 18.8085 40.5915C18.9864 40.2846 19.2087 40.123 19.4904 40.123C19.6682 40.123 19.8313 40.1877 19.9795 40.333C20.1129 40.4946 20.2315 40.6884 20.3056 40.9468C20.3797 41.2053 20.4242 41.5122 20.4242 41.8352C20.4242 42.1744 20.3797 42.4652 20.3056 42.7398C20.2167 42.9982 20.1129 43.192 19.9647 43.3374C19.8165 43.4666 19.6534 43.5312 19.4755 43.5312C19.2977 43.5312 19.1346 43.4666 18.9864 43.3212C18.8382 43.1597 18.7344 42.9659 18.6603 42.6913C18.5862 42.4329 18.5417 42.1583 18.5417 41.8675ZM18.8085 41.8837C18.8085 42.2713 18.8827 42.5944 19.0012 42.8205C19.1346 43.0467 19.2829 43.1597 19.4755 43.1597C19.6831 43.1597 19.8313 43.0467 19.9647 42.8205C20.0833 42.5944 20.1574 42.2552 20.1574 41.8352C20.1574 41.5606 20.1277 41.3345 20.0684 41.1245C20.024 40.9307 19.935 40.7691 19.8313 40.6561C19.7275 40.5592 19.6089 40.4946 19.4904 40.4946C19.2977 40.4946 19.1495 40.6076 19.0161 40.8176C18.8827 41.0276 18.8085 41.3829 18.8085 41.8837ZM20.7502 43.4828V40.1877H21.017L22.0546 42.7721V40.1877H22.2917V43.4828H22.0249L21.0022 40.8822V43.4828H20.7502Z" fill="white"/>
<mask id="mask8_1575_1739" style="mask-type:luminance" maskUnits="userSpaceOnUse" x="2" y="67" width="13" height="9">
<path d="M2.73047 67.3223H14.1139V75.2693H2.73047V67.3223Z" fill="white"/>
</mask>
<g mask="url(#mask8_1575_1739)">
<path d="M4.95312 73.1697V69.8584H5.63494C5.78317 69.8584 5.90174 69.8746 5.97585 69.9069C6.09443 69.9553 6.18336 70.0361 6.27229 70.1491C6.37605 70.2945 6.45016 70.4883 6.49463 70.7145C6.55391 70.9406 6.58356 71.1991 6.58356 71.4898C6.58356 71.7482 6.55391 71.9744 6.52427 72.1682C6.49463 72.362 6.45016 72.5236 6.39087 72.6366C6.33158 72.7659 6.27229 72.8628 6.21301 72.9435C6.15372 73.0081 6.06478 73.0728 5.97585 73.1051C5.88692 73.1535 5.78316 73.1697 5.66459 73.1697H4.95312ZM5.21992 72.782H5.63494C5.76834 72.782 5.8721 72.7497 5.94621 72.7174C6.02032 72.6689 6.06478 72.6205 6.10925 72.5397C6.18336 72.4428 6.22783 72.2974 6.25747 72.1198C6.28712 71.9582 6.31676 71.7321 6.31676 71.4898C6.31676 71.1506 6.27229 70.876 6.21301 70.6983C6.1389 70.5045 6.06479 70.3914 5.96103 70.3268C5.90175 70.2784 5.78317 70.2461 5.63494 70.2461H5.21992V72.782ZM6.71696 73.1697L7.47289 69.8584H7.75451L8.5549 73.1697H8.25846L8.03613 72.1682H7.20609L6.99858 73.1697H6.71696ZM7.29502 71.8129H7.9472L7.75451 70.8922C7.6804 70.6176 7.63593 70.3914 7.60629 70.2138C7.57664 70.4237 7.547 70.6337 7.50253 70.8437L7.29502 71.8129ZM9.26637 73.1697V70.2461H8.61419V69.8584H10.1705V70.2461H9.53316V73.1697H9.26637ZM10.4521 73.1697V69.8584H11.8602V70.2461H10.7041V71.2637H11.7861V71.6513H10.7041V72.782H11.9195V73.1697H10.4521Z" fill="white"/>
</g>
<path d="M6.35721 66.0483L6.60919 66.1614C6.5499 66.5167 6.46097 66.7913 6.31275 66.9852C6.17935 67.1628 6.00148 67.2597 5.79397 67.2597C5.58646 67.2597 5.4086 67.1951 5.29002 67.0498C5.15662 66.9044 5.05286 66.6944 4.97875 66.4198C4.90465 66.1452 4.875 65.8383 4.875 65.5314C4.875 65.1922 4.91947 64.8853 4.99358 64.6269C5.06769 64.3684 5.18627 64.1746 5.33449 64.0454C5.46788 63.9162 5.63093 63.8516 5.80879 63.8516C6.00148 63.8516 6.16453 63.9323 6.29792 64.0939C6.43132 64.2715 6.52026 64.4977 6.57955 64.8046L6.32757 64.9176C6.2831 64.6753 6.20899 64.4977 6.12006 64.3846C6.03113 64.2715 5.92737 64.2231 5.79397 64.2231C5.64575 64.2231 5.52717 64.2877 5.42342 64.4007C5.31966 64.53 5.24555 64.6915 5.20109 64.9015C5.17144 65.0953 5.1418 65.3053 5.1418 65.5314C5.1418 65.806 5.17144 66.0483 5.21591 66.2583C5.26038 66.4683 5.34931 66.6298 5.43824 66.7267C5.542 66.8398 5.66057 66.8882 5.77915 66.8882C5.92737 66.8882 6.04595 66.8236 6.1497 66.6783C6.25346 66.5329 6.31275 66.3229 6.35721 66.0483ZM6.71294 67.2113L7.46887 63.9H7.75049L8.55089 67.2113H8.25445L8.03211 66.2098H7.20208L6.99457 67.2113H6.71294ZM7.27619 65.8545H7.94318L7.75049 64.9338C7.67638 64.6592 7.63192 64.4331 7.60227 64.2554C7.57263 64.4654 7.54299 64.6753 7.49852 64.8853L7.27619 65.8545ZM8.7584 67.2113V63.9H9.14377L9.60326 66.2421C9.64773 66.4521 9.67737 66.6298 9.70702 66.7267C9.72184 66.6136 9.7663 66.436 9.81077 66.1937L10.2851 63.9H10.626V67.2113H10.374V64.4492L9.81077 67.2113H9.57362L9.01038 64.4007V67.2113H8.7584ZM11.0558 67.2113V63.9H12.4788V64.2877H11.3078V65.3053H12.4046V65.693H11.3078V66.8236H12.5232V67.2113H11.0558ZM12.879 67.2113V63.9H13.7535C13.9313 63.9 14.0647 63.9323 14.1537 63.9969C14.2426 64.0454 14.3167 64.1585 14.376 64.3038C14.4205 64.4654 14.4501 64.6269 14.4501 64.8046C14.4501 65.0469 14.4056 65.2407 14.3167 65.4022C14.2278 65.5637 14.0944 65.6606 13.9017 65.7091C13.961 65.7576 14.0203 65.8222 14.0499 65.8706C14.1388 65.9837 14.1981 66.1291 14.2722 66.3067L14.6131 67.2113H14.2871L14.0203 66.5167C13.9461 66.3229 13.8869 66.1614 13.8424 66.0645C13.7831 65.9514 13.7386 65.8868 13.709 65.8383C13.6645 65.806 13.6349 65.7737 13.5904 65.7576C13.5608 65.7414 13.5163 65.7414 13.4422 65.7414H13.1458V67.2113H12.879ZM13.1458 65.3537H13.6942C13.8127 65.3537 13.9165 65.3376 13.9758 65.3053C14.0499 65.2568 14.0944 65.1922 14.1388 65.0953C14.1685 65.0145 14.1833 64.9176 14.1833 64.8046C14.1833 64.643 14.1537 64.5138 14.0795 64.4169C14.0203 64.32 13.9165 64.2715 13.7683 64.2715H13.1458V65.3537ZM14.6428 67.2113L15.3987 63.9H15.6803L16.4807 67.2113H16.1843L15.962 66.2098H15.1319L14.9244 67.2113H14.6428ZM15.206 65.8545H15.873L15.6655 64.9338C15.6062 64.6592 15.5618 64.4331 15.5321 64.2554C15.5025 64.4654 15.4728 64.6753 15.4284 64.8853L15.206 65.8545Z" fill="white"/>
<path d="M4.95312 61.2513V57.9401H5.63494C5.78317 57.9401 5.90174 57.9562 5.97585 57.9885C6.09443 58.037 6.18336 58.1177 6.27229 58.2308C6.37605 58.3762 6.45016 58.57 6.49463 58.7961C6.55391 59.0223 6.58356 59.2807 6.58356 59.5715C6.58356 59.8299 6.55391 60.056 6.52427 60.2499C6.49463 60.4437 6.45016 60.6052 6.39087 60.7183C6.33158 60.8475 6.27229 60.9444 6.21301 61.0252C6.15372 61.0898 6.06478 61.1544 5.97585 61.1867C5.88692 61.2352 5.78316 61.2513 5.66459 61.2513H4.95312ZM5.21992 60.8637H5.63494C5.76834 60.8637 5.8721 60.8314 5.94621 60.7991C6.02032 60.7506 6.06478 60.7021 6.10925 60.6214C6.18336 60.5245 6.22783 60.3791 6.25747 60.2014C6.28712 60.0399 6.31676 59.8138 6.31676 59.5715C6.31676 59.2323 6.27229 58.9577 6.21301 58.78C6.1389 58.5862 6.06479 58.4569 5.96103 58.4085C5.90175 58.36 5.78317 58.3277 5.63494 58.3277H5.21992V60.8637ZM6.98376 61.2513V57.9401H7.23573V61.2513H6.98376ZM7.69522 61.2513V57.9401H8.56973C8.7476 57.9401 8.88099 57.9724 8.96992 58.037C9.05886 58.0854 9.13297 58.1985 9.19226 58.3439C9.23672 58.5054 9.26637 58.6669 9.26637 58.8446C9.26637 59.0869 9.2219 59.2807 9.13297 59.4422C9.04403 59.6038 8.91063 59.7007 8.71795 59.7491C8.79206 59.7976 8.83652 59.8622 8.86617 59.9107C8.9551 60.0237 9.01439 60.1691 9.0885 60.3468L9.42941 61.2513H9.10332L8.85135 60.5568C8.76242 60.3629 8.70313 60.2014 8.65866 60.1045C8.61419 59.9914 8.56972 59.9268 8.52526 59.8784C8.48079 59.8461 8.45115 59.8138 8.40668 59.7976C8.37704 59.7814 8.33257 59.7814 8.25846 59.7814H7.96202V61.2513H7.69522ZM7.96202 59.3938H8.52526C8.64384 59.3938 8.73277 59.3776 8.79206 59.3453C8.86617 59.2969 8.91063 59.2323 8.9551 59.1353C8.98475 59.0546 8.99957 58.9577 8.99957 58.8446C8.99957 58.6831 8.96992 58.5539 8.89581 58.4569C8.83652 58.36 8.73277 58.3116 8.58455 58.3116H7.96202V59.3938ZM9.68139 61.2513V57.9401H11.1043V58.3277H9.94818V59.3453H11.0302V59.733H9.94818V60.8637H11.1488V61.2513H9.68139ZM12.9126 60.0883L13.1646 60.2014C13.1201 60.5568 13.0164 60.8314 12.8681 61.0252C12.7347 61.2029 12.5569 61.2998 12.3494 61.2998C12.1419 61.2998 11.9788 61.2352 11.8454 61.0898C11.712 60.9444 11.6083 60.7344 11.5342 60.4599C11.4749 60.1853 11.4304 59.8784 11.4304 59.5715C11.4304 59.2323 11.4749 58.9254 11.549 58.6669C11.6231 58.4085 11.7417 58.2147 11.8899 58.0854C12.0233 57.9562 12.1863 57.8916 12.3642 57.8916C12.5569 57.8916 12.7199 57.9724 12.8533 58.1339C12.9867 58.3116 13.0757 58.5377 13.1349 58.8446L12.883 58.9577C12.8385 58.7154 12.7644 58.5377 12.6755 58.4246C12.6013 58.3116 12.4828 58.2631 12.3494 58.2631C12.2012 58.2631 12.0826 58.3277 11.9788 58.4408C11.8751 58.57 11.801 58.7315 11.7565 58.9415C11.7268 59.1353 11.6972 59.3453 11.6972 59.5715C11.6972 59.8461 11.7268 60.0883 11.7713 60.2983C11.8158 60.5083 11.9047 60.6698 11.9936 60.7668C12.0974 60.8798 12.216 60.9283 12.3345 60.9283C12.4828 60.9283 12.6013 60.8637 12.7051 60.7183C12.8089 60.5729 12.8681 60.3629 12.9126 60.0883ZM13.9946 61.2513V58.3277H13.3425V57.9401H14.8988V58.3277H14.2466V61.2513H13.9946ZM15.0915 59.6361C15.0915 59.0869 15.1656 58.6669 15.3434 58.3439C15.5213 58.037 15.7436 57.8916 16.0253 57.8916C16.2031 57.8916 16.3662 57.9562 16.5144 58.1016C16.6626 58.247 16.7664 58.4569 16.8405 58.7154C16.9294 58.9738 16.9591 59.2646 16.9591 59.6038C16.9591 59.9268 16.9146 60.2337 16.8405 60.4922C16.7664 60.7668 16.6478 60.9606 16.4996 61.106C16.3513 61.2352 16.1883 61.2998 16.0253 61.2998C15.8326 61.2998 15.6695 61.2352 15.5213 61.0737C15.3879 60.9283 15.2693 60.7183 15.1952 60.4599C15.1211 60.2014 15.0915 59.9268 15.0915 59.6361ZM15.3583 59.6522C15.3583 60.0399 15.4176 60.3629 15.551 60.5891C15.6695 60.8152 15.8326 60.9283 16.0253 60.9283C16.218 60.9283 16.381 60.8152 16.4996 60.5891C16.633 60.3468 16.6923 60.0237 16.6923 59.6038C16.6923 59.3292 16.6626 59.0869 16.6181 58.8931C16.5589 58.6992 16.4847 58.5377 16.381 58.4246C16.2772 58.3116 16.1587 58.2631 16.0253 58.2631C15.8474 58.2631 15.6843 58.3762 15.551 58.5862C15.4176 58.7961 15.3583 59.1515 15.3583 59.6522ZM17.3 61.2513V57.9401H18.1745C18.3375 57.9401 18.4709 57.9724 18.5747 58.037C18.6636 58.0854 18.7377 58.1985 18.7822 58.3439C18.8415 58.5054 18.8711 58.6669 18.8711 58.8446C18.8711 59.0869 18.8266 59.2807 18.7377 59.4422C18.6488 59.6038 18.5006 59.7007 18.3079 59.7491C18.382 59.7976 18.4413 59.8622 18.4709 59.9107C18.545 60.0237 18.6191 60.1691 18.6932 60.3468L19.0342 61.2513H18.7081L18.4413 60.5568C18.3672 60.3629 18.3079 60.2014 18.2486 60.1045C18.2041 59.9914 18.1596 59.9268 18.1152 59.8784C18.0855 59.8461 18.0411 59.8138 17.9966 59.7976C17.9818 59.7814 17.9225 59.7814 17.8632 59.7814H17.5519V61.2513H17.3ZM17.5519 59.3938H18.1152C18.2338 59.3938 18.3227 59.3776 18.3968 59.3453C18.4561 59.2969 18.5154 59.2323 18.545 59.1353C18.5747 59.0546 18.6043 58.9577 18.6043 58.8446C18.6043 58.6831 18.5598 58.5539 18.5006 58.4569C18.4264 58.36 18.3227 58.3116 18.1745 58.3116H17.5519V59.3938Z" fill="white"/>
<mask id="mask9_1575_1739" style="mask-type:luminance" maskUnits="userSpaceOnUse" x="0" y="42" width="75" height="5">
<path d="M0 42.5127H75V46.6477H0V42.5127Z" fill="white"/>
</mask>
<g mask="url(#mask9_1575_1739)">
<path d="M2.04688 44.9209H74.9423" stroke="white" stroke-width="0.0763833"/>
</g>
<mask id="mask10_1575_1739" style="mask-type:luminance" maskUnits="userSpaceOnUse" x="0" y="54" width="75" height="6">
<path d="M0 54.917H75V59.052H0V54.917Z" fill="white"/>
</mask>
<g mask="url(#mask10_1575_1739)">
<path d="M2.04688 56.8408H74.9423" stroke="white" stroke-width="0.0763833"/>
</g>
<path d="M39.8418 44.9199V56.8405" stroke="white" stroke-width="0.0763833"/>
<mask id="mask11_1575_1739" style="mask-type:luminance" maskUnits="userSpaceOnUse" x="0" y="59" width="75" height="5">
<path d="M0 59.0547H75V63.1897H0V59.0547Z" fill="white"/>
</mask>
<g mask="url(#mask11_1575_1739)">
<path d="M2.04688 62.8018H74.9423" stroke="white" stroke-width="0.0763833"/>
</g>
<mask id="mask12_1575_1739" style="mask-type:luminance" maskUnits="userSpaceOnUse" x="0" y="67" width="75" height="5">
<path d="M0 67.3223H75V71.4573H0V67.3223Z" fill="white"/>
</mask>
<g mask="url(#mask12_1575_1739)">
<path d="M2.04688 68.7607H74.9423" stroke="white" stroke-width="0.0763833"/>
</g>
<mask id="mask13_1575_1739" style="mask-type:luminance" maskUnits="userSpaceOnUse" x="0" y="13" width="22" height="22">
<path d="M0 13.5684H21.6996V34.2436H0V13.5684Z" fill="white"/>
</mask>
<g mask="url(#mask13_1575_1739)">
<path fill-rule="evenodd" clip-rule="evenodd" d="M2.04688 33.9531H18.2475L2.04688 16.0723V33.9531Z" fill="#1A1A1A"/>
</g>
<mask id="mask14_1575_1739" style="mask-type:luminance" maskUnits="userSpaceOnUse" x="0" y="13" width="22" height="26">
<path d="M0 13.5684H21.6996V38.3787H0V13.5684Z" fill="white"/>
</mask>
<g mask="url(#mask14_1575_1739)">
<path d="M2.04688 33.9531H18.2475L2.04688 16.0723V33.9531Z" stroke="#1A1A1A" stroke-width="0.763833" stroke-linecap="round" stroke-linejoin="round"/>
</g>
<path d="M4.95312 48.1506L5.2051 48.1022C5.21992 48.2799 5.23474 48.4091 5.27921 48.5221C5.32368 48.6191 5.39779 48.6998 5.48672 48.7644C5.57566 48.829 5.66459 48.8613 5.78316 48.8613C5.88692 48.8613 5.96103 48.8452 6.04996 48.7967C6.12407 48.7483 6.16854 48.6837 6.21301 48.5868C6.24265 48.506 6.27229 48.4091 6.27229 48.3122C6.27229 48.1991 6.25747 48.1183 6.21301 48.0376C6.18336 47.9568 6.12407 47.8922 6.03514 47.8437C5.99067 47.8114 5.8721 47.7468 5.69423 47.6822C5.50154 47.6014 5.38297 47.5368 5.30886 47.4722C5.21992 47.3915 5.14581 47.2945 5.10135 47.1653C5.05688 47.0523 5.02724 46.9069 5.02724 46.7615C5.02724 46.5838 5.05688 46.4385 5.11617 46.2931C5.17546 46.1477 5.24957 46.0346 5.36814 45.9539C5.4719 45.8893 5.59048 45.8408 5.72388 45.8408C5.8721 45.8408 5.99067 45.8893 6.10925 45.97C6.21301 46.0508 6.30194 46.1639 6.36123 46.3092C6.42052 46.4708 6.45016 46.6323 6.46498 46.8261L6.21301 46.8584C6.19818 46.6484 6.15372 46.5031 6.07961 46.39C5.99068 46.2931 5.88692 46.2285 5.7387 46.2285C5.57565 46.2285 5.45708 46.2769 5.38297 46.3739C5.32368 46.4708 5.27921 46.5838 5.27921 46.7292C5.27921 46.8423 5.30886 46.9392 5.35332 47.02C5.41261 47.1007 5.53119 47.1815 5.75352 47.2622C5.96103 47.343 6.10925 47.4076 6.18336 47.4722C6.30194 47.553 6.37605 47.6661 6.43534 47.7953C6.49463 47.9406 6.52427 48.1022 6.52427 48.2799C6.52427 48.4414 6.49463 48.6191 6.43534 48.7644C6.37605 48.926 6.28712 49.039 6.16854 49.1359C6.06478 49.2167 5.93138 49.2652 5.79799 49.2652C5.62012 49.2652 5.4719 49.2167 5.35332 49.1359C5.21992 49.039 5.13099 48.9098 5.05688 48.7321C4.99759 48.5545 4.95312 48.3606 4.95312 48.1506ZM8.27328 48.0537L8.54008 48.1506C8.48079 48.5221 8.37704 48.7967 8.24364 48.9744C8.09542 49.1682 7.93238 49.2652 7.72486 49.2652C7.51736 49.2652 7.33949 49.1844 7.20609 49.039C7.07269 48.8937 6.96894 48.6837 6.90965 48.4091C6.83554 48.1345 6.80589 47.8437 6.80589 47.5368C6.80589 47.1815 6.83553 46.8907 6.92447 46.6323C6.99858 46.3739 7.10234 46.18 7.25056 46.0508C7.39878 45.9054 7.547 45.8408 7.72486 45.8408C7.91755 45.8408 8.08059 45.9377 8.22882 46.0993C8.36221 46.2608 8.45115 46.5031 8.49561 46.81L8.24364 46.9069C8.19917 46.6646 8.13988 46.4869 8.05095 46.39C7.96202 46.2769 7.85826 46.2285 7.72486 46.2285C7.57664 46.2285 7.44324 46.2769 7.33949 46.4062C7.23573 46.5192 7.17645 46.6807 7.13198 46.8907C7.08752 47.1007 7.07269 47.3107 7.07269 47.5207C7.07269 47.8114 7.08752 48.0537 7.1468 48.2637C7.19127 48.4737 7.26538 48.6352 7.36913 48.7321C7.47289 48.829 7.57664 48.8937 7.69522 48.8937C7.84344 48.8937 7.97684 48.8129 8.06577 48.6675C8.16953 48.5383 8.24364 48.3283 8.27328 48.0537ZM8.86617 49.2005V45.9054H10.2743V46.2931H9.11814V47.3107H10.2002V47.6984H9.11814V48.8129H10.3187V49.2005H8.86617ZM10.6893 49.2005V45.9054H10.9561L11.9788 48.4898V45.9054H12.2308V49.2005H11.964L10.9264 46.6161V49.2005H10.6893ZM12.6755 49.2005V45.9054H14.0984V46.2931H12.9274V47.3107H14.0243V47.6984H12.9274V48.8129H14.1428V49.2005H12.6755Z" fill="white"/>
<path d="M43.2799 49.1521V46.2446H42.6426V45.8408H44.1989V46.2446H43.5467V49.1521H43.2799ZM44.2434 49.1521L44.9993 45.8408H45.2809L46.0813 49.1521H45.7849L45.5625 48.1506H44.7325L44.525 49.1521H44.2434ZM44.8066 47.7953H45.4736L45.2661 46.8746C45.2068 46.6 45.1623 46.3739 45.1327 46.1962C45.1031 46.4062 45.0734 46.6161 45.0289 46.8261L44.8066 47.7953ZM46.274 49.1521V45.8408H46.5408V47.4884L47.5191 45.8408H47.86L47.0448 47.1815L47.9044 49.1521H47.5635L46.8669 47.4722L46.5408 48.0053V49.1521H46.274ZM48.1268 49.1521V45.8408H49.5497V46.2446H48.3936V47.2461H49.4756V47.6338H48.3936V48.7644H49.5942V49.1521H48.1268Z" fill="white"/>
</svg>
