<svg width="81" height="75" viewBox="0 0 81 75" fill="none" xmlns="http://www.w3.org/2000/svg">
<mask id="mask0_1577_1741" style="mask-type:luminance" maskUnits="userSpaceOnUse" x="0" y="0" width="72" height="75">
<path d="M0.287109 0H71.4183V74.2653H0.287109V0Z" fill="white"/>
</mask>
<g mask="url(#mask0_1577_1741)">
<path d="M69.6268 37.1232C69.6268 57.6375 54.1004 74.2469 34.9569 74.2469C15.8135 74.2469 0.287109 57.6375 0.287109 37.1232C0.287109 16.6269 15.8135 0.0175781 34.9569 0.0175781C54.1004 0.0175781 69.6268 16.6269 69.6268 37.1232Z" fill="#EDF4E0"/>
<path d="M34.9569 0.0175781C15.8135 0.0175781 0.287109 16.6269 0.287109 37.1232C0.287109 57.6375 15.8135 74.2469 34.9569 74.2469C54.1004 74.2469 69.6268 57.6375 69.6268 37.1232C69.6268 16.6269 54.1004 0.0175781 34.9569 0.0175781ZM34.9569 7.44951C50.2444 7.44951 62.6996 20.7658 62.6996 37.1232C62.6996 53.4987 50.2444 66.815 34.9569 66.815C19.6695 66.815 7.21425 53.4987 7.21425 37.1232C7.21425 20.7658 19.6695 7.44951 34.9569 7.44951Z" fill="#DD3D4E"/>
</g>
<path d="M34.9567 14.8662C23.474 14.8662 14.1582 24.8354 14.1582 37.144C14.1582 49.4346 23.474 59.4038 34.9567 59.4038C46.4394 59.4038 55.7552 49.4346 55.7552 37.144C55.7552 24.8354 46.4394 14.8662 34.9567 14.8662ZM34.9567 22.2981C42.6004 22.2981 48.828 28.9563 48.828 37.144C48.828 45.3137 42.6004 51.9719 34.9567 51.9719C27.3129 51.9719 21.0853 45.3137 21.0853 37.144C21.0853 28.9563 27.3129 22.2981 34.9567 22.2981Z" fill="#DD3D4E"/>
<path d="M41.8836 37.1438C41.8836 41.2287 38.7783 44.5578 34.9564 44.5578C31.1175 44.5578 28.0293 41.2287 28.0293 37.1438C28.0293 33.041 31.1175 29.7119 34.9564 29.7119C38.7783 29.7119 41.8836 33.041 41.8836 37.1438Z" fill="#DD3D4E"/>
<path d="M73.512 13.6423C75.9007 18.0511 86.5985 16.1796 77.1974 21.992C67.8134 27.8044 58.2757 28.9381 55.8871 24.5293C53.5155 20.1385 59.2141 11.8608 68.6153 6.06643C77.9993 0.25405 71.1404 9.25155 73.512 13.6423Z" fill="#C76528"/>
<path d="M34.9528 38.9614C34.4751 38.9614 34.0144 38.6915 33.7585 38.2236C33.366 37.5038 33.5878 36.6041 34.2533 36.1902L73.8881 11.699C74.5535 11.2851 75.4066 11.5371 75.782 12.2389C76.1744 12.9587 75.9355 13.8584 75.2701 14.2723L35.6523 38.7635C35.4305 38.8894 35.1917 38.9614 34.9528 38.9614Z" fill="#50616C"/>
</svg>
