<svg width="63" height="71" viewBox="0 0 63 71" fill="none" xmlns="http://www.w3.org/2000/svg">
<mask id="mask0_1366_1643" style="mask-type:luminance" maskUnits="userSpaceOnUse" x="0" y="0" width="63" height="71">
<path d="M0 0H63V70.5052H0V0Z" fill="white"/>
</mask>
<g mask="url(#mask0_1366_1643)">
<path d="M59.8504 15.388L34.6641 0.89381C32.7539 -0.20028 30.3821 -0.20028 28.4719 0.89381L3.28724 15.388C1.35912 16.4938 0.160156 18.5699 0.160156 20.7949V49.7799C0.160156 52.0049 1.35912 54.081 3.28724 55.1868L28.4719 69.6809C29.4294 70.2313 30.4995 70.5057 31.568 70.5057C32.6365 70.5057 33.7065 70.2313 34.6641 69.6809L59.8504 55.1868C61.7769 54.081 62.9758 52.0049 62.9758 49.7799V20.7949C62.9758 18.5699 61.7769 16.4938 59.8504 15.388ZM31.568 53.6627C21.6713 53.6627 13.6211 45.4202 13.6211 35.2874C13.6211 25.1545 21.6713 16.912 31.568 16.912C37.2235 16.912 42.4467 19.5987 45.8397 24.1742L39.2854 28.0553C37.3165 25.8488 34.5189 24.569 31.568 24.569C25.7967 24.569 21.0987 29.3769 21.0987 35.2874C21.0987 41.1961 25.7967 46.0058 31.568 46.0058C34.5189 46.0058 37.3165 44.726 39.2854 42.5194L45.8397 46.4006C42.4467 50.976 37.2235 53.6627 31.568 53.6627ZM49.5149 36.8181H46.5232V39.8812H43.5331V36.8181H40.5414V33.7566H43.5331V30.6935H46.5232V33.7566H49.5149V36.8181ZM59.9841 36.8181H56.9924V39.8812H54.0024V36.8181H51.0107V33.7566H54.0024V30.6935H56.9924V33.7566H59.9841V36.8181Z" fill="black"/>
</g>
</svg>
