<svg width="72" height="75" viewBox="0 0 72 75" fill="none" xmlns="http://www.w3.org/2000/svg">
<path d="M66.3023 5.59172C74.4385 14.5742 75.1834 60.2336 59.7377 68.8512C44.292 77.4688 0.654173 77.8355 0.267459 52.3495C-0.119256 26.8635 -2.62814 4.8601 20.5423 2.84276C43.7128 0.823463 58.0003 -3.57606 66.3023 5.59172Z" fill="#FFE577"/>
<path d="M69.4691 72.9094H4.03241C3.24755 72.9094 2.60938 72.2577 2.60938 71.452V4.37635C2.60938 3.57058 3.24755 2.91895 4.03241 2.91895H69.4691C70.2539 2.91895 70.8921 3.57058 70.8921 4.37635V71.452C70.8921 72.2577 70.2539 72.9094 69.4691 72.9094ZM5.45544 69.9946H68.046V5.83375H5.45544V69.9946ZM30.4547 67.7431C28.1135 67.7431 25.9456 67.1675 24.113 66.0457C22.3909 64.9844 20.9526 63.3065 19.9525 61.1897C19.6343 60.5166 19.8648 59.7049 20.4878 59.3108L25.4636 56.1678C25.6884 56.0273 25.9456 55.9512 26.2104 55.9512C27.0638 55.9512 27.4391 56.6146 27.6639 57.0106C28.3383 58.1676 28.7136 58.6612 29.4394 59.0338C29.4527 58.9987 29.8375 59.1314 30.3157 59.1314C30.8643 59.1314 31.5177 58.9909 31.8054 58.3744C32.0987 57.7403 32.074 55.2684 32.0568 53.4637L32.0416 51.4288L32.0683 35.2042C32.0683 34.4004 32.7045 33.7468 33.4894 33.7468H39.6178C40.014 33.7468 40.3893 33.9165 40.6598 34.2131C40.9303 34.5116 41.0675 34.9077 41.0351 35.3096V41.1431C41.0446 44.9827 41.0503 48.8125 41.0294 52.6384L41.0465 54.1426C41.096 57.2194 41.1399 60.1244 39.7721 62.6822C38.73 64.8615 36.665 66.5315 33.979 67.3256C32.7769 67.6046 31.5958 67.7431 30.4547 67.7431ZM23.1395 61.0648C23.8139 62.1261 24.6426 62.9709 25.5722 63.5465C27.6353 64.8049 30.4395 65.158 33.2741 64.5044C34.5371 64.1298 36.3316 63.2519 37.246 61.3438C38.2804 59.4025 38.2443 56.9891 38.1985 54.1934L38.1814 52.6384C38.2043 48.8066 38.1966 44.9827 38.1871 41.1509L38.1814 36.6655H34.9048L34.8819 51.4307L34.8953 53.4383C34.9296 56.8409 34.9181 58.6631 34.3123 59.7401C33.2341 62.0559 30.5481 62.4344 28.3859 61.7438C27.0524 61.0824 26.3266 60.2727 25.757 59.4103L23.1395 61.0648ZM53.9757 67.4485C50.1448 67.4485 46.3272 66.0828 44.0373 63.7123L43.4335 63.01C42.7115 62.1749 42.0847 61.455 41.5361 60.1693C41.2427 59.4864 41.5018 58.6904 42.1304 58.3197L47.1215 55.3835C47.7788 55.0011 48.6036 55.202 49.0189 55.8439C50.2896 57.8183 51.2382 58.5734 52.9242 58.9558C54.3624 59.1314 55.7588 58.8485 56.3341 58.2085C56.4408 58.0856 56.7684 57.7247 56.5932 56.7804C56.3303 55.9258 54.4729 55.124 52.6803 54.3514C50.9392 53.6003 48.9675 52.7496 47.2663 51.4463C45.1613 49.9928 43.7097 47.4585 43.3477 44.5378C42.9896 41.6347 43.7726 38.8233 45.5023 36.8177C46.6853 35.3193 48.6627 34.1136 50.8934 33.5576L52.9737 33.2805C57.039 33.1752 59.8526 34.2482 61.9386 36.646C62.5063 37.2118 62.9559 37.8673 63.6741 39.0106C63.8779 39.3364 63.9465 39.7403 63.8646 40.1188C63.7826 40.4973 63.5521 40.8309 63.2264 41.0338C61.2719 42.2825 61.2719 42.2825 58.4677 44.1613C58.121 44.3915 57.6962 44.4578 57.2999 44.3408C56.9056 44.2257 56.576 43.9428 56.4008 43.5604C55.995 42.6727 55.3568 42.0522 54.6101 41.8162C53.9833 41.623 53.2347 41.6815 52.7603 41.9625C52.4155 42.1654 52.3222 42.4229 52.2822 42.5985C52.2193 42.8287 52.166 43.0024 52.3965 43.8491C52.6327 44.3681 53.9776 44.9592 55.2749 45.5348C55.694 45.7182 56.115 45.9055 56.5265 46.1025C62.1005 48.4184 64.8952 51.2415 65.5143 55.2235C65.5467 55.4127 65.5372 55.602 65.4971 55.7795C65.7429 57.9412 65.3924 59.5157 65.1409 60.3059C64.1998 63.607 61.5767 65.9813 57.761 66.9725C56.536 67.2963 55.2521 67.4485 53.9757 67.4485ZM44.7765 60.1244C44.9956 60.4249 45.2489 60.7136 45.5556 61.0726L46.1252 61.7379C48.4093 64.1006 53.1375 65.1736 57.058 64.1532C58.6811 63.7318 61.5309 62.5632 62.413 59.4708C62.5901 58.9109 62.9235 57.5257 62.5787 55.522C62.552 55.362 62.5501 55.2059 62.5749 55.0498C62.1063 53.1496 60.6661 50.9761 55.3854 48.7813C54.9301 48.5647 54.5358 48.3891 54.1453 48.2174C52.3412 47.4214 50.4724 46.5961 49.7181 44.8266C49.3752 43.6072 49.257 42.7839 49.5333 41.8513C49.7562 40.8719 50.3848 40.0056 51.3316 39.4418C52.4917 38.7492 54.0233 38.5912 55.4349 39.0282C56.4846 39.3599 57.4009 40.0115 58.1153 40.9129C59.2583 40.1481 59.7536 39.8183 60.468 39.3599C60.2546 39.0653 60.0755 38.8584 59.8755 38.6575C58.2791 36.8313 56.3112 36.1036 53.1775 36.1875L51.4021 36.4236C49.9486 36.7982 48.495 37.6605 47.6664 38.7043C46.4415 40.1285 45.91 42.1049 46.1652 44.173C46.4205 46.2313 47.4473 48.0633 48.9084 49.0759C50.3867 50.2035 52.1107 50.9508 53.7776 51.6668C56.3417 52.773 58.7668 53.8207 59.3497 56.0702C59.3554 56.0975 59.3611 56.1229 59.3669 56.1502C59.7707 58.1734 59.0735 59.465 58.4182 60.1927C57.1875 61.5565 55.0044 62.1554 52.4384 61.8315C50.0552 61.295 48.6208 60.1517 47.4168 58.5734L44.7765 60.1244Z" fill="black"/>
</svg>
