<svg width="74" height="73" viewBox="0 0 74 73" fill="none" xmlns="http://www.w3.org/2000/svg">
<mask id="mask0_1366_1881" style="mask-type:luminance" maskUnits="userSpaceOnUse" x="47" y="52" width="27" height="21">
<path d="M47.9297 52.0439H73.9968V72.2446H47.9297V52.0439Z" fill="white"/>
</mask>
<g mask="url(#mask0_1366_1881)">
<mask id="mask1_1366_1881" style="mask-type:luminance" maskUnits="userSpaceOnUse" x="48" y="52" width="26" height="21">
<path d="M48.3789 52.3945H73.9879V65.2437C73.9879 65.4727 73.9748 65.7016 73.9484 65.9305C73.9239 66.1595 73.8862 66.385 73.8353 66.6105C73.7863 66.836 73.7241 67.0581 73.6505 67.2768C73.577 67.4972 73.4903 67.7124 73.3942 67.9243C73.2962 68.1361 73.1868 68.3429 73.0681 68.5462C72.9474 68.7478 72.8174 68.9442 72.6779 69.1339C72.5365 69.3252 72.3857 69.5097 72.2236 69.6857C72.0634 69.8634 71.8938 70.0325 71.7147 70.1948C71.5356 70.3571 71.3471 70.5109 71.1511 70.6561C70.9569 70.8013 70.7534 70.938 70.5422 71.0661C70.3311 71.1925 70.1144 71.3104 69.8919 71.4181C69.6676 71.5274 69.4395 71.6248 69.2058 71.7119C68.9721 71.8007 68.7346 71.8776 68.4914 71.9443C68.2501 72.0109 68.0032 72.0656 67.7563 72.11C67.5075 72.1544 67.2568 72.1886 67.0061 72.2108C66.7535 72.233 66.5009 72.2449 66.2483 72.2449H48.3789V52.3945Z" fill="white"/>
</mask>
<g mask="url(#mask1_1366_1881)">
<path d="M48.3789 52.3945V72.2449H73.9879V52.3945H48.3789Z" fill="url(#paint0_linear_1366_1881)"/>
</g>
</g>
<mask id="mask2_1366_1881" style="mask-type:luminance" maskUnits="userSpaceOnUse" x="0" y="0" width="63" height="73">
<path d="M0 0H62.8897V72.245H0V0Z" fill="white"/>
</mask>
<g mask="url(#mask2_1366_1881)">
<mask id="mask3_1366_1881" style="mask-type:luminance" maskUnits="userSpaceOnUse" x="0" y="0" width="63" height="73">
<path d="M53.7942 0H24.6734C24.091 0 23.5293 0.100798 22.9902 0.304103C22.4511 0.505699 21.9761 0.794426 21.5633 1.16858L1.30374 19.4882C0.87962 19.8658 0.555407 20.3049 0.331097 20.8037C0.106787 21.3026 0.00122945 21.822 0.0125394 22.3618V64.246C0.0125394 64.5074 0.027619 64.7688 0.0558935 65.0302C0.0841675 65.2916 0.125637 65.5496 0.182186 65.8059C0.238735 66.0638 0.308478 66.3167 0.393301 66.5678C0.476239 66.819 0.574257 67.065 0.683585 67.3076C0.794797 67.5485 0.919204 67.7859 1.05492 68.0166C1.19064 68.2472 1.33955 68.4727 1.49977 68.6897C1.65999 68.9084 1.83152 69.1185 2.01436 69.3201C2.19909 69.5234 2.39136 69.7165 2.59682 69.9027C2.80039 70.0872 3.01528 70.2632 3.2377 70.4289C3.46201 70.5946 3.69386 70.7518 3.93325 70.897C4.17264 71.0422 4.42146 71.1772 4.67593 71.3002C4.93039 71.4232 5.19052 71.536 5.45818 71.6368C5.72585 71.7359 5.99728 71.8247 6.27437 71.8999C6.54957 71.9768 6.83043 72.04 7.11318 72.0912C7.39592 72.1425 7.68243 72.1801 7.96895 72.2057C8.25735 72.2313 8.54574 72.245 8.83414 72.245H53.7942C54.0826 72.245 54.371 72.2313 54.6594 72.2057C54.9459 72.1801 55.2305 72.1425 55.5151 72.0912C55.7979 72.04 56.0787 71.9768 56.3539 71.8999C56.631 71.8247 56.9025 71.7359 57.1701 71.6368C57.4359 71.536 57.6979 71.4232 57.9524 71.3002C58.2068 71.1772 58.4538 71.0422 58.6951 70.897C58.9344 70.7518 59.1663 70.5946 59.3906 70.4289C59.613 70.2632 59.8279 70.0872 60.0315 69.9027C60.2351 69.7165 60.4292 69.5234 60.6121 69.3201C60.7968 69.1185 60.9683 68.9084 61.1285 68.6897C61.2888 68.4727 61.4377 68.2472 61.5734 68.0166C61.7091 67.7859 61.8335 67.5485 61.9428 67.3076C62.054 67.065 62.1521 66.819 62.235 66.5678C62.3198 66.3167 62.3896 66.0638 62.4461 65.8059C62.5027 65.5496 62.5441 65.2916 62.5724 65.0302C62.6007 64.7688 62.6158 64.5074 62.6158 64.246V7.99723C62.6158 7.73584 62.6007 7.47444 62.5724 7.21476C62.5441 6.95337 62.5027 6.69368 62.4461 6.43742C62.3896 6.18115 62.3198 5.92659 62.235 5.67545C62.1521 5.42602 62.054 5.17829 61.9428 4.9374C61.8335 4.6948 61.7091 4.45904 61.5734 4.22669C61.4377 3.99605 61.2888 3.77224 61.1285 3.55356C60.9683 3.33659 60.7968 3.12645 60.6121 2.92315C60.4292 2.72155 60.2351 2.52679 60.0315 2.34228C59.8279 2.15606 59.613 1.9818 59.3906 1.81437C59.1663 1.64865 58.9344 1.49318 58.6951 1.34796C58.4538 1.20104 58.2068 1.06778 57.9524 0.943061C57.6979 0.820053 57.4359 0.709004 57.1701 0.608206C56.9025 0.507408 56.631 0.420278 56.3539 0.343397C56.0787 0.268226 55.7979 0.203305 55.5151 0.15376C55.2305 0.102506 54.9459 0.0632125 54.6594 0.0375858C54.371 0.011959 54.0826 0 53.7942 0Z" fill="white"/>
</mask>
<g mask="url(#mask3_1366_1881)">
<path d="M0.00390625 0V72.245H62.6128V0H0.00390625Z" fill="url(#paint1_linear_1366_1881)"/>
</g>
</g>
<mask id="mask4_1366_1881" style="mask-type:luminance" maskUnits="userSpaceOnUse" x="0" y="0" width="29" height="73">
<path d="M0 0H28.6287V72.245H0V0Z" fill="white"/>
</mask>
<g mask="url(#mask4_1366_1881)">
<mask id="mask5_1366_1881" style="mask-type:luminance" maskUnits="userSpaceOnUse" x="0" y="0" width="29" height="73">
<path d="M28.4679 0H24.6734C24.091 0 23.5293 0.100798 22.9902 0.304103C22.4511 0.505699 21.9761 0.794426 21.5633 1.16858L12.3439 9.45966L1.30374 19.4882C0.87962 19.8658 0.555408 20.3049 0.331097 20.8037C0.106787 21.3026 0.00122945 21.822 0.0125394 22.3618V64.246C0.0125394 64.5074 0.027619 64.7688 0.0558935 65.0302C0.0841675 65.2916 0.125637 65.5496 0.182186 65.8059C0.238735 66.0638 0.308478 66.3167 0.393301 66.5678C0.476239 66.819 0.574257 67.065 0.683585 67.3076C0.794797 67.5485 0.919204 67.7859 1.05492 68.0166C1.19064 68.2472 1.33955 68.4727 1.49977 68.6897C1.65999 68.9084 1.83152 69.1185 2.01436 69.3201C2.19909 69.5234 2.39136 69.7165 2.59682 69.9027C2.80039 70.0872 3.01528 70.2632 3.2377 70.4289C3.46201 70.5946 3.69386 70.7518 3.93325 70.897C4.17264 71.0422 4.42146 71.1772 4.67593 71.3002C4.9304 71.4232 5.19052 71.536 5.45818 71.6368C5.72585 71.7359 5.99728 71.8247 6.27437 71.8999C6.54957 71.9768 6.83043 72.04 7.11318 72.0912C7.39592 72.1425 7.68243 72.1801 7.96895 72.2057C8.25735 72.2313 8.54574 72.245 8.83414 72.245H22.7772V23.6346C22.7904 22.7206 22.9581 21.8322 23.2823 20.9677C23.6066 20.105 24.0703 19.3071 24.6734 18.5759C25.9081 17.0725 26.8487 15.4307 27.499 13.6505C28.1474 11.872 28.4698 10.0439 28.4679 8.16978V0Z" fill="white"/>
</mask>
<g mask="url(#mask5_1366_1881)">
<path d="M0.00390625 0V72.245H28.4668V0H0.00390625Z" fill="url(#paint2_linear_1366_1881)"/>
</g>
</g>
<mask id="mask6_1366_1881" style="mask-type:luminance" maskUnits="userSpaceOnUse" x="0" y="0" width="23" height="21">
<path d="M0.162109 0H22.8419V20.9917H0.162109V0Z" fill="white"/>
</mask>
<g mask="url(#mask6_1366_1881)">
<mask id="mask7_1366_1881" style="mask-type:luminance" maskUnits="userSpaceOnUse" x="0" y="0" width="23" height="21">
<path d="M10.7291 20.6428C11.1249 20.6411 11.517 20.624 11.9091 20.5881C12.303 20.5522 12.6913 20.4993 13.0778 20.4292C13.4661 20.3592 13.8468 20.272 14.2238 20.1678C14.6027 20.0636 14.9721 19.944 15.3359 19.8056C15.7016 19.6689 16.056 19.5169 16.4047 19.3478C16.7515 19.1786 17.0908 18.9941 17.4169 18.7959C17.7449 18.5978 18.0616 18.3842 18.3669 18.157C18.6723 17.9315 18.9626 17.6906 19.2416 17.4377C19.5205 17.1849 19.7863 16.9201 20.0351 16.645C20.2858 16.3682 20.5215 16.0812 20.7401 15.7839C20.9588 15.4867 21.1623 15.1809 21.349 14.8648C21.5337 14.5505 21.7033 14.2276 21.8541 13.8961C22.0049 13.5664 22.1388 13.2298 22.2537 12.8881C22.3687 12.5464 22.4648 12.1996 22.5421 11.8494C22.6194 11.4992 22.6778 11.1455 22.7155 10.7902C22.7551 10.4331 22.7759 10.0777 22.7759 9.71897V0.378906C22.2914 0.568543 21.8617 0.833352 21.4866 1.16992L1.30242 19.4896C0.925431 19.821 0.635148 20.2054 0.429688 20.6428H10.7291Z" fill="white"/>
</mask>
<g mask="url(#mask7_1366_1881)">
<path d="M0.429688 0.378906V20.6428H22.7759V0.378906H0.429688Z" fill="url(#paint3_linear_1366_1881)"/>
</g>
</g>
<mask id="mask8_1366_1881" style="mask-type:luminance" maskUnits="userSpaceOnUse" x="11" y="31" width="12" height="4">
<path d="M11.2578 31.9268H22.839V34.9883H11.2578V31.9268Z" fill="white"/>
</mask>
<g mask="url(#mask8_1366_1881)">
<mask id="mask9_1366_1881" style="mask-type:luminance" maskUnits="userSpaceOnUse" x="11" y="32" width="12" height="3">
<path d="M22.7681 33.5448C22.7681 33.3739 22.7323 33.2099 22.6607 33.051C22.5871 32.8938 22.4854 32.7537 22.3515 32.6324C22.2177 32.5111 22.065 32.4189 21.8897 32.3523C21.7163 32.2873 21.5334 32.2549 21.345 32.2549H12.808C12.6195 32.2549 12.4385 32.2873 12.2651 32.3523C12.0898 32.4189 11.9352 32.5111 11.8033 32.6324C11.6695 32.7537 11.5658 32.8938 11.4942 33.051C11.4225 33.2099 11.3867 33.3739 11.3867 33.5448C11.3867 33.7156 11.4225 33.8796 11.4942 34.0385C11.5658 34.1957 11.6695 34.3358 11.8033 34.4571C11.9352 34.5784 12.0898 34.6706 12.2651 34.7373C12.4385 34.8022 12.6195 34.8346 12.808 34.8346H21.345C21.5334 34.8346 21.7163 34.8022 21.8897 34.7373C22.065 34.6706 22.2177 34.5784 22.3515 34.4571C22.4854 34.3358 22.5871 34.1957 22.6607 34.0385C22.7323 33.8796 22.7681 33.7156 22.7681 33.5448Z" fill="white"/>
</mask>
<g mask="url(#mask9_1366_1881)">
<path d="M11.3867 32.2549V34.8346H22.7681V32.2549H11.3867Z" fill="url(#paint4_linear_1366_1881)"/>
</g>
</g>
<mask id="mask10_1366_1881" style="mask-type:luminance" maskUnits="userSpaceOnUse" x="25" y="31" width="27" height="4">
<path d="M25.248 31.9268H51.3057V34.9883H25.248V31.9268Z" fill="white"/>
</mask>
<g mask="url(#mask10_1366_1881)">
<mask id="mask11_1366_1881" style="mask-type:luminance" maskUnits="userSpaceOnUse" x="25" y="32" width="27" height="3">
<path d="M49.807 32.2549H27.0424C26.8557 32.2566 26.6748 32.2908 26.5014 32.3574C26.328 32.424 26.1753 32.5163 26.0433 32.6376C25.9095 32.7572 25.8077 32.8973 25.7342 33.0544C25.6607 33.2099 25.623 33.3739 25.6211 33.5448C25.623 33.7156 25.6607 33.8796 25.7342 34.0351C25.8077 34.1923 25.9095 34.3324 26.0433 34.4519C26.1753 34.5732 26.328 34.6655 26.5014 34.7321C26.6748 34.7988 26.8557 34.8329 27.0424 34.8346H49.807C49.9955 34.8346 50.1783 34.8022 50.3517 34.7373C50.527 34.6706 50.6797 34.5784 50.8136 34.4571C50.9474 34.3358 51.0492 34.1957 51.1227 34.0385C51.1943 33.8796 51.2301 33.7156 51.2301 33.5448C51.2301 33.3739 51.1943 33.2099 51.1227 33.051C51.0492 32.8938 50.9474 32.7537 50.8136 32.6324C50.6797 32.5111 50.527 32.4189 50.3517 32.3523C50.1783 32.2873 49.9955 32.2549 49.807 32.2549Z" fill="white"/>
</mask>
<g mask="url(#mask11_1366_1881)">
<path d="M25.6211 32.2549V34.8346H51.2301V32.2549H25.6211Z" fill="url(#paint5_linear_1366_1881)"/>
</g>
</g>
<mask id="mask12_1366_1881" style="mask-type:luminance" maskUnits="userSpaceOnUse" x="42" y="42" width="10" height="4">
<path d="M42.625 42.4229H51.3109V45.4844H42.625V42.4229Z" fill="white"/>
</mask>
<g mask="url(#mask12_1366_1881)">
<mask id="mask13_1366_1881" style="mask-type:luminance" maskUnits="userSpaceOnUse" x="42" y="42" width="10" height="4">
<path d="M49.8052 42.5742H44.1145C43.9261 42.5759 43.747 42.6101 43.5736 42.6767C43.4002 42.7434 43.2475 42.8356 43.1136 42.9569C42.9817 43.0765 42.878 43.2166 42.8045 43.3738C42.7329 43.5292 42.6952 43.6932 42.6914 43.8641C42.6952 44.0349 42.7329 44.1989 42.8045 44.3544C42.878 44.5116 42.9817 44.6517 43.1136 44.7713C43.2475 44.8926 43.4002 44.9848 43.5736 45.0515C43.747 45.1181 43.9261 45.1523 44.1145 45.154H49.8052C49.9937 45.154 50.1766 45.1215 50.35 45.0566C50.5253 44.99 50.678 44.8977 50.8118 44.7764C50.9456 44.6551 51.0474 44.5167 51.1209 44.3578C51.1926 44.2007 51.2284 44.0349 51.2284 43.8641C51.2284 43.6932 51.1926 43.5292 51.1209 43.3704C51.0474 43.2132 50.9456 43.0731 50.8118 42.9518C50.678 42.8305 50.5253 42.7382 50.35 42.6716C50.1766 42.6067 49.9937 42.5742 49.8052 42.5742Z" fill="white"/>
</mask>
<g mask="url(#mask13_1366_1881)">
<path d="M42.6914 42.5742V45.154H51.2284V42.5742H42.6914Z" fill="url(#paint6_linear_1366_1881)"/>
</g>
</g>
<mask id="mask14_1366_1881" style="mask-type:luminance" maskUnits="userSpaceOnUse" x="11" y="42" width="30" height="4">
<path d="M11.2578 42.4229H40.2108V45.4844H11.2578V42.4229Z" fill="white"/>
</mask>
<g mask="url(#mask14_1366_1881)">
<mask id="mask15_1366_1881" style="mask-type:luminance" maskUnits="userSpaceOnUse" x="11" y="42" width="29" height="4">
<path d="M39.842 43.8631C39.842 43.6923 39.8062 43.5283 39.7327 43.3694C39.6611 43.2122 39.5574 43.0721 39.4255 42.9508C39.2916 42.8295 39.1371 42.7373 38.9637 42.6706C38.7884 42.6057 38.6074 42.5732 38.4189 42.5732H12.808C12.6195 42.5732 12.4385 42.6057 12.2651 42.6706C12.0898 42.7373 11.9352 42.8295 11.8033 42.9508C11.6695 43.0721 11.5658 43.2122 11.4942 43.3694C11.4225 43.5283 11.3867 43.6923 11.3867 43.8631C11.3867 44.034 11.4225 44.1997 11.4942 44.3569C11.5658 44.5157 11.6695 44.6541 11.8033 44.7754C11.9352 44.8967 12.0898 44.989 12.2651 45.0556C12.4385 45.1205 12.6195 45.153 12.808 45.153H38.4189C38.6074 45.153 38.7884 45.1205 38.9637 45.0556C39.1371 44.989 39.2916 44.8967 39.4255 44.7754C39.5574 44.6541 39.6611 44.5157 39.7327 44.3569C39.8062 44.1997 39.842 44.034 39.842 43.8631Z" fill="white"/>
</mask>
<g mask="url(#mask15_1366_1881)">
<path d="M11.3867 42.5732V45.153H39.842V42.5732H11.3867Z" fill="url(#paint7_linear_1366_1881)"/>
</g>
</g>
<mask id="mask16_1366_1881" style="mask-type:luminance" maskUnits="userSpaceOnUse" x="11" y="52" width="21" height="4">
<path d="M11.2578 52.4814H31.5249V55.543H11.2578V52.4814Z" fill="white"/>
</mask>
<g mask="url(#mask16_1366_1881)">
<mask id="mask17_1366_1881" style="mask-type:luminance" maskUnits="userSpaceOnUse" x="11" y="52" width="21" height="4">
<path d="M31.3051 54.1834C31.3051 54.0126 31.2693 53.8486 31.1957 53.6897C31.1241 53.5325 31.0223 53.3924 30.8885 53.2711C30.7547 53.1498 30.6001 53.0576 30.4267 52.9909C30.2514 52.926 30.0704 52.8936 29.8819 52.8936H12.808C12.6195 52.8936 12.4385 52.926 12.2651 52.9909C12.0898 53.0576 11.9352 53.1498 11.8033 53.2711C11.6695 53.3924 11.5658 53.5325 11.4942 53.6897C11.4225 53.8486 11.3867 54.0126 11.3867 54.1834C11.3867 54.3543 11.4225 54.52 11.4942 54.6772C11.5658 54.8361 11.6695 54.9744 11.8033 55.0957C11.9352 55.217 12.0898 55.3093 12.2651 55.3759C12.4385 55.4408 12.6195 55.4733 12.808 55.4733H29.8819C30.0704 55.4733 30.2514 55.4408 30.4267 55.3759C30.6001 55.3093 30.7547 55.217 30.8885 55.0957C31.0223 54.9744 31.1241 54.8361 31.1957 54.6772C31.2693 54.52 31.3051 54.3543 31.3051 54.1834Z" fill="white"/>
</mask>
<g mask="url(#mask17_1366_1881)">
<path d="M11.3867 52.8936V55.4733H31.3051V52.8936H11.3867Z" fill="url(#paint8_linear_1366_1881)"/>
</g>
</g>
<mask id="mask18_1366_1881" style="mask-type:luminance" maskUnits="userSpaceOnUse" x="33" y="52" width="19" height="4">
<path d="M33.9414 52.4814H51.3132V55.543H33.9414V52.4814Z" fill="white"/>
</mask>
<g mask="url(#mask18_1366_1881)">
<mask id="mask19_1366_1881" style="mask-type:luminance" maskUnits="userSpaceOnUse" x="34" y="52" width="18" height="4">
<path d="M49.8071 52.8936H35.5795C35.3929 52.8953 35.2119 52.9294 35.0385 52.9961C34.8651 53.0627 34.7124 53.1549 34.5785 53.2762C34.4466 53.3975 34.3429 53.5359 34.2713 53.6931C34.1978 53.8503 34.1601 54.0126 34.1582 54.1834C34.1601 54.3543 34.1978 54.5183 34.2713 54.6755C34.3429 54.8309 34.4466 54.971 34.5785 55.0906C34.7124 55.2119 34.8651 55.3042 35.0385 55.3708C35.2119 55.4374 35.3929 55.4716 35.5795 55.4733H49.8071C49.9956 55.4733 50.1785 55.4408 50.3519 55.3759C50.5272 55.3093 50.6799 55.217 50.8137 55.0957C50.9475 54.9744 51.0493 54.8361 51.1228 54.6772C51.1945 54.52 51.2303 54.3543 51.2303 54.1834C51.2303 54.0126 51.1945 53.8486 51.1228 53.6897C51.0493 53.5325 50.9475 53.3924 50.8137 53.2711C50.6799 53.1498 50.5272 53.0576 50.3519 52.9909C50.1785 52.926 49.9956 52.8936 49.8071 52.8936Z" fill="white"/>
</mask>
<g mask="url(#mask19_1366_1881)">
<path d="M34.1582 52.8936V55.4733H51.2303V52.8936H34.1582Z" fill="url(#paint9_linear_1366_1881)"/>
</g>
</g>
<mask id="mask20_1366_1881" style="mask-type:luminance" maskUnits="userSpaceOnUse" x="11" y="30" width="12" height="4">
<path d="M11.2578 30.6123H22.839V33.6738H11.2578V30.6123Z" fill="white"/>
</mask>
<g mask="url(#mask20_1366_1881)">
<mask id="mask21_1366_1881" style="mask-type:luminance" maskUnits="userSpaceOnUse" x="11" y="30" width="12" height="4">
<path d="M22.7681 32.2498C22.7681 32.079 22.7323 31.9133 22.6607 31.7561C22.5871 31.5972 22.4854 31.4588 22.3515 31.3375C22.2177 31.2162 22.065 31.124 21.8897 31.0573C21.7163 30.9924 21.5334 30.96 21.345 30.96H12.808C12.6195 30.96 12.4385 30.9924 12.2651 31.0573C12.0898 31.124 11.9352 31.2162 11.8033 31.3375C11.6695 31.4588 11.5658 31.5972 11.4942 31.7561C11.4225 31.9133 11.3867 32.079 11.3867 32.2498C11.3867 32.4207 11.4225 32.5847 11.4942 32.7436C11.5658 32.9008 11.6695 33.0408 11.8033 33.1621C11.9352 33.2834 12.0898 33.3757 12.2651 33.4423C12.4385 33.5073 12.6195 33.5397 12.808 33.5397H21.345C21.5334 33.5397 21.7163 33.5073 21.8897 33.4423C22.065 33.3757 22.2177 33.2834 22.3515 33.1621C22.4854 33.0408 22.5871 32.9008 22.6607 32.7436C22.7323 32.5847 22.7681 32.4207 22.7681 32.2498Z" fill="white"/>
</mask>
<g mask="url(#mask21_1366_1881)">
<path d="M11.3867 30.96V33.5397H22.7681V30.96H11.3867Z" fill="#273A9B"/>
</g>
</g>
<mask id="mask22_1366_1881" style="mask-type:luminance" maskUnits="userSpaceOnUse" x="25" y="30" width="27" height="4">
<path d="M25.248 30.6123H51.3057V33.6738H25.248V30.6123Z" fill="white"/>
</mask>
<g mask="url(#mask22_1366_1881)">
<mask id="mask23_1366_1881" style="mask-type:luminance" maskUnits="userSpaceOnUse" x="25" y="30" width="27" height="4">
<path d="M49.807 30.96H27.0424C26.8557 30.9617 26.6748 30.9958 26.5014 31.0625C26.328 31.1291 26.1753 31.2214 26.0433 31.3427C25.9095 31.4622 25.8077 31.6023 25.7342 31.7578C25.6607 31.915 25.623 32.079 25.6211 32.2498C25.623 32.4207 25.6607 32.583 25.7342 32.7402C25.8077 32.8973 25.9095 33.0357 26.0433 33.157C26.1753 33.2766 26.328 33.3706 26.5014 33.4372C26.6748 33.5038 26.8557 33.538 27.0424 33.5397H49.807C49.9955 33.5397 50.1783 33.5073 50.3517 33.4423C50.527 33.3757 50.6797 33.2834 50.8136 33.1621C50.9474 33.0408 51.0492 32.9008 51.1227 32.7436C51.1943 32.5847 51.2301 32.4207 51.2301 32.2498C51.2301 32.079 51.1943 31.9133 51.1227 31.7561C51.0492 31.5972 50.9474 31.4588 50.8136 31.3375C50.6797 31.2162 50.527 31.124 50.3517 31.0573C50.1783 30.9924 49.9955 30.96 49.807 30.96Z" fill="white"/>
</mask>
<g mask="url(#mask23_1366_1881)">
<path d="M25.6211 30.96V33.5397H51.2301V30.96H25.6211Z" fill="#273A9B"/>
</g>
</g>
<mask id="mask24_1366_1881" style="mask-type:luminance" maskUnits="userSpaceOnUse" x="42" y="41" width="10" height="4">
<path d="M42.625 41.1104H51.3109V44.1719H42.625V41.1104Z" fill="white"/>
</mask>
<g mask="url(#mask24_1366_1881)">
<mask id="mask25_1366_1881" style="mask-type:luminance" maskUnits="userSpaceOnUse" x="42" y="41" width="10" height="3">
<path d="M49.8052 41.2822H44.1145C43.9261 41.2839 43.747 41.3181 43.5736 41.3847C43.4002 41.4514 43.2475 41.5436 43.1136 41.6649C42.9817 41.7845 42.878 41.9246 42.8045 42.0801C42.7329 42.2372 42.6952 42.4013 42.6914 42.5721C42.6952 42.7429 42.7329 42.9052 42.8045 43.0624C42.878 43.2196 42.9817 43.358 43.1136 43.4793C43.2475 43.6006 43.4002 43.6928 43.5736 43.7595C43.747 43.8261 43.9261 43.8603 44.1145 43.862H49.8052C49.9937 43.862 50.1766 43.8295 50.35 43.7646C50.5253 43.698 50.678 43.6057 50.8118 43.4844C50.9456 43.3631 51.0474 43.223 51.1209 43.0658C51.1926 42.907 51.2284 42.7429 51.2284 42.5721C51.2284 42.4013 51.1926 42.2355 51.1209 42.0784C51.0474 41.9195 50.9456 41.7811 50.8118 41.6598C50.678 41.5385 50.5253 41.4462 50.35 41.3796C50.1766 41.3147 49.9937 41.2822 49.8052 41.2822Z" fill="white"/>
</mask>
<g mask="url(#mask25_1366_1881)">
<path d="M42.6914 41.2822V43.862H51.2284V41.2822H42.6914Z" fill="#273A9B"/>
</g>
</g>
<mask id="mask26_1366_1881" style="mask-type:luminance" maskUnits="userSpaceOnUse" x="11" y="41" width="30" height="4">
<path d="M11.2578 41.1104H40.2108V44.1719H11.2578V41.1104Z" fill="white"/>
</mask>
<g mask="url(#mask26_1366_1881)">
<mask id="mask27_1366_1881" style="mask-type:luminance" maskUnits="userSpaceOnUse" x="11" y="41" width="29" height="3">
<path d="M39.842 42.5721C39.842 42.4013 39.8062 42.2355 39.7327 42.0784C39.6611 41.9195 39.5574 41.7811 39.4255 41.6598C39.2916 41.5385 39.1371 41.4462 38.9637 41.3796C38.7884 41.3147 38.6074 41.2822 38.4189 41.2822H12.808C12.6195 41.2822 12.4385 41.3147 12.2651 41.3796C12.0898 41.4462 11.9352 41.5385 11.8033 41.6598C11.6695 41.7811 11.5658 41.9195 11.4942 42.0784C11.4225 42.2355 11.3867 42.4013 11.3867 42.5721C11.3867 42.7429 11.4225 42.907 11.4942 43.0658C11.5658 43.223 11.6695 43.3631 11.8033 43.4844C11.9352 43.6057 12.0898 43.698 12.2651 43.7646C12.4385 43.8295 12.6195 43.862 12.808 43.862H38.4189C38.6074 43.862 38.7884 43.8295 38.9637 43.7646C39.1371 43.698 39.2916 43.6057 39.4255 43.4844C39.5574 43.3631 39.6611 43.223 39.7327 43.0658C39.8062 42.907 39.842 42.7429 39.842 42.5721Z" fill="white"/>
</mask>
<g mask="url(#mask27_1366_1881)">
<path d="M11.3867 41.2822V43.862H39.842V41.2822H11.3867Z" fill="#273A9B"/>
</g>
</g>
<mask id="mask28_1366_1881" style="mask-type:luminance" maskUnits="userSpaceOnUse" x="11" y="51" width="21" height="4">
<path d="M11.2578 51.1689H31.5249V54.2305H11.2578V51.1689Z" fill="white"/>
</mask>
<g mask="url(#mask28_1366_1881)">
<mask id="mask29_1366_1881" style="mask-type:luminance" maskUnits="userSpaceOnUse" x="11" y="51" width="21" height="4">
<path d="M31.3051 52.8914C31.3051 52.7206 31.2693 52.5549 31.1957 52.3977C31.1241 52.2388 31.0223 52.1004 30.8885 51.9791C30.7547 51.8578 30.6001 51.7656 30.4267 51.6989C30.2514 51.634 30.0704 51.6016 29.8819 51.6016H12.808C12.6195 51.6016 12.4385 51.634 12.2651 51.6989C12.0898 51.7656 11.9352 51.8578 11.8033 51.9791C11.6695 52.1004 11.5658 52.2388 11.4942 52.3977C11.4225 52.5549 11.3867 52.7206 11.3867 52.8914C11.3867 53.0623 11.4225 53.2263 11.4942 53.3852C11.5658 53.5424 11.6695 53.6824 11.8033 53.8037C11.9352 53.925 12.0898 54.0173 12.2651 54.0839C12.4385 54.1489 12.6195 54.1813 12.808 54.1813H29.8819C30.0704 54.1813 30.2514 54.1489 30.4267 54.0839C30.6001 54.0173 30.7547 53.925 30.8885 53.8037C31.0223 53.6824 31.1241 53.5424 31.1957 53.3852C31.2693 53.2263 31.3051 53.0623 31.3051 52.8914Z" fill="white"/>
</mask>
<g mask="url(#mask29_1366_1881)">
<path d="M11.3867 51.6016V54.1813H31.3051V51.6016H11.3867Z" fill="#273A9B"/>
</g>
</g>
<mask id="mask30_1366_1881" style="mask-type:luminance" maskUnits="userSpaceOnUse" x="33" y="51" width="19" height="4">
<path d="M33.9414 51.1689H51.3132V54.2305H33.9414V51.1689Z" fill="white"/>
</mask>
<g mask="url(#mask30_1366_1881)">
<mask id="mask31_1366_1881" style="mask-type:luminance" maskUnits="userSpaceOnUse" x="34" y="51" width="18" height="4">
<path d="M49.8071 51.6016H35.5795C35.3929 51.6033 35.2119 51.6374 35.0385 51.7041C34.8651 51.7707 34.7124 51.863 34.5785 51.9843C34.4466 52.1038 34.3429 52.2439 34.2713 52.4011C34.1978 52.5566 34.1601 52.7206 34.1582 52.8914C34.1601 53.0623 34.1978 53.2246 34.2713 53.3818C34.3429 53.5389 34.4466 53.679 34.5785 53.7986C34.7124 53.9199 34.8651 54.0122 35.0385 54.0788C35.2119 54.1454 35.3929 54.1796 35.5795 54.1813H49.8071C49.9956 54.1813 50.1785 54.1489 50.3519 54.0839C50.5272 54.0173 50.6799 53.925 50.8137 53.8037C50.9475 53.6824 51.0493 53.5424 51.1228 53.3852C51.1945 53.2263 51.2303 53.0623 51.2303 52.8914C51.2303 52.7206 51.1945 52.5549 51.1228 52.3977C51.0493 52.2388 50.9475 52.1004 50.8137 51.9791C50.6799 51.8578 50.5272 51.7656 50.3519 51.6989C50.1785 51.634 49.9956 51.6016 49.8071 51.6016Z" fill="white"/>
</mask>
<g mask="url(#mask31_1366_1881)">
<path d="M34.1582 51.6016V54.1813H51.2303V51.6016H34.1582Z" fill="#273A9B"/>
</g>
</g>
<mask id="mask32_1366_1881" style="mask-type:luminance" maskUnits="userSpaceOnUse" x="17" y="25" width="58" height="40">
<path d="M17.0508 25.3652H74.001V64.7278H17.0508V25.3652Z" fill="white"/>
</mask>
<g mask="url(#mask32_1366_1881)">
<mask id="mask33_1366_1881" style="mask-type:luminance" maskUnits="userSpaceOnUse" x="17" y="25" width="57" height="40">
<path d="M66.2511 25.8008H22.865C22.4861 25.8025 22.111 25.8367 21.7378 25.905C21.3665 25.9733 21.0046 26.0724 20.654 26.2057C20.3034 26.3372 19.9716 26.4995 19.6549 26.6909C19.3401 26.8822 19.048 27.0992 18.7803 27.3435C18.5108 27.5861 18.2714 27.8509 18.0603 28.1362C17.8491 28.4232 17.672 28.7239 17.5249 29.0417C17.3798 29.3595 17.2686 29.6875 17.1932 30.0258C17.1197 30.3623 17.0801 30.704 17.0801 31.0474V54.0977C17.0876 54.4377 17.131 54.7743 17.2101 55.1074C17.2893 55.4406 17.4043 55.7635 17.5513 56.0761C17.7002 56.3888 17.8812 56.686 18.0923 56.9662C18.3053 57.2481 18.5447 57.5078 18.8124 57.747C19.08 57.9862 19.3722 58.198 19.6851 58.3859C19.998 58.5739 20.3279 58.7327 20.6766 58.8626C21.0234 58.9924 21.3816 59.0898 21.7491 59.1564C22.1186 59.2231 22.4899 59.2572 22.865 59.2572H66.2511C66.6809 59.2572 67.1069 59.2863 67.531 59.3478C67.9551 59.4076 68.3717 59.4998 68.7807 59.6194C69.1897 59.7407 69.5837 59.8911 69.9663 60.0688C70.349 60.2464 70.7128 60.4514 71.0577 60.6821C71.4046 60.9127 71.7288 61.1673 72.0304 61.4441C72.3301 61.7225 72.6053 62.0198 72.856 62.3359C73.1048 62.6536 73.3235 62.9868 73.5138 63.337C73.7042 63.6855 73.8644 64.046 73.9907 64.4185V32.8191C73.9907 32.5901 73.9775 32.3595 73.953 32.1306C73.9285 31.9033 73.8908 31.6761 73.8418 31.4506C73.7928 31.2251 73.7306 31.0013 73.6571 30.7826C73.5836 30.5622 73.4988 30.3452 73.4007 30.1334C73.3046 29.9215 73.1972 29.7131 73.0765 29.5115C72.9578 29.3082 72.8277 29.1117 72.6863 28.9204C72.545 28.7291 72.3942 28.5445 72.2339 28.3669C72.0737 28.1892 71.9022 28.0201 71.7231 27.856C71.5441 27.6937 71.3574 27.54 71.1614 27.3948C70.9654 27.2478 70.7618 27.1112 70.5507 26.9847C70.3396 26.8566 70.1228 26.7387 69.9004 26.6294C69.6761 26.5217 69.4461 26.4227 69.2124 26.3355C68.9786 26.2467 68.7411 26.1698 68.498 26.1032C68.2548 26.0365 68.0098 25.9802 67.7609 25.9357C67.5121 25.8913 67.2614 25.8572 67.0088 25.835C66.7581 25.8127 66.5037 25.8008 66.2511 25.8008Z" fill="white"/>
</mask>
<g mask="url(#mask33_1366_1881)">
<path d="M17.0801 25.8008V64.4185H73.9907V25.8008H17.0801Z" fill="url(#paint10_linear_1366_1881)"/>
</g>
</g>
<mask id="mask34_1366_1881" style="mask-type:luminance" maskUnits="userSpaceOnUse" x="17" y="25" width="46" height="35">
<path d="M17.0508 25.3652H62.893V59.4794H17.0508V25.3652Z" fill="white"/>
</mask>
<g mask="url(#mask34_1366_1881)">
<mask id="mask35_1366_1881" style="mask-type:luminance" maskUnits="userSpaceOnUse" x="17" y="25" width="46" height="35">
<path d="M62.6094 25.8008H22.865C22.4861 25.8025 22.111 25.8367 21.7378 25.905C21.3665 25.9733 21.0046 26.0724 20.654 26.2057C20.3034 26.3372 19.9716 26.4995 19.6549 26.6909C19.3401 26.8822 19.048 27.0992 18.7803 27.3435C18.5108 27.5861 18.2714 27.8509 18.0603 28.1362C17.8491 28.4232 17.672 28.7239 17.5249 29.0417C17.3798 29.3595 17.2686 29.6875 17.1932 30.0258C17.1197 30.3623 17.082 30.704 17.0801 31.0474V54.0977C17.0876 54.4377 17.131 54.7743 17.2101 55.1074C17.2893 55.4406 17.4043 55.7635 17.5513 56.0761C17.7002 56.3888 17.8812 56.686 18.0923 56.9662C18.3053 57.2481 18.5447 57.5078 18.8124 57.747C19.08 57.9862 19.3722 58.198 19.6851 58.3859C19.998 58.5739 20.3279 58.7327 20.6766 58.8626C21.0234 58.9924 21.3816 59.0898 21.7491 59.1564C22.1186 59.2231 22.4899 59.2572 22.865 59.2572H62.6094V25.8008Z" fill="white"/>
</mask>
<g mask="url(#mask35_1366_1881)">
<path d="M17.0801 25.8008V59.2572H62.6094V25.8008H17.0801Z" fill="url(#paint11_linear_1366_1881)"/>
</g>
</g>
<path d="M40.4528 46.8726V47.6636C40.4358 47.7439 40.4038 47.8173 40.3566 47.8874C40.3057 47.9711 40.2435 48.0445 40.1681 48.1112C40.0136 48.241 39.8439 48.3504 39.6554 48.4375C39.3576 48.5878 39.0466 48.7143 38.7261 48.8168C38.319 48.9483 37.9005 49.0457 37.4745 49.1089C36.9675 49.2012 36.4548 49.2473 35.9383 49.2456C34.9468 49.2558 33.9855 49.1072 33.0543 48.7997C32.2136 48.5041 31.486 48.0565 30.8715 47.4568C30.2306 46.8025 29.7707 46.0576 29.488 45.2205C29.1392 44.2125 28.9753 43.1806 28.9941 42.1248C28.9715 41.0314 29.1487 39.9653 29.5257 38.9249C29.8461 38.057 30.34 37.2762 31.0054 36.586C31.6444 35.9505 32.404 35.4687 33.2824 35.1407C34.2268 34.8007 35.205 34.635 36.221 34.6418C36.6433 34.6418 37.0598 34.676 37.4745 34.746C37.8534 34.8092 38.2266 34.8947 38.5923 35.004C38.909 35.0963 39.2125 35.2176 39.5046 35.3645C39.7176 35.455 39.9061 35.5763 40.072 35.7267C40.1568 35.8001 40.2322 35.8804 40.3001 35.9676C40.3472 36.0479 40.3774 36.135 40.3962 36.2255C40.417 36.3451 40.417 36.4664 40.3962 36.586C40.4056 36.7586 40.4056 36.9294 40.3962 37.102C40.4056 37.2865 40.4056 37.4693 40.3962 37.6521C40.3793 37.7819 40.3472 37.9083 40.3001 38.0314C40.2718 38.1082 40.2266 38.1766 40.1681 38.2381C40.1041 38.2535 40.0418 38.2535 39.9778 38.2381C39.7949 38.2244 39.6366 38.1612 39.5046 38.0484C39.2784 37.8998 39.0447 37.7614 38.8015 37.635C38.4679 37.4505 38.1135 37.307 37.7403 37.2062C37.271 37.0627 36.7903 36.9995 36.2983 37.0165C35.714 36.9995 35.1636 37.1139 34.6471 37.3599C34.14 37.5923 33.7235 37.9186 33.3955 38.3406C33.0373 38.8155 32.7772 39.3315 32.617 39.8884C32.2457 41.2877 32.2457 42.6869 32.617 44.0861C32.7734 44.6362 33.0468 45.1351 33.4332 45.5827C33.7725 45.9756 34.1966 46.2678 34.7036 46.4591C35.2333 46.659 35.7818 46.7564 36.3549 46.753C36.8506 46.7564 37.3369 46.6983 37.8157 46.5804C38.1852 46.4762 38.5395 46.3378 38.8769 46.167C39.1258 46.0491 39.367 45.9158 39.5989 45.7723C39.7308 45.6852 39.876 45.6271 40.0343 45.5998C40.0984 45.5793 40.1606 45.5793 40.2247 45.5998C40.2888 45.6442 40.334 45.7023 40.3566 45.7723C40.3717 45.8919 40.3717 46.0132 40.3566 46.1328C40.4056 46.3771 40.4377 46.6248 40.4528 46.8726Z" fill="white"/>
<path d="M51.3394 44.7219C51.3545 45.4087 51.2018 46.0613 50.8832 46.6832C50.5816 47.2333 50.1651 47.698 49.6316 48.0773C49.0642 48.4771 48.4309 48.7589 47.7335 48.9195C47.004 49.116 46.2575 49.2134 45.496 49.2117C44.9927 49.21 44.4932 49.169 43.9975 49.0921C43.5413 49.005 43.1247 48.9025 42.7647 48.7999C42.4594 48.706 42.1691 48.5847 41.892 48.4378C41.6997 48.3575 41.5282 48.2481 41.3793 48.1114C41.2511 48.0038 41.1757 47.8723 41.1512 47.7151C41.1267 47.4571 41.1267 47.1991 41.1512 46.9412C41.1399 46.7532 41.1399 46.5636 41.1512 46.374C41.138 46.2475 41.138 46.1211 41.1512 45.9964C41.1795 45.9127 41.2304 45.8443 41.3039 45.7897C41.3736 45.7692 41.4415 45.7692 41.5112 45.7897C41.6865 45.8068 41.8449 45.8648 41.9862 45.9605L42.7647 46.374C43.1379 46.5328 43.5244 46.6661 43.9221 46.7703C44.431 46.895 44.9494 46.9531 45.4772 46.9412C45.824 46.948 46.1671 46.9087 46.5007 46.8216C46.8419 46.7584 47.1529 46.6319 47.43 46.4423C47.643 46.2885 47.807 46.0989 47.9238 45.8751C48.0445 45.6342 48.101 45.3831 48.0954 45.1183C48.1048 44.8141 48.003 44.5459 47.7919 44.3102C47.5902 44.059 47.3433 43.8523 47.0511 43.69C46.7099 43.5038 46.3556 43.3363 45.988 43.1911L44.7741 42.6923C44.3556 42.5163 43.9504 42.3147 43.5602 42.0909C43.1681 41.8705 42.8137 41.6057 42.4989 41.2999C42.1804 40.9719 41.9334 40.6045 41.7581 40.1979C41.5546 39.711 41.4584 39.207 41.4735 38.6842C41.4716 38.0863 41.6036 37.5123 41.8731 36.9656C42.1464 36.4684 42.5197 36.0447 42.9909 35.6928C43.4923 35.3391 44.0484 35.0863 44.661 34.9359C45.3245 34.76 46.0012 34.6728 46.6911 34.6779C47.0605 34.6797 47.4262 34.7087 47.7919 34.7634C48.1444 34.8095 48.4912 34.8795 48.8343 34.9701C49.1302 35.0401 49.4148 35.1375 49.6882 35.2622C49.8729 35.3237 50.0369 35.416 50.182 35.5373L50.3517 35.7098C50.3573 35.7782 50.3573 35.8465 50.3517 35.9149C50.3649 36.0242 50.3649 36.1335 50.3517 36.2429V36.7076C50.363 36.8853 50.363 37.0629 50.3517 37.2406C50.3762 37.3602 50.3762 37.4815 50.3517 37.6011C50.346 37.6848 50.3083 37.7531 50.2386 37.8078C50.1688 37.8334 50.0991 37.8334 50.0293 37.8078C49.8767 37.7873 49.7372 37.7361 49.6128 37.6523L48.8908 37.326C48.576 37.1979 48.2537 37.0886 47.9238 36.9997C47.528 36.8938 47.1227 36.8408 46.7099 36.8443C46.3989 36.8425 46.0954 36.8835 45.7995 36.9656C45.562 37.0305 45.3471 37.133 45.1548 37.2748C44.9814 37.4115 44.8551 37.5789 44.7741 37.7736C44.6798 37.965 44.6365 38.1649 44.6421 38.375C44.6384 38.674 44.7326 38.9422 44.9268 39.1831C45.136 39.4291 45.3886 39.6307 45.6845 39.7862C46.0332 39.9793 46.3933 40.1518 46.7665 40.3021L47.9804 40.7839C48.4045 40.9633 48.8154 41.1649 49.2132 41.3853C49.6128 41.6057 49.9728 41.8705 50.2951 42.1763C50.6156 42.506 50.8681 42.8734 51.0548 43.2783C51.2527 43.743 51.3469 44.2247 51.3394 44.7219Z" fill="white"/>
<path d="M62.3818 44.722C62.3969 45.4088 62.2442 46.0614 61.9257 46.6833C61.6486 47.2625 61.2433 47.7562 60.7118 48.1628C60.1444 48.5643 59.5129 48.8445 58.8155 49.0051C58.0841 49.2033 57.3377 49.3006 56.5762 49.2989C56.0729 49.2955 55.5734 49.2545 55.0776 49.1776C54.6233 49.0922 54.2049 48.988 53.8449 48.8855C53.5414 48.7915 53.2492 48.6719 52.9721 48.525C52.7799 48.443 52.6102 48.3337 52.4594 48.197C52.3331 48.0894 52.2577 47.9578 52.2332 47.8023C52.2087 47.5444 52.2087 47.2864 52.2332 47.0284C52.2219 46.8388 52.2219 46.6491 52.2332 46.4595C52.2181 46.3348 52.2181 46.2084 52.2332 46.0819C52.2596 45.9999 52.3105 45.9299 52.384 45.8752C52.4538 45.8547 52.5235 45.8547 52.5932 45.8752C52.7686 45.894 52.9269 45.9504 53.0664 46.0478L53.8449 46.4595C54.22 46.6201 54.6045 46.7516 55.0022 46.8559C55.5112 46.9806 56.0295 47.0387 56.5573 47.0284C56.906 47.0352 57.2472 46.9942 57.5827 46.9071C57.9051 46.8097 58.1897 46.6543 58.4366 46.4424C58.6477 46.2887 58.8136 46.099 58.9286 45.8752C59.0492 45.6343 59.1077 45.3832 59.1001 45.1184C59.1095 44.8143 59.0078 44.546 58.7966 44.3103C58.595 44.0591 58.348 43.8524 58.0559 43.6901C57.7147 43.5039 57.3603 43.3365 56.9946 43.1912L55.7807 42.6924C55.3604 42.5164 54.957 42.3148 54.5649 42.091C54.171 41.8638 53.8185 41.5956 53.5037 41.2829C53.1851 40.9549 52.9382 40.5876 52.7629 40.181C52.5593 39.6941 52.4651 39.1901 52.4783 38.6673C52.4764 38.0693 52.6083 37.4953 52.8779 36.9486C53.1512 36.4514 53.5244 36.0277 53.9975 35.6741C54.4971 35.3222 55.0531 35.0693 55.6657 34.9173C56.3292 34.743 57.0059 34.6559 57.6958 34.6593C58.0653 34.6627 58.431 34.6917 58.7966 34.7464C59.1491 34.7925 59.4979 34.8626 59.839 34.9531C60.135 35.0232 60.4196 35.1206 60.6929 35.2453C60.8776 35.3068 61.0416 35.399 61.1868 35.5203L61.3564 35.6929C61.3621 35.7612 61.3621 35.8296 61.3564 35.8979C61.3715 36.0072 61.3715 36.1166 61.3564 36.2259V36.6906C61.3677 36.8683 61.3677 37.046 61.3564 37.2237C61.3809 37.3432 61.3809 37.4645 61.3564 37.5841C61.3526 37.6678 61.3131 37.7362 61.2433 37.7909C61.1736 37.8148 61.1038 37.8148 61.0341 37.7909C60.9191 37.7686 60.8117 37.7294 60.7118 37.6696L59.9917 37.3432C59.6769 37.2151 59.3546 37.1075 59.0247 37.0169C58.627 36.911 58.2236 36.8598 57.8089 36.8615C57.4998 36.8598 57.1963 36.9008 56.8985 36.9828C56.661 37.0477 56.4461 37.1502 56.2538 37.292C56.0823 37.4287 55.9541 37.5961 55.875 37.7909C55.7807 37.9822 55.7355 38.1838 55.7411 38.3922C55.7374 38.6912 55.8335 38.9611 56.0258 39.202C56.2369 39.4463 56.4895 39.6479 56.7854 39.8034C57.1341 39.9965 57.4941 40.169 57.8674 40.3194L59.0813 40.8011C59.4978 40.9908 59.9163 41.1787 60.314 41.4025C60.7118 41.6229 61.0737 41.8877 61.396 42.1935C61.7146 42.5232 61.9671 42.8906 62.1538 43.2955C62.3291 43.7584 62.4063 44.2334 62.3818 44.722Z" fill="white"/>
<defs>
<linearGradient id="paint0_linear_1366_1881" x1="61.1831" y1="72.2448" x2="61.1831" y2="52.3945" gradientUnits="userSpaceOnUse">
<stop stop-color="#14C4E5"/>
<stop offset="0.0078125" stop-color="#14C4E6"/>
<stop offset="0.015625" stop-color="#13C3E6"/>
<stop offset="0.0234375" stop-color="#13C2E6"/>
<stop offset="0.03125" stop-color="#13C2E6"/>
<stop offset="0.0390625" stop-color="#12C1E6"/>
<stop offset="0.046875" stop-color="#12C1E6"/>
<stop offset="0.0546875" stop-color="#12C0E6"/>
<stop offset="0.0625" stop-color="#11BFE6"/>
<stop offset="0.0703125" stop-color="#11BFE7"/>
<stop offset="0.078125" stop-color="#11BEE7"/>
<stop offset="0.0859375" stop-color="#10BDE7"/>
<stop offset="0.09375" stop-color="#10BDE7"/>
<stop offset="0.101563" stop-color="#10BCE7"/>
<stop offset="0.109375" stop-color="#0FBCE7"/>
<stop offset="0.117188" stop-color="#0FBBE7"/>
<stop offset="0.125" stop-color="#0FBAE7"/>
<stop offset="0.132813" stop-color="#0EBAE8"/>
<stop offset="0.140625" stop-color="#0EB9E8"/>
<stop offset="0.148438" stop-color="#0EB8E8"/>
<stop offset="0.15625" stop-color="#0DB8E8"/>
<stop offset="0.164063" stop-color="#0DB7E8"/>
<stop offset="0.171875" stop-color="#0DB7E8"/>
<stop offset="0.179688" stop-color="#0CB6E8"/>
<stop offset="0.1875" stop-color="#0CB5E8"/>
<stop offset="0.195313" stop-color="#0CB5E9"/>
<stop offset="0.203125" stop-color="#0BB4E9"/>
<stop offset="0.210938" stop-color="#0BB3E9"/>
<stop offset="0.21875" stop-color="#0BB3E9"/>
<stop offset="0.226563" stop-color="#0AB2E9"/>
<stop offset="0.234375" stop-color="#0AB2E9"/>
<stop offset="0.242187" stop-color="#0AB1E9"/>
<stop offset="0.25" stop-color="#0AB0E9"/>
<stop offset="0.257812" stop-color="#09B0EA"/>
<stop offset="0.265625" stop-color="#09AFEA"/>
<stop offset="0.273437" stop-color="#09AFEA"/>
<stop offset="0.28125" stop-color="#08AEEA"/>
<stop offset="0.289062" stop-color="#08ADEA"/>
<stop offset="0.296875" stop-color="#08ADEA"/>
<stop offset="0.304687" stop-color="#07ACEA"/>
<stop offset="0.3125" stop-color="#07ABEA"/>
<stop offset="0.320312" stop-color="#07ABEB"/>
<stop offset="0.328125" stop-color="#06AAEB"/>
<stop offset="0.335937" stop-color="#06AAEB"/>
<stop offset="0.34375" stop-color="#06A9EB"/>
<stop offset="0.351562" stop-color="#05A8EB"/>
<stop offset="0.359375" stop-color="#05A8EB"/>
<stop offset="0.367187" stop-color="#05A7EB"/>
<stop offset="0.375" stop-color="#04A6EB"/>
<stop offset="0.382812" stop-color="#04A6EC"/>
<stop offset="0.390625" stop-color="#04A5EC"/>
<stop offset="0.398437" stop-color="#03A5EC"/>
<stop offset="0.40625" stop-color="#03A4EC"/>
<stop offset="0.414062" stop-color="#03A3EB"/>
<stop offset="0.421875" stop-color="#04A2EB"/>
<stop offset="0.429687" stop-color="#04A1EA"/>
<stop offset="0.4375" stop-color="#04A0E9"/>
<stop offset="0.445312" stop-color="#059FE9"/>
<stop offset="0.453125" stop-color="#059EE8"/>
<stop offset="0.460937" stop-color="#059EE7"/>
<stop offset="0.46875" stop-color="#069DE7"/>
<stop offset="0.476562" stop-color="#069CE6"/>
<stop offset="0.484375" stop-color="#069BE5"/>
<stop offset="0.492187" stop-color="#079AE5"/>
<stop offset="0.5" stop-color="#0799E4"/>
<stop offset="0.507812" stop-color="#0798E3"/>
<stop offset="0.515625" stop-color="#0897E3"/>
<stop offset="0.523437" stop-color="#0896E2"/>
<stop offset="0.53125" stop-color="#0895E1"/>
<stop offset="0.539062" stop-color="#0995E1"/>
<stop offset="0.546875" stop-color="#0994E0"/>
<stop offset="0.554687" stop-color="#0993DF"/>
<stop offset="0.5625" stop-color="#0A92DF"/>
<stop offset="0.570312" stop-color="#0A91DE"/>
<stop offset="0.578125" stop-color="#0A90DD"/>
<stop offset="0.585937" stop-color="#0B8FDD"/>
<stop offset="0.59375" stop-color="#0B8EDC"/>
<stop offset="0.601562" stop-color="#0B8DDB"/>
<stop offset="0.609375" stop-color="#0C8CDB"/>
<stop offset="0.617187" stop-color="#0C8BDA"/>
<stop offset="0.625" stop-color="#0C8BD9"/>
<stop offset="0.632812" stop-color="#0D8AD9"/>
<stop offset="0.640625" stop-color="#0D89D8"/>
<stop offset="0.648437" stop-color="#0D88D7"/>
<stop offset="0.65625" stop-color="#0E87D7"/>
<stop offset="0.664062" stop-color="#0E86D6"/>
<stop offset="0.671875" stop-color="#0E85D5"/>
<stop offset="0.679687" stop-color="#0F84D5"/>
<stop offset="0.6875" stop-color="#0F83D4"/>
<stop offset="0.695312" stop-color="#0F82D3"/>
<stop offset="0.703125" stop-color="#1081D3"/>
<stop offset="0.710937" stop-color="#1081D2"/>
<stop offset="0.71875" stop-color="#1080D1"/>
<stop offset="0.726562" stop-color="#117FD1"/>
<stop offset="0.734375" stop-color="#117ED0"/>
<stop offset="0.742187" stop-color="#117DCF"/>
<stop offset="0.75" stop-color="#127CCF"/>
<stop offset="0.757812" stop-color="#127BCE"/>
<stop offset="0.765625" stop-color="#127ACD"/>
<stop offset="0.773437" stop-color="#1379CD"/>
<stop offset="0.78125" stop-color="#1378CC"/>
<stop offset="0.789062" stop-color="#1377CB"/>
<stop offset="0.796875" stop-color="#1477CB"/>
<stop offset="0.804687" stop-color="#1476CA"/>
<stop offset="0.8125" stop-color="#1475C9"/>
<stop offset="0.820313" stop-color="#1574C9"/>
<stop offset="0.828125" stop-color="#1573C8"/>
<stop offset="0.835937" stop-color="#1572C7"/>
<stop offset="0.84375" stop-color="#1671C7"/>
<stop offset="0.851563" stop-color="#1670C6"/>
<stop offset="0.859375" stop-color="#166FC6"/>
<stop offset="0.867187" stop-color="#176EC5"/>
<stop offset="0.875" stop-color="#176EC4"/>
<stop offset="0.882813" stop-color="#176DC4"/>
<stop offset="0.890625" stop-color="#186CC3"/>
<stop offset="0.898437" stop-color="#186BC2"/>
<stop offset="0.90625" stop-color="#186AC2"/>
<stop offset="0.914063" stop-color="#1969C1"/>
<stop offset="0.921875" stop-color="#1968C0"/>
<stop offset="0.929687" stop-color="#1967C0"/>
<stop offset="0.9375" stop-color="#1A66BF"/>
<stop offset="0.945313" stop-color="#1A65BE"/>
<stop offset="0.953125" stop-color="#1A64BE"/>
<stop offset="0.960937" stop-color="#1B64BD"/>
<stop offset="0.96875" stop-color="#1B63BC"/>
<stop offset="0.976563" stop-color="#1B62BC"/>
<stop offset="0.984375" stop-color="#1C61BB"/>
<stop offset="0.992187" stop-color="#1C60BA"/>
<stop offset="1" stop-color="#1C5FBA"/>
</linearGradient>
<linearGradient id="paint1_linear_1366_1881" x1="31.311" y1="72.2448" x2="31.311" y2="-0.000645925" gradientUnits="userSpaceOnUse">
<stop stop-color="#243583"/>
<stop offset="0.015625" stop-color="#243583"/>
<stop offset="0.03125" stop-color="#243582"/>
<stop offset="0.046875" stop-color="#243581"/>
<stop offset="0.0625" stop-color="#243581"/>
<stop offset="0.078125" stop-color="#233480"/>
<stop offset="0.09375" stop-color="#23347F"/>
<stop offset="0.109375" stop-color="#23347F"/>
<stop offset="0.125" stop-color="#23347E"/>
<stop offset="0.140625" stop-color="#23347D"/>
<stop offset="0.15625" stop-color="#23347D"/>
<stop offset="0.171875" stop-color="#23347C"/>
<stop offset="0.1875" stop-color="#23337B"/>
<stop offset="0.203125" stop-color="#23337B"/>
<stop offset="0.21875" stop-color="#23337A"/>
<stop offset="0.234375" stop-color="#233379"/>
<stop offset="0.25" stop-color="#223379"/>
<stop offset="0.265625" stop-color="#223378"/>
<stop offset="0.28125" stop-color="#223377"/>
<stop offset="0.296875" stop-color="#223377"/>
<stop offset="0.3125" stop-color="#223276"/>
<stop offset="0.328125" stop-color="#223275"/>
<stop offset="0.34375" stop-color="#223275"/>
<stop offset="0.359375" stop-color="#223274"/>
<stop offset="0.375" stop-color="#223274"/>
<stop offset="0.390625" stop-color="#223273"/>
<stop offset="0.40625" stop-color="#223272"/>
<stop offset="0.421875" stop-color="#223172"/>
<stop offset="0.4375" stop-color="#213171"/>
<stop offset="0.453125" stop-color="#213170"/>
<stop offset="0.46875" stop-color="#213170"/>
<stop offset="0.484375" stop-color="#21316F"/>
<stop offset="0.5" stop-color="#21316E"/>
<stop offset="0.515625" stop-color="#21316E"/>
<stop offset="0.53125" stop-color="#21316D"/>
<stop offset="0.546875" stop-color="#21306C"/>
<stop offset="0.5625" stop-color="#21306C"/>
<stop offset="0.578125" stop-color="#21306B"/>
<stop offset="0.59375" stop-color="#21306A"/>
<stop offset="0.609375" stop-color="#20306A"/>
<stop offset="0.625" stop-color="#203069"/>
<stop offset="0.640625" stop-color="#203068"/>
<stop offset="0.65625" stop-color="#202F68"/>
<stop offset="0.671875" stop-color="#202F67"/>
<stop offset="0.6875" stop-color="#202F66"/>
<stop offset="0.703125" stop-color="#202F66"/>
<stop offset="0.71875" stop-color="#202F65"/>
<stop offset="0.734375" stop-color="#202F64"/>
<stop offset="0.75" stop-color="#1F2E64"/>
<stop offset="0.765625" stop-color="#1F2E63"/>
<stop offset="0.78125" stop-color="#1E2E62"/>
<stop offset="0.796875" stop-color="#1E2E61"/>
<stop offset="0.8125" stop-color="#1D2D60"/>
<stop offset="0.828125" stop-color="#1D2D5F"/>
<stop offset="0.84375" stop-color="#1C2D5F"/>
<stop offset="0.859375" stop-color="#1C2D5E"/>
<stop offset="0.875" stop-color="#1B2C5D"/>
<stop offset="0.890625" stop-color="#1B2C5C"/>
<stop offset="0.90625" stop-color="#1A2C5B"/>
<stop offset="0.921875" stop-color="#1A2C5A"/>
<stop offset="0.9375" stop-color="#1A2B5A"/>
<stop offset="0.953125" stop-color="#192B59"/>
<stop offset="0.96875" stop-color="#192B58"/>
<stop offset="0.984375" stop-color="#182B57"/>
<stop offset="1" stop-color="#182A56"/>
</linearGradient>
<linearGradient id="paint2_linear_1366_1881" x1="14.2377" y1="72.2448" x2="14.2377" y2="-0.000645925" gradientUnits="userSpaceOnUse">
<stop stop-color="#23337B"/>
<stop offset="0.015625" stop-color="#23337B"/>
<stop offset="0.03125" stop-color="#23337A"/>
<stop offset="0.046875" stop-color="#233379"/>
<stop offset="0.0625" stop-color="#223379"/>
<stop offset="0.078125" stop-color="#223378"/>
<stop offset="0.09375" stop-color="#223378"/>
<stop offset="0.109375" stop-color="#223377"/>
<stop offset="0.125" stop-color="#223276"/>
<stop offset="0.140625" stop-color="#223276"/>
<stop offset="0.15625" stop-color="#223275"/>
<stop offset="0.171875" stop-color="#223275"/>
<stop offset="0.1875" stop-color="#223274"/>
<stop offset="0.203125" stop-color="#223273"/>
<stop offset="0.21875" stop-color="#223273"/>
<stop offset="0.234375" stop-color="#223272"/>
<stop offset="0.25" stop-color="#223171"/>
<stop offset="0.265625" stop-color="#213171"/>
<stop offset="0.28125" stop-color="#213170"/>
<stop offset="0.296875" stop-color="#213170"/>
<stop offset="0.3125" stop-color="#21316F"/>
<stop offset="0.328125" stop-color="#21316E"/>
<stop offset="0.34375" stop-color="#21316E"/>
<stop offset="0.359375" stop-color="#21316D"/>
<stop offset="0.375" stop-color="#21306D"/>
<stop offset="0.390625" stop-color="#21306C"/>
<stop offset="0.40625" stop-color="#21306B"/>
<stop offset="0.421875" stop-color="#21306B"/>
<stop offset="0.4375" stop-color="#21306A"/>
<stop offset="0.453125" stop-color="#20306A"/>
<stop offset="0.46875" stop-color="#203069"/>
<stop offset="0.484375" stop-color="#203068"/>
<stop offset="0.5" stop-color="#202F68"/>
<stop offset="0.515625" stop-color="#202F67"/>
<stop offset="0.53125" stop-color="#202F67"/>
<stop offset="0.546875" stop-color="#202F66"/>
<stop offset="0.5625" stop-color="#202F65"/>
<stop offset="0.578125" stop-color="#202F65"/>
<stop offset="0.59375" stop-color="#1F2F64"/>
<stop offset="0.609375" stop-color="#1F2E63"/>
<stop offset="0.625" stop-color="#1E2E62"/>
<stop offset="0.640625" stop-color="#1E2E62"/>
<stop offset="0.65625" stop-color="#1E2E61"/>
<stop offset="0.671875" stop-color="#1D2D60"/>
<stop offset="0.6875" stop-color="#1D2D5F"/>
<stop offset="0.703125" stop-color="#1C2D5E"/>
<stop offset="0.71875" stop-color="#1C2D5E"/>
<stop offset="0.734375" stop-color="#1B2C5D"/>
<stop offset="0.75" stop-color="#1B2C5C"/>
<stop offset="0.765625" stop-color="#1B2C5B"/>
<stop offset="0.78125" stop-color="#1A2C5B"/>
<stop offset="0.796875" stop-color="#1A2B5A"/>
<stop offset="0.8125" stop-color="#192B59"/>
<stop offset="0.828125" stop-color="#192B58"/>
<stop offset="0.84375" stop-color="#182B58"/>
<stop offset="0.859375" stop-color="#182A57"/>
<stop offset="0.875" stop-color="#182A56"/>
<stop offset="0.890625" stop-color="#172A55"/>
<stop offset="0.90625" stop-color="#172A54"/>
<stop offset="0.921875" stop-color="#162A54"/>
<stop offset="0.9375" stop-color="#162953"/>
<stop offset="0.953125" stop-color="#152952"/>
<stop offset="0.96875" stop-color="#152951"/>
<stop offset="0.984375" stop-color="#152951"/>
<stop offset="1" stop-color="#142850"/>
</linearGradient>
<linearGradient id="paint3_linear_1366_1881" x1="0.428914" y1="0.379128" x2="20.5953" y2="22.6196" gradientUnits="userSpaceOnUse">
<stop stop-color="#0798E3"/>
<stop offset="0.0078125" stop-color="#0798E3"/>
<stop offset="0.015625" stop-color="#0897E3"/>
<stop offset="0.0234375" stop-color="#0896E2"/>
<stop offset="0.03125" stop-color="#0896E1"/>
<stop offset="0.0390625" stop-color="#0995E1"/>
<stop offset="0.046875" stop-color="#0994E0"/>
<stop offset="0.0546875" stop-color="#0993E0"/>
<stop offset="0.0625" stop-color="#0992DF"/>
<stop offset="0.0703125" stop-color="#0A92DF"/>
<stop offset="0.078125" stop-color="#0A91DE"/>
<stop offset="0.0859375" stop-color="#0A90DD"/>
<stop offset="0.09375" stop-color="#0B8FDD"/>
<stop offset="0.101562" stop-color="#0B8EDC"/>
<stop offset="0.109375" stop-color="#0B8EDC"/>
<stop offset="0.117188" stop-color="#0B8DDB"/>
<stop offset="0.125" stop-color="#0C8CDA"/>
<stop offset="0.132813" stop-color="#0C8BDA"/>
<stop offset="0.140625" stop-color="#0C8AD9"/>
<stop offset="0.148437" stop-color="#0D8AD9"/>
<stop offset="0.15625" stop-color="#0D89D8"/>
<stop offset="0.164063" stop-color="#0D88D8"/>
<stop offset="0.171875" stop-color="#0E87D7"/>
<stop offset="0.179688" stop-color="#0E86D6"/>
<stop offset="0.1875" stop-color="#0E86D6"/>
<stop offset="0.195312" stop-color="#0E85D5"/>
<stop offset="0.203125" stop-color="#0F84D5"/>
<stop offset="0.210938" stop-color="#0F83D4"/>
<stop offset="0.21875" stop-color="#0F82D3"/>
<stop offset="0.226562" stop-color="#1082D3"/>
<stop offset="0.234375" stop-color="#1081D2"/>
<stop offset="0.242187" stop-color="#1080D2"/>
<stop offset="0.25" stop-color="#107FD1"/>
<stop offset="0.257813" stop-color="#117FD1"/>
<stop offset="0.265625" stop-color="#117ED0"/>
<stop offset="0.273438" stop-color="#117DCF"/>
<stop offset="0.28125" stop-color="#127CCF"/>
<stop offset="0.289062" stop-color="#127BCE"/>
<stop offset="0.296875" stop-color="#127BCE"/>
<stop offset="0.304688" stop-color="#127ACD"/>
<stop offset="0.3125" stop-color="#1379CD"/>
<stop offset="0.320312" stop-color="#1378CC"/>
<stop offset="0.328125" stop-color="#1377CB"/>
<stop offset="0.335937" stop-color="#1477CB"/>
<stop offset="0.34375" stop-color="#1476CA"/>
<stop offset="0.351563" stop-color="#1475CA"/>
<stop offset="0.359375" stop-color="#1474C9"/>
<stop offset="0.367187" stop-color="#1573C8"/>
<stop offset="0.375" stop-color="#1573C8"/>
<stop offset="0.382812" stop-color="#1572C7"/>
<stop offset="0.390625" stop-color="#1671C7"/>
<stop offset="0.398438" stop-color="#1670C6"/>
<stop offset="0.40625" stop-color="#166FC6"/>
<stop offset="0.414062" stop-color="#176FC5"/>
<stop offset="0.421875" stop-color="#176EC4"/>
<stop offset="0.429687" stop-color="#176DC4"/>
<stop offset="0.4375" stop-color="#176CC3"/>
<stop offset="0.445313" stop-color="#186BC3"/>
<stop offset="0.453125" stop-color="#186BC2"/>
<stop offset="0.460937" stop-color="#186AC1"/>
<stop offset="0.46875" stop-color="#1969C1"/>
<stop offset="0.476562" stop-color="#1968C0"/>
<stop offset="0.484375" stop-color="#1967C0"/>
<stop offset="0.492188" stop-color="#1967BF"/>
<stop offset="0.5" stop-color="#1A65BE"/>
<stop offset="0.507812" stop-color="#1A65BE"/>
<stop offset="0.515625" stop-color="#1A64BD"/>
<stop offset="0.523438" stop-color="#1B63BD"/>
<stop offset="0.53125" stop-color="#1B63BC"/>
<stop offset="0.539063" stop-color="#1B62BC"/>
<stop offset="0.546875" stop-color="#1B61BB"/>
<stop offset="0.554687" stop-color="#1C60BA"/>
<stop offset="0.5625" stop-color="#1C5FBA"/>
<stop offset="0.570313" stop-color="#1C5FB9"/>
<stop offset="0.578125" stop-color="#1D5EB9"/>
<stop offset="0.585938" stop-color="#1D5DB8"/>
<stop offset="0.59375" stop-color="#1D5CB8"/>
<stop offset="0.601562" stop-color="#1D5BB7"/>
<stop offset="0.609375" stop-color="#1E5BB6"/>
<stop offset="0.617188" stop-color="#1E5AB6"/>
<stop offset="0.625" stop-color="#1E59B5"/>
<stop offset="0.632812" stop-color="#1F58B5"/>
<stop offset="0.640625" stop-color="#1F57B4"/>
<stop offset="0.648437" stop-color="#1F57B4"/>
<stop offset="0.65625" stop-color="#2056B3"/>
<stop offset="0.664063" stop-color="#2055B2"/>
<stop offset="0.671875" stop-color="#2054B2"/>
<stop offset="0.679688" stop-color="#2053B1"/>
<stop offset="0.6875" stop-color="#2153B1"/>
<stop offset="0.695312" stop-color="#2152B0"/>
<stop offset="0.703125" stop-color="#2151AF"/>
<stop offset="0.710938" stop-color="#2250AF"/>
<stop offset="0.71875" stop-color="#224FAE"/>
<stop offset="0.726562" stop-color="#224FAE"/>
<stop offset="0.734375" stop-color="#224EAD"/>
<stop offset="0.742187" stop-color="#234DAD"/>
<stop offset="0.75" stop-color="#234CAC"/>
<stop offset="0.757813" stop-color="#234BAB"/>
<stop offset="0.765625" stop-color="#244BAB"/>
<stop offset="0.773438" stop-color="#244AAA"/>
<stop offset="0.78125" stop-color="#2449AA"/>
<stop offset="0.789062" stop-color="#2448A9"/>
<stop offset="0.796875" stop-color="#2547A8"/>
<stop offset="0.8125" stop-color="#2547A8"/>
<stop offset="0.875" stop-color="#2547A8"/>
<stop offset="1" stop-color="#2547A8"/>
</linearGradient>
<linearGradient id="paint4_linear_1366_1881" x1="17.0771" y1="34.8349" x2="17.0771" y2="32.2547" gradientUnits="userSpaceOnUse">
<stop stop-color="#1B2C5C"/>
<stop offset="0.25" stop-color="#1B2C5C"/>
<stop offset="0.5" stop-color="#1A2C5B"/>
<stop offset="0.75" stop-color="#1A2C5B"/>
<stop offset="1" stop-color="#1A2B5A"/>
</linearGradient>
<linearGradient id="paint5_linear_1366_1881" x1="38.4255" y1="34.8349" x2="38.4255" y2="32.2547" gradientUnits="userSpaceOnUse">
<stop stop-color="#1B2C5C"/>
<stop offset="0.25" stop-color="#1B2C5C"/>
<stop offset="0.5" stop-color="#1A2C5B"/>
<stop offset="0.75" stop-color="#1A2C5B"/>
<stop offset="1" stop-color="#1A2B5A"/>
</linearGradient>
<linearGradient id="paint6_linear_1366_1881" x1="46.9604" y1="45.1543" x2="46.9604" y2="42.5741" gradientUnits="userSpaceOnUse">
<stop stop-color="#202F67"/>
<stop offset="0.25" stop-color="#202F67"/>
<stop offset="0.5" stop-color="#202F66"/>
<stop offset="0.75" stop-color="#202F65"/>
<stop offset="1" stop-color="#202F65"/>
</linearGradient>
<linearGradient id="paint7_linear_1366_1881" x1="25.6138" y1="45.1533" x2="25.6138" y2="42.5731" gradientUnits="userSpaceOnUse">
<stop stop-color="#202F67"/>
<stop offset="0.25" stop-color="#202F67"/>
<stop offset="0.5" stop-color="#202F66"/>
<stop offset="0.75" stop-color="#202F65"/>
<stop offset="1" stop-color="#202F65"/>
</linearGradient>
<linearGradient id="paint8_linear_1366_1881" x1="21.3455" y1="55.4737" x2="21.3455" y2="52.8935" gradientUnits="userSpaceOnUse">
<stop stop-color="#213170"/>
<stop offset="0.25" stop-color="#21316F"/>
<stop offset="0.5" stop-color="#21316F"/>
<stop offset="0.75" stop-color="#21316E"/>
<stop offset="1" stop-color="#21316E"/>
</linearGradient>
<linearGradient id="paint9_linear_1366_1881" x1="42.6939" y1="55.4737" x2="42.6939" y2="52.8935" gradientUnits="userSpaceOnUse">
<stop stop-color="#213170"/>
<stop offset="0.25" stop-color="#21316F"/>
<stop offset="0.5" stop-color="#21316F"/>
<stop offset="0.75" stop-color="#21316E"/>
<stop offset="1" stop-color="#21316E"/>
</linearGradient>
<linearGradient id="paint10_linear_1366_1881" x1="45.5353" y1="64.4181" x2="45.5353" y2="25.8012" gradientUnits="userSpaceOnUse">
<stop stop-color="#1ED9E1"/>
<stop offset="0.015625" stop-color="#1ED8E1"/>
<stop offset="0.03125" stop-color="#1ED7E2"/>
<stop offset="0.046875" stop-color="#1DD6E2"/>
<stop offset="0.0625" stop-color="#1DD5E2"/>
<stop offset="0.078125" stop-color="#1CD4E2"/>
<stop offset="0.09375" stop-color="#1CD3E2"/>
<stop offset="0.109375" stop-color="#1BD2E3"/>
<stop offset="0.125" stop-color="#1BD1E3"/>
<stop offset="0.140625" stop-color="#1AD0E3"/>
<stop offset="0.15625" stop-color="#1ACFE3"/>
<stop offset="0.171875" stop-color="#19CEE3"/>
<stop offset="0.1875" stop-color="#19CDE4"/>
<stop offset="0.203125" stop-color="#18CCE4"/>
<stop offset="0.21875" stop-color="#18CBE4"/>
<stop offset="0.234375" stop-color="#17CAE4"/>
<stop offset="0.25" stop-color="#17C9E4"/>
<stop offset="0.265625" stop-color="#16C8E5"/>
<stop offset="0.28125" stop-color="#16C7E5"/>
<stop offset="0.296875" stop-color="#15C6E5"/>
<stop offset="0.3125" stop-color="#14C5E5"/>
<stop offset="0.328125" stop-color="#14C5E5"/>
<stop offset="0.34375" stop-color="#13C4E6"/>
<stop offset="0.359375" stop-color="#13C3E6"/>
<stop offset="0.375" stop-color="#12C2E6"/>
<stop offset="0.390625" stop-color="#12C1E6"/>
<stop offset="0.40625" stop-color="#11C0E6"/>
<stop offset="0.421875" stop-color="#11BFE7"/>
<stop offset="0.4375" stop-color="#10BEE7"/>
<stop offset="0.453125" stop-color="#10BDE7"/>
<stop offset="0.46875" stop-color="#0FBCE7"/>
<stop offset="0.484375" stop-color="#0FBBE7"/>
<stop offset="0.5" stop-color="#0EBAE8"/>
<stop offset="0.515625" stop-color="#0EB9E8"/>
<stop offset="0.53125" stop-color="#0DB8E8"/>
<stop offset="0.546875" stop-color="#0DB7E8"/>
<stop offset="0.5625" stop-color="#0CB6E8"/>
<stop offset="0.578125" stop-color="#0CB5E9"/>
<stop offset="0.59375" stop-color="#0BB4E9"/>
<stop offset="0.609375" stop-color="#0BB3E9"/>
<stop offset="0.625" stop-color="#0AB2E9"/>
<stop offset="0.640625" stop-color="#0AB1E9"/>
<stop offset="0.65625" stop-color="#09B0E9"/>
<stop offset="0.671875" stop-color="#09AFEA"/>
<stop offset="0.6875" stop-color="#08AEEA"/>
<stop offset="0.703125" stop-color="#08ADEA"/>
<stop offset="0.71875" stop-color="#07ACEA"/>
<stop offset="0.734375" stop-color="#07ABEA"/>
<stop offset="0.75" stop-color="#06AAEB"/>
<stop offset="0.765625" stop-color="#06A9EB"/>
<stop offset="0.78125" stop-color="#05A8EB"/>
<stop offset="0.796875" stop-color="#05A7EB"/>
<stop offset="0.8125" stop-color="#04A6EB"/>
<stop offset="0.828125" stop-color="#04A5EC"/>
<stop offset="0.835938" stop-color="#03A4EC"/>
<stop offset="0.84375" stop-color="#03A4EC"/>
<stop offset="0.851562" stop-color="#03A3EB"/>
<stop offset="0.859375" stop-color="#04A3EB"/>
<stop offset="0.867188" stop-color="#04A2EA"/>
<stop offset="0.875" stop-color="#04A1EA"/>
<stop offset="0.882812" stop-color="#04A0E9"/>
<stop offset="0.890625" stop-color="#05A0E9"/>
<stop offset="0.898438" stop-color="#059FE8"/>
<stop offset="0.90625" stop-color="#059EE8"/>
<stop offset="0.914063" stop-color="#059EE7"/>
<stop offset="0.921875" stop-color="#069DE7"/>
<stop offset="0.929687" stop-color="#069CE6"/>
<stop offset="0.9375" stop-color="#069BE6"/>
<stop offset="0.945313" stop-color="#069BE5"/>
<stop offset="0.953125" stop-color="#079AE5"/>
<stop offset="0.960938" stop-color="#0799E4"/>
<stop offset="0.96875" stop-color="#0799E4"/>
<stop offset="0.976562" stop-color="#0798E3"/>
<stop offset="0.984375" stop-color="#0897E3"/>
<stop offset="0.992188" stop-color="#0896E2"/>
<stop offset="1" stop-color="#0896E1"/>
</linearGradient>
<linearGradient id="paint11_linear_1366_1881" x1="35.5043" y1="62.9132" x2="43.615" y2="22.0328" gradientUnits="userSpaceOnUse">
<stop stop-color="#12C1E6"/>
<stop offset="0.015625" stop-color="#12C0E6"/>
<stop offset="0.03125" stop-color="#11BFE6"/>
<stop offset="0.046875" stop-color="#11BEE7"/>
<stop offset="0.0625" stop-color="#10BDE7"/>
<stop offset="0.078125" stop-color="#10BCE7"/>
<stop offset="0.09375" stop-color="#0FBBE7"/>
<stop offset="0.109375" stop-color="#0FBAE7"/>
<stop offset="0.125" stop-color="#0EB9E8"/>
<stop offset="0.140625" stop-color="#0EB8E8"/>
<stop offset="0.148438" stop-color="#0DB7E8"/>
<stop offset="0.15625" stop-color="#0DB7E8"/>
<stop offset="0.171875" stop-color="#0DB6E8"/>
<stop offset="0.1875" stop-color="#0CB5E8"/>
<stop offset="0.203125" stop-color="#0BB4E9"/>
<stop offset="0.212594" stop-color="#0BB3E9"/>
<stop offset="0.21875" stop-color="#0BB3E9"/>
<stop offset="0.234375" stop-color="#0AB2E9"/>
<stop offset="0.25" stop-color="#0AB1E9"/>
<stop offset="0.265625" stop-color="#09B0E9"/>
<stop offset="0.28125" stop-color="#09AFEA"/>
<stop offset="0.296875" stop-color="#08AEEA"/>
<stop offset="0.3125" stop-color="#08ADEA"/>
<stop offset="0.328125" stop-color="#07ACEA"/>
<stop offset="0.34375" stop-color="#07ABEA"/>
<stop offset="0.359375" stop-color="#06AAEB"/>
<stop offset="0.375" stop-color="#06A9EB"/>
<stop offset="0.390625" stop-color="#05A8EB"/>
<stop offset="0.40625" stop-color="#05A7EB"/>
<stop offset="0.421875" stop-color="#04A6EB"/>
<stop offset="0.4375" stop-color="#04A5EC"/>
<stop offset="0.445313" stop-color="#03A4EC"/>
<stop offset="0.453125" stop-color="#03A4EC"/>
<stop offset="0.460938" stop-color="#03A3EB"/>
<stop offset="0.46875" stop-color="#04A3EB"/>
<stop offset="0.476563" stop-color="#04A2EA"/>
<stop offset="0.484375" stop-color="#04A1EA"/>
<stop offset="0.492188" stop-color="#04A0E9"/>
<stop offset="0.5" stop-color="#05A0E9"/>
<stop offset="0.507813" stop-color="#059FE8"/>
<stop offset="0.515625" stop-color="#059EE8"/>
<stop offset="0.523438" stop-color="#059DE7"/>
<stop offset="0.53125" stop-color="#069DE7"/>
<stop offset="0.539062" stop-color="#069CE6"/>
<stop offset="0.546875" stop-color="#069BE6"/>
<stop offset="0.554688" stop-color="#069BE5"/>
<stop offset="0.5625" stop-color="#079AE4"/>
<stop offset="0.570313" stop-color="#0799E4"/>
<stop offset="0.578125" stop-color="#0798E3"/>
<stop offset="0.585938" stop-color="#0898E3"/>
<stop offset="0.59375" stop-color="#0897E2"/>
<stop offset="0.601563" stop-color="#0896E2"/>
<stop offset="0.609375" stop-color="#0895E1"/>
<stop offset="0.617188" stop-color="#0995E1"/>
<stop offset="0.625" stop-color="#0994E0"/>
<stop offset="0.632813" stop-color="#0993E0"/>
<stop offset="0.640625" stop-color="#0993DF"/>
<stop offset="0.648438" stop-color="#0A92DF"/>
<stop offset="0.65625" stop-color="#0A91DE"/>
<stop offset="0.664063" stop-color="#0A90DE"/>
<stop offset="0.671875" stop-color="#0A90DD"/>
<stop offset="0.679688" stop-color="#0B8FDD"/>
<stop offset="0.6875" stop-color="#0B8EDC"/>
<stop offset="0.695312" stop-color="#0B8DDB"/>
<stop offset="0.703125" stop-color="#0C8DDB"/>
<stop offset="0.710937" stop-color="#0C8CDA"/>
<stop offset="0.71875" stop-color="#0C8BDA"/>
<stop offset="0.726562" stop-color="#0C8BD9"/>
<stop offset="0.734375" stop-color="#0D8AD9"/>
<stop offset="0.742188" stop-color="#0D89D8"/>
<stop offset="0.75" stop-color="#0D88D8"/>
<stop offset="0.757812" stop-color="#0D88D7"/>
<stop offset="0.765625" stop-color="#0E87D7"/>
<stop offset="0.773438" stop-color="#0E86D6"/>
<stop offset="0.78125" stop-color="#0E85D6"/>
<stop offset="0.787406" stop-color="#0E85D5"/>
<stop offset="0.789063" stop-color="#0F84D5"/>
<stop offset="0.796875" stop-color="#0F84D5"/>
<stop offset="0.804688" stop-color="#0F83D4"/>
<stop offset="0.8125" stop-color="#0F83D4"/>
<stop offset="0.820313" stop-color="#1082D3"/>
<stop offset="0.828125" stop-color="#1081D2"/>
<stop offset="0.835938" stop-color="#1080D2"/>
<stop offset="0.84375" stop-color="#1080D1"/>
<stop offset="0.851562" stop-color="#117FD1"/>
<stop offset="0.859375" stop-color="#117ED0"/>
<stop offset="0.867187" stop-color="#117DD0"/>
<stop offset="0.875" stop-color="#117DCF"/>
<stop offset="0.882812" stop-color="#127CCF"/>
<stop offset="0.890625" stop-color="#127BCE"/>
<stop offset="0.898437" stop-color="#127BCE"/>
<stop offset="0.90625" stop-color="#127ACD"/>
<stop offset="0.914062" stop-color="#1379CD"/>
<stop offset="0.921875" stop-color="#1378CC"/>
<stop offset="0.929688" stop-color="#1378CC"/>
<stop offset="0.9375" stop-color="#1377CB"/>
<stop offset="0.945312" stop-color="#1476CB"/>
<stop offset="0.953125" stop-color="#1475CA"/>
<stop offset="0.960938" stop-color="#1475C9"/>
<stop offset="0.96875" stop-color="#1574C9"/>
<stop offset="0.976563" stop-color="#1573C8"/>
<stop offset="0.984375" stop-color="#1573C8"/>
<stop offset="0.992188" stop-color="#1572C7"/>
<stop offset="1" stop-color="#1671C7"/>
</linearGradient>
</defs>
</svg>
