<svg width="73" height="74" viewBox="0 0 73 74" fill="none" xmlns="http://www.w3.org/2000/svg">
<mask id="mask0_1366_1883" style="mask-type:luminance" maskUnits="userSpaceOnUse" x="56" y="0" width="18" height="15">
<path d="M56.4805 0H73.0022V14.5052H56.4805V0Z" fill="white"/>
</mask>
<g mask="url(#mask0_1366_1883)">
<path d="M56.7734 0L72.9906 14.1778H56.7734V0Z" fill="#FFAF36"/>
</g>
<mask id="mask1_1366_1883" style="mask-type:luminance" maskUnits="userSpaceOnUse" x="10" y="0" width="64" height="74">
<path d="M10.4141 0H73.0027V73.25H10.4141V0Z" fill="white"/>
</mask>
<g mask="url(#mask1_1366_1883)">
<path d="M72.9916 14.1778V73.25H10.8281V0H56.7745V14.1778H72.9916Z" fill="#FF6D00"/>
</g>
<path d="M13.5273 9.45215V66.1599C13.5273 66.47 13.561 66.7783 13.6302 67.0814C13.6994 67.3863 13.8022 67.6825 13.9387 67.9683C14.0731 68.2559 14.2412 68.5278 14.437 68.7859C14.6347 69.044 14.8582 69.283 15.1093 69.5013C15.3605 69.7213 15.6333 69.917 15.928 70.0902C16.2246 70.2617 16.5351 70.4072 16.8633 70.5267C17.1916 70.6445 17.5297 70.7346 17.8778 70.7952C18.2258 70.8558 18.5778 70.8853 18.9317 70.8853H64.8781C65.234 70.8853 65.584 70.8558 65.9341 70.7952C66.2821 70.7346 66.6183 70.6445 66.9465 70.5267C67.2748 70.4072 67.5872 70.2617 67.8819 70.0902C68.1765 69.917 68.4494 69.7213 68.7005 69.5013C68.9517 69.283 69.1751 69.044 69.3729 68.7859C69.5706 68.5278 69.7367 68.2559 69.8732 67.9683C70.0076 67.6825 70.1105 67.3863 70.1797 67.0814C70.2489 66.7783 70.2845 66.47 70.2845 66.1599V63.6517C13.5273 60.5945 13.5273 9.45215 13.5273 9.45215Z" fill="#F54E00"/>
<mask id="mask2_1366_1883" style="mask-type:luminance" maskUnits="userSpaceOnUse" x="57" y="14" width="16" height="3">
<path d="M57.9961 14.0605H72.9991V16.7212H57.9961V14.0605Z" fill="white"/>
</mask>
<g mask="url(#mask2_1366_1883)">
<path d="M58.1211 14.1777H72.9877V16.5404H58.1211V14.1777Z" fill="#F54E00"/>
</g>
<mask id="mask3_1366_1883" style="mask-type:luminance" maskUnits="userSpaceOnUse" x="0" y="3" width="49" height="20">
<path d="M0 3.41895H48.8849V22.4867H0V3.41895Z" fill="white"/>
</mask>
<g mask="url(#mask3_1366_1883)">
<path d="M0.015625 3.54395H48.6652V22.4471H0.015625V3.54395Z" fill="#F54100"/>
</g>
<path d="M10.8242 22.4473H45.9598V25.9913H10.8242V22.4473Z" fill="#D63900"/>
<path d="M40.5528 16.5406V7.08984H37.8516V17.7219C37.8516 17.8778 37.8852 18.0285 37.9544 18.174C38.0216 18.3195 38.1205 18.446 38.2471 18.5568C38.3736 18.6677 38.5199 18.7543 38.6841 18.8132C38.8502 18.8738 39.0222 18.9032 39.2022 18.9032H44.6066V16.5406H40.5528Z" fill="white"/>
<path d="M10.8234 11.8152H6.7696V7.08984H4.06641V18.9032H6.7696V14.1779H10.8234V18.9032H13.5266V7.08984H10.8234V11.8152Z" fill="white"/>
<path d="M14.8789 9.45252H17.5821V18.9032H20.2853V9.45252H22.9865V7.08984H14.8789V9.45252Z" fill="white"/>
<path d="M34.0651 7.11406C33.9128 7.08635 33.7585 7.08115 33.6043 7.1002C33.4501 7.11752 33.3037 7.1591 33.1673 7.22145C33.0289 7.28554 32.9063 7.36696 32.8015 7.46742C32.6947 7.56616 32.6116 7.67875 32.5523 7.8052L29.7403 13.5404L26.9284 7.8052C26.8671 7.68048 26.784 7.56789 26.6773 7.46742C26.5724 7.36869 26.4498 7.28728 26.3134 7.22319C26.175 7.16083 26.0286 7.11926 25.8744 7.1002C25.7202 7.08115 25.5679 7.08635 25.4156 7.11406C25.2634 7.14004 25.119 7.19028 24.9865 7.25956C24.854 7.33058 24.7374 7.41892 24.6405 7.52458C24.5416 7.62851 24.4665 7.7463 24.4131 7.87448C24.3616 8.00266 24.3359 8.13431 24.3359 8.27115V18.9032H27.0372V14.0272L28.4985 17.0065C28.6053 17.223 28.7714 17.3962 28.9968 17.5261C29.2222 17.656 29.4714 17.7219 29.7403 17.7219C30.0113 17.7219 30.2584 17.656 30.4839 17.5261C30.7093 17.3962 30.8754 17.223 30.9822 17.0065L32.4435 14.0272V18.9032H35.1467V8.27115C35.1467 8.13431 35.119 8.00266 35.0676 7.87448C35.0142 7.7463 34.9391 7.62851 34.8422 7.52458C34.7433 7.41892 34.6267 7.33058 34.4942 7.25956C34.3597 7.19028 34.2173 7.14177 34.0651 7.11406Z" fill="white"/>
<path d="M27.0373 57.8909L16.2266 47.2571L27.0373 36.625H32.4437L21.6329 47.2571L32.4437 57.8909H27.0373Z" fill="white"/>
<path d="M56.7697 57.8909L67.5805 47.2571L56.7697 36.625H51.3633L62.1741 47.2571L51.3633 57.8909H56.7697Z" fill="white"/>
<path d="M36.5 57.8909L43.257 36.625H47.3108L40.5538 57.8909H36.5Z" fill="white"/>
<path d="M16.2286 47.2567L24.6367 38.9873H24.3381L13.5273 49.6194L24.3381 60.2532H29.7425L27.3399 57.8905H27.0393L16.2286 47.2567Z" fill="#D63900"/>
<path d="M62.1761 47.2567L53.7679 38.9873H48.6641L59.4748 49.6194L48.6641 60.2532H54.0685L56.4711 57.8905H51.3653L62.1761 47.2567Z" fill="#D63900"/>
<path d="M42.5056 38.9873H40.5539L33.7969 60.2532H37.8527L38.6021 57.8905H36.5001L42.5056 38.9873Z" fill="#D63900"/>
<path d="M37.8526 17.7222V8.27148H36.5V18.9035C36.5 19.0612 36.5336 19.2119 36.6028 19.3556C36.672 19.5011 36.7689 19.6276 36.8955 19.7385C37.0221 19.8493 37.1684 19.9359 37.3345 19.9948C37.5006 20.0554 37.6726 20.0849 37.8526 20.0849H43.257V18.9035H39.2032C39.0232 18.9035 38.8512 18.8741 38.6851 18.8135C38.521 18.7546 38.3746 18.668 38.2481 18.5571C38.1215 18.4463 38.0226 18.3198 37.9554 18.1743C37.8862 18.0288 37.8526 17.8781 37.8526 17.7222Z" fill="#D63900"/>
<path d="M9.47266 8.27148H10.8252V11.8155H9.47266V8.27148Z" fill="#D63900"/>
<path d="M4.06743 8.27148H2.71484V20.0849H5.41803V18.9035H4.06743V8.27148Z" fill="#D63900"/>
<path d="M10.8233 14.1777H6.76953V15.3591H9.47074V20.0844H12.1739V18.9031H10.8233V14.1777Z" fill="#D63900"/>
<path d="M20.2852 9.45215H21.6358V10.6335H20.2852V9.45215Z" fill="#D63900"/>
<path d="M17.5811 9.45282H14.878V8.27148H13.5273V10.6342H16.2286V20.0849H18.9317V18.9035H17.5811V9.45282Z" fill="#D63900"/>
<path d="M24.337 8.28694C24.246 8.28175 24.155 8.28348 24.066 8.2956C23.9138 8.32332 23.7714 8.37182 23.6369 8.4411C23.5044 8.51212 23.3878 8.60046 23.2889 8.70613C23.192 8.81006 23.1169 8.92784 23.0635 9.05603C23.0121 9.18421 22.9844 9.31585 22.9844 9.45269V20.0848H25.6876V18.9034H24.337V8.28694Z" fill="#D63900"/>
<path d="M32.3197 8.28125C32.0725 8.30204 31.851 8.37479 31.6493 8.50297C31.4496 8.62942 31.2993 8.79224 31.2024 8.99144L29.3555 12.7589L29.7411 13.547L32.3197 8.28125Z" fill="#D63900"/>
<path d="M28.5004 17.0067L27.0391 14.0273V17.9576L27.1498 18.1811C27.2566 18.3993 27.4227 18.5726 27.6481 18.7025C27.8736 18.8324 28.1207 18.8965 28.3916 18.8965C28.6606 18.8965 28.9097 18.8324 29.1352 18.7025C29.3606 18.5726 29.5267 18.3993 29.6335 18.1811L29.8688 17.6995C29.8273 17.6995 29.7858 17.7169 29.7423 17.7169C29.4733 17.7169 29.2261 17.6528 29.0007 17.5229C28.7753 17.3947 28.6092 17.2215 28.5004 17.0067Z" fill="#D63900"/>
<path d="M32.4444 14.0273L31.0938 16.7832V20.0847H33.795V18.9034H32.4444V14.0273Z" fill="#D63900"/>
</svg>
