<svg width="74" height="75" viewBox="0 0 74 75" fill="none" xmlns="http://www.w3.org/2000/svg">
<mask id="mask0_1561_1024" style="mask-type:luminance" maskUnits="userSpaceOnUse" x="0" y="0" width="74" height="75">
<path d="M0.441406 0H73.993V74.7812H0.441406V0Z" fill="white"/>
</mask>
<g mask="url(#mask0_1561_1024)">
<path d="M0.441406 4.04809C0.441406 1.83516 1.98562 0.0332031 3.89153 0.0332031H70.5429C72.4488 0.0332031 73.993 1.83516 73.993 4.04809V70.7363C73.993 72.9651 72.4488 74.7512 70.5429 74.7512H3.89153C1.98562 74.7512 0.441406 72.9651 0.441406 70.7363V4.04809Z" fill="#7C73C0"/>
</g>
<mask id="mask1_1561_1024" style="mask-type:luminance" maskUnits="userSpaceOnUse" x="0" y="0" width="74" height="21">
<path d="M0.441406 0H73.993V20.8174H0.441406V0Z" fill="white"/>
</mask>
<g mask="url(#mask1_1561_1024)">
<path d="M70.5429 0.0332031H3.89153C1.98562 0.0332031 0.441406 1.83516 0.441406 4.04809V17.8947H73.993V4.04809C73.993 1.83516 72.4488 0.0332031 70.5429 0.0332031Z" fill="#E0AE30"/>
</g>
<mask id="mask2_1561_1024" style="mask-type:luminance" maskUnits="userSpaceOnUse" x="0" y="4" width="10" height="9">
<path d="M0.441406 4.63184H9.94316V12.7248H0.441406V4.63184Z" fill="white"/>
</mask>
<g mask="url(#mask2_1561_1024)">
<path d="M9.25387 8.868C9.25387 10.9703 7.77922 12.6774 5.97068 12.6774C4.16215 12.6774 2.6875 10.9703 2.6875 8.868C2.6875 6.76571 4.16215 5.05859 5.97068 5.05859C7.77922 5.05859 9.25387 6.76571 9.25387 8.868Z" fill="white"/>
</g>
<path d="M20 9C20 11.2075 18.428 13 16.5 13C14.572 13 13 11.2075 13 9C13 6.79253 14.572 5 16.5 5C18.428 5 20 6.79253 20 9Z" fill="white"/>
<path d="M30 9C30 11.2075 28.4395 13 26.5074 13C24.5605 13 23 11.2075 23 9C23 6.79253 24.5605 5 26.5074 5C28.4395 5 30 6.79253 30 9Z" fill="white"/>
<path d="M47.3955 30.9148C47.6384 32.5336 48.5966 35.3109 50.1351 37.3424C51.1608 38.7072 52.4563 39.7388 53.6844 40.818C56.7614 43.4843 61.7548 46.6108 66.3703 45.8966C66.9236 45.8014 67.1935 45.0714 66.8426 44.5476C65.0747 41.929 62.9289 42.6273 61.4444 39.961C61.3364 39.7547 61.4174 39.4849 61.6198 39.4056C62.8749 38.9453 64.6563 38.6596 66.0329 38.6279C66.1813 38.612 66.2623 38.4216 66.1678 38.2946C64.3594 35.8823 61.3634 34.3111 59.9464 33.6763C59.4605 33.4541 59.0287 33.0732 58.7453 32.5494C55.9112 27.0265 53.8869 15.6155 44.8314 15.425C44.6964 15.4092 44.548 15.3298 44.467 15.2028L44.3455 14.9965C43.8057 14.1395 43.05 13.5047 42.1997 13.1873L41.8758 13.0762C41.525 12.9492 41.1471 12.981 40.8232 13.1714C39.973 13.6475 39.7301 14.9648 40.3373 15.8377L41.8489 18.0437C41.9298 18.1548 41.9838 18.3135 41.9973 18.4722C42.1323 19.5673 42.9015 23.6619 44.4805 25.0426C44.548 25.1061 44.5749 25.2172 44.548 25.2966C43.8597 27.2645 42.5506 34.2476 46.0325 36.0092C46.1539 36.0727 46.2889 35.914 46.2754 35.7553C46.1539 34.6761 46.3968 32.5336 47.0446 30.8354C47.1121 30.645 47.355 30.7084 47.3955 30.9148Z" fill="white"/>
<path d="M44.7103 17.2681C44.3141 17.0338 43.6406 16.945 43.1256 17.0338C42.9869 17.05 42.9671 17.1227 43.0463 17.1631L44.3933 17.9546C44.4527 18.003 44.6112 18.0192 44.7103 17.9707C45.0866 17.7931 45.1064 17.5023 44.7103 17.2681Z" fill="#E0AE30"/>
<mask id="mask3_1561_1024" style="mask-type:luminance" maskUnits="userSpaceOnUse" x="59" y="37" width="16" height="21">
<path d="M59.8125 37.0029H74.0025V57.2354H59.8125V37.0029Z" fill="white"/>
</mask>
<g mask="url(#mask3_1561_1024)">
<path fill-rule="evenodd" clip-rule="evenodd" d="M62.0894 38.1885C62.9519 38.1885 63.6475 39.0104 63.6475 40.0062V51.0551C63.6475 51.2764 63.8005 51.4503 63.9814 51.4503H70.3808C71.2294 51.4503 71.925 52.2564 71.925 53.268C71.925 54.2638 71.2294 55.07 70.3808 55.07H63.9814C62.0755 55.07 60.5312 53.268 60.5312 51.0551V40.0062C60.5312 39.0104 61.2268 38.1885 62.0894 38.1885Z" fill="#E0AE30"/>
</g>
<path fill-rule="evenodd" clip-rule="evenodd" d="M21.639 39C22.5463 39 23.278 39.8218 23.278 40.8531V46.4768H28.722V40.8531C28.722 39.8218 29.4537 39 30.361 39C31.2683 39 32 39.8218 32 40.8531V51.6976C32 54.0825 30.2878 56 28.1805 56H21.639C20.7317 56 20 55.1782 20 54.163C20 53.1479 20.7317 52.31 21.639 52.31H28.1805C28.4732 52.31 28.722 52.036 28.722 51.6976V50.1668H22.7366C21.2293 50.1668 20 48.7972 20 47.0891V40.8531C20 39.8218 20.7317 39 21.639 39Z" fill="#E0AE30"/>
<mask id="mask4_1561_1024" style="mask-type:luminance" maskUnits="userSpaceOnUse" x="0" y="37" width="21" height="17">
<path d="M0.441406 37.0029H20.6274V53.1889H0.441406V37.0029Z" fill="white"/>
</mask>
<g mask="url(#mask4_1561_1024)">
<path fill-rule="evenodd" clip-rule="evenodd" d="M5.14495 37.998C6.11878 37.998 7.02305 38.6303 7.46822 39.6261L10.7931 46.9446L13.9929 39.7526C14.4798 38.6619 15.4397 37.998 16.4692 37.998C18.0134 37.998 19.2654 39.4523 19.2654 41.2384V50.8489C19.2654 51.8447 18.5698 52.6508 17.7073 52.6508C16.8448 52.6508 16.1492 51.8447 16.1492 50.8489V42.7558L12.4904 51.0069C11.7809 52.5876 9.83323 52.5876 9.12373 51.0069L5.61795 43.2933V50.8489C5.61795 51.8447 4.92237 52.6508 4.07375 52.6508C3.21122 52.6508 2.51562 51.8447 2.51562 50.8489V41.0487C2.51562 39.3574 3.69813 37.998 5.14495 37.998Z" fill="#E0AE30"/>
</g>
<path fill-rule="evenodd" clip-rule="evenodd" d="M33 43.2606C33 40.8989 34.6754 39 36.7375 39H43.3962C44.284 39 45 39.8138 45 40.8191C45 41.8404 44.284 42.6543 43.3962 42.6543H36.7375C36.4368 42.6543 36.2076 42.9255 36.2076 43.2606C36.2076 43.5957 36.4368 43.867 36.7375 43.867H40.5609C43.0095 43.867 45 46.133 45 48.9415C45 51.734 43.0095 54 40.5609 54H34.6038C33.716 54 33 53.1862 33 52.1809C33 51.1755 33.716 50.3617 34.6038 50.3617H40.5609C41.2482 50.3617 41.8067 49.7234 41.8067 48.9415C41.8067 48.1596 41.2482 47.5213 40.5609 47.5213H36.7375C34.6754 47.5213 33 45.6064 33 43.2606Z" fill="#E0AE30"/>
<path fill-rule="evenodd" clip-rule="evenodd" d="M46 42.5038C46 40.576 47.4146 39 49.1687 39H55.8313C57.5854 39 59 40.576 59 42.5038V49.5115C59 51.4393 57.5854 53 55.8313 53H49.1687C47.4146 53 46 51.4393 46 49.5115V42.5038ZM55.8313 42.5038H49.1687V49.5115H55.8313V42.5038Z" fill="#E0AE30"/>
<path fill-rule="evenodd" clip-rule="evenodd" d="M50.3704 46.592C50.9122 45.8861 51.8603 45.7978 52.4969 46.4008L59.4726 53.0338C60.1092 53.6368 60.177 54.7105 59.6352 55.4164C59.0934 56.1224 58.1452 56.1959 57.5086 55.5929L50.5329 48.9599C49.8963 48.3569 49.815 47.298 50.3704 46.592Z" fill="white"/>
</svg>
