<svg width="68" height="77" viewBox="0 0 68 77" fill="none" xmlns="http://www.w3.org/2000/svg">
<mask id="mask0_1555_946" style="mask-type:luminance" maskUnits="userSpaceOnUse" x="0" y="0" width="68" height="77">
<path d="M0.6875 0H68V76.3337H0.6875V0Z" fill="white"/>
</mask>
<g mask="url(#mask0_1555_946)">
<path d="M31.3378 0.262695C13.0054 0.262695 0.6875 7.31267 0.6875 13.8959C0.6875 20.4831 13.0054 27.5356 31.3378 27.5356C49.6689 27.5356 61.9831 20.4831 61.9831 13.8959C61.9831 7.31267 49.6689 0.262695 31.3378 0.262695ZM0.6875 20.8837V29.278C0.6875 35.7537 13.0054 42.687 31.3378 42.687C49.6689 42.687 61.9831 35.7537 61.9831 29.278V20.8837C56.623 26.5711 45.0727 30.5654 31.3378 30.5654C17.6004 30.5654 6.04762 26.5698 0.6875 20.8837ZM0.6875 36.4901V44.4981C0.6875 49.7318 8.73953 55.2157 21.5074 57.1279L21.6494 56.3228H31.8625C33.6521 56.3228 35.2398 56.7947 36.5546 57.6283C36.7104 57.6167 36.8699 57.6076 37.0244 57.5959L38.5012 50.262H48.2918L47.1627 55.8769C56.3924 53.3761 61.9831 48.8528 61.9831 44.4981V36.4901C56.623 42.1749 45.0727 45.7168 31.3378 45.7168C17.6004 45.7168 6.04762 42.1749 0.6875 36.4901ZM0.6875 51.7101V59.5808C0.6875 64.4488 7.6528 69.5749 18.899 71.8203L20.9677 60.1551C11.9237 58.869 4.62939 55.8911 0.6875 51.7101ZM61.9831 51.7101C60.3206 53.4733 58.0599 55.0238 55.3269 56.3228H61.9831V51.7101ZM40.8729 53.2931L37.2126 71.4742H41.0436L42.893 62.3836H45.9551C46.9309 62.3836 47.5752 62.5522 47.8755 62.8866C48.1746 63.225 48.2407 63.8629 48.0675 64.7833L46.6704 71.4742H50.5612L52.0742 64.2362C52.3994 62.5016 52.1552 61.2272 51.3451 60.4545C50.5201 59.6689 49.0657 59.3539 46.8985 59.3539H43.4838L44.7001 53.2931H40.8729ZM24.0784 59.3539L21.1198 76.0195H24.9819L25.7509 71.4742H28.1511C33.1798 71.4742 35.919 70.2659 36.9422 65.7842C37.822 61.9338 35.5726 59.3539 31.8625 59.3539H24.0784ZM54.7249 59.3539L51.7663 76.0195H55.6285L56.3987 71.4742H58.7989C63.8276 71.4742 66.5668 70.2659 67.5887 65.7842C68.4698 61.9338 66.2191 59.3539 62.5103 59.3539H54.7249ZM27.3959 62.3836H30.4031C32.8956 62.3836 33.4203 63.5504 33.2907 64.8481C32.9567 68.1916 30.949 68.4444 28.7892 68.4444H26.2955L27.3959 62.3836ZM58.0437 62.3836H61.0509C63.5434 62.3836 64.0681 63.5504 63.9385 64.8481C63.6032 68.1916 61.5968 68.4444 59.437 68.4444H56.9433L58.0437 62.3836Z" fill="black"/>
</g>
</svg>
