<svg width="79" height="77" viewBox="0 0 79 77" fill="none" xmlns="http://www.w3.org/2000/svg">
<path fill-rule="evenodd" clip-rule="evenodd" d="M72.5422 55H6.39534C5.88721 55 5.46875 54.5097 5.46875 53.8924V6.86365C5.46875 3.10498 7.96458 0 11.118 0H67.8195C70.9281 0 73.4688 3.10498 73.4688 6.86365V53.8924C73.4688 54.5097 73.0503 55 72.5422 55ZM7.32194 52.7666H71.6156V6.86365C71.6156 4.33972 69.9118 2.25157 67.8195 2.25157H11.118C8.98084 2.25157 7.32194 4.33972 7.32194 6.86365V52.7666Z" fill="black"/>
<mask id="mask0_1561_1026" style="mask-type:luminance" maskUnits="userSpaceOnUse" x="0" y="48" width="79" height="29">
<path d="M0 48.5361H78.4688V76.3331H0V48.5361Z" fill="white"/>
</mask>
<g mask="url(#mask0_1561_1026)">
<path fill-rule="evenodd" clip-rule="evenodd" d="M70.426 72.1536H7.99823C3.59104 72.1536 0 67.7199 0 62.3451V53.7128C0 53.0794 0.415491 52.5908 0.920019 52.5908H24.1431L30.3903 63.3947C30.5684 63.6843 30.8503 63.8471 31.1174 63.8471H47.3068C47.6184 63.8471 47.9004 63.6843 48.0784 63.3947L54.3405 52.5908H77.5487C78.0533 52.5908 78.4688 53.0794 78.4688 53.7128V62.3451C78.4688 67.7199 74.8332 72.1536 70.426 72.1536ZM70.975 63.4671H61.5523C61.0477 63.4671 60.6322 62.9604 60.6322 62.3451C60.6322 61.7117 61.0477 61.2231 61.5523 61.2231H70.975C71.4796 61.2231 71.8951 61.7117 71.8951 62.3451C71.8951 62.9604 71.4796 63.4671 70.975 63.4671ZM16.9165 63.4671H7.49371C6.98918 63.4671 6.57369 62.9604 6.57369 62.3451C6.57369 61.7117 6.98918 61.2231 7.49371 61.2231H16.9165C17.421 61.2231 17.8365 61.7117 17.8365 62.3451C17.8365 62.9604 17.421 63.4671 16.9165 63.4671ZM26.3838 52.5908H52.085L46.8468 61.6031H31.6368L26.3838 52.5908Z" fill="black"/>
</g>
<path fill-rule="evenodd" clip-rule="evenodd" d="M43.6533 36.9296H43.364V39.618H51.5248C52.0424 39.618 52.4688 40.1231 52.4688 40.7366V47.8814C52.4688 48.4948 52.0424 49 51.5248 49H39.4054C37.1825 49 35.4468 46.889 35.4468 44.309V36.9296H34.9292C30.8183 36.9296 27.4688 33.0325 27.4688 28.161V17.8227C27.4688 12.9693 30.8183 9 34.9292 9H43.6533C47.7489 9 51.0528 12.9693 51.0528 17.8227V28.161C51.0528 33.0325 47.7489 36.9296 43.6533 36.9296ZM34.3049 22.7483C32.3713 22.7483 30.8183 20.8358 30.8183 18.5986C30.8183 16.3072 32.3713 14.4127 34.3049 14.4127C36.2385 14.4127 37.8068 16.3072 37.8068 18.5986C37.8068 20.8358 36.2385 22.7483 34.3049 22.7483ZM44.2623 22.7483C42.3287 22.7483 40.73 20.8358 40.73 18.5986C40.73 16.3072 42.3287 14.4127 44.2623 14.4127C46.1502 14.4127 47.7489 16.3072 47.7489 18.5986C47.7489 20.8358 46.1502 22.7483 44.2623 22.7483ZM44.2623 16.65C43.364 16.65 42.618 17.5521 42.618 18.5986C42.618 19.6089 43.364 20.5111 44.2623 20.5111C45.1149 20.5111 45.861 19.6089 45.861 18.5986C45.861 17.5521 45.1149 16.65 44.2623 16.65ZM34.3049 16.65C33.4219 16.65 32.7063 17.5521 32.7063 18.5986C32.7063 19.6089 33.4219 20.5111 34.3049 20.5111C35.2032 20.5111 35.9188 19.6089 35.9188 18.5986C35.9188 17.5521 35.2032 16.65 34.3049 16.65Z" fill="black"/>
<path fill-rule="evenodd" clip-rule="evenodd" d="M28.1813 31C25.0628 31 22.4688 27.8036 22.4688 23.8214V13.1964C22.4688 9.21428 25.0628 6 28.1813 6C30.421 6 32.4339 7.66071 33.3978 10.2143C33.582 10.7679 33.3978 11.4286 32.9583 11.6429C32.5189 11.9286 31.9944 11.6964 31.7818 11.1429C31.1156 9.375 29.7122 8.21429 28.1813 8.21429C26.0267 8.21429 24.2265 10.4286 24.2265 13.1964V23.8214C24.2265 26.5893 26.0267 28.7857 28.1813 28.7857C28.3939 28.7857 28.6207 28.7857 28.8334 28.7321C29.3153 28.625 29.7548 29.0714 29.854 29.625C29.939 30.2321 29.6272 30.8393 29.1452 30.9464C28.8334 31 28.5357 31 28.1813 31Z" fill="black"/>
<path fill-rule="evenodd" clip-rule="evenodd" d="M50.2231 31C49.8976 31 49.5567 31 49.2157 30.9464C48.6888 30.8393 48.3633 30.2321 48.4098 29.6786C48.5028 29.0714 49.0297 28.625 49.5102 28.7321C49.7426 28.7857 49.9906 28.7857 50.2231 28.7857C52.6253 28.7857 54.547 26.5893 54.547 23.8214V13.1964C54.547 10.4286 52.6253 8.21429 50.2231 8.21429C48.5493 8.21429 47.015 9.375 46.2866 11.1429C46.1006 11.6964 45.5272 11.9286 45.0468 11.6429C44.5663 11.4286 44.3184 10.7679 44.5663 10.2143C45.5737 7.66071 47.8364 6 50.2231 6C53.6791 6 56.4687 9.21428 56.4687 13.1964V23.8214C56.4687 27.8036 53.6791 31 50.2231 31Z" fill="black"/>
</svg>
