<svg width="75" height="76" viewBox="0 0 75 76" fill="none" xmlns="http://www.w3.org/2000/svg">
<mask id="mask0_1366_1882" style="mask-type:luminance" maskUnits="userSpaceOnUse" x="0" y="0" width="56" height="57">
<path d="M0 0H55.7096V56.5384H0V0Z" fill="white"/>
</mask>
<g mask="url(#mask0_1366_1882)">
<mask id="mask1_1366_1882" style="mask-type:luminance" maskUnits="userSpaceOnUse" x="0" y="-1" width="56" height="58">
<path d="M37.2562 -0.00683594C18.2228 -0.00683594 19.4112 8.34912 19.4112 8.34912L19.4307 17.0079H37.5932V19.6063H12.2172C12.2172 19.6063 0.0390625 18.2085 0.0390625 37.6532C0.0390625 57.0997 10.6687 56.4098 10.6687 56.4098H17.0132V47.3854C17.0132 47.3854 16.6709 36.621 27.4726 36.621H45.4879C45.4879 36.621 55.6067 36.7877 55.6067 26.7186V10.0676C55.6067 10.0676 57.1445 -0.00683594 37.2562 -0.00683594ZM27.2402 5.81527C29.0476 5.81527 30.5074 7.29365 30.5074 9.12325C30.5074 10.9529 29.0476 12.4312 27.2402 12.4312C25.4329 12.4312 23.9713 10.9529 23.9713 9.12325C23.9713 7.29365 25.4329 5.81527 27.2402 5.81527Z" fill="white"/>
</mask>
<g mask="url(#mask1_1366_1882)">
<path d="M0.0390625 0V57.0993H57.1445V0H0.0390625Z" fill="url(#paint0_linear_1366_1882)"/>
</g>
</g>
<mask id="mask2_1366_1882" style="mask-type:luminance" maskUnits="userSpaceOnUse" x="19" y="18" width="57" height="58">
<path d="M19.3828 18.9219H75.0019V75.532H19.3828V18.9219Z" fill="white"/>
</mask>
<g mask="url(#mask2_1366_1882)">
<mask id="mask3_1366_1882" style="mask-type:luminance" maskUnits="userSpaceOnUse" x="19" y="19" width="57" height="57">
<path d="M37.7839 75.5095C56.8173 75.5095 55.6271 67.1517 55.6271 67.1517L55.6076 58.4929H37.4433V55.8946H62.8194C62.8194 55.8946 75.0011 57.2905 75.0011 37.8476C75.0011 18.403 64.3696 19.0929 64.3696 19.0929H58.0269V28.1154C58.0269 28.1154 58.3675 38.8798 47.5657 38.8798H29.5505C29.5505 38.8798 19.4298 38.7132 19.4298 48.784V65.4332C19.4298 65.4332 17.8938 75.5095 37.7839 75.5095ZM47.7981 69.6874C45.9925 69.6874 44.531 68.2054 44.531 66.3776C44.531 64.548 45.9925 63.0696 47.7981 63.0696C49.6073 63.0696 51.0652 64.548 51.0652 66.3776C51.0652 68.2054 49.6073 69.6874 47.7981 69.6874Z" fill="white"/>
</mask>
<g mask="url(#mask3_1366_1882)">
<path d="M17.8945 18.4043V75.5108H75.0018V18.4043H17.8945Z" fill="url(#paint1_linear_1366_1882)"/>
</g>
</g>
<defs>
<linearGradient id="paint0_linear_1366_1882" x1="0.270367" y1="-0.236891" x2="58.0085" y2="56.2158" gradientUnits="userSpaceOnUse">
<stop stop-color="#387EB8"/>
<stop offset="0.125" stop-color="#387EB8"/>
<stop offset="0.140625" stop-color="#387EB8"/>
<stop offset="0.15625" stop-color="#387DB7"/>
<stop offset="0.171875" stop-color="#387DB6"/>
<stop offset="0.1875" stop-color="#387CB5"/>
<stop offset="0.203125" stop-color="#387CB4"/>
<stop offset="0.21875" stop-color="#387BB3"/>
<stop offset="0.234375" stop-color="#387BB2"/>
<stop offset="0.25" stop-color="#387AB1"/>
<stop offset="0.265625" stop-color="#387AB1"/>
<stop offset="0.28125" stop-color="#3879B0"/>
<stop offset="0.296875" stop-color="#3879AF"/>
<stop offset="0.3125" stop-color="#3878AE"/>
<stop offset="0.328125" stop-color="#3778AD"/>
<stop offset="0.34375" stop-color="#3777AC"/>
<stop offset="0.359375" stop-color="#3777AB"/>
<stop offset="0.375" stop-color="#3776AB"/>
<stop offset="0.390625" stop-color="#3776AA"/>
<stop offset="0.40625" stop-color="#3775A9"/>
<stop offset="0.421875" stop-color="#3775A8"/>
<stop offset="0.4375" stop-color="#3774A7"/>
<stop offset="0.453125" stop-color="#3774A6"/>
<stop offset="0.46875" stop-color="#3773A5"/>
<stop offset="0.484375" stop-color="#3773A4"/>
<stop offset="0.494335" stop-color="#3772A4"/>
<stop offset="0.5" stop-color="#3772A3"/>
<stop offset="0.505665" stop-color="#3772A3"/>
<stop offset="0.515625" stop-color="#3771A2"/>
<stop offset="0.53125" stop-color="#3771A2"/>
<stop offset="0.546875" stop-color="#3771A1"/>
<stop offset="0.5625" stop-color="#3770A0"/>
<stop offset="0.578125" stop-color="#37709F"/>
<stop offset="0.59375" stop-color="#376F9E"/>
<stop offset="0.609375" stop-color="#376F9D"/>
<stop offset="0.625" stop-color="#376E9D"/>
<stop offset="0.640625" stop-color="#366E9C"/>
<stop offset="0.65625" stop-color="#366D9B"/>
<stop offset="0.671875" stop-color="#366D9A"/>
<stop offset="0.6875" stop-color="#366C99"/>
<stop offset="0.703125" stop-color="#366C98"/>
<stop offset="0.71875" stop-color="#366B97"/>
<stop offset="0.734375" stop-color="#366B97"/>
<stop offset="0.75" stop-color="#366A96"/>
<stop offset="0.765625" stop-color="#366A95"/>
<stop offset="0.78125" stop-color="#366994"/>
<stop offset="0.8125" stop-color="#366994"/>
<stop offset="0.875" stop-color="#366994"/>
<stop offset="1" stop-color="#366994"/>
</linearGradient>
<linearGradient id="paint1_linear_1366_1882" x1="17.5884" y1="18.7314" x2="76.5862" y2="73.813" gradientUnits="userSpaceOnUse">
<stop stop-color="#FFE052"/>
<stop offset="0.125" stop-color="#FFE052"/>
<stop offset="0.1875" stop-color="#FFE052"/>
<stop offset="0.21875" stop-color="#FFE052"/>
<stop offset="0.234375" stop-color="#FFDF51"/>
<stop offset="0.25" stop-color="#FFDF51"/>
<stop offset="0.265625" stop-color="#FFDE50"/>
<stop offset="0.28125" stop-color="#FFDD4F"/>
<stop offset="0.296875" stop-color="#FFDD4E"/>
<stop offset="0.3125" stop-color="#FFDC4E"/>
<stop offset="0.328125" stop-color="#FFDB4D"/>
<stop offset="0.34375" stop-color="#FFDB4C"/>
<stop offset="0.359375" stop-color="#FFDA4B"/>
<stop offset="0.375" stop-color="#FFD94B"/>
<stop offset="0.390625" stop-color="#FFD94A"/>
<stop offset="0.40625" stop-color="#FFD849"/>
<stop offset="0.421875" stop-color="#FFD748"/>
<stop offset="0.4375" stop-color="#FFD748"/>
<stop offset="0.453125" stop-color="#FFD647"/>
<stop offset="0.46875" stop-color="#FFD546"/>
<stop offset="0.482837" stop-color="#FFD545"/>
<stop offset="0.484375" stop-color="#FFD445"/>
<stop offset="0.5" stop-color="#FFD445"/>
<stop offset="0.515625" stop-color="#FFD444"/>
<stop offset="0.517163" stop-color="#FFD343"/>
<stop offset="0.53125" stop-color="#FFD343"/>
<stop offset="0.546875" stop-color="#FFD242"/>
<stop offset="0.5625" stop-color="#FFD242"/>
<stop offset="0.578125" stop-color="#FFD141"/>
<stop offset="0.59375" stop-color="#FFD040"/>
<stop offset="0.609375" stop-color="#FFD03F"/>
<stop offset="0.625" stop-color="#FFCF3F"/>
<stop offset="0.640625" stop-color="#FFCE3E"/>
<stop offset="0.65625" stop-color="#FFCE3D"/>
<stop offset="0.671875" stop-color="#FFCD3C"/>
<stop offset="0.6875" stop-color="#FFCC3C"/>
<stop offset="0.703125" stop-color="#FFCC3B"/>
<stop offset="0.71875" stop-color="#FFCB3A"/>
<stop offset="0.734375" stop-color="#FFCA39"/>
<stop offset="0.75" stop-color="#FFCA39"/>
<stop offset="0.765625" stop-color="#FFC938"/>
<stop offset="0.78125" stop-color="#FFC837"/>
<stop offset="0.796875" stop-color="#FFC836"/>
<stop offset="0.8125" stop-color="#FFC735"/>
<stop offset="0.828125" stop-color="#FFC635"/>
<stop offset="0.84375" stop-color="#FFC634"/>
<stop offset="0.859375" stop-color="#FFC533"/>
<stop offset="0.875" stop-color="#FFC432"/>
<stop offset="0.890625" stop-color="#FFC432"/>
<stop offset="0.90625" stop-color="#FFC331"/>
<stop offset="0.9375" stop-color="#FFC331"/>
<stop offset="1" stop-color="#FFC331"/>
</linearGradient>
</defs>
</svg>
