<svg width="74" height="72" viewBox="0 0 74 72" fill="none" xmlns="http://www.w3.org/2000/svg">
<mask id="mask0_1366_1666" style="mask-type:luminance" maskUnits="userSpaceOnUse" x="0" y="0" width="74" height="72">
<path d="M0 0H74V71.5677H0V0Z" fill="white"/>
</mask>
<g mask="url(#mask0_1366_1666)">
<path d="M45.3273 -0.0839844C52.6944 10.7782 55.6042 23.7001 53.0359 35.3114C52.8652 36.2445 52.5237 37.3732 52.1804 38.3062C51.6376 37.9721 51.1883 37.6677 50.7569 37.3356L50.8073 37.3732C50.8073 37.3732 34.1949 26.1374 16.3873 6.47087C15.8714 5.91145 25.9776 22.1998 37.2808 35.1237C31.9716 31.7494 16.9013 19.9562 7.47988 10.4026C8.50793 12.4604 10.05 14.5221 11.5903 16.5819C19.4696 27.6338 29.7466 41.1112 42.0778 51.41C33.3429 57.2216 21.1825 57.5912 8.84942 51.41C5.76526 49.9175 3.20052 48.0436 0.287109 45.7941C5.42378 54.5965 13.4739 62.6537 23.066 66.957C34.5399 72.3911 46.1864 72.0155 54.578 66.957H54.7523C55.0938 66.7692 55.4371 66.5834 55.7786 66.2078C59.889 63.9583 67.9391 61.5249 72.3928 70.8907C73.5898 73.5119 75.8166 61.3411 67.4268 50.1053H67.4232C67.594 49.7317 67.594 49.3562 67.7647 48.9845C71.8769 31.3777 62.1122 10.7782 45.3273 -0.0839844Z" fill="#E94E36"/>
</g>
</svg>
