<svg width="74" height="75" viewBox="0 0 74 75" fill="none" xmlns="http://www.w3.org/2000/svg">
<mask id="mask0_1567_1121" style="mask-type:luminance" maskUnits="userSpaceOnUse" x="0" y="0" width="74" height="75">
<path d="M0 0H74V74.3854H0V0Z" fill="white"/>
</mask>
<g mask="url(#mask0_1567_1121)">
<path d="M74 37.1927C74 39.6384 73.7657 42.0479 73.2971 44.4392C72.8285 46.8487 72.1257 49.1676 71.1885 51.4321C70.2513 53.6785 69.1159 55.8162 67.7642 57.8634C66.4126 59.8924 64.8807 61.7584 63.1685 63.4975C61.4564 65.2186 59.5821 66.7585 57.5636 68.1172C55.5451 69.4759 53.4004 70.6172 51.1656 71.5593C48.9128 72.4832 46.6059 73.1897 44.227 73.6789C41.83 74.1499 39.433 74.3854 37 74.3854C34.567 74.3854 32.17 74.1499 29.791 73.6789C27.3941 73.1897 25.0872 72.4832 22.8344 71.5593C20.5996 70.6172 18.473 69.4759 16.4364 68.1172C14.4179 66.7585 12.5616 65.2186 10.8315 63.4975C9.11934 61.7584 7.58743 59.8924 6.23575 57.8634C4.88407 55.8162 3.74866 53.6785 2.8115 51.4321C1.89235 49.1676 1.18948 46.8487 0.702874 44.4392C0.234294 42.0479 0 39.6384 0 37.1927C0 34.747 0.234294 32.3194 0.702874 29.9281C1.18948 27.5367 1.89235 25.2179 2.8115 22.9533C3.74866 20.7069 4.88407 18.5511 6.23575 16.522C7.58743 14.493 9.11934 12.6089 10.8315 10.8879C12.5616 9.16683 14.4179 7.62695 16.4364 6.26823C18.473 4.90951 20.5996 3.75007 22.8344 2.82614C25.0872 1.88409 27.3941 1.17756 29.791 0.706535C32.17 0.235509 34.567 0 37 0C39.433 0 41.83 0.235509 44.227 0.706535C46.6059 1.17756 48.9128 1.88409 51.1656 2.82614C53.4004 3.75007 55.5451 4.90951 57.5636 6.26823C59.5821 7.62695 61.4564 9.16683 63.1685 10.8879C64.8807 12.6089 66.4126 14.493 67.7642 16.522C69.1159 18.5511 70.2513 20.7069 71.1885 22.9533C72.1257 25.2179 72.8285 27.5367 73.2971 29.9281C73.7657 32.3194 74 34.747 74 37.1927Z" fill="#7D2AE7"/>
</g>
<path d="M66.5239 39.2219C66.4158 39.2219 66.3256 39.2944 66.2896 39.4212C65.6949 41.1423 64.8838 42.1749 64.217 42.1749C63.8205 42.1749 63.6763 41.7401 63.6763 41.0698C63.6763 39.385 64.6856 35.8161 65.1722 34.1856C65.2443 34.0226 65.2803 33.8414 65.2803 33.6784C65.2803 33.1892 65.028 32.9718 64.3792 32.9718C63.7484 32.9718 62.9555 33.2436 62.2346 34.4936C62.0003 33.3885 61.2433 32.8994 60.198 32.8994C58.9725 32.8994 57.801 33.6783 56.8459 34.9465C55.8726 36.2146 54.7553 36.6494 53.8902 36.432C54.5029 34.9284 54.7372 33.8052 54.7372 32.9718C54.7372 31.6493 54.0884 30.8522 53.0431 30.8522C51.4572 30.8522 50.556 32.374 50.556 33.9682C50.556 35.2182 51.0967 36.4864 52.3403 37.1023C51.313 39.4393 49.7991 41.5589 49.2404 41.5589C48.5015 41.5589 48.2852 37.9357 48.3213 35.345C48.3393 33.8595 48.4654 33.7871 48.4654 33.3341C48.4654 33.0805 48.3032 32.8994 47.6364 32.8994C46.0865 32.8994 45.5999 34.2218 45.5278 35.7436C45.4917 36.3233 45.4016 36.903 45.2574 37.4647C44.5906 39.8016 43.257 41.577 42.3739 41.577C41.9774 41.577 41.8692 41.1604 41.8692 40.635C41.8692 38.9502 42.8064 36.8487 42.8064 35.0552C42.8064 33.7327 42.2297 32.8994 41.1483 32.8994C39.8688 32.8994 38.1746 34.4211 36.5707 37.2835C37.1113 35.0914 37.3096 32.9718 35.7596 32.9718C35.4352 32.9718 35.0928 33.0624 34.8045 33.2254C34.5882 33.3341 34.462 33.5334 34.4801 33.7508C34.6242 36.0878 32.6057 42.0662 30.6953 42.0662C30.3529 42.0662 30.1907 41.6857 30.1907 41.0698C30.1907 39.385 31.182 35.8342 31.6866 34.2037C31.7406 34.0226 31.7767 33.8414 31.7767 33.6421C31.7767 33.2073 31.5064 32.9718 30.8936 32.9718C30.2087 32.9718 29.4698 33.2436 28.7489 34.4936C28.4966 33.3885 27.7397 32.8994 26.6944 32.8994C24.9822 32.8994 23.0538 34.7291 22.2068 37.1204C21.0714 40.2908 18.8006 43.3706 15.7368 43.3706C12.9433 43.3706 11.4835 41.0336 11.4835 37.356C11.4835 32.0479 15.3583 27.7181 18.2419 27.7181C19.6116 27.7181 20.2604 28.5877 20.2604 29.9464C20.2604 31.5769 19.3593 32.3377 19.3593 32.9537C19.3593 33.153 19.5215 33.3341 19.8278 33.3341C21.0894 33.3341 22.5492 31.8667 22.5492 29.8377C22.5492 27.8268 20.9272 26.3594 18.0436 26.3594C13.2857 26.3594 8.50977 31.1602 8.50977 37.3378C8.50977 42.2292 10.9067 45.2003 15.0699 45.2003C17.9175 45.2003 20.4046 42.972 21.7382 40.3814C21.8824 42.5372 22.8556 43.6423 24.3334 43.6423C25.6491 43.6423 26.7124 42.8633 27.5234 41.4865C27.8298 42.9177 28.6588 43.6423 29.7402 43.6423C30.9837 43.6423 32.011 42.8452 33.0022 41.3778C32.9842 42.5372 33.2365 43.6061 34.2277 43.6061C34.6963 43.6061 35.255 43.5155 35.3631 43.0988C36.3904 38.769 38.9857 35.2182 39.7606 35.2182C39.9949 35.2182 40.067 35.4537 40.067 35.7255C40.067 36.8849 39.238 39.3125 39.238 40.8524C39.238 42.5191 39.9408 43.6061 41.4007 43.6061C43.0046 43.6061 44.6447 41.6314 45.7441 38.7328C46.0865 41.4321 46.8254 43.6242 47.9788 43.6242C49.4026 43.6242 51.9257 40.6169 53.4396 37.4465C54.0344 37.519 54.9355 37.5009 55.8006 36.8849C55.4401 37.827 55.2238 38.8415 55.2238 39.8741C55.2238 42.8271 56.6296 43.6423 57.8371 43.6423C59.1527 43.6423 60.216 42.8633 61.0271 41.4865C61.2974 42.7184 61.9822 43.6242 63.2438 43.6242C65.2083 43.6242 66.9204 41.6133 66.9204 39.9466C66.9204 39.4937 66.7402 39.2219 66.5239 39.2219ZM25.5409 42.0118C24.748 42.0118 24.4235 41.1966 24.4235 40.0009C24.4235 37.9176 25.8473 34.4211 27.3612 34.4211C28.01 34.4211 28.2623 35.2001 28.2623 36.1603C28.2623 38.2799 26.9106 42.0118 25.5409 42.0118ZM52.8449 35.7798C52.3763 35.2001 52.1961 34.4211 52.1961 33.7327C52.1961 32.8812 52.5205 32.1747 52.8809 32.1747C53.2594 32.1747 53.3675 32.537 53.3675 33.0443C53.3675 33.8957 53.0611 35.1458 52.8449 35.7798ZM59.0266 42.0118C58.2336 42.0118 57.9272 41.0879 57.9272 40.0009C57.9272 37.99 59.351 34.4211 60.8649 34.4211C61.5137 34.4211 61.7479 35.182 61.7479 36.1603C61.7479 38.2799 60.4323 42.0118 59.0266 42.0118Z" fill="white"/>
</svg>
