<svg width="114" height="73" viewBox="0 0 114 73" fill="none" xmlns="http://www.w3.org/2000/svg">
<g id="Group 1000001813">
<g id="Clip path group">
<mask id="mask0_1364_1042" style="mask-type:luminance" maskUnits="userSpaceOnUse" x="4" y="3" width="109" height="70">
<g id="02a252e43e">
<path id="Vector" d="M4.52344 4.99707L112.815 3.56157L112.952 71.4485L4.6601 72.884L4.52344 4.99707Z" fill="white"/>
</g>
</mask>
<g mask="url(#mask0_1364_1042)">
<g id="Group">
<path id="Vector_2" d="M100.858 4.12485L16.7306 5.23999C10.139 5.32737 4.787 10.1969 4.79888 16.0962L4.87209 52.4605C4.88287 57.8136 9.30907 62.2047 15.0569 62.9027L15.0667 67.7692C15.0722 70.5139 17.5709 72.7133 20.6363 72.6726C21.5921 72.66 22.5417 72.4211 23.3786 71.9829L34.2512 62.7674L100.974 61.883C107.566 61.7956 112.918 56.9261 112.906 51.0268L112.833 14.6642C112.821 8.76484 107.45 4.03748 100.858 4.12485Z" fill="black"/>
</g>
</g>
</g>
<path id="Vector_3" d="M17.0176 69.434C13.9536 69.4519 11.4472 67.2162 11.431 64.4512L11.4022 59.5456C5.65586 58.7971 1.21236 54.3394 1.18069 48.9415L0.965607 12.285C0.930725 6.33993 6.2616 1.47148 12.8503 1.43282L96.9407 0.939374C103.529 0.900712 108.917 5.70626 108.952 11.6513L109.167 48.3078C109.202 54.2546 103.871 59.123 97.2823 59.1617L30.5885 59.5531L19.7581 68.7609C18.9213 69.1946 17.9749 69.4283 17.0176 69.434Z" fill="#EFEEED"/>
<g id="Clip path group_2">
<mask id="mask1_1364_1042" style="mask-type:luminance" maskUnits="userSpaceOnUse" x="0" y="0" width="110" height="71">
<g id="5a34f4158d">
<path id="Vector_4" d="M0.578125 1.65039L109.8 0.202511L109.938 68.8849L0.716387 70.3328L0.578125 1.65039Z" fill="white"/>
</g>
</mask>
<g mask="url(#mask1_1364_1042)">
<g id="Group_2">
<path id="Vector_5" d="M16.9478 69.7981C13.6101 69.8424 10.8901 67.4501 10.884 64.4637L10.875 59.968C5.0506 59.0735 0.700127 54.4907 0.689381 49.1526L0.616171 12.7867C0.603808 6.64545 6.17629 1.57541 13.0383 1.48445L97.1667 0.369253C104.029 0.27829 109.621 5.20032 109.634 11.3416L109.707 47.7075C109.719 53.8487 104.147 58.9188 97.2847 59.0097L30.7551 59.8916L19.9813 69.0228L19.9318 69.049C19.0188 69.5256 17.9874 69.7843 16.9478 69.7981ZM13.0401 2.3642C6.7188 2.448 1.58725 7.1174 1.59864 12.7737L1.67185 49.1396C1.68198 54.173 5.87957 58.4788 11.4389 59.1539L11.8559 59.2045L11.8665 64.449C11.8715 66.9521 14.149 68.9571 16.9441 68.9201C17.7971 68.9088 18.644 68.7002 19.3953 68.3158L30.3668 59.017L97.283 58.13C103.604 58.0462 108.736 53.3768 108.724 47.7205L108.651 11.3546C108.64 5.69832 103.49 1.16521 97.1685 1.249L13.0401 2.3642Z" fill="black"/>
</g>
</g>
</g>
<path id="Vector_6" d="M100.12 3.56136L13.3504 4.07053C8.49791 4.099 4.58688 7.61211 4.61215 11.9185L4.83042 49.1184C4.85569 53.4248 8.80767 56.8918 13.6602 56.8633L15.3589 56.8533L15.4058 64.8552C15.4146 66.3452 17.2307 67.2693 18.6854 66.5244L30.6745 56.7635L100.43 56.3541C105.283 56.3257 109.194 52.8125 109.169 48.5061L108.95 11.3063C108.925 6.99985 104.973 3.53288 100.12 3.56136Z" fill="#EDBC32"/>
</g>
</svg>
