<svg width="91" height="74" viewBox="0 0 91 74" fill="none" xmlns="http://www.w3.org/2000/svg">
<mask id="mask0_1383_3956" style="mask-type:luminance" maskUnits="userSpaceOnUse" x="4" y="2" width="87" height="72">
<path d="M4.84766 2.625H90.3809V73.6606H4.84766V2.625Z" fill="white"/>
</mask>
<g mask="url(#mask0_1383_3956)">
<mask id="mask1_1383_3956" style="mask-type:luminance" maskUnits="userSpaceOnUse" x="-140" y="-332" width="796" height="477">
<path d="M655.481 -331.495H-139.635V144.701H655.481V-331.495Z" fill="black" fill-opacity="0.3"/>
</mask>
<g mask="url(#mask1_1383_3956)">
<mask id="mask2_1383_3956" style="mask-type:luminance" maskUnits="userSpaceOnUse" x="4" y="2" width="87" height="72">
<path d="M90.433 2.62402H4.84766V73.6616H90.433V2.62402Z" fill="white"/>
</mask>
<g mask="url(#mask2_1383_3956)">
<mask id="mask3_1383_3956" style="mask-type:luminance" maskUnits="userSpaceOnUse" x="5" y="2" width="86" height="72">
<path d="M5.30664 2.7207H90.3798V73.6587H5.30664V2.7207Z" fill="white"/>
</mask>
<g mask="url(#mask3_1383_3956)">
<path d="M87.7764 17.0259V14.1955H85.1162V11.3632H50.5377V8.53084H47.8775V5.69853H45.2174V2.86621H23.9379V5.69853H21.2795V8.53084H18.6193V11.3632H15.9592V25.5228H7.97868V28.3551H5.32031V36.8502H7.97868V45.3471H10.6388V53.8421H13.299V62.3391H15.9592V70.8341H18.6193V73.6664H87.7764V70.8341H90.4366V17.0259H87.7764Z" fill="black"/>
</g>
</g>
</g>
</g>
<mask id="mask4_1383_3956" style="mask-type:luminance" maskUnits="userSpaceOnUse" x="0" y="0" width="86" height="72">
<path d="M0 0H85.3715V71.2136H0V0Z" fill="white"/>
</mask>
<g mask="url(#mask4_1383_3956)">
<path d="M82.4561 14.1967V11.3644H79.7959V8.5321H45.2174V5.69979H42.5572V2.86747H39.8989V0.0351562H18.6193V2.86747H15.9592V5.69979H13.299V8.5321H10.6389V22.6918H2.66016V25.5241H0V34.0191H2.66016V42.5161H5.32033V51.0111H7.97869V59.508H10.6389V68.005H13.299V70.8354H82.4561V68.005H85.1162V14.1967H82.4561Z" fill="#D1D3D4"/>
</g>
<path d="M5.32032 25.5257V28.3581H2.66016V25.5257H5.32032ZM10.6388 25.5257H7.97869V28.3581H10.6388V25.5257ZM15.9592 25.5257H13.299V28.3581H15.9592V25.5257ZM21.2795 25.5257H18.6193V28.3581H21.2795V25.5257ZM26.598 25.5257H23.9379V28.3581H26.598V25.5257ZM31.9184 25.5257H29.2582V28.3581H31.9184V25.5257ZM37.2387 25.5257H34.5785V28.3581H37.2387V25.5257ZM42.5572 25.5257H39.8989V28.3581H42.5572V25.5257ZM47.8775 25.5257H45.2174V28.3581H47.8775V25.5257ZM53.1979 25.5257H50.5377V28.3581H53.1979V25.5257ZM58.5164 25.5257H55.858V28.3581H58.5164V25.5257ZM63.8367 25.5257H61.1766V28.3581H63.8367V25.5257ZM13.299 22.6934H15.9592V19.8611H13.299V22.6934ZM18.6193 22.6934H21.2795V19.8611H18.6193V22.6934ZM23.9379 22.6934H26.598V19.8611H23.9379V22.6934ZM29.2582 22.6934H31.9184V19.8611H29.2582V22.6934ZM34.5785 22.6934H37.2387V19.8611H34.5785V22.6934ZM39.8989 22.6934H42.5572V19.8611H39.8989V22.6934ZM45.2174 22.6934H47.8775V19.8611H45.2174V22.6934ZM50.5377 22.6934H53.1979V19.8611H50.5377V22.6934ZM55.858 22.6934H58.5164V19.8611H55.858V22.6934ZM61.1766 22.6934H63.8367V19.8611H61.1766V22.6934ZM66.4969 19.8611V22.6934H69.1571V19.8611H66.4969ZM71.8172 19.8611V22.6934H74.4756V19.8611H71.8172ZM77.1357 19.8611V22.6934H79.7959V19.8611H77.1357ZM15.9592 17.0288V19.8611H18.6193V17.0288H15.9592ZM21.2795 17.0288V19.8611H23.9379V17.0288H21.2795ZM26.598 17.0288V19.8611H29.2582V17.0288H26.598ZM31.9184 17.0288V19.8611H34.5785V17.0288H31.9184ZM37.2387 17.0288V19.8611H39.8989V17.0288H37.2387ZM42.5572 17.0288V19.8611H45.2174V17.0288H42.5572ZM47.8775 17.0288V19.8611H50.5377V17.0288H47.8775ZM53.1979 17.0288V19.8611H55.858V17.0288H53.1979ZM58.5164 17.0288V19.8611H61.1766V17.0288H58.5164ZM63.8367 17.0288V19.8611H66.4969V17.0288H63.8367ZM69.1571 17.0288V19.8611H71.8172V17.0288H69.1571ZM74.4756 17.0288V19.8611H77.1357V17.0288H74.4756ZM79.7959 17.0288V14.1984H77.1357V17.0288H79.7959ZM82.4561 19.8611V17.0288H79.7959V19.8611H82.4561ZM69.1571 22.6934V25.5257H71.8172V22.6934H69.1571ZM74.4756 25.5257H77.1357V22.6934H74.4756V25.5257ZM74.4756 25.5257H71.8172V28.3581H74.4756V25.5257ZM77.1357 28.3581H79.7959V25.5257H77.1357V28.3581ZM69.1571 28.3581V31.1904H71.8172V28.3581H69.1571ZM74.4756 31.1904H77.1357V28.3581H74.4756V31.1904ZM71.8172 31.1904V34.0208H74.4756V31.1904H71.8172ZM77.1357 34.0208H79.7959V31.1904H77.1357V34.0208ZM71.8172 36.8531V39.6854H74.4756V36.8531H71.8172ZM77.1357 34.0208H74.4756V36.8531H77.1357V34.0208ZM77.1357 39.6854H79.7959V36.8531H77.1357V39.6854ZM82.4561 36.8531V34.0208H79.7959V36.8531H82.4561ZM82.4561 31.1904V28.3581H79.7959V31.1904H82.4561ZM82.4561 25.5257V22.6934H79.7959V25.5257H82.4561ZM74.4756 39.6854V42.5177H77.1357V39.6854H74.4756ZM77.1357 45.35H79.7959V42.5177H77.1357V45.35ZM77.1357 51.0128H79.7959V48.1824H77.1357V51.0128ZM82.4561 42.5177V39.6854H79.7959V42.5177H82.4561ZM74.4756 45.35V48.1824H77.1357V45.35H74.4756ZM82.4561 48.1824V45.35H79.7959V48.1824H82.4561ZM77.1357 56.6774H79.7959V53.8451H77.1357V56.6774ZM82.4561 59.5097V56.6774H79.7959V59.5097H82.4561ZM79.7959 65.1743H82.4561V62.342H79.7959V65.1743ZM82.4561 53.8451V51.0128H79.7959V53.8451H82.4561ZM13.299 14.1984V17.0288H15.9592V14.1984H13.299ZM18.6193 14.1984V17.0288H21.2795V14.1984H18.6193ZM23.9379 14.1984V17.0288H26.598V14.1984H23.9379ZM29.2582 14.1984V17.0288H31.9184V14.1984H29.2582ZM34.5785 14.1984V17.0288H37.2387V14.1984H34.5785ZM39.8989 14.1984V17.0288H42.5572V14.1984H39.8989ZM47.8775 17.0288V14.1984H45.2174V17.0288H47.8775ZM53.1979 17.0288V14.1984H50.5377V17.0288H53.1979ZM58.5164 17.0288V14.1984H55.858V17.0288H58.5164ZM63.8367 17.0288V14.1984H61.1766V17.0288H63.8367ZM69.1571 17.0288V14.1984H66.4969V17.0288H69.1571ZM74.4756 17.0288V14.1984H71.8172V17.0288H74.4756ZM18.6193 11.3661H15.9592V14.1984H18.6193V11.3661ZM18.6193 5.70146H15.9592V8.53377H18.6193V5.70146ZM21.2795 11.3661V14.1984H23.9379V11.3661H21.2795ZM26.598 11.3661V14.1984H29.2582V11.3661H26.598ZM31.9184 11.3661V14.1984H34.5785V11.3661H31.9184ZM39.8989 14.1984V11.3661H37.2387V14.1984H39.8989ZM21.2795 8.53377H18.6193V11.3661H21.2795V8.53377ZM13.299 8.53377V11.3661H15.9592V8.53377H13.299ZM26.598 11.3661V8.53377H23.9379V11.3661H26.598ZM31.9184 11.3661V8.53377H29.2582V11.3661H31.9184ZM37.2387 11.3661V8.53377H34.5785V11.3661H37.2387ZM23.9379 8.53377V5.70146H21.2795V8.53377H23.9379ZM29.2582 8.53377V5.70146H26.598V8.53377H29.2582ZM34.5785 8.53377V5.70146H31.9184V8.53377H34.5785ZM21.2795 2.86914H18.6193V5.70146H21.2795V2.86914ZM26.598 2.86914H23.9379V5.70146H26.598V2.86914ZM31.9184 2.86914H29.2582V5.70146H31.9184V2.86914ZM39.8989 8.53377V5.70146H37.2387V8.53377H39.8989ZM42.5572 11.3661V8.53377H39.8989V11.3661H42.5572ZM37.2387 2.86914H34.5785V5.70146H37.2387V2.86914ZM45.2174 14.1984V11.3661H42.5572V14.1984H45.2174ZM50.5377 11.3661H47.8775V14.1984H50.5377V11.3661ZM55.858 11.3661H53.1979V14.1984H55.858V11.3661ZM61.1766 11.3661H58.5164V14.1984H61.1766V11.3661ZM66.4969 11.3661H63.8367V14.1984H66.4969V11.3661ZM71.8172 11.3661H69.1571V14.1984H71.8172V11.3661ZM77.1357 11.3661H74.4756V14.1984H77.1357V11.3661ZM66.4969 31.1904V28.3581H63.8367V31.1904H66.4969ZM61.1766 31.1904V28.3581H58.5164V31.1904H61.1766ZM55.858 31.1904V28.3581H53.1979V31.1904H55.858ZM50.5377 31.1904V28.3581H47.8775V31.1904H50.5377ZM45.2174 31.1904V28.3581H42.5572V31.1904H45.2174ZM39.8989 31.1904V28.3581H37.2387V31.1904H39.8989ZM34.5785 31.1904V28.3581H31.9184V31.1904H34.5785ZM29.2582 31.1904V28.3581H26.598V31.1904H29.2582ZM23.9379 31.1904V28.3581H21.2795V31.1904H23.9379ZM18.6193 31.1904V28.3581H15.9592V31.1904H18.6193ZM13.299 31.1904V28.3581H10.6388V31.1904H13.299ZM7.97869 28.3581H5.32032V31.1904H7.97869V28.3581ZM2.66016 31.1904V34.0208H5.32032V31.1904H2.66016ZM7.97869 31.1904V34.0208H10.6388V31.1904H7.97869ZM15.9592 34.0208V31.1904H13.299V34.0208H15.9592ZM21.2795 34.0208V31.1904H18.6193V34.0208H21.2795ZM26.598 34.0208V31.1904H23.9379V34.0208H26.598ZM31.9184 34.0208V31.1904H29.2582V34.0208H31.9184ZM37.2387 34.0208V31.1904H34.5785V34.0208H37.2387ZM42.5572 34.0208V31.1904H39.8989V34.0208H42.5572ZM47.8775 34.0208V31.1904H45.2174V34.0208H47.8775ZM53.1979 34.0208V31.1904H50.5377V34.0208H53.1979ZM58.5164 34.0208V31.1904H55.858V34.0208H58.5164ZM61.1766 34.0208H63.8367V31.1904H61.1766V34.0208ZM5.32032 34.0208V36.8531H7.97869V34.0208H5.32032ZM13.299 34.0208H10.6388V36.8531H13.299V34.0208ZM18.6193 36.8531V34.0208H15.9592V36.8531H18.6193ZM23.9379 36.8531V34.0208H21.2795V36.8531H23.9379ZM29.2582 36.8531V34.0208H26.598V36.8531H29.2582ZM34.5785 36.8531V34.0208H31.9184V36.8531H34.5785ZM39.8989 36.8531V34.0208H37.2387V36.8531H39.8989ZM45.2174 36.8531V34.0208H42.5572V36.8531H45.2174ZM50.5377 36.8531V34.0208H47.8775V36.8531H50.5377ZM55.858 36.8531V34.0208H53.1979V36.8531H55.858ZM58.5164 36.8531H61.1766V34.0208H58.5164V36.8531ZM66.4969 36.8531V34.0208H63.8367V36.8531H66.4969ZM10.6388 36.8531H7.97869V39.6854H10.6388V36.8531ZM15.9592 36.8531H13.299V39.6854H15.9592V36.8531ZM21.2795 39.6854V36.8531H18.6193V39.6854H21.2795ZM26.598 39.6854V36.8531H23.9379V39.6854H26.598ZM31.9184 39.6854V36.8531H29.2582V39.6854H31.9184ZM37.2387 39.6854V36.8531H34.5785V39.6854H37.2387ZM42.5572 39.6854V36.8531H39.8989V39.6854H42.5572ZM47.8775 39.6854V36.8531H45.2174V39.6854H47.8775ZM53.1979 39.6854V36.8531H50.5377V39.6854H53.1979ZM55.858 39.6854H58.5164V36.8531H55.858V39.6854ZM63.8367 39.6854V36.8531H61.1766V39.6854H63.8367ZM69.1571 39.6854V36.8531H66.4969V39.6854H69.1571ZM5.32032 39.6854V42.5177H7.97869V39.6854H5.32032ZM13.299 39.6854H10.6388V42.5177H13.299V39.6854ZM15.9592 39.6854V42.5177H18.6193V39.6854H15.9592ZM21.2795 39.6854V42.5177H23.9379V39.6854H21.2795ZM29.2582 42.5177V39.6854H26.598V42.5177H29.2582ZM34.5785 42.5177V39.6854H31.9184V42.5177H34.5785ZM39.8989 42.5177V39.6854H37.2387V42.5177H39.8989ZM45.2174 42.5177V39.6854H42.5572V42.5177H45.2174ZM50.5377 42.5177V39.6854H47.8775V42.5177H50.5377ZM53.1979 42.5177H55.858V39.6854H53.1979V42.5177ZM61.1766 42.5177V39.6854H58.5164V42.5177H61.1766ZM63.8367 42.5177H66.4969V39.6854H63.8367V42.5177ZM10.6388 42.5177H7.97869V45.35H10.6388V42.5177ZM13.299 42.5177V45.35H15.9592V42.5177H13.299ZM18.6193 42.5177V45.35H21.2795V42.5177H18.6193ZM26.598 42.5177H23.9379V45.35H26.598V42.5177ZM31.9184 45.35V42.5177H29.2582V45.35H31.9184ZM37.2387 45.35V42.5177H34.5785V45.35H37.2387ZM42.5572 45.35V42.5177H39.8989V45.35H42.5572ZM47.8775 45.35V42.5177H45.2174V45.35H47.8775ZM50.5377 45.35H53.1979V42.5177H50.5377V45.35ZM58.5164 45.35V42.5177H55.858V45.35H58.5164ZM61.1766 45.35H63.8367V42.5177H61.1766V45.35ZM69.1571 45.35V42.5177H66.4969V45.35H69.1571ZM5.32032 45.35V48.1824H7.97869V45.35H5.32032ZM10.6388 45.35V48.1824H13.299V45.35H10.6388ZM15.9592 45.35V48.1824H18.6193V45.35H15.9592ZM23.9379 45.35H21.2795V48.1824H23.9379V45.35ZM29.2582 45.35H26.598V48.1824H29.2582V45.35ZM31.9184 45.35V48.1824H34.5785V45.35H31.9184ZM37.2387 45.35V48.1824H39.8989V45.35H37.2387ZM42.5572 45.35V48.1824H45.2174V45.35H42.5572ZM47.8775 48.1824H50.5377V45.35H47.8775V48.1824ZM55.858 48.1824V45.35H53.1979V48.1824H55.858ZM58.5164 48.1824H61.1766V45.35H58.5164V48.1824ZM66.4969 48.1824V45.35H63.8367V48.1824H66.4969ZM71.8172 48.1824V45.35H69.1571V48.1824H71.8172ZM7.97869 48.1824V51.0128H10.6388V48.1824H7.97869ZM13.299 48.1824V51.0128H15.9592V48.1824H13.299ZM21.2795 48.1824H18.6193V51.0128H21.2795V48.1824ZM26.598 48.1824H23.9379V51.0128H26.598V48.1824ZM29.2582 48.1824V51.0128H31.9184V48.1824H29.2582ZM34.5785 48.1824V51.0128H37.2387V48.1824H34.5785ZM39.8989 48.1824V51.0128H42.5572V48.1824H39.8989ZM45.2174 48.1824V51.0128H47.8775V48.1824H45.2174ZM50.5377 48.1824V51.0128H53.1979V48.1824H50.5377ZM55.858 51.0128H58.5164V48.1824H55.858V51.0128ZM63.8367 51.0128V48.1824H61.1766V51.0128H63.8367ZM66.4969 51.0128H69.1571V48.1824H66.4969V51.0128ZM10.6388 51.0128V53.8451H13.299V51.0128H10.6388ZM18.6193 51.0128H15.9592V53.8451H18.6193V51.0128ZM23.9379 51.0128H21.2795V53.8451H23.9379V51.0128ZM26.598 51.0128V53.8451H29.2582V51.0128H26.598ZM31.9184 51.0128V53.8451H34.5785V51.0128H31.9184ZM37.2387 51.0128V53.8451H39.8989V51.0128H37.2387ZM42.5572 51.0128V53.8451H45.2174V51.0128H42.5572ZM47.8775 51.0128V53.8451H50.5377V51.0128H47.8775ZM53.1979 51.0128V53.8451H55.858V51.0128H53.1979ZM61.1766 53.8451V51.0128H58.5164V53.8451H61.1766ZM63.8367 53.8451H66.4969V51.0128H63.8367V53.8451ZM71.8172 53.8451V51.0128H69.1571V53.8451H71.8172ZM15.9592 53.8451H13.299V56.6774H15.9592V53.8451ZM21.2795 53.8451H18.6193V56.6774H21.2795V53.8451ZM23.9379 53.8451V56.6774H26.598V53.8451H23.9379ZM29.2582 53.8451V56.6774H31.9184V53.8451H29.2582ZM34.5785 53.8451V56.6774H37.2387V53.8451H34.5785ZM39.8989 53.8451V56.6774H42.5572V53.8451H39.8989ZM45.2174 53.8451V56.6774H47.8775V53.8451H45.2174ZM50.5377 53.8451V56.6774H53.1979V53.8451H50.5377ZM55.858 53.8451V56.6774H58.5164V53.8451H55.858ZM61.1766 56.6774H63.8367V53.8451H61.1766V56.6774ZM69.1571 56.6774V53.8451H66.4969V56.6774H69.1571ZM74.4756 56.6774V53.8451H71.8172V56.6774H74.4756ZM10.6388 56.6774V59.5097H13.299V56.6774H10.6388ZM18.6193 56.6774H15.9592V59.5097H18.6193V56.6774ZM21.2795 56.6774V59.5097H23.9379V56.6774H21.2795ZM26.598 56.6774V59.5097H29.2582V56.6774H26.598ZM31.9184 56.6774V59.5097H34.5785V56.6774H31.9184ZM37.2387 56.6774V59.5097H39.8989V56.6774H37.2387ZM42.5572 56.6774V59.5097H45.2174V56.6774H42.5572ZM47.8775 56.6774V59.5097H50.5377V56.6774H47.8775ZM53.1979 56.6774V59.5097H55.858V56.6774H53.1979ZM58.5164 56.6774V59.5097H61.1766V56.6774H58.5164ZM63.8367 56.6774V59.5097H66.4969V56.6774H63.8367ZM69.1571 59.5097H71.8172V56.6774H69.1571V59.5097ZM15.9592 59.5097H13.299V62.342H15.9592V59.5097ZM18.6193 59.5097V62.342H21.2795V59.5097H18.6193ZM23.9379 59.5097V62.342H26.598V59.5097H23.9379ZM29.2582 59.5097V62.342H31.9184V59.5097H29.2582ZM34.5785 59.5097V62.342H37.2387V59.5097H34.5785ZM39.8989 59.5097V62.342H42.5572V59.5097H39.8989ZM45.2174 59.5097V62.342H47.8775V59.5097H45.2174ZM50.5377 59.5097V62.342H53.1979V59.5097H50.5377ZM55.858 59.5097V62.342H58.5164V59.5097H55.858ZM61.1766 59.5097V62.342H63.8367V59.5097H61.1766ZM66.4969 59.5097V62.342H69.1571V59.5097H66.4969ZM74.4756 62.342V59.5097H71.8172V62.342H74.4756ZM10.6388 62.342V65.1743H13.299V62.342H10.6388ZM15.9592 62.342V65.1743H18.6193V62.342H15.9592ZM21.2795 62.342V65.1743H23.9379V62.342H21.2795ZM26.598 62.342V65.1743H29.2582V62.342H26.598ZM31.9184 62.342V65.1743H34.5785V62.342H31.9184ZM37.2387 62.342V65.1743H39.8989V62.342H37.2387ZM42.5572 62.342V65.1743H45.2174V62.342H42.5572ZM47.8775 62.342V65.1743H50.5377V62.342H47.8775ZM53.1979 62.342V65.1743H55.858V62.342H53.1979ZM58.5164 62.342V65.1743H61.1766V62.342H58.5164ZM63.8367 62.342V65.1743H66.4969V62.342H63.8367ZM69.1571 62.342V65.1743H71.8172V62.342H69.1571ZM74.4756 65.1743H77.1357V62.342H74.4756V65.1743ZM13.299 68.0067H15.9592V65.1743H13.299V68.0067ZM18.6193 68.0067H21.2795V65.1743H18.6193V68.0067ZM23.9379 68.0067H26.598V65.1743H23.9379V68.0067ZM29.2582 68.0067H31.9184V65.1743H29.2582V68.0067ZM34.5785 68.0067H37.2387V65.1743H34.5785V68.0067ZM39.8989 68.0067H42.5572V65.1743H39.8989V68.0067ZM45.2174 68.0067H47.8775V65.1743H45.2174V68.0067ZM50.5377 68.0067H53.1979V65.1743H50.5377V68.0067ZM55.858 68.0067H58.5164V65.1743H55.858V68.0067ZM61.1766 68.0067H63.8367V65.1743H61.1766V68.0067ZM66.4969 68.0067H69.1571V65.1743H66.4969V68.0067ZM71.8172 68.0067H74.4756V65.1743H71.8172V68.0067Z" fill="#FFD60A"/>
<mask id="mask5_1383_3956" style="mask-type:luminance" maskUnits="userSpaceOnUse" x="0" y="0" width="86" height="72">
<path d="M0 0H85.3715V71.2136H0V0Z" fill="white"/>
</mask>
<g mask="url(#mask5_1383_3956)">
<path d="M21.2795 2.86747H18.6193V0.0351562H39.8989V2.86747H21.2795ZM18.6193 2.86747H15.9592V5.69979H18.6193V2.86747ZM42.5572 5.69979V2.86747H39.8989V5.69979H42.5572ZM15.9592 5.69979H13.299V8.5321H15.9592V5.69979ZM45.2174 8.5321V5.69979H42.5572V8.5321H45.2174ZM47.8776 11.3644H79.7959V8.5321H45.2174V11.3644H47.8776ZM82.4561 14.1967V11.3644H79.7959V14.1967H82.4561ZM82.4561 14.1967V65.1727H79.7959V59.508H77.1358V68.005H13.299V70.8354H82.4561V68.005H85.1162V14.1967H82.4561ZM7.97869 25.5241H66.4969V22.6918H13.299V8.5321H10.6389V22.6918H2.66016V25.5241H7.97869ZM2.66016 28.3564V25.5241H0V34.0191H2.66016V28.3564ZM69.1571 28.3564V25.5241H66.4969V34.0191H69.1571V28.3564ZM5.32033 36.8514V34.0191H2.66016V42.5161H5.32033V36.8514ZM71.8172 36.8514V34.0191H69.1571V42.5161H71.8172V36.8514ZM7.97869 45.3484V42.5161H5.32033V51.0111H7.97869V45.3484ZM74.4756 45.3484V42.5161H71.8172V51.0111H74.4756V45.3484ZM10.6389 53.8434V51.0111H7.97869V59.508H10.6389V53.8434ZM77.1358 53.8434V51.0111H74.4756V59.508H77.1358V53.8434ZM13.299 62.3404V59.508H10.6389V68.005H13.299V62.3404Z" fill="black"/>
</g>
<mask id="mask6_1383_3956" style="mask-type:luminance" maskUnits="userSpaceOnUse" x="2" y="19" width="82" height="50">
<path d="M83.0739 19.2822H2.08984V68.2736H83.0739V19.2822Z" fill="white"/>
</mask>
<g mask="url(#mask6_1383_3956)">
<mask id="mask7_1383_3956" style="mask-type:luminance" maskUnits="userSpaceOnUse" x="2" y="19" width="81" height="50">
<path d="M2.55078 19.7734H82.6145V68.0989H2.55078V19.7734Z" fill="white"/>
</mask>
<g mask="url(#mask7_1383_3956)">
<path d="M69.161 22.6927V25.525H66.5008V22.6927H69.161ZM71.8211 28.3573V25.525H69.161V34.02H71.8211V28.3573ZM74.4795 36.8523V34.02H71.8211V42.517H74.4795V36.8523ZM77.1397 45.3493V42.517H74.4795V51.012H77.1397V45.3493ZM79.7998 53.8443V51.012H77.1397V59.5089H79.7998V53.8443ZM79.7998 59.5089V65.1736H82.46V59.5089H79.7998ZM13.3029 19.8604V22.6927H66.5008V19.8604H13.3029ZM2.66406 25.525V34.02H5.32423V25.525H2.66406ZM5.32423 34.02V42.517H7.98259V34.02H5.32423ZM7.98259 42.517V51.012H10.6428V42.517H7.98259ZM10.6428 51.012V59.5089H13.3029V51.012H10.6428ZM15.9631 59.5089H13.3029V68.0059H74.4795V65.1736H15.9631V59.5089Z" fill="black"/>
</g>
</g>
<mask id="mask8_1383_3956" style="mask-type:luminance" maskUnits="userSpaceOnUse" x="4" y="2" width="80" height="67">
<path d="M83.0708 2.62793H4.84766V68.2764H83.0708V2.62793Z" fill="white"/>
</mask>
<g mask="url(#mask8_1383_3956)">
<mask id="mask9_1383_3956" style="mask-type:luminance" maskUnits="userSpaceOnUse" x="5" y="2" width="78" height="67">
<path d="M5.30664 2.72559H82.6096V68.1004H5.30664V2.72559Z" fill="white"/>
</mask>
<g mask="url(#mask9_1383_3956)">
<path d="M66.4969 28.359V34.0218H63.8367V28.359H5.32031V25.5267H66.4969V28.359ZM45.2174 11.3671V14.1994H79.7959V11.3671H45.2174ZM66.4969 34.0218V42.5187H69.1571V34.0218H66.4969ZM69.1571 42.5187V51.0137H71.8172V42.5187H69.1571ZM71.8172 51.0137V59.5107H74.4756V51.0137H71.8172ZM74.4756 68.0076H77.1357V59.5107H74.4756V68.0076ZM79.7959 14.1994V65.1753H82.4561V14.1994H79.7959ZM18.6193 2.87012V5.70243H39.8988V2.87012H18.6193ZM39.8988 5.70243V8.53475H42.5572V5.70243H39.8988ZM15.9592 8.53475H18.6193V5.70243H15.9592V8.53475ZM42.5572 8.53475V11.3671H45.2174V8.53475H42.5572ZM13.299 19.8621H15.9592V8.53475H13.299V19.8621Z" fill="white"/>
</g>
</g>
</svg>
