<svg width="91" height="74" viewBox="0 0 91 74" fill="none" xmlns="http://www.w3.org/2000/svg">
<mask id="mask0_1383_3957" style="mask-type:luminance" maskUnits="userSpaceOnUse" x="5" y="2" width="86" height="72">
<path d="M5.20703 2.55664H90.6984V73.4995H5.20703V2.55664Z" fill="white"/>
</mask>
<g mask="url(#mask0_1383_3957)">
<mask id="mask1_1383_3957" style="mask-type:luminance" maskUnits="userSpaceOnUse" x="-341" y="-313" width="799" height="476">
<path d="M457.72 -312.747H-340.176V162.405H457.72V-312.747Z" fill="black" fill-opacity="0.3"/>
</mask>
<g mask="url(#mask1_1383_3957)">
<mask id="mask2_1383_3957" style="mask-type:luminance" maskUnits="userSpaceOnUse" x="5" y="2" width="87" height="72">
<path d="M91.0936 2.55273H5.20898V73.9234H91.0936V2.55273Z" fill="white"/>
</mask>
<g mask="url(#mask2_1383_3957)">
<mask id="mask3_1383_3957" style="mask-type:luminance" maskUnits="userSpaceOnUse" x="5" y="2" width="86" height="72">
<path d="M5.24023 2.66992H90.6955V73.4963H5.24023V2.66992Z" fill="white"/>
</mask>
<g mask="url(#mask3_1383_3957)">
<path d="M88.0822 16.987V14.1609H85.4128V11.3348H50.7134V8.5087H48.0439V5.68259H45.3744V2.8584H24.0223V5.68259H21.3529V8.5087H18.6834V11.3348H16.0139V25.4634H8.00555V28.2895H5.33789V36.7678H8.00555V45.2443H10.675V53.7226H13.3445V62.199H16.0139V70.6773H18.6834V73.5034H88.0822V70.6773H90.7517V16.987H88.0822Z" fill="black"/>
</g>
</g>
</g>
</g>
<mask id="mask4_1383_3957" style="mask-type:luminance" maskUnits="userSpaceOnUse" x="0" y="0" width="86" height="71">
<path d="M0 0H85.5491V70.9944H0V0Z" fill="white"/>
</mask>
<g mask="url(#mask4_1383_3957)">
<path d="M82.7443 14.1638V11.3377H80.0749V8.51156H45.3755V5.68546H42.706V2.86126H40.0383V0.0351562H18.6844V2.86126H16.015V5.68546H13.3455V8.51156H10.6761V22.6402H2.66946V25.4663H0V33.9446H2.66946V42.421H5.33893V50.8993H8.00659V59.3757H10.6761V67.854H13.3455V70.6802H82.7443V67.854H85.4138V14.1638H82.7443Z" fill="#D1D3D4"/>
</g>
<path d="M5.33743 25.4673V28.2934H2.66797V25.4673H5.33743ZM10.6746 25.4673H8.00509V28.2934H10.6746V25.4673ZM16.0135 25.4673H13.344V28.2934H16.0135V25.4673ZM21.3524 25.4673H18.6829V28.2934H21.3524V25.4673ZM26.6895 25.4673H24.0219V28.2934H26.6895V25.4673ZM32.0285 25.4673H29.359V28.2934H32.0285V25.4673ZM37.3674 25.4673H34.6979V28.2934H37.3674V25.4673ZM42.7045 25.4673H40.0368V28.2934H42.7045V25.4673ZM48.0434 25.4673H45.374V28.2934H48.0434V25.4673ZM53.3824 25.4673H50.7129V28.2934H53.3824V25.4673ZM58.7195 25.4673H56.0518V28.2934H58.7195V25.4673ZM64.0584 25.4673H61.389V28.2934H64.0584V25.4673ZM13.344 22.6412H16.0135V19.817H13.344V22.6412ZM18.6829 22.6412H21.3524V19.817H18.6829V22.6412ZM24.0219 22.6412H26.6895V19.817H24.0219V22.6412ZM29.359 22.6412H32.0285V19.817H29.359V22.6412ZM34.6979 22.6412H37.3674V19.817H34.6979V22.6412ZM40.0368 22.6412H42.7045V19.817H40.0368V22.6412ZM45.374 22.6412H48.0434V19.817H45.374V22.6412ZM50.7129 22.6412H53.3824V19.817H50.7129V22.6412ZM56.0518 22.6412H58.7195V19.817H56.0518V22.6412ZM61.389 22.6412H64.0584V19.817H61.389V22.6412ZM66.7279 19.817V22.6412H69.3973V19.817H66.7279ZM72.0668 19.817V22.6412H74.7363V19.817H72.0668ZM77.4039 19.817V22.6412H80.0734V19.817H77.4039ZM16.0135 16.9909V19.817H18.6829V16.9909H16.0135ZM21.3524 16.9909V19.817H24.0219V16.9909H21.3524ZM26.6895 16.9909V19.817H29.359V16.9909H26.6895ZM32.0285 16.9909V19.817H34.6979V16.9909H32.0285ZM37.3674 16.9909V19.817H40.0368V16.9909H37.3674ZM42.7045 16.9909V19.817H45.374V16.9909H42.7045ZM48.0434 16.9909V19.817H50.7129V16.9909H48.0434ZM53.3824 16.9909V19.817H56.0518V16.9909H53.3824ZM58.7195 16.9909V19.817H61.389V16.9909H58.7195ZM64.0584 16.9909V19.817H66.7279V16.9909H64.0584ZM69.3973 16.9909V19.817H72.0668V16.9909H69.3973ZM74.7363 16.9909V19.817H77.4039V16.9909H74.7363ZM80.0734 16.9909V14.1648H77.4039V16.9909H80.0734ZM82.7429 19.817V16.9909H80.0734V19.817H82.7429ZM69.3973 22.6412V25.4673H72.0668V22.6412H69.3973ZM74.7363 25.4673H77.4039V22.6412H74.7363V25.4673ZM74.7363 25.4673H72.0668V28.2934H74.7363V25.4673ZM77.4039 28.2934H80.0734V25.4673H77.4039V28.2934ZM69.3973 28.2934V31.1195H72.0668V28.2934H69.3973ZM74.7363 31.1195H77.4039V28.2934H74.7363V31.1195ZM72.0668 31.1195V33.9457H74.7363V31.1195H72.0668ZM77.4039 33.9457H80.0734V31.1195H77.4039V33.9457ZM72.0668 36.7718V39.5979H74.7363V36.7718H72.0668ZM77.4039 33.9457H74.7363V36.7718H77.4039V33.9457ZM77.4039 39.5979H80.0734V36.7718H77.4039V39.5979ZM82.7429 36.7718V33.9457H80.0734V36.7718H82.7429ZM82.7429 31.1195V28.2934H80.0734V31.1195H82.7429ZM82.7429 25.4673V22.6412H80.0734V25.4673H82.7429ZM74.7363 39.5979V42.4221H77.4039V39.5979H74.7363ZM77.4039 45.2482H80.0734V42.4221H77.4039V45.2482ZM77.4039 50.9004H80.0734V48.0743H77.4039V50.9004ZM82.7429 42.4221V39.5979H80.0734V42.4221H82.7429ZM74.7363 45.2482V48.0743H77.4039V45.2482H74.7363ZM82.7429 48.0743V45.2482H80.0734V48.0743H82.7429ZM77.4039 56.5526H80.0734V53.7265H77.4039V56.5526ZM82.7429 59.3768V56.5526H80.0734V59.3768H82.7429ZM80.0734 65.029H82.7429V62.2029H80.0734V65.029ZM82.7429 53.7265V50.9004H80.0734V53.7265H82.7429ZM13.344 14.1648V16.9909H16.0135V14.1648H13.344ZM18.6829 14.1648V16.9909H21.3524V14.1648H18.6829ZM24.0219 14.1648V16.9909H26.6895V14.1648H24.0219ZM29.359 14.1648V16.9909H32.0285V14.1648H29.359ZM34.6979 14.1648V16.9909H37.3674V14.1648H34.6979ZM40.0368 14.1648V16.9909H42.7045V14.1648H40.0368ZM48.0434 16.9909V14.1648H45.374V16.9909H48.0434ZM53.3824 16.9909V14.1648H50.7129V16.9909H53.3824ZM58.7195 16.9909V14.1648H56.0518V16.9909H58.7195ZM64.0584 16.9909V14.1648H61.389V16.9909H64.0584ZM69.3973 16.9909V14.1648H66.7279V16.9909H69.3973ZM74.7363 16.9909V14.1648H72.0668V16.9909H74.7363ZM18.6829 11.3387H16.0135V14.1648H18.6829V11.3387ZM18.6829 5.6865H16.0135V8.51261H18.6829V5.6865ZM21.3524 11.3387V14.1648H24.0219V11.3387H21.3524ZM26.6895 11.3387V14.1648H29.359V11.3387H26.6895ZM32.0285 11.3387V14.1648H34.6979V11.3387H32.0285ZM40.0368 14.1648V11.3387H37.3674V14.1648H40.0368ZM21.3524 8.51261H18.6829V11.3387H21.3524V8.51261ZM13.344 8.51261V11.3387H16.0135V8.51261H13.344ZM26.6895 11.3387V8.51261H24.0219V11.3387H26.6895ZM32.0285 11.3387V8.51261H29.359V11.3387H32.0285ZM37.3674 11.3387V8.51261H34.6979V11.3387H37.3674ZM24.0219 8.51261V5.6865H21.3524V8.51261H24.0219ZM29.359 8.51261V5.6865H26.6895V8.51261H29.359ZM34.6979 8.51261V5.6865H32.0285V8.51261H34.6979ZM21.3524 2.8623H18.6829V5.6865H21.3524V2.8623ZM26.6895 2.8623H24.0219V5.6865H26.6895V2.8623ZM32.0285 2.8623H29.359V5.6865H32.0285V2.8623ZM40.0368 8.51261V5.6865H37.3674V8.51261H40.0368ZM42.7045 11.3387V8.51261H40.0368V11.3387H42.7045ZM37.3674 2.8623H34.6979V5.6865H37.3674V2.8623ZM45.374 14.1648V11.3387H42.7045V14.1648H45.374ZM50.7129 11.3387H48.0434V14.1648H50.7129V11.3387ZM56.0518 11.3387H53.3824V14.1648H56.0518V11.3387ZM61.389 11.3387H58.7195V14.1648H61.389V11.3387ZM66.7279 11.3387H64.0584V14.1648H66.7279V11.3387ZM72.0668 11.3387H69.3973V14.1648H72.0668V11.3387ZM77.4039 11.3387H74.7363V14.1648H77.4039V11.3387ZM66.7279 31.1195V28.2934H64.0584V31.1195H66.7279ZM61.389 31.1195V28.2934H58.7195V31.1195H61.389ZM56.0518 31.1195V28.2934H53.3824V31.1195H56.0518ZM50.7129 31.1195V28.2934H48.0434V31.1195H50.7129ZM45.374 31.1195V28.2934H42.7045V31.1195H45.374ZM40.0368 31.1195V28.2934H37.3674V31.1195H40.0368ZM34.6979 31.1195V28.2934H32.0285V31.1195H34.6979ZM29.359 31.1195V28.2934H26.6895V31.1195H29.359ZM24.0219 31.1195V28.2934H21.3524V31.1195H24.0219ZM18.6829 31.1195V28.2934H16.0135V31.1195H18.6829ZM13.344 31.1195V28.2934H10.6746V31.1195H13.344ZM8.00509 28.2934H5.33743V31.1195H8.00509V28.2934ZM2.66797 31.1195V33.9457H5.33743V31.1195H2.66797ZM8.00509 31.1195V33.9457H10.6746V31.1195H8.00509ZM16.0135 33.9457V31.1195H13.344V33.9457H16.0135ZM21.3524 33.9457V31.1195H18.6829V33.9457H21.3524ZM26.6895 33.9457V31.1195H24.0219V33.9457H26.6895ZM32.0285 33.9457V31.1195H29.359V33.9457H32.0285ZM37.3674 33.9457V31.1195H34.6979V33.9457H37.3674ZM42.7045 33.9457V31.1195H40.0368V33.9457H42.7045ZM48.0434 33.9457V31.1195H45.374V33.9457H48.0434ZM53.3824 33.9457V31.1195H50.7129V33.9457H53.3824ZM58.7195 33.9457V31.1195H56.0518V33.9457H58.7195ZM61.389 33.9457H64.0584V31.1195H61.389V33.9457ZM5.33743 33.9457V36.7718H8.00509V33.9457H5.33743ZM13.344 33.9457H10.6746V36.7718H13.344V33.9457ZM18.6829 36.7718V33.9457H16.0135V36.7718H18.6829ZM24.0219 36.7718V33.9457H21.3524V36.7718H24.0219ZM29.359 36.7718V33.9457H26.6895V36.7718H29.359ZM34.6979 36.7718V33.9457H32.0285V36.7718H34.6979ZM40.0368 36.7718V33.9457H37.3674V36.7718H40.0368ZM45.374 36.7718V33.9457H42.7045V36.7718H45.374ZM50.7129 36.7718V33.9457H48.0434V36.7718H50.7129ZM56.0518 36.7718V33.9457H53.3824V36.7718H56.0518ZM58.7195 36.7718H61.389V33.9457H58.7195V36.7718ZM66.7279 36.7718V33.9457H64.0584V36.7718H66.7279ZM10.6746 36.7718H8.00509V39.5979H10.6746V36.7718ZM16.0135 36.7718H13.344V39.5979H16.0135V36.7718ZM21.3524 39.5979V36.7718H18.6829V39.5979H21.3524ZM26.6895 39.5979V36.7718H24.0219V39.5979H26.6895ZM32.0285 39.5979V36.7718H29.359V39.5979H32.0285ZM37.3674 39.5979V36.7718H34.6979V39.5979H37.3674ZM42.7045 39.5979V36.7718H40.0368V39.5979H42.7045ZM48.0434 39.5979V36.7718H45.374V39.5979H48.0434ZM53.3824 39.5979V36.7718H50.7129V39.5979H53.3824ZM56.0518 39.5979H58.7195V36.7718H56.0518V39.5979ZM64.0584 39.5979V36.7718H61.389V39.5979H64.0584ZM69.3973 39.5979V36.7718H66.7279V39.5979H69.3973ZM5.33743 39.5979V42.4221H8.00509V39.5979H5.33743ZM13.344 39.5979H10.6746V42.4221H13.344V39.5979ZM16.0135 39.5979V42.4221H18.6829V39.5979H16.0135ZM21.3524 39.5979V42.4221H24.0219V39.5979H21.3524ZM29.359 42.4221V39.5979H26.6895V42.4221H29.359ZM34.6979 42.4221V39.5979H32.0285V42.4221H34.6979ZM40.0368 42.4221V39.5979H37.3674V42.4221H40.0368ZM45.374 42.4221V39.5979H42.7045V42.4221H45.374ZM50.7129 42.4221V39.5979H48.0434V42.4221H50.7129ZM53.3824 42.4221H56.0518V39.5979H53.3824V42.4221ZM61.389 42.4221V39.5979H58.7195V42.4221H61.389ZM64.0584 42.4221H66.7279V39.5979H64.0584V42.4221ZM10.6746 42.4221H8.00509V45.2482H10.6746V42.4221ZM13.344 42.4221V45.2482H16.0135V42.4221H13.344ZM18.6829 42.4221V45.2482H21.3524V42.4221H18.6829ZM26.6895 42.4221H24.0219V45.2482H26.6895V42.4221ZM32.0285 45.2482V42.4221H29.359V45.2482H32.0285ZM37.3674 45.2482V42.4221H34.6979V45.2482H37.3674ZM42.7045 45.2482V42.4221H40.0368V45.2482H42.7045ZM48.0434 45.2482V42.4221H45.374V45.2482H48.0434ZM50.7129 45.2482H53.3824V42.4221H50.7129V45.2482ZM58.7195 45.2482V42.4221H56.0518V45.2482H58.7195ZM61.389 45.2482H64.0584V42.4221H61.389V45.2482ZM69.3973 45.2482V42.4221H66.7279V45.2482H69.3973ZM5.33743 45.2482V48.0743H8.00509V45.2482H5.33743ZM10.6746 45.2482V48.0743H13.344V45.2482H10.6746ZM16.0135 45.2482V48.0743H18.6829V45.2482H16.0135ZM24.0219 45.2482H21.3524V48.0743H24.0219V45.2482ZM29.359 45.2482H26.6895V48.0743H29.359V45.2482ZM32.0285 45.2482V48.0743H34.6979V45.2482H32.0285ZM37.3674 45.2482V48.0743H40.0368V45.2482H37.3674ZM42.7045 45.2482V48.0743H45.374V45.2482H42.7045ZM48.0434 48.0743H50.7129V45.2482H48.0434V48.0743ZM56.0518 48.0743V45.2482H53.3824V48.0743H56.0518ZM58.7195 48.0743H61.389V45.2482H58.7195V48.0743ZM66.7279 48.0743V45.2482H64.0584V48.0743H66.7279ZM72.0668 48.0743V45.2482H69.3973V48.0743H72.0668ZM8.00509 48.0743V50.9004H10.6746V48.0743H8.00509ZM13.344 48.0743V50.9004H16.0135V48.0743H13.344ZM21.3524 48.0743H18.6829V50.9004H21.3524V48.0743ZM26.6895 48.0743H24.0219V50.9004H26.6895V48.0743ZM29.359 48.0743V50.9004H32.0285V48.0743H29.359ZM34.6979 48.0743V50.9004H37.3674V48.0743H34.6979ZM40.0368 48.0743V50.9004H42.7045V48.0743H40.0368ZM45.374 48.0743V50.9004H48.0434V48.0743H45.374ZM50.7129 48.0743V50.9004H53.3824V48.0743H50.7129ZM56.0518 50.9004H58.7195V48.0743H56.0518V50.9004ZM64.0584 50.9004V48.0743H61.389V50.9004H64.0584ZM66.7279 50.9004H69.3973V48.0743H66.7279V50.9004ZM10.6746 50.9004V53.7265H13.344V50.9004H10.6746ZM18.6829 50.9004H16.0135V53.7265H18.6829V50.9004ZM24.0219 50.9004H21.3524V53.7265H24.0219V50.9004ZM26.6895 50.9004V53.7265H29.359V50.9004H26.6895ZM32.0285 50.9004V53.7265H34.6979V50.9004H32.0285ZM37.3674 50.9004V53.7265H40.0368V50.9004H37.3674ZM42.7045 50.9004V53.7265H45.374V50.9004H42.7045ZM48.0434 50.9004V53.7265H50.7129V50.9004H48.0434ZM53.3824 50.9004V53.7265H56.0518V50.9004H53.3824ZM61.389 53.7265V50.9004H58.7195V53.7265H61.389ZM64.0584 53.7265H66.7279V50.9004H64.0584V53.7265ZM72.0668 53.7265V50.9004H69.3973V53.7265H72.0668ZM16.0135 53.7265H13.344V56.5526H16.0135V53.7265ZM21.3524 53.7265H18.6829V56.5526H21.3524V53.7265ZM24.0219 53.7265V56.5526H26.6895V53.7265H24.0219ZM29.359 53.7265V56.5526H32.0285V53.7265H29.359ZM34.6979 53.7265V56.5526H37.3674V53.7265H34.6979ZM40.0368 53.7265V56.5526H42.7045V53.7265H40.0368ZM45.374 53.7265V56.5526H48.0434V53.7265H45.374ZM50.7129 53.7265V56.5526H53.3824V53.7265H50.7129ZM56.0518 53.7265V56.5526H58.7195V53.7265H56.0518ZM61.389 56.5526H64.0584V53.7265H61.389V56.5526ZM69.3973 56.5526V53.7265H66.7279V56.5526H69.3973ZM74.7363 56.5526V53.7265H72.0668V56.5526H74.7363ZM10.6746 56.5526V59.3768H13.344V56.5526H10.6746ZM18.6829 56.5526H16.0135V59.3768H18.6829V56.5526ZM21.3524 56.5526V59.3768H24.0219V56.5526H21.3524ZM26.6895 56.5526V59.3768H29.359V56.5526H26.6895ZM32.0285 56.5526V59.3768H34.6979V56.5526H32.0285ZM37.3674 56.5526V59.3768H40.0368V56.5526H37.3674ZM42.7045 56.5526V59.3768H45.374V56.5526H42.7045ZM48.0434 56.5526V59.3768H50.7129V56.5526H48.0434ZM53.3824 56.5526V59.3768H56.0518V56.5526H53.3824ZM58.7195 56.5526V59.3768H61.389V56.5526H58.7195ZM64.0584 56.5526V59.3768H66.7279V56.5526H64.0584ZM69.3973 59.3768H72.0668V56.5526H69.3973V59.3768ZM16.0135 59.3768H13.344V62.2029H16.0135V59.3768ZM18.6829 59.3768V62.2029H21.3524V59.3768H18.6829ZM24.0219 59.3768V62.2029H26.6895V59.3768H24.0219ZM29.359 59.3768V62.2029H32.0285V59.3768H29.359ZM34.6979 59.3768V62.2029H37.3674V59.3768H34.6979ZM40.0368 59.3768V62.2029H42.7045V59.3768H40.0368ZM45.374 59.3768V62.2029H48.0434V59.3768H45.374ZM50.7129 59.3768V62.2029H53.3824V59.3768H50.7129ZM56.0518 59.3768V62.2029H58.7195V59.3768H56.0518ZM61.389 59.3768V62.2029H64.0584V59.3768H61.389ZM66.7279 59.3768V62.2029H69.3973V59.3768H66.7279ZM74.7363 62.2029V59.3768H72.0668V62.2029H74.7363ZM10.6746 62.2029V65.029H13.344V62.2029H10.6746ZM16.0135 62.2029V65.029H18.6829V62.2029H16.0135ZM21.3524 62.2029V65.029H24.0219V62.2029H21.3524ZM26.6895 62.2029V65.029H29.359V62.2029H26.6895ZM32.0285 62.2029V65.029H34.6979V62.2029H32.0285ZM37.3674 62.2029V65.029H40.0368V62.2029H37.3674ZM42.7045 62.2029V65.029H45.374V62.2029H42.7045ZM48.0434 62.2029V65.029H50.7129V62.2029H48.0434ZM53.3824 62.2029V65.029H56.0518V62.2029H53.3824ZM58.7195 62.2029V65.029H61.389V62.2029H58.7195ZM64.0584 62.2029V65.029H66.7279V62.2029H64.0584ZM69.3973 62.2029V65.029H72.0668V62.2029H69.3973ZM74.7363 65.029H77.4039V62.2029H74.7363V65.029ZM13.344 67.8551H16.0135V65.029H13.344V67.8551ZM18.6829 67.8551H21.3524V65.029H18.6829V67.8551ZM24.0219 67.8551H26.6895V65.029H24.0219V67.8551ZM29.359 67.8551H32.0285V65.029H29.359V67.8551ZM34.6979 67.8551H37.3674V65.029H34.6979V67.8551ZM40.0368 67.8551H42.7045V65.029H40.0368V67.8551ZM45.374 67.8551H48.0434V65.029H45.374V67.8551ZM50.7129 67.8551H53.3824V65.029H50.7129V67.8551ZM56.0518 67.8551H58.7195V65.029H56.0518V67.8551ZM61.389 67.8551H64.0584V65.029H61.389V67.8551ZM66.7279 67.8551H69.3973V65.029H66.7279V67.8551ZM72.0668 67.8551H74.7363V65.029H72.0668V67.8551Z" fill="#32D74B"/>
<mask id="mask5_1383_3957" style="mask-type:luminance" maskUnits="userSpaceOnUse" x="0" y="0" width="86" height="71">
<path d="M0 0H85.5491V70.9944H0V0Z" fill="white"/>
</mask>
<g mask="url(#mask5_1383_3957)">
<path d="M21.3539 2.86126H18.6844V0.0351562H40.0383V2.86126H21.3539ZM18.6844 2.86126H16.015V5.68546H18.6844V2.86126ZM42.706 5.68546V2.86126H40.0383V5.68546H42.706ZM16.015 5.68546H13.3455V8.51156H16.015V5.68546ZM45.3755 8.51156V5.68546H42.706V8.51156H45.3755ZM48.0449 11.3377H80.0749V8.51156H45.3755V11.3377H48.0449ZM82.7443 14.1638V11.3377H80.0749V14.1638H82.7443ZM82.7443 14.1638V65.0279H80.0749V59.3757H77.4054V67.854H13.3455V70.6802H82.7443V67.854H85.4138V14.1638H82.7443ZM8.00659 25.4663H66.7294V22.6402H13.3455V8.51156H10.6761V22.6402H2.66946V25.4663H8.00659ZM2.66946 28.2924V25.4663H0V33.9446H2.66946V28.2924ZM69.3988 28.2924V25.4663H66.7294V33.9446H69.3988V28.2924ZM5.33893 36.7707V33.9446H2.66946V42.421H5.33893V36.7707ZM72.0683 36.7707V33.9446H69.3988V42.421H72.0683V36.7707ZM8.00659 45.2471V42.421H5.33893V50.8993H8.00659V45.2471ZM74.7378 45.2471V42.421H72.0683V50.8993H74.7378V45.2471ZM10.6761 53.7254V50.8993H8.00659V59.3757H10.6761V53.7254ZM77.4054 53.7254V50.8993H74.7378V59.3757H77.4054V53.7254ZM13.3455 62.2018V59.3757H10.6761V67.854H13.3455V62.2018Z" fill="black"/>
</g>
<mask id="mask6_1383_3957" style="mask-type:luminance" maskUnits="userSpaceOnUse" x="2" y="19" width="82" height="50">
<path d="M83.2351 19.6641H2.42969V68.0592H83.2351V19.6641Z" fill="white"/>
</mask>
<g mask="url(#mask6_1383_3957)">
<mask id="mask7_1383_3957" style="mask-type:luminance" maskUnits="userSpaceOnUse" x="2" y="19" width="81" height="49">
<path d="M2.46484 19.6855H82.7724V67.905H2.46484V19.6855Z" fill="white"/>
</mask>
<g mask="url(#mask7_1383_3957)">
<path d="M69.3934 22.6416V25.4677H66.724V22.6416H69.3934ZM72.0629 28.2938V25.4677H69.3934V33.946H72.0629V28.2938ZM74.7324 36.7721V33.946H72.0629V42.4224H74.7324V36.7721ZM77.4 45.2485V42.4224H74.7324V50.9007H77.4V45.2485ZM80.0695 53.7268V50.9007H77.4V59.3771H80.0695V53.7268ZM80.0695 59.3771V65.0293H82.739V59.3771H80.0695ZM13.3401 19.8174V22.6416H66.724V19.8174H13.3401ZM2.66406 25.4677V33.946H5.33353V25.4677H2.66406ZM5.33353 33.946V42.4224H8.00119V33.946H5.33353ZM8.00119 42.4224V50.9007H10.6706V42.4224H8.00119ZM10.6706 50.9007V59.3771H13.3401V50.9007H10.6706ZM16.0096 59.3771H13.3401V67.8555H74.7324V65.0293H16.0096V59.3771Z" fill="black"/>
</g>
</g>
</svg>
