<svg width="91" height="74" viewBox="0 0 91 74" fill="none" xmlns="http://www.w3.org/2000/svg">
<mask id="mask0_1538_922" style="mask-type:luminance" maskUnits="userSpaceOnUse" x="4" y="2" width="87" height="72">
<path d="M4.90234 2.42969H90.5169V73.8801H4.90234V2.42969Z" fill="white"/>
</mask>
<g mask="url(#mask0_1538_922)">
<mask id="mask1_1538_922" style="mask-type:luminance" maskUnits="userSpaceOnUse" x="-566" y="-72" width="797" height="479">
<path d="M230.711 -71.2773H-565.596V406.336H230.711V-71.2773Z" fill="black" fill-opacity="0.3"/>
</mask>
<g mask="url(#mask1_1538_922)">
<mask id="mask2_1538_922" style="mask-type:luminance" maskUnits="userSpaceOnUse" x="4" y="2" width="87" height="73">
<path d="M90.6237 2.42969H4.91016V74.17H90.6237V2.42969Z" fill="white"/>
</mask>
<g mask="url(#mask2_1538_922)">
<mask id="mask3_1538_922" style="mask-type:luminance" maskUnits="userSpaceOnUse" x="5" y="2" width="86" height="72">
<path d="M5.31055 2.72363H90.5201V73.8785H5.31055V2.72363Z" fill="white"/>
</mask>
<g mask="url(#mask3_1538_922)">
<path d="M87.9116 17.0778V14.237H85.2475V11.3963H50.6171V8.55554H47.953V5.7148H45.2888V2.87598H23.9793V5.7148H21.3151V8.55554H18.651V11.3963H15.9868V25.5981H7.99438V28.4388H5.33203V36.9611H7.99438V45.4814H10.6585V54.0036H13.3227V62.5239H15.9868V71.0461H18.651V73.8869H87.9116V71.0461H90.5757V17.0778H87.9116Z" fill="black"/>
</g>
</g>
</g>
</g>
<mask id="mask4_1538_922" style="mask-type:luminance" maskUnits="userSpaceOnUse" x="0" y="0" width="86" height="72">
<path d="M0 0H85.5461V71.2221H0V0Z" fill="white"/>
</mask>
<g mask="url(#mask4_1538_922)">
<path d="M82.5796 14.2379V11.3972H79.9154V8.55644H45.2851V5.7157H42.621V2.87688H39.9586V0.0361328H18.6472V2.87688H15.9831V5.7157H13.3189V8.55644H10.6548V22.7582H2.66415V25.599H0V34.1212H2.66415V42.6415H5.32829V51.1638H7.99064V59.6841H10.6548V68.2063H13.3189V71.047H82.5796V68.2063H85.2437V14.2379H82.5796Z" fill="#D1D3D4"/>
</g>
<path d="M5.32821 25.6V28.4408H2.66406V25.6H5.32821ZM10.6547 25.6H7.99056V28.4408H10.6547V25.6ZM15.983 25.6H13.3189V28.4408H15.983V25.6ZM21.3113 25.6H18.6471V28.4408H21.3113V25.6ZM26.6378 25.6H23.9754V28.4408H26.6378V25.6ZM31.9661 25.6H29.3019V28.4408H31.9661V25.6ZM37.2944 25.6H34.6302V28.4408H37.2944V25.6ZM42.6209 25.6H39.9585V28.4408H42.6209V25.6ZM47.9492 25.6H45.285V28.4408H47.9492V25.6ZM53.2775 25.6H50.6133V28.4408H53.2775V25.6ZM58.604 25.6H55.9416V28.4408H58.604V25.6ZM63.9323 25.6H61.2681V28.4408H63.9323V25.6ZM13.3189 22.7593H15.983V19.9205H13.3189V22.7593ZM18.6471 22.7593H21.3113V19.9205H18.6471V22.7593ZM23.9754 22.7593H26.6378V19.9205H23.9754V22.7593ZM29.3019 22.7593H31.9661V19.9205H29.3019V22.7593ZM34.6302 22.7593H37.2944V19.9205H34.6302V22.7593ZM39.9585 22.7593H42.6209V19.9205H39.9585V22.7593ZM45.285 22.7593H47.9492V19.9205H45.285V22.7593ZM50.6133 22.7593H53.2775V19.9205H50.6133V22.7593ZM55.9416 22.7593H58.604V19.9205H55.9416V22.7593ZM61.2681 22.7593H63.9323V19.9205H61.2681V22.7593ZM66.5964 19.9205V22.7593H69.2606V19.9205H66.5964ZM71.9247 19.9205V22.7593H74.5888V19.9205H71.9247ZM77.2512 19.9205V22.7593H79.9153V19.9205H77.2512ZM15.983 17.0797V19.9205H18.6471V17.0797H15.983ZM21.3113 17.0797V19.9205H23.9754V17.0797H21.3113ZM26.6378 17.0797V19.9205H29.3019V17.0797H26.6378ZM31.9661 17.0797V19.9205H34.6302V17.0797H31.9661ZM37.2944 17.0797V19.9205H39.9585V17.0797H37.2944ZM42.6209 17.0797V19.9205H45.285V17.0797H42.6209ZM47.9492 17.0797V19.9205H50.6133V17.0797H47.9492ZM53.2775 17.0797V19.9205H55.9416V17.0797H53.2775ZM58.604 17.0797V19.9205H61.2681V17.0797H58.604ZM63.9323 17.0797V19.9205H66.5964V17.0797H63.9323ZM69.2606 17.0797V19.9205H71.9247V17.0797H69.2606ZM74.5888 17.0797V19.9205H77.2512V17.0797H74.5888ZM79.9153 17.0797V14.239H77.2512V17.0797H79.9153ZM82.5795 19.9205V17.0797H79.9153V19.9205H82.5795ZM69.2606 22.7593V25.6H71.9247V22.7593H69.2606ZM74.5888 25.6H77.2512V22.7593H74.5888V25.6ZM74.5888 25.6H71.9247V28.4408H74.5888V25.6ZM77.2512 28.4408H79.9153V25.6H77.2512V28.4408ZM69.2606 28.4408V31.2815H71.9247V28.4408H69.2606ZM74.5888 31.2815H77.2512V28.4408H74.5888V31.2815ZM71.9247 31.2815V34.1223H74.5888V31.2815H71.9247ZM77.2512 34.1223H79.9153V31.2815H77.2512V34.1223ZM71.9247 36.963V39.8018H74.5888V36.963H71.9247ZM77.2512 34.1223H74.5888V36.963H77.2512V34.1223ZM77.2512 39.8018H79.9153V36.963H77.2512V39.8018ZM82.5795 36.963V34.1223H79.9153V36.963H82.5795ZM82.5795 31.2815V28.4408H79.9153V31.2815H82.5795ZM82.5795 25.6V22.7593H79.9153V25.6H82.5795ZM74.5888 39.8018V42.6426H77.2512V39.8018H74.5888ZM77.2512 45.4833H79.9153V42.6426H77.2512V45.4833ZM77.2512 51.1648H79.9153V48.3241H77.2512V51.1648ZM82.5795 42.6426V39.8018H79.9153V42.6426H82.5795ZM74.5888 45.4833V48.3241H77.2512V45.4833H74.5888ZM82.5795 48.3241V45.4833H79.9153V48.3241H82.5795ZM77.2512 56.8463H79.9153V54.0056H77.2512V56.8463ZM82.5795 59.6851V56.8463H79.9153V59.6851H82.5795ZM79.9153 65.3666H82.5795V62.5259H79.9153V65.3666ZM82.5795 54.0056V51.1648H79.9153V54.0056H82.5795ZM13.3189 14.239V17.0797H15.983V14.239H13.3189ZM18.6471 14.239V17.0797H21.3113V14.239H18.6471ZM23.9754 14.239V17.0797H26.6378V14.239H23.9754ZM29.3019 14.239V17.0797H31.9661V14.239H29.3019ZM34.6302 14.239V17.0797H37.2944V14.239H34.6302ZM39.9585 14.239V17.0797H42.6209V14.239H39.9585ZM47.9492 17.0797V14.239H45.285V17.0797H47.9492ZM53.2775 17.0797V14.239H50.6133V17.0797H53.2775ZM58.604 17.0797V14.239H55.9416V17.0797H58.604ZM63.9323 17.0797V14.239H61.2681V17.0797H63.9323ZM69.2606 17.0797V14.239H66.5964V17.0797H69.2606ZM74.5888 17.0797V14.239H71.9247V17.0797H74.5888ZM18.6471 11.3982H15.983V14.239H18.6471V11.3982ZM18.6471 5.71675H15.983V8.5575H18.6471V5.71675ZM21.3113 11.3982V14.239H23.9754V11.3982H21.3113ZM26.6378 11.3982V14.239H29.3019V11.3982H26.6378ZM31.9661 11.3982V14.239H34.6302V11.3982H31.9661ZM39.9585 14.239V11.3982H37.2944V14.239H39.9585ZM21.3113 8.5575H18.6471V11.3982H21.3113V8.5575ZM13.3189 8.5575V11.3982H15.983V8.5575H13.3189ZM26.6378 11.3982V8.5575H23.9754V11.3982H26.6378ZM31.9661 11.3982V8.5575H29.3019V11.3982H31.9661ZM37.2944 11.3982V8.5575H34.6302V11.3982H37.2944ZM23.9754 8.5575V5.71675H21.3113V8.5575H23.9754ZM29.3019 8.5575V5.71675H26.6378V8.5575H29.3019ZM34.6302 8.5575V5.71675H31.9661V8.5575H34.6302ZM21.3113 2.87793H18.6471V5.71675H21.3113V2.87793ZM26.6378 2.87793H23.9754V5.71675H26.6378V2.87793ZM31.9661 2.87793H29.3019V5.71675H31.9661V2.87793ZM39.9585 8.5575V5.71675H37.2944V8.5575H39.9585ZM42.6209 11.3982V8.5575H39.9585V11.3982H42.6209ZM37.2944 2.87793H34.6302V5.71675H37.2944V2.87793ZM45.285 14.239V11.3982H42.6209V14.239H45.285ZM50.6133 11.3982H47.9492V14.239H50.6133V11.3982ZM55.9416 11.3982H53.2775V14.239H55.9416V11.3982ZM61.2681 11.3982H58.604V14.239H61.2681V11.3982ZM66.5964 11.3982H63.9323V14.239H66.5964V11.3982ZM71.9247 11.3982H69.2606V14.239H71.9247V11.3982ZM77.2512 11.3982H74.5888V14.239H77.2512V11.3982ZM66.5964 31.2815V28.4408H63.9323V31.2815H66.5964ZM61.2681 31.2815V28.4408H58.604V31.2815H61.2681ZM55.9416 31.2815V28.4408H53.2775V31.2815H55.9416ZM50.6133 31.2815V28.4408H47.9492V31.2815H50.6133ZM45.285 31.2815V28.4408H42.6209V31.2815H45.285ZM39.9585 31.2815V28.4408H37.2944V31.2815H39.9585ZM34.6302 31.2815V28.4408H31.9661V31.2815H34.6302ZM29.3019 31.2815V28.4408H26.6378V31.2815H29.3019ZM23.9754 31.2815V28.4408H21.3113V31.2815H23.9754ZM18.6471 31.2815V28.4408H15.983V31.2815H18.6471ZM13.3189 31.2815V28.4408H10.6547V31.2815H13.3189ZM7.99056 28.4408H5.32821V31.2815H7.99056V28.4408ZM2.66406 31.2815V34.1223H5.32821V31.2815H2.66406ZM7.99056 31.2815V34.1223H10.6547V31.2815H7.99056ZM15.983 34.1223V31.2815H13.3189V34.1223H15.983ZM21.3113 34.1223V31.2815H18.6471V34.1223H21.3113ZM26.6378 34.1223V31.2815H23.9754V34.1223H26.6378ZM31.9661 34.1223V31.2815H29.3019V34.1223H31.9661ZM37.2944 34.1223V31.2815H34.6302V34.1223H37.2944ZM42.6209 34.1223V31.2815H39.9585V34.1223H42.6209ZM47.9492 34.1223V31.2815H45.285V34.1223H47.9492ZM53.2775 34.1223V31.2815H50.6133V34.1223H53.2775ZM58.604 34.1223V31.2815H55.9416V34.1223H58.604ZM61.2681 34.1223H63.9323V31.2815H61.2681V34.1223ZM5.32821 34.1223V36.963H7.99056V34.1223H5.32821ZM13.3189 34.1223H10.6547V36.963H13.3189V34.1223ZM18.6471 36.963V34.1223H15.983V36.963H18.6471ZM23.9754 36.963V34.1223H21.3113V36.963H23.9754ZM29.3019 36.963V34.1223H26.6378V36.963H29.3019ZM34.6302 36.963V34.1223H31.9661V36.963H34.6302ZM39.9585 36.963V34.1223H37.2944V36.963H39.9585ZM45.285 36.963V34.1223H42.6209V36.963H45.285ZM50.6133 36.963V34.1223H47.9492V36.963H50.6133ZM55.9416 36.963V34.1223H53.2775V36.963H55.9416ZM58.604 36.963H61.2681V34.1223H58.604V36.963ZM66.5964 36.963V34.1223H63.9323V36.963H66.5964ZM10.6547 36.963H7.99056V39.8018H10.6547V36.963ZM15.983 36.963H13.3189V39.8018H15.983V36.963ZM21.3113 39.8018V36.963H18.6471V39.8018H21.3113ZM26.6378 39.8018V36.963H23.9754V39.8018H26.6378ZM31.9661 39.8018V36.963H29.3019V39.8018H31.9661ZM37.2944 39.8018V36.963H34.6302V39.8018H37.2944ZM42.6209 39.8018V36.963H39.9585V39.8018H42.6209ZM47.9492 39.8018V36.963H45.285V39.8018H47.9492ZM53.2775 39.8018V36.963H50.6133V39.8018H53.2775ZM55.9416 39.8018H58.604V36.963H55.9416V39.8018ZM63.9323 39.8018V36.963H61.2681V39.8018H63.9323ZM69.2606 39.8018V36.963H66.5964V39.8018H69.2606ZM5.32821 39.8018V42.6426H7.99056V39.8018H5.32821ZM13.3189 39.8018H10.6547V42.6426H13.3189V39.8018ZM15.983 39.8018V42.6426H18.6471V39.8018H15.983ZM21.3113 39.8018V42.6426H23.9754V39.8018H21.3113ZM29.3019 42.6426V39.8018H26.6378V42.6426H29.3019ZM34.6302 42.6426V39.8018H31.9661V42.6426H34.6302ZM39.9585 42.6426V39.8018H37.2944V42.6426H39.9585ZM45.285 42.6426V39.8018H42.6209V42.6426H45.285ZM50.6133 42.6426V39.8018H47.9492V42.6426H50.6133ZM53.2775 42.6426H55.9416V39.8018H53.2775V42.6426ZM61.2681 42.6426V39.8018H58.604V42.6426H61.2681ZM63.9323 42.6426H66.5964V39.8018H63.9323V42.6426ZM10.6547 42.6426H7.99056V45.4833H10.6547V42.6426ZM13.3189 42.6426V45.4833H15.983V42.6426H13.3189ZM18.6471 42.6426V45.4833H21.3113V42.6426H18.6471ZM26.6378 42.6426H23.9754V45.4833H26.6378V42.6426ZM31.9661 45.4833V42.6426H29.3019V45.4833H31.9661ZM37.2944 45.4833V42.6426H34.6302V45.4833H37.2944ZM42.6209 45.4833V42.6426H39.9585V45.4833H42.6209ZM47.9492 45.4833V42.6426H45.285V45.4833H47.9492ZM50.6133 45.4833H53.2775V42.6426H50.6133V45.4833ZM58.604 45.4833V42.6426H55.9416V45.4833H58.604ZM61.2681 45.4833H63.9323V42.6426H61.2681V45.4833ZM69.2606 45.4833V42.6426H66.5964V45.4833H69.2606ZM5.32821 45.4833V48.3241H7.99056V45.4833H5.32821ZM10.6547 45.4833V48.3241H13.3189V45.4833H10.6547ZM15.983 45.4833V48.3241H18.6471V45.4833H15.983ZM23.9754 45.4833H21.3113V48.3241H23.9754V45.4833ZM29.3019 45.4833H26.6378V48.3241H29.3019V45.4833ZM31.9661 45.4833V48.3241H34.6302V45.4833H31.9661ZM37.2944 45.4833V48.3241H39.9585V45.4833H37.2944ZM42.6209 45.4833V48.3241H45.285V45.4833H42.6209ZM47.9492 48.3241H50.6133V45.4833H47.9492V48.3241ZM55.9416 48.3241V45.4833H53.2775V48.3241H55.9416ZM58.604 48.3241H61.2681V45.4833H58.604V48.3241ZM66.5964 48.3241V45.4833H63.9323V48.3241H66.5964ZM71.9247 48.3241V45.4833H69.2606V48.3241H71.9247ZM7.99056 48.3241V51.1648H10.6547V48.3241H7.99056ZM13.3189 48.3241V51.1648H15.983V48.3241H13.3189ZM21.3113 48.3241H18.6471V51.1648H21.3113V48.3241ZM26.6378 48.3241H23.9754V51.1648H26.6378V48.3241ZM29.3019 48.3241V51.1648H31.9661V48.3241H29.3019ZM34.6302 48.3241V51.1648H37.2944V48.3241H34.6302ZM39.9585 48.3241V51.1648H42.6209V48.3241H39.9585ZM45.285 48.3241V51.1648H47.9492V48.3241H45.285ZM50.6133 48.3241V51.1648H53.2775V48.3241H50.6133ZM55.9416 51.1648H58.604V48.3241H55.9416V51.1648ZM63.9323 51.1648V48.3241H61.2681V51.1648H63.9323ZM66.5964 51.1648H69.2606V48.3241H66.5964V51.1648ZM10.6547 51.1648V54.0056H13.3189V51.1648H10.6547ZM18.6471 51.1648H15.983V54.0056H18.6471V51.1648ZM23.9754 51.1648H21.3113V54.0056H23.9754V51.1648ZM26.6378 51.1648V54.0056H29.3019V51.1648H26.6378ZM31.9661 51.1648V54.0056H34.6302V51.1648H31.9661ZM37.2944 51.1648V54.0056H39.9585V51.1648H37.2944ZM42.6209 51.1648V54.0056H45.285V51.1648H42.6209ZM47.9492 51.1648V54.0056H50.6133V51.1648H47.9492ZM53.2775 51.1648V54.0056H55.9416V51.1648H53.2775ZM61.2681 54.0056V51.1648H58.604V54.0056H61.2681ZM63.9323 54.0056H66.5964V51.1648H63.9323V54.0056ZM71.9247 54.0056V51.1648H69.2606V54.0056H71.9247ZM15.983 54.0056H13.3189V56.8463H15.983V54.0056ZM21.3113 54.0056H18.6471V56.8463H21.3113V54.0056ZM23.9754 54.0056V56.8463H26.6378V54.0056H23.9754ZM29.3019 54.0056V56.8463H31.9661V54.0056H29.3019ZM34.6302 54.0056V56.8463H37.2944V54.0056H34.6302ZM39.9585 54.0056V56.8463H42.6209V54.0056H39.9585ZM45.285 54.0056V56.8463H47.9492V54.0056H45.285ZM50.6133 54.0056V56.8463H53.2775V54.0056H50.6133ZM55.9416 54.0056V56.8463H58.604V54.0056H55.9416ZM61.2681 56.8463H63.9323V54.0056H61.2681V56.8463ZM69.2606 56.8463V54.0056H66.5964V56.8463H69.2606ZM74.5888 56.8463V54.0056H71.9247V56.8463H74.5888ZM10.6547 56.8463V59.6851H13.3189V56.8463H10.6547ZM18.6471 56.8463H15.983V59.6851H18.6471V56.8463ZM21.3113 56.8463V59.6851H23.9754V56.8463H21.3113ZM26.6378 56.8463V59.6851H29.3019V56.8463H26.6378ZM31.9661 56.8463V59.6851H34.6302V56.8463H31.9661ZM37.2944 56.8463V59.6851H39.9585V56.8463H37.2944ZM42.6209 56.8463V59.6851H45.285V56.8463H42.6209ZM47.9492 56.8463V59.6851H50.6133V56.8463H47.9492ZM53.2775 56.8463V59.6851H55.9416V56.8463H53.2775ZM58.604 56.8463V59.6851H61.2681V56.8463H58.604ZM63.9323 56.8463V59.6851H66.5964V56.8463H63.9323ZM69.2606 59.6851H71.9247V56.8463H69.2606V59.6851ZM15.983 59.6851H13.3189V62.5259H15.983V59.6851ZM18.6471 59.6851V62.5259H21.3113V59.6851H18.6471ZM23.9754 59.6851V62.5259H26.6378V59.6851H23.9754ZM29.3019 59.6851V62.5259H31.9661V59.6851H29.3019ZM34.6302 59.6851V62.5259H37.2944V59.6851H34.6302ZM39.9585 59.6851V62.5259H42.6209V59.6851H39.9585ZM45.285 59.6851V62.5259H47.9492V59.6851H45.285ZM50.6133 59.6851V62.5259H53.2775V59.6851H50.6133ZM55.9416 59.6851V62.5259H58.604V59.6851H55.9416ZM61.2681 59.6851V62.5259H63.9323V59.6851H61.2681ZM66.5964 59.6851V62.5259H69.2606V59.6851H66.5964ZM74.5888 62.5259V59.6851H71.9247V62.5259H74.5888ZM10.6547 62.5259V65.3666H13.3189V62.5259H10.6547ZM15.983 62.5259V65.3666H18.6471V62.5259H15.983ZM21.3113 62.5259V65.3666H23.9754V62.5259H21.3113ZM26.6378 62.5259V65.3666H29.3019V62.5259H26.6378ZM31.9661 62.5259V65.3666H34.6302V62.5259H31.9661ZM37.2944 62.5259V65.3666H39.9585V62.5259H37.2944ZM42.6209 62.5259V65.3666H45.285V62.5259H42.6209ZM47.9492 62.5259V65.3666H50.6133V62.5259H47.9492ZM53.2775 62.5259V65.3666H55.9416V62.5259H53.2775ZM58.604 62.5259V65.3666H61.2681V62.5259H58.604ZM63.9323 62.5259V65.3666H66.5964V62.5259H63.9323ZM69.2606 62.5259V65.3666H71.9247V62.5259H69.2606ZM74.5888 65.3666H77.2512V62.5259H74.5888V65.3666ZM13.3189 68.2074H15.983V65.3666H13.3189V68.2074ZM18.6471 68.2074H21.3113V65.3666H18.6471V68.2074ZM23.9754 68.2074H26.6378V65.3666H23.9754V68.2074ZM29.3019 68.2074H31.9661V65.3666H29.3019V68.2074ZM34.6302 68.2074H37.2944V65.3666H34.6302V68.2074ZM39.9585 68.2074H42.6209V65.3666H39.9585V68.2074ZM45.285 68.2074H47.9492V65.3666H45.285V68.2074ZM50.6133 68.2074H53.2775V65.3666H50.6133V68.2074ZM55.9416 68.2074H58.604V65.3666H55.9416V68.2074ZM61.2681 68.2074H63.9323V65.3666H61.2681V68.2074ZM66.5964 68.2074H69.2606V65.3666H66.5964V68.2074ZM71.9247 68.2074H74.5888V65.3666H71.9247V68.2074Z" fill="#FB3E23"/>
<mask id="mask5_1538_922" style="mask-type:luminance" maskUnits="userSpaceOnUse" x="0" y="0" width="86" height="72">
<path d="M0 0H85.5461V71.2221H0V0Z" fill="white"/>
</mask>
<g mask="url(#mask5_1538_922)">
<path d="M21.3114 2.87688H18.6472V0.0361328H39.9586V2.87688H21.3114ZM18.6472 2.87688H15.9831V5.7157H18.6472V2.87688ZM42.621 5.7157V2.87688H39.9586V5.7157H42.621ZM15.9831 5.7157H13.3189V8.55644H15.9831V5.7157ZM45.2851 8.55644V5.7157H42.621V8.55644H45.2851ZM47.9492 11.3972H79.9154V8.55644H45.2851V11.3972H47.9492ZM82.5796 14.2379V11.3972H79.9154V14.2379H82.5796ZM82.5796 14.2379V65.3655H79.9154V59.6841H77.2513V68.2063H13.3189V71.047H82.5796V68.2063H85.2437V14.2379H82.5796ZM7.99064 25.599H66.5965V22.7582H13.3189V8.55644H10.6548V22.7582H2.66415V25.599H7.99064ZM2.66415 28.4397V25.599H0V34.1212H2.66415V28.4397ZM69.2606 28.4397V25.599H66.5965V34.1212H69.2606V28.4397ZM5.32829 36.962V34.1212H2.66415V42.6415H5.32829V36.962ZM71.9248 36.962V34.1212H69.2606V42.6415H71.9248V36.962ZM7.99064 45.4823V42.6415H5.32829V51.1638H7.99064V45.4823ZM74.5889 45.4823V42.6415H71.9248V51.1638H74.5889V45.4823ZM10.6548 54.0045V51.1638H7.99064V59.6841H10.6548V54.0045ZM77.2513 54.0045V51.1638H74.5889V59.6841H77.2513V54.0045ZM13.3189 62.5248V59.6841H10.6548V68.2063H13.3189V62.5248Z" fill="black"/>
</g>
<mask id="mask6_1538_922" style="mask-type:luminance" maskUnits="userSpaceOnUse" x="2" y="19" width="81" height="50">
<path d="M82.7773 19.6318H2.13281V68.769H82.7773V19.6318Z" fill="white"/>
</mask>
<g mask="url(#mask6_1538_922)">
<mask id="mask7_1538_922" style="mask-type:luminance" maskUnits="userSpaceOnUse" x="2" y="19" width="81" height="50">
<path d="M2.59766 19.707H82.7255V68.2742H2.59766V19.707Z" fill="white"/>
</mask>
<g mask="url(#mask7_1538_922)">
<path d="M69.2606 22.7597V25.6005H66.5964V22.7597H69.2606ZM71.9247 28.4412V25.6005H69.2606V34.1227H71.9247V28.4412ZM74.5888 36.9634V34.1227H71.9247V42.643H74.5888V36.9634ZM77.2512 45.4838V42.643H74.5888V51.1652H77.2512V45.4838ZM79.9153 54.006V51.1652H77.2512V59.6856H79.9153V54.006ZM79.9153 59.6856V65.367H82.5795V59.6856H79.9153ZM13.3189 19.9209V22.7597H66.5964V19.9209H13.3189ZM2.66406 25.6005V34.1227H5.32821V25.6005H2.66406ZM5.32821 34.1227V42.643H7.99056V34.1227H5.32821ZM7.99056 42.643V51.1652H10.6547V42.643H7.99056ZM10.6547 51.1652V59.6856H13.3189V51.1652H10.6547ZM15.983 59.6856H13.3189V68.2078H74.5888V65.367H15.983V59.6856Z" fill="black"/>
</g>
</g>
</svg>
