<svg width="197" height="61" viewBox="0 0 197 61" fill="none" xmlns="http://www.w3.org/2000/svg">
<path d="M25 30.2415C25 21.395 11.4952 11.1774 3.66177 18.5063C-0.574995 22.4701 4.09535 30.5149 8.67161 32.2275C19.811 36.3963 26.404 47.6274 12.0115 52.6288C2.55021 55.9167 3.29067 53.2775 3.29067 44.8655" stroke="black" stroke-width="3" stroke-linecap="round"/>
<path d="M35 15V59" stroke="black" stroke-width="3" stroke-linecap="round"/>
<path d="M37 36C37.6332 30.1472 47.8196 15.9043 54 14" stroke="black" stroke-width="3" stroke-linecap="round"/>
<path d="M41 36C41.8947 44.6717 50.0518 51.2349 56 57" stroke="black" stroke-width="3" stroke-linecap="round"/>
<path d="M54.3703 37.8762C58.0188 37.8762 66.4881 38.2133 67.8251 33.7241C69.9891 26.4579 62.3727 25.7216 57.7575 28.4888C53.7905 30.8673 52.2008 41.5756 56.8166 42.8408C62.1287 44.2968 66.8742 46 73 46" stroke="black" stroke-width="3" stroke-linecap="round"/>
<path d="M85 9V54" stroke="black" stroke-width="3" stroke-linecap="round"/>
<path d="M88 30C93.4046 30 96.9945 28 102 28" stroke="black" stroke-width="3" stroke-linecap="round"/>
<path d="M102.863 40C99.3009 40.4041 95.8144 47.9061 96.0077 50.8888C96.2144 54.0785 116.958 53.9998 120 53.9998" stroke="black" stroke-width="3" stroke-linecap="round"/>
<path d="M120 37.5882C120.753 31.1283 130.384 21.817 133.946 16.1993C137.075 11.2634 148.824 2 137.809 2C125.905 2 123.506 4.83904 124.994 15.4804C125.847 21.5794 125.088 28.2073 125.088 34.3529C125.088 37.2639 126.374 56.6723 126.408 56.6405C132.837 50.5089 129.662 39.6772 137.809 33.634C144.539 28.6417 144.396 41.6728 143.651 44.8676C142.406 50.2128 143.746 52.1879 143.746 57" stroke="black" stroke-width="3" stroke-linecap="round"/>
<path d="M152 49.6C155.02 49.6 164.934 51.1016 167.162 49.2444C172.801 44.543 168.945 40 163.227 40C156.737 40 150.73 44.9292 155.455 50.4C158.675 54.1284 166.552 54.3519 171 56" stroke="black" stroke-width="3" stroke-linecap="round"/>
<path d="M186.261 31C184.153 31.1982 173.249 36.6504 176.654 39.2114C179.983 41.7152 184.837 41.7422 188.881 42.5872C206.289 46.2241 181.021 54.29 181.021 53.992" stroke="black" stroke-width="3" stroke-linecap="round"/>
</svg>
