<svg width="91" height="74" viewBox="0 0 91 74" fill="none" xmlns="http://www.w3.org/2000/svg">
<mask id="mask0_1383_3958" style="mask-type:luminance" maskUnits="userSpaceOnUse" x="5" y="2" width="86" height="72">
<path d="M5.23633 2.59277H90.4898V73.0205H5.23633V2.59277Z" fill="white"/>
</mask>
<g mask="url(#mask0_1383_3958)">
<mask id="mask1_1383_3958" style="mask-type:luminance" maskUnits="userSpaceOnUse" x="-503" y="-212" width="797" height="473">
<path d="M293.172 -211.094H-502.906V260.964H293.172V-211.094Z" fill="black" fill-opacity="0.3"/>
</mask>
<g mask="url(#mask1_1383_3958)">
<mask id="mask2_1383_3958" style="mask-type:luminance" maskUnits="userSpaceOnUse" x="5" y="2" width="86" height="72">
<path d="M90.9272 2.59277H5.23828V73.4986H90.9272V2.59277Z" fill="white"/>
</mask>
<g mask="url(#mask2_1383_3958)">
<mask id="mask3_1383_3958" style="mask-type:luminance" maskUnits="userSpaceOnUse" x="5" y="2" width="86" height="72">
<path d="M5.25391 2.72852H90.4894V73.0196H5.25391V2.72852Z" fill="white"/>
</mask>
<g mask="url(#mask3_1383_3958)">
<path d="M87.8838 16.8794V14.0717H85.2205V11.264H50.6001V8.45817H47.9367V5.65047H45.2733V2.84277H23.9681V5.65047H21.3065V8.45817H18.6431V11.264H15.9797V25.3025H7.98955V28.1083H5.32617V36.5314H7.98955V44.9545H10.6529V53.3757H13.3163V61.7988H15.9797V70.22H18.6431V73.0277H87.8838V70.22H90.5454V16.8794H87.8838Z" fill="black"/>
</g>
</g>
</g>
</g>
<mask id="mask4_1383_3958" style="mask-type:luminance" maskUnits="userSpaceOnUse" x="0" y="0" width="86" height="71">
<path d="M0 0H85.3974V70.5852H0V0Z" fill="white"/>
</mask>
<g mask="url(#mask4_1383_3958)">
<path d="M82.5559 14.0727V11.265H79.8925V8.45923H45.2721V5.65153H42.6087V2.84383H39.9453V0.0361328H18.6419V2.84383H15.9785V5.65153H13.3151V8.45923H10.6517V22.4958H2.66338V25.3035H0V33.7247H2.66338V42.1478H5.32497V50.569H7.98835V58.9921H10.6517V67.4133H13.3151V70.221H82.5559V67.4133H85.2193V14.0727H82.5559Z" fill="#D1D3D4"/>
</g>
<path d="M5.1554 25.2616V28.0427H2.49023V25.2616H5.1554ZM10.4893 25.2616H7.82237V28.0427H10.4893V25.2616ZM15.8233 25.2616H13.1563V28.0427H15.8233V25.2616ZM21.1572 25.2616H18.4902V28.0427H21.1572V25.2616ZM26.4893 25.2616H23.8224V28.0427H26.4893V25.2616ZM31.8233 25.2616H29.1563V28.0427H31.8233V25.2616ZM37.1572 25.2616H34.4902V28.0427H37.1572V25.2616ZM42.4893 25.2616H39.8224V28.0427H42.4893V25.2616ZM47.8233 25.2616H45.1563V28.0427H47.8233V25.2616ZM53.1572 25.2616H50.4902V28.0427H53.1572V25.2616ZM58.4893 25.2616H55.8224V28.0427H58.4893V25.2616ZM63.8233 25.2616H61.1563V28.0427H63.8233V25.2616ZM13.1563 22.4787H15.8233V19.6957H13.1563V22.4787ZM18.4902 22.4787H21.1572V19.6957H18.4902V22.4787ZM23.8224 22.4787H26.4893V19.6957H23.8224V22.4787ZM29.1563 22.4787H31.8233V19.6957H29.1563V22.4787ZM34.4902 22.4787H37.1572V19.6957H34.4902V22.4787ZM39.8224 22.4787H42.4893V19.6957H39.8224V22.4787ZM45.1563 22.4787H47.8233V19.6957H45.1563V22.4787ZM50.4902 22.4787H53.1572V19.6957H50.4902V22.4787ZM55.8224 22.4787H58.4893V19.6957H55.8224V22.4787ZM61.1563 22.4787H63.8233V19.6957H61.1563V22.4787ZM66.4902 19.6957V22.4787H69.1572V19.6957H66.4902ZM71.8242 19.6957V22.4787H74.4893V19.6957H71.8242ZM77.1563 19.6957V22.4787H79.8233V19.6957H77.1563ZM15.8233 16.9128V19.6957H18.4902V16.9128H15.8233ZM21.1572 16.9128V19.6957H23.8224V16.9128H21.1572ZM26.4893 16.9128V19.6957H29.1563V16.9128H26.4893ZM31.8233 16.9128V19.6957H34.4902V16.9128H31.8233ZM37.1572 16.9128V19.6957H39.8224V16.9128H37.1572ZM42.4893 16.9128V19.6957H45.1563V16.9128H42.4893ZM47.8233 16.9128V19.6957H50.4902V16.9128H47.8233ZM53.1572 16.9128V19.6957H55.8224V16.9128H53.1572ZM58.4893 16.9128V19.6957H61.1563V16.9128H58.4893ZM63.8233 16.9128V19.6957H66.4902V16.9128H63.8233ZM69.1572 16.9128V19.6957H71.8242V16.9128H69.1572ZM74.4893 16.9128V19.6957H77.1563V16.9128H74.4893ZM79.8233 16.9128V14.1299H77.1563V16.9128H79.8233ZM82.4902 19.6957V16.9128H79.8233V19.6957H82.4902ZM69.1572 22.4787V25.2616H71.8242V22.4787H69.1572ZM74.4893 25.2616H77.1563V22.4787H74.4893V25.2616ZM74.4893 25.2616H71.8242V28.0427H74.4893V25.2616ZM77.1563 28.0427H79.8233V25.2616H77.1563V28.0427ZM69.1572 28.0427V30.8256H71.8242V28.0427H69.1572ZM74.4893 30.8256H77.1563V28.0427H74.4893V30.8256ZM71.8242 30.8256V33.6085H74.4893V30.8256H71.8242ZM77.1563 33.6085H79.8233V30.8256H77.1563V33.6085ZM71.8242 36.3915V39.1744H74.4893V36.3915H71.8242ZM77.1563 33.6085H74.4893V36.3915H77.1563V33.6085ZM77.1563 39.1744H79.8233V36.3915H77.1563V39.1744ZM82.4902 36.3915V33.6085H79.8233V36.3915H82.4902ZM82.4902 30.8256V28.0427H79.8233V30.8256H82.4902ZM82.4902 25.2616V22.4787H79.8233V25.2616H82.4902ZM74.4893 39.1744V41.9573H77.1563V39.1744H74.4893ZM77.1563 44.7403H79.8233V41.9573H77.1563V44.7403ZM77.1563 50.3043H79.8233V47.5213H77.1563V50.3043ZM82.4902 41.9573V39.1744H79.8233V41.9573H82.4902ZM74.4893 44.7403V47.5213H77.1563V44.7403H74.4893ZM82.4902 47.5213V44.7403H79.8233V47.5213H82.4902ZM77.1563 55.8701H79.8233V53.0872H77.1563V55.8701ZM82.4902 58.6531V55.8701H79.8233V58.6531H82.4902ZM79.8233 64.2171H82.4902V61.436H79.8233V64.2171ZM82.4902 53.0872V50.3043H79.8233V53.0872H82.4902ZM13.1563 14.1299V16.9128H15.8233V14.1299H13.1563ZM18.4902 14.1299V16.9128H21.1572V14.1299H18.4902ZM23.8224 14.1299V16.9128H26.4893V14.1299H23.8224ZM29.1563 14.1299V16.9128H31.8233V14.1299H29.1563ZM34.4902 14.1299V16.9128H37.1572V14.1299H34.4902ZM39.8224 14.1299V16.9128H42.4893V14.1299H39.8224ZM47.8233 16.9128V14.1299H45.1563V16.9128H47.8233ZM53.1572 16.9128V14.1299H50.4902V16.9128H53.1572ZM58.4893 16.9128V14.1299H55.8224V16.9128H58.4893ZM63.8233 16.9128V14.1299H61.1563V16.9128H63.8233ZM69.1572 16.9128V14.1299H66.4902V16.9128H69.1572ZM74.4893 16.9128V14.1299H71.8242V16.9128H74.4893ZM18.4902 11.3469H15.8233V14.1299H18.4902V11.3469ZM18.4902 5.78294H15.8233V8.56587H18.4902V5.78294ZM21.1572 11.3469V14.1299H23.8224V11.3469H21.1572ZM26.4893 11.3469V14.1299H29.1563V11.3469H26.4893ZM31.8233 11.3469V14.1299H34.4902V11.3469H31.8233ZM39.8224 14.1299V11.3469H37.1572V14.1299H39.8224ZM21.1572 8.56587H18.4902V11.3469H21.1572V8.56587ZM13.1563 8.56587V11.3469H15.8233V8.56587H13.1563ZM26.4893 11.3469V8.56587H23.8224V11.3469H26.4893ZM31.8233 11.3469V8.56587H29.1563V11.3469H31.8233ZM37.1572 11.3469V8.56587H34.4902V11.3469H37.1572ZM23.8224 8.56587V5.78294H21.1572V8.56587H23.8224ZM29.1563 8.56587V5.78294H26.4893V8.56587H29.1563ZM34.4902 8.56587V5.78294H31.8233V8.56587H34.4902ZM21.1572 3H18.4902V5.78294H21.1572V3ZM26.4893 3H23.8224V5.78294H26.4893V3ZM31.8233 3H29.1563V5.78294H31.8233V3ZM39.8224 8.56587V5.78294H37.1572V8.56587H39.8224ZM42.4893 11.3469V8.56587H39.8224V11.3469H42.4893ZM37.1572 3H34.4902V5.78294H37.1572V3ZM45.1563 14.1299V11.3469H42.4893V14.1299H45.1563ZM50.4902 11.3469H47.8233V14.1299H50.4902V11.3469ZM55.8224 11.3469H53.1572V14.1299H55.8224V11.3469ZM61.1563 11.3469H58.4893V14.1299H61.1563V11.3469ZM66.4902 11.3469H63.8233V14.1299H66.4902V11.3469ZM71.8242 11.3469H69.1572V14.1299H71.8242V11.3469ZM77.1563 11.3469H74.4893V14.1299H77.1563V11.3469ZM66.4902 30.8256V28.0427H63.8233V30.8256H66.4902ZM61.1563 30.8256V28.0427H58.4893V30.8256H61.1563ZM55.8224 30.8256V28.0427H53.1572V30.8256H55.8224ZM50.4902 30.8256V28.0427H47.8233V30.8256H50.4902ZM45.1563 30.8256V28.0427H42.4893V30.8256H45.1563ZM39.8224 30.8256V28.0427H37.1572V30.8256H39.8224ZM34.4902 30.8256V28.0427H31.8233V30.8256H34.4902ZM29.1563 30.8256V28.0427H26.4893V30.8256H29.1563ZM23.8224 30.8256V28.0427H21.1572V30.8256H23.8224ZM18.4902 30.8256V28.0427H15.8233V30.8256H18.4902ZM13.1563 30.8256V28.0427H10.4893V30.8256H13.1563ZM7.82237 28.0427H5.1554V30.8256H7.82237V28.0427ZM2.49023 30.8256V33.6085H5.1554V30.8256H2.49023ZM7.82237 30.8256V33.6085H10.4893V30.8256H7.82237ZM15.8233 33.6085V30.8256H13.1563V33.6085H15.8233ZM21.1572 33.6085V30.8256H18.4902V33.6085H21.1572ZM26.4893 33.6085V30.8256H23.8224V33.6085H26.4893ZM31.8233 33.6085V30.8256H29.1563V33.6085H31.8233ZM37.1572 33.6085V30.8256H34.4902V33.6085H37.1572ZM42.4893 33.6085V30.8256H39.8224V33.6085H42.4893ZM47.8233 33.6085V30.8256H45.1563V33.6085H47.8233ZM53.1572 33.6085V30.8256H50.4902V33.6085H53.1572ZM58.4893 33.6085V30.8256H55.8224V33.6085H58.4893ZM61.1563 33.6085H63.8233V30.8256H61.1563V33.6085ZM5.1554 33.6085V36.3915H7.82237V33.6085H5.1554ZM13.1563 33.6085H10.4893V36.3915H13.1563V33.6085ZM18.4902 36.3915V33.6085H15.8233V36.3915H18.4902ZM23.8224 36.3915V33.6085H21.1572V36.3915H23.8224ZM29.1563 36.3915V33.6085H26.4893V36.3915H29.1563ZM34.4902 36.3915V33.6085H31.8233V36.3915H34.4902ZM39.8224 36.3915V33.6085H37.1572V36.3915H39.8224ZM45.1563 36.3915V33.6085H42.4893V36.3915H45.1563ZM50.4902 36.3915V33.6085H47.8233V36.3915H50.4902ZM55.8224 36.3915V33.6085H53.1572V36.3915H55.8224ZM58.4893 36.3915H61.1563V33.6085H58.4893V36.3915ZM66.4902 36.3915V33.6085H63.8233V36.3915H66.4902ZM10.4893 36.3915H7.82237V39.1744H10.4893V36.3915ZM15.8233 36.3915H13.1563V39.1744H15.8233V36.3915ZM21.1572 39.1744V36.3915H18.4902V39.1744H21.1572ZM26.4893 39.1744V36.3915H23.8224V39.1744H26.4893ZM31.8233 39.1744V36.3915H29.1563V39.1744H31.8233ZM37.1572 39.1744V36.3915H34.4902V39.1744H37.1572ZM42.4893 39.1744V36.3915H39.8224V39.1744H42.4893ZM47.8233 39.1744V36.3915H45.1563V39.1744H47.8233ZM53.1572 39.1744V36.3915H50.4902V39.1744H53.1572ZM55.8224 39.1744H58.4893V36.3915H55.8224V39.1744ZM63.8233 39.1744V36.3915H61.1563V39.1744H63.8233ZM69.1572 39.1744V36.3915H66.4902V39.1744H69.1572ZM5.1554 39.1744V41.9573H7.82237V39.1744H5.1554ZM13.1563 39.1744H10.4893V41.9573H13.1563V39.1744ZM15.8233 39.1744V41.9573H18.4902V39.1744H15.8233ZM21.1572 39.1744V41.9573H23.8224V39.1744H21.1572ZM29.1563 41.9573V39.1744H26.4893V41.9573H29.1563ZM34.4902 41.9573V39.1744H31.8233V41.9573H34.4902ZM39.8224 41.9573V39.1744H37.1572V41.9573H39.8224ZM45.1563 41.9573V39.1744H42.4893V41.9573H45.1563ZM50.4902 41.9573V39.1744H47.8233V41.9573H50.4902ZM53.1572 41.9573H55.8224V39.1744H53.1572V41.9573ZM61.1563 41.9573V39.1744H58.4893V41.9573H61.1563ZM63.8233 41.9573H66.4902V39.1744H63.8233V41.9573ZM10.4893 41.9573H7.82237V44.7403H10.4893V41.9573ZM13.1563 41.9573V44.7403H15.8233V41.9573H13.1563ZM18.4902 41.9573V44.7403H21.1572V41.9573H18.4902ZM26.4893 41.9573H23.8224V44.7403H26.4893V41.9573ZM31.8233 44.7403V41.9573H29.1563V44.7403H31.8233ZM37.1572 44.7403V41.9573H34.4902V44.7403H37.1572ZM42.4893 44.7403V41.9573H39.8224V44.7403H42.4893ZM47.8233 44.7403V41.9573H45.1563V44.7403H47.8233ZM50.4902 44.7403H53.1572V41.9573H50.4902V44.7403ZM58.4893 44.7403V41.9573H55.8224V44.7403H58.4893ZM61.1563 44.7403H63.8233V41.9573H61.1563V44.7403ZM69.1572 44.7403V41.9573H66.4902V44.7403H69.1572ZM5.1554 44.7403V47.5213H7.82237V44.7403H5.1554ZM10.4893 44.7403V47.5213H13.1563V44.7403H10.4893ZM15.8233 44.7403V47.5213H18.4902V44.7403H15.8233ZM23.8224 44.7403H21.1572V47.5213H23.8224V44.7403ZM29.1563 44.7403H26.4893V47.5213H29.1563V44.7403ZM31.8233 44.7403V47.5213H34.4902V44.7403H31.8233ZM37.1572 44.7403V47.5213H39.8224V44.7403H37.1572ZM42.4893 44.7403V47.5213H45.1563V44.7403H42.4893ZM47.8233 47.5213H50.4902V44.7403H47.8233V47.5213ZM55.8224 47.5213V44.7403H53.1572V47.5213H55.8224ZM58.4893 47.5213H61.1563V44.7403H58.4893V47.5213ZM66.4902 47.5213V44.7403H63.8233V47.5213H66.4902ZM71.8242 47.5213V44.7403H69.1572V47.5213H71.8242ZM7.82237 47.5213V50.3043H10.4893V47.5213H7.82237ZM13.1563 47.5213V50.3043H15.8233V47.5213H13.1563ZM21.1572 47.5213H18.4902V50.3043H21.1572V47.5213ZM26.4893 47.5213H23.8224V50.3043H26.4893V47.5213ZM29.1563 47.5213V50.3043H31.8233V47.5213H29.1563ZM34.4902 47.5213V50.3043H37.1572V47.5213H34.4902ZM39.8224 47.5213V50.3043H42.4893V47.5213H39.8224ZM45.1563 47.5213V50.3043H47.8233V47.5213H45.1563ZM50.4902 47.5213V50.3043H53.1572V47.5213H50.4902ZM55.8224 50.3043H58.4893V47.5213H55.8224V50.3043ZM63.8233 50.3043V47.5213H61.1563V50.3043H63.8233ZM66.4902 50.3043H69.1572V47.5213H66.4902V50.3043ZM10.4893 50.3043V53.0872H13.1563V50.3043H10.4893ZM18.4902 50.3043H15.8233V53.0872H18.4902V50.3043ZM23.8224 50.3043H21.1572V53.0872H23.8224V50.3043ZM26.4893 50.3043V53.0872H29.1563V50.3043H26.4893ZM31.8233 50.3043V53.0872H34.4902V50.3043H31.8233ZM37.1572 50.3043V53.0872H39.8224V50.3043H37.1572ZM42.4893 50.3043V53.0872H45.1563V50.3043H42.4893ZM47.8233 50.3043V53.0872H50.4902V50.3043H47.8233ZM53.1572 50.3043V53.0872H55.8224V50.3043H53.1572ZM61.1563 53.0872V50.3043H58.4893V53.0872H61.1563ZM63.8233 53.0872H66.4902V50.3043H63.8233V53.0872ZM71.8242 53.0872V50.3043H69.1572V53.0872H71.8242ZM15.8233 53.0872H13.1563V55.8701H15.8233V53.0872ZM21.1572 53.0872H18.4902V55.8701H21.1572V53.0872ZM23.8224 53.0872V55.8701H26.4893V53.0872H23.8224ZM29.1563 53.0872V55.8701H31.8233V53.0872H29.1563ZM34.4902 53.0872V55.8701H37.1572V53.0872H34.4902ZM39.8224 53.0872V55.8701H42.4893V53.0872H39.8224ZM45.1563 53.0872V55.8701H47.8233V53.0872H45.1563ZM50.4902 53.0872V55.8701H53.1572V53.0872H50.4902ZM55.8224 53.0872V55.8701H58.4893V53.0872H55.8224ZM61.1563 55.8701H63.8233V53.0872H61.1563V55.8701ZM69.1572 55.8701V53.0872H66.4902V55.8701H69.1572ZM74.4893 55.8701V53.0872H71.8242V55.8701H74.4893ZM10.4893 55.8701V58.6531H13.1563V55.8701H10.4893ZM18.4902 55.8701H15.8233V58.6531H18.4902V55.8701ZM21.1572 55.8701V58.6531H23.8224V55.8701H21.1572ZM26.4893 55.8701V58.6531H29.1563V55.8701H26.4893ZM31.8233 55.8701V58.6531H34.4902V55.8701H31.8233ZM37.1572 55.8701V58.6531H39.8224V55.8701H37.1572ZM42.4893 55.8701V58.6531H45.1563V55.8701H42.4893ZM47.8233 55.8701V58.6531H50.4902V55.8701H47.8233ZM53.1572 55.8701V58.6531H55.8224V55.8701H53.1572ZM58.4893 55.8701V58.6531H61.1563V55.8701H58.4893ZM63.8233 55.8701V58.6531H66.4902V55.8701H63.8233ZM69.1572 58.6531H71.8242V55.8701H69.1572V58.6531ZM15.8233 58.6531H13.1563V61.436H15.8233V58.6531ZM18.4902 58.6531V61.436H21.1572V58.6531H18.4902ZM23.8224 58.6531V61.436H26.4893V58.6531H23.8224ZM29.1563 58.6531V61.436H31.8233V58.6531H29.1563ZM34.4902 58.6531V61.436H37.1572V58.6531H34.4902ZM39.8224 58.6531V61.436H42.4893V58.6531H39.8224ZM45.1563 58.6531V61.436H47.8233V58.6531H45.1563ZM50.4902 58.6531V61.436H53.1572V58.6531H50.4902ZM55.8224 58.6531V61.436H58.4893V58.6531H55.8224ZM61.1563 58.6531V61.436H63.8233V58.6531H61.1563ZM66.4902 58.6531V61.436H69.1572V58.6531H66.4902ZM74.4893 61.436V58.6531H71.8242V61.436H74.4893ZM10.4893 61.436V64.2171H13.1563V61.436H10.4893ZM15.8233 61.436V64.2171H18.4902V61.436H15.8233ZM21.1572 61.436V64.2171H23.8224V61.436H21.1572ZM26.4893 61.436V64.2171H29.1563V61.436H26.4893ZM31.8233 61.436V64.2171H34.4902V61.436H31.8233ZM37.1572 61.436V64.2171H39.8224V61.436H37.1572ZM42.4893 61.436V64.2171H45.1563V61.436H42.4893ZM47.8233 61.436V64.2171H50.4902V61.436H47.8233ZM53.1572 61.436V64.2171H55.8224V61.436H53.1572ZM58.4893 61.436V64.2171H61.1563V61.436H58.4893ZM63.8233 61.436V64.2171H66.4902V61.436H63.8233ZM69.1572 61.436V64.2171H71.8242V61.436H69.1572ZM74.4893 64.2171H77.1563V61.436H74.4893V64.2171ZM13.1563 67H15.8233V64.2171H13.1563V67ZM18.4902 67H21.1572V64.2171H18.4902V67ZM23.8224 67H26.4893V64.2171H23.8224V67ZM29.1563 67H31.8233V64.2171H29.1563V67ZM34.4902 67H37.1572V64.2171H34.4902V67ZM39.8224 67H42.4893V64.2171H39.8224V67ZM45.1563 67H47.8233V64.2171H45.1563V67ZM50.4902 67H53.1572V64.2171H50.4902V67ZM55.8224 67H58.4893V64.2171H55.8224V67ZM61.1563 67H63.8233V64.2171H61.1563V67ZM66.4902 67H69.1572V64.2171H66.4902V67ZM71.8242 67H74.4893V64.2171H71.8242V67Z" fill="#AF52DE"/>
<mask id="mask5_1383_3958" style="mask-type:luminance" maskUnits="userSpaceOnUse" x="0" y="0" width="86" height="71">
<path d="M0 0H85.3974V70.5852H0V0Z" fill="white"/>
</mask>
<g mask="url(#mask5_1383_3958)">
<path d="M21.3053 2.84383H18.6419V0.0361328H39.9453V2.84383H21.3053ZM18.6419 2.84383H15.9785V5.65153H18.6419V2.84383ZM42.6087 5.65153V2.84383H39.9453V5.65153H42.6087ZM15.9785 5.65153H13.3151V8.45923H15.9785V5.65153ZM45.2721 8.45923V5.65153H42.6087V8.45923H45.2721ZM47.9355 11.265H79.8925V8.45923H45.2721V11.265H47.9355ZM82.5559 14.0727V11.265H79.8925V14.0727H82.5559ZM82.5559 14.0727V64.6056H79.8925V58.9921H77.2291V67.4133H13.3151V70.221H82.5559V67.4133H85.2193V14.0727H82.5559ZM7.98835 25.3035H66.5774V22.4958H13.3151V8.45923H10.6517V22.4958H2.66338V25.3035H7.98835ZM2.66338 28.1093V25.3035H0V33.7247H2.66338V28.1093ZM69.2408 28.1093V25.3035H66.5774V33.7247H69.2408V28.1093ZM5.32497 36.5324V33.7247H2.66338V42.1478H5.32497V36.5324ZM71.9041 36.5324V33.7247H69.2408V42.1478H71.9041V36.5324ZM7.98835 44.9555V42.1478H5.32497V50.569H7.98835V44.9555ZM74.5657 44.9555V42.1478H71.9041V50.569H74.5657V44.9555ZM10.6517 53.3767V50.569H7.98835V58.9921H10.6517V53.3767ZM77.2291 53.3767V50.569H74.5657V58.9921H77.2291V53.3767ZM13.3151 61.7998V58.9921H10.6517V67.4133H13.3151V61.7998Z" fill="black"/>
</g>
<mask id="mask6_1383_3958" style="mask-type:luminance" maskUnits="userSpaceOnUse" x="2" y="19" width="82" height="49">
<path d="M83.094 19.1055H2.47266V67.6711H83.094V19.1055Z" fill="white"/>
</mask>
<g mask="url(#mask6_1383_3958)">
<mask id="mask7_1383_3958" style="mask-type:luminance" maskUnits="userSpaceOnUse" x="2" y="19" width="81" height="49">
<path d="M2.49219 19.5918H82.6348V67.4194H2.49219V19.5918Z" fill="white"/>
</mask>
<g mask="url(#mask7_1383_3958)">
<path d="M69.2414 22.4962V25.3039H66.5781V22.4962H69.2414ZM71.9048 28.1097V25.3039H69.2414V33.7251H71.9048V28.1097ZM74.5664 36.5328V33.7251H71.9048V42.1482H74.5664V36.5328ZM77.2298 44.9559V42.1482H74.5664V50.5694H77.2298V44.9559ZM79.8932 53.3771V50.5694H77.2298V58.9925H79.8932V53.3771ZM79.8932 58.9925V64.606H82.5565V58.9925H79.8932ZM13.3158 19.6885V22.4962H66.5781V19.6885H13.3158ZM2.66406 25.3039V33.7251H5.32565V25.3039H2.66406ZM5.32565 33.7251V42.1482H7.98903V33.7251H5.32565ZM7.98903 42.1482V50.5694H10.6524V42.1482H7.98903ZM10.6524 50.5694V58.9925H13.3158V50.5694H10.6524ZM15.9792 58.9925H13.3158V67.4137H74.5664V64.606H15.9792V58.9925Z" fill="black"/>
</g>
</g>
</svg>
