<svg width="75" height="76" viewBox="0 0 75 76" fill="none" xmlns="http://www.w3.org/2000/svg">
<path d="M37.4999 0C16.7885 0 0 17.0014 0 37.9682C0 58.9352 16.7885 75.9375 37.4999 75.9375C58.2106 75.9375 75 58.9381 75 37.9685C75 16.9985 58.2106 0 37.4999 0ZM37.4999 69.6102C20.2403 69.6102 6.24919 55.4441 6.24919 37.9685C6.24919 20.4934 20.2403 6.32733 37.4999 6.32733C54.7591 6.32733 68.7496 20.5023 68.7496 37.9685C68.7502 55.4343 54.7497 69.6093 37.4999 69.6093" fill="#35A7C1"/>
<path d="M46.6131 37.9685C46.6131 29.015 43.1431 20.8883 37.5002 14.8721C31.8567 20.8827 28.375 29.0248 28.375 37.9685C28.375 42.0606 29.125 45.984 30.4584 49.6198C28.5267 52.4727 27.1002 56.4689 26.4746 61.0646C28.4674 58.6767 30.9165 56.9267 33.6323 56.0636C34.7691 57.8353 36.0491 59.5229 37.5075 61.0649C38.9509 59.5246 40.2477 57.8501 41.381 56.0636C44.0974 56.9074 46.5474 58.6791 48.5475 61.0839C47.921 56.4879 46.4951 52.4914 44.5637 49.6388C45.8786 45.9843 46.6249 42.0606 46.6249 37.9685M37.5002 38.0529C35.2278 38.0529 33.3858 36.1879 33.3858 33.8873C33.3858 31.5871 35.2278 29.7224 37.5002 29.7224C39.7723 29.7224 41.6254 31.5788 41.6254 33.8992C41.614 36.1543 39.7917 38.0529 37.5002 38.0529Z" fill="#35A7C1"/>
</svg>
